<svg
    width="26"
    height="11"
    viewBox="0 0 26 11"
    fill="none"
    xmlns="http://www.w3.org/2000/svg"
    role="img"
    aria-labelledby="icon_eye_closed"
>
    <title id="icon_eye">Icon of a closed eye</title>
    <path
        fill-rule="evenodd"
        clip-rule="evenodd"
        d="M0.279371 2.24837C0.268813 2.23763 0.260896 2.22958 0.255664 2.22435C0.08686 2.03228 -0.00425335 1.78417 0.000124874 1.5285C0.0045031 1.27283 0.104058 1.02799 0.279338 0.841807C0.286849 0.834443 0.29928 0.821893 0.31652 0.804488C0.366703 0.753827 0.457635 0.662029 0.586608 0.537223C0.903253 0.230809 1.40083 0.233953 1.73425 0.522019C3.79989 2.30667 7.85748 5.38211 12.6098 5.38211C17.3714 5.38211 21.4214 2.29595 23.4849 0.511955C23.8183 0.223718 24.3166 0.220661 24.6315 0.528935C24.8077 0.701348 24.9122 0.812541 24.9379 0.841809C25.312 1.23953 25.312 1.85031 24.9379 2.22436C24.9343 2.22793 24.9295 2.23279 24.9234 2.2389C24.7529 2.41058 23.6053 3.56622 21.813 4.819L22.8972 6.73184C23.1624 7.20531 23.0061 7.81609 22.5279 8.08124C22.0497 8.34639 21.4389 8.19014 21.1738 7.71193L20.1132 5.87958C19.4503 6.2773 18.707 6.62294 17.94 6.94016L18.4418 8.853C18.5744 9.3833 18.2572 9.93726 17.7269 10.0698C17.1966 10.2024 16.6426 9.88518 16.5101 9.35489L16.0318 7.57936C15.2319 7.78595 14.4164 7.92688 13.5935 8.00075L13.5935 9.7526C13.5935 9.88504 13.5674 10.0162 13.5167 10.1385C13.466 10.2609 13.3917 10.3721 13.2981 10.4657C13.2044 10.5594 13.0932 10.6337 12.9709 10.6843C12.8485 10.735 12.7174 10.7611 12.585 10.7611C12.4525 10.7611 12.3214 10.735 12.199 10.6843C12.0767 10.6337 11.9655 10.5594 11.8718 10.4657C11.7782 10.3721 11.7039 10.2609 11.6532 10.1385C11.6025 10.0162 11.5765 9.88504 11.5765 9.7526L11.5765 8.00075C10.7526 7.93401 9.93651 7.79297 9.13806 7.57936L8.68826 9.35489C8.55568 9.88518 7.99698 10.2024 7.46669 10.0698C6.9364 9.93726 6.61917 9.37856 6.75174 8.84827L7.25363 6.94016C6.50864 6.63045 5.78291 6.27629 5.08037 5.87958L4.01979 7.71193C3.75464 8.1854 3.13913 8.34638 2.66565 8.08124C2.19218 7.81609 2.0312 7.20531 2.29635 6.7271L3.38534 4.819C1.62253 3.61381 0.479023 2.45133 0.279371 2.24837Z"
        fill="#f0ffff"
    />
</svg>
