<svg
    width="31"
    height="19"
    viewBox="0 0 31 19"
    fill="none"
    xmlns="http://www.w3.org/2000/svg"
    role="img"
    aria-labelledby="icon_eye"
>
    <title id="icon_eye">Icon of an open eye</title>
    <path
        d="M2.38647 10.7391C6.16506 7.15941 19.6884 -1.71661e-05 27.4445 11.3357C22.6715 14.9155 13.1256 22.6715 2.38647 10.7391Z"
        fill="#2D1A83"
    />
    <path
        d="M29.7865 10.2688C29.6623 10.1445 28.2724 8.68688 26.0578 7.16711L27.3515 4.89029C27.6679 4.31967 27.4815 3.59651 26.9109 3.28013C26.3402 2.96375 25.6114 3.15018 25.295 3.7208L24.0295 5.90158C23.1889 5.43272 22.3232 5.01024 21.4363 4.63605L22.0352 2.35923C22.1934 1.72646 21.8148 1.06545 21.1821 0.90726C20.5493 0.749069 19.8883 1.1276 19.7301 1.76036L19.1877 3.87899C18.2725 3.62476 17.2894 3.46657 16.2782 3.37052V1.28579C16.2894 1.1212 16.2668 0.956053 16.2116 0.800596C16.1563 0.645138 16.0698 0.502695 15.9572 0.382114C15.8446 0.261533 15.7084 0.165388 15.5571 0.099654C15.4058 0.0339197 15.2426 0 15.0776 0C14.9126 0 14.7494 0.0339197 14.5981 0.099654C14.4468 0.165388 14.3106 0.261533 14.198 0.382114C14.0854 0.502695 13.9988 0.645138 13.9436 0.800596C13.8884 0.956053 13.8657 1.1212 13.877 1.28579V3.37052C12.893 3.46009 11.918 3.63015 10.9618 3.87899L10.3968 1.76036C10.2386 1.1276 9.57197 0.749069 8.93921 0.90726C8.30645 1.06545 7.92792 1.72646 8.08611 2.35923L8.68497 4.63605C7.76973 5.02023 6.88272 5.42701 6.09177 5.90158L4.82624 3.7208C4.50986 3.15018 3.78105 2.96375 3.21043 3.28013C2.93968 3.43634 2.74151 3.69309 2.659 3.99459C2.57648 4.29609 2.61629 4.61797 2.76976 4.89029L4.06918 7.16711C1.85451 8.72077 0.459037 10.1445 0.334744 10.2688C-0.111581 10.7151 -0.111581 11.4383 0.334744 11.9128C0.58898 12.201 6.97877 18.8733 15.0465 18.8733C23.1143 18.8733 29.4702 12.201 29.7583 11.9128C29.9682 11.6922 30.0877 11.4008 30.0929 11.0963C30.0981 10.7918 29.9888 10.4965 29.7865 10.2688ZM15.0748 15.1445C14.2736 15.1445 13.4904 14.9069 12.8243 14.4618C12.1581 14.0167 11.6389 13.384 11.3323 12.6438C11.0257 11.9036 10.9455 11.0891 11.1018 10.3034C11.2581 9.51758 11.6439 8.79579 12.2104 8.22928C12.7769 7.66276 13.4987 7.27695 14.2845 7.12065C15.0703 6.96435 15.8848 7.04457 16.625 7.35117C17.3651 7.65777 17.9978 8.17697 18.4429 8.84312C18.888 9.50928 19.1256 10.2925 19.1256 11.0936C19.1271 11.626 19.0233 12.1534 18.8203 12.6456C18.6172 13.1377 18.3189 13.5849 17.9425 13.9613C17.566 14.3378 17.1189 14.6361 16.6267 14.8392C16.1346 15.0422 15.6071 15.146 15.0748 15.1445ZM10.3629 6.56824C9.18601 7.78068 8.52773 9.40392 8.52773 11.0936C8.52773 12.7834 9.18601 14.4066 10.3629 15.619C6.97877 14.4157 4.28952 12.2631 2.96185 11.0936C4.28952 9.92416 6.97877 7.77163 10.3629 6.56824ZM19.7923 15.619C20.9675 14.4054 21.6258 12.783 21.6284 11.0936C21.633 9.40286 20.9736 7.77785 19.7923 6.56824C23.1764 7.77163 25.8657 9.92416 27.1933 11.0936C25.8657 12.2631 23.1764 14.4157 19.7923 15.619Z"
        fill="#F0FFFF"
    />
    <circle cx="15.2053" cy="11.0818" r="4.38117" fill="#6675F6" />
</svg>
