<svg id="afe35dba-5e4b-4530-8ca3-89eee9040160" data-name="ae3c71a2-d795-45c7-9c00-46a2ce1b2f0e" xmlns="http://www.w3.org/2000/svg" width="1718.5" height="542.4" viewBox="0 0 1718.5 542.4">
  <defs>
    <style>
      .a701d822-5a2c-46f5-9346-22b23e0d9d8f, .ab438603-daf9-4663-96bc-ea4a03c1af14, .ac687107-5380-4c93-9096-c32f41b6dbaf, .afd33553-daf2-46c7-9630-a3948fb60a29, .b5291981-8b86-46a2-868f-3d2b5b65bd2d, .b59bdc7d-ac1a-4b84-b27d-2e8ac799a777, .b91a1d5b-decf-43ff-ab8b-3a95ca8b78c6, .becf325e-508c-4a5b-b69f-8d87adaef1ae, .e38a0b98-690f-4f1a-acaf-7365005bb673, .ede6c074-c028-45b9-99c0-c425456e5058, .f39e566c-4dac-435d-8853-7a9e496b1569, .f3a2034c-7a12-48ab-bb77-01fffd648dde, .f6d1316c-de1d-4384-be9d-8c25a49a0103 {
        fill: none;
      }

      .a701d822-5a2c-46f5-9346-22b23e0d9d8f, .ac38934c-58a8-4537-8595-8490fd9d62b3, .ac687107-5380-4c93-9096-c32f41b6dbaf, .b5291981-8b86-46a2-868f-3d2b5b65bd2d, .b59bdc7d-ac1a-4b84-b27d-2e8ac799a777, .b91a1d5b-decf-43ff-ab8b-3a95ca8b78c6, .becf325e-508c-4a5b-b69f-8d87adaef1ae, .ede6c074-c028-45b9-99c0-c425456e5058, .f39e566c-4dac-435d-8853-7a9e496b1569, .f3a2034c-7a12-48ab-bb77-01fffd648dde {
        stroke: #6018c8;
      }

      .b5291981-8b86-46a2-868f-3d2b5b65bd2d, .b59bdc7d-ac1a-4b84-b27d-2e8ac799a777, .f6d1316c-de1d-4384-be9d-8c25a49a0103 {
        stroke-linecap: round;
      }

      .b5291981-8b86-46a2-868f-3d2b5b65bd2d {
        stroke-linejoin: round;
      }

      .b5291981-8b86-46a2-868f-3d2b5b65bd2d, .e38a0b98-690f-4f1a-acaf-7365005bb673 {
        stroke-width: 5px;
      }

      .ab438603-daf9-4663-96bc-ea4a03c1af14, .afd33553-daf2-46c7-9630-a3948fb60a29, .b2bfc8b7-0e2d-415e-a93c-f0ce38c00411, .e38a0b98-690f-4f1a-acaf-7365005bb673, .f6d1316c-de1d-4384-be9d-8c25a49a0103, .f93e953d-58be-4d95-8de7-e74f792c6ad6 {
        stroke: #f050f8;
      }

      .a701d822-5a2c-46f5-9346-22b23e0d9d8f, .ab438603-daf9-4663-96bc-ea4a03c1af14, .ac38934c-58a8-4537-8595-8490fd9d62b3, .ac687107-5380-4c93-9096-c32f41b6dbaf, .afd33553-daf2-46c7-9630-a3948fb60a29, .b2bfc8b7-0e2d-415e-a93c-f0ce38c00411, .b59bdc7d-ac1a-4b84-b27d-2e8ac799a777, .b91a1d5b-decf-43ff-ab8b-3a95ca8b78c6, .becf325e-508c-4a5b-b69f-8d87adaef1ae, .e38a0b98-690f-4f1a-acaf-7365005bb673, .ede6c074-c028-45b9-99c0-c425456e5058, .f39e566c-4dac-435d-8853-7a9e496b1569, .f3a2034c-7a12-48ab-bb77-01fffd648dde, .f6d1316c-de1d-4384-be9d-8c25a49a0103, .f93e953d-58be-4d95-8de7-e74f792c6ad6 {
        stroke-miterlimit: 10;
      }

      .f83bfea9-9a27-4bdc-8e44-e99d159880a6 {
        fill: #ed4ff2;
      }

      .ac38934c-58a8-4537-8595-8490fd9d62b3, .f93e953d-58be-4d95-8de7-e74f792c6ad6, .ffe4c9aa-3b3b-420f-8de4-9965b9d8f307 {
        fill: #6018c8;
      }

      .f6d1316c-de1d-4384-be9d-8c25a49a0103 {
        stroke-width: 2.23px;
      }

      .abcb9b7e-b245-467d-b26e-2baad2cf5426, .b2bfc8b7-0e2d-415e-a93c-f0ce38c00411 {
        fill: #f050f8;
      }

      .bf87109f-7cb0-4457-9cb2-34104a80f0ba {
        fill: #260a50;
      }

      .b8e351ea-cc0f-4643-9068-4966b57ef29b {
        fill: #4d13a0;
      }

      .f93e953d-58be-4d95-8de7-e74f792c6ad6 {
        stroke-width: 2.94px;
      }

      .b59bdc7d-ac1a-4b84-b27d-2e8ac799a777 {
        stroke-width: 3px;
      }

      .f39e566c-4dac-435d-8853-7a9e496b1569 {
        stroke-width: 1.61px;
      }

      .becf325e-508c-4a5b-b69f-8d87adaef1ae {
        stroke-width: 1.18px;
      }

      .f3a2034c-7a12-48ab-bb77-01fffd648dde {
        stroke-width: 1.62px;
      }

      .ac687107-5380-4c93-9096-c32f41b6dbaf {
        stroke-width: 1.18px;
      }

      .ab438603-daf9-4663-96bc-ea4a03c1af14 {
        stroke-width: 2.69px;
      }

      .b91a1d5b-decf-43ff-ab8b-3a95ca8b78c6 {
        stroke-width: 2px;
      }

      .ede6c074-c028-45b9-99c0-c425456e5058 {
        stroke-width: 1.94px;
      }

      .a701d822-5a2c-46f5-9346-22b23e0d9d8f {
        stroke-width: 2.03px;
      }

      .ac38934c-58a8-4537-8595-8490fd9d62b3, .b2bfc8b7-0e2d-415e-a93c-f0ce38c00411 {
        stroke-width: 1.05px;
      }

      .a8f7bb04-ad30-410a-9d47-8001c4790524 {
        fill: #12c093;
      }

      .afd33553-daf2-46c7-9630-a3948fb60a29 {
        stroke-width: 0.87px;
      }
    </style>
  </defs>
  <path class="b5291981-8b86-46a2-868f-3d2b5b65bd2d" d="M662,166.9h19a8.2,8.2,0,0,0,8.1-8.2V149a8.1,8.1,0,0,1,8.1-8.1h2.2a8.1,8.1,0,0,1,8.1,8.1v43.3a8.1,8.1,0,0,0,8.1,8.1h1.6a8.2,8.2,0,0,0,8.2-8.1V149a8.1,8.1,0,0,1,8.1-8.1h.5a8.1,8.1,0,0,1,8.1,8.1v43.3a8.2,8.2,0,0,0,8.2,8.1h1a8.2,8.2,0,0,0,8.2-8.1V149a8.1,8.1,0,0,1,8.1-8.1h2.1a8.2,8.2,0,0,1,8.2,8.1v43.3a8.1,8.1,0,0,0,8.1,8.1h1.1a8.1,8.1,0,0,0,8.1-8.1V149a8.1,8.1,0,0,1,8.1-8.1h0a8.1,8.1,0,0,1,8.1,8.1v43.3a8.1,8.1,0,0,0,8.1,8.1h3.8a8.1,8.1,0,0,0,8.1-8.1V149a8.2,8.2,0,0,1,8.2-8.1h0a8.1,8.1,0,0,1,8.1,8.1v43.3a8.1,8.1,0,0,0,8.1,8.1h1.1a8.1,8.1,0,0,0,8.1-8.1V149a8.1,8.1,0,0,1,8.1-8.1h1.1a8.1,8.1,0,0,1,8.1,8.1v43.3a8.1,8.1,0,0,0,8.1,8.1h1.1a8.1,8.1,0,0,0,8.1-8.1V149a8.2,8.2,0,0,1,8.2-8.1h1A8.2,8.2,0,0,1,917,149v43.3a8.1,8.1,0,0,0,8.1,8.1h1.1a8.1,8.1,0,0,0,8.1-8.1V149a8.1,8.1,0,0,1,8.1-8.1h1.1a8.2,8.2,0,0,1,8.2,8.1v43.3a8.1,8.1,0,0,0,8.1,8.1h1.8a8.1,8.1,0,0,0,8.1-8.1h0V149a8.1,8.1,0,0,1,8.1-8.1h1.1A8.1,8.1,0,0,1,987,149h0v43.3a8.1,8.1,0,0,0,8.1,8.1h1.1a8.1,8.1,0,0,0,8.1-8.1h0V149a8.2,8.2,0,0,1,8.2-8.1h1a8.1,8.1,0,0,1,8.1,8.1h0v43.3a8.1,8.1,0,0,0,8.1,8.1h2.2a8.1,8.1,0,0,0,8.1-8.1h0V149a8.2,8.2,0,0,1,8.2-8.1h2.1"/>
  <path class="e38a0b98-690f-4f1a-acaf-7365005bb673" d="M662,131.1h19a8.1,8.1,0,0,0,8.1-8.1v-9.7a8.2,8.2,0,0,1,8.1-8.2h2.2a8.2,8.2,0,0,1,8.1,8.2v43.3a8.1,8.1,0,0,0,8.1,8.1h1.6a8.2,8.2,0,0,0,8.2-8.1V113.3a8.2,8.2,0,0,1,8.1-8.2h.5a8.2,8.2,0,0,1,8.1,8.2v43.3a8.2,8.2,0,0,0,8.2,8.1h1a8.2,8.2,0,0,0,8.2-8.1V113.3a8.2,8.2,0,0,1,8.1-8.2h2.1a8.2,8.2,0,0,1,8.2,8.2v43.3a8.1,8.1,0,0,0,8.1,8.1h1.1a8.2,8.2,0,0,0,8.1-8.1V113.3a8.2,8.2,0,0,1,8.1-8.2h0a8.2,8.2,0,0,1,8.1,8.2v43.3a8.2,8.2,0,0,0,8.1,8.1h3.8a8.1,8.1,0,0,0,8.1-8.1V113.3a8.2,8.2,0,0,1,8.2-8.2h0a8.2,8.2,0,0,1,8.1,8.2v43.3a8.1,8.1,0,0,0,8.1,8.1h1.1a8.1,8.1,0,0,0,8.1-8.1V113.3a8.2,8.2,0,0,1,8.1-8.2h1.1a8.2,8.2,0,0,1,8.1,8.2v43.3a8.2,8.2,0,0,0,8.1,8.1h1.1a8.1,8.1,0,0,0,8.1-8.1V113.3a8.2,8.2,0,0,1,8.2-8.2h1a8.2,8.2,0,0,1,8.2,8.2v43.3a8.1,8.1,0,0,0,8.1,8.1h1.1a8.2,8.2,0,0,0,8.1-8.1V113.3a8.2,8.2,0,0,1,8.1-8.2h1.1a8.2,8.2,0,0,1,8.2,8.2v43.3a8.1,8.1,0,0,0,8.1,8.1h1.8a8.2,8.2,0,0,0,8.1-8.1V113.3a8.2,8.2,0,0,1,8.1-8.2h1.1a8.2,8.2,0,0,1,8.1,8.2v43.3a8.1,8.1,0,0,0,8.1,8.1h1.1a8.1,8.1,0,0,0,8.1-8.1h0V113.3a8.2,8.2,0,0,1,8.2-8.2h1a8.2,8.2,0,0,1,8.1,8.2v43.3a8.1,8.1,0,0,0,8.1,8.1h2.2a8.1,8.1,0,0,0,8.1-8.1h0V113.3a8.2,8.2,0,0,1,8.2-8.2h2.1"/>
  <g>
    <path class="f83bfea9-9a27-4bdc-8e44-e99d159880a6" d="M1649.2,432h0a8.7,8.7,0,0,1-8.8,8.8H1524.7a8.7,8.7,0,0,1-8.8-8.8h0a8.8,8.8,0,0,1,8.8-8.9h115.7A8.9,8.9,0,0,1,1649.2,432Z"/>
    <path class="f83bfea9-9a27-4bdc-8e44-e99d159880a6" d="M1649.3,476.9h0a8.7,8.7,0,0,1-8.8,8.8H1524.8a8.8,8.8,0,0,1-8.9-8.8h0a8.9,8.9,0,0,1,8.9-8.9h115.7A8.9,8.9,0,0,1,1649.3,476.9Z"/>
    <path class="ffe4c9aa-3b3b-420f-8de4-9965b9d8f307" d="M1530.2,409.9h0a8.7,8.7,0,0,1,8.7,8.8v72.8a8.7,8.7,0,0,1-8.8,8.8h0a8.8,8.8,0,0,1-8.8-8.8V418.7A8.9,8.9,0,0,1,1530.2,409.9Z"/>
    <path class="ffe4c9aa-3b3b-420f-8de4-9965b9d8f307" d="M1556.5,409.9h0a8.7,8.7,0,0,1,8.7,8.8v72.8a8.7,8.7,0,0,1-8.8,8.8h0a8.9,8.9,0,0,1-8.9-8.8V418.7A9.1,9.1,0,0,1,1556.5,409.9Z"/>
    <path class="ffe4c9aa-3b3b-420f-8de4-9965b9d8f307" d="M1582.3,409.9h0a8.7,8.7,0,0,1,8.7,8.8v72.8a8.7,8.7,0,0,1-8.8,8.8h0a8.8,8.8,0,0,1-8.8-8.8V418.7A8.9,8.9,0,0,1,1582.3,409.9Z"/>
    <path class="ffe4c9aa-3b3b-420f-8de4-9965b9d8f307" d="M1608.5,409.9h0a8.7,8.7,0,0,1,8.7,8.8v72.8a8.7,8.7,0,0,1-8.8,8.8h0a8.8,8.8,0,0,1-8.8-8.8V418.7A8.9,8.9,0,0,1,1608.5,409.9Z"/>
    <path class="ffe4c9aa-3b3b-420f-8de4-9965b9d8f307" d="M1634.8,409.9h0a8.7,8.7,0,0,1,8.7,8.8v72.8a8.7,8.7,0,0,1-8.8,8.8h0a8.9,8.9,0,0,1-8.9-8.8V418.7A9.1,9.1,0,0,1,1634.8,409.9Z"/>
    <path class="f6d1316c-de1d-4384-be9d-8c25a49a0103" d="M1590.9,333c0,7.5-8.1,7.5-8.1,14.9s8.1,7.5,8.1,14.9-8.1,7.4-8.1,14.8,8.1,7.4,8.1,14.9"/>
    <path class="f6d1316c-de1d-4384-be9d-8c25a49a0103" d="M1571.2,333c0,7.5-8.1,7.5-8.1,14.9s8.1,7.5,8.1,14.9-8.1,7.4-8.1,14.8,8.1,7.4,8.1,14.9"/>
    <path class="f6d1316c-de1d-4384-be9d-8c25a49a0103" d="M1610.6,333c0,7.5-8.1,7.5-8.1,14.9s8.1,7.5,8.1,14.9-8.1,7.4-8.1,14.8,8.1,7.4,8.1,14.9"/>
  </g>
  <g>
    <path class="ffe4c9aa-3b3b-420f-8de4-9965b9d8f307" d="M319.6,289.2H549a10.5,10.5,0,0,1,10.6,10.6V443A10.5,10.5,0,0,1,549,453.6H319.6A10.5,10.5,0,0,1,309,443V299.8A10.6,10.6,0,0,1,319.6,289.2Z"/>
    <circle class="abcb9b7e-b245-467d-b26e-2baad2cf5426" cx="387.5" cy="370.1" r="65.6"/>
    <circle class="abcb9b7e-b245-467d-b26e-2baad2cf5426" cx="522.5" cy="416.4" r="18.1"/>
    <path class="ffe4c9aa-3b3b-420f-8de4-9965b9d8f307" d="M395.4,380.7l28.9,28.9a28.2,28.2,0,0,0-28.5-46.8l30.7-30.7a28.1,28.1,0,0,0-47,27.5l-28.9-28.9a28.1,28.1,0,0,0,28.5,46.7l-30.7,30.8a28.1,28.1,0,0,0,47-27.5Z"/>
    <circle class="bf87109f-7cb0-4457-9cb2-34104a80f0ba" cx="387.2" cy="370.2" r="9"/>
  </g>
  <g>
    <path class="ffe4c9aa-3b3b-420f-8de4-9965b9d8f307" d="M762.6,457.2h21.1a4.3,4.3,0,0,1,4.3,4.3v38.1a4.3,4.3,0,0,1-4.3,4.3H762.6a4.3,4.3,0,0,1-4.3-4.3V461.5A4.3,4.3,0,0,1,762.6,457.2Z"/>
    <path class="ffe4c9aa-3b3b-420f-8de4-9965b9d8f307" d="M940.2,457.2h21.1a4.3,4.3,0,0,1,4.3,4.3v38.1a4.3,4.3,0,0,1-4.3,4.3H940.2a4.3,4.3,0,0,1-4.3-4.3V461.5A4.3,4.3,0,0,1,940.2,457.2Z"/>
    <path class="ffe4c9aa-3b3b-420f-8de4-9965b9d8f307" d="M947.6,411s-9.7-43.6-29.8-46.3-92.9-2.8-113,0S774.9,411,774.9,411c-18.2,13.6-16.6,24.5-16.6,24.5s1.9,45.9,5.3,52.1,192,6.2,195.4,0,5.2-52.1,5.2-52.1S965.8,424.6,947.6,411Z"/>
    <path class="b8e351ea-cc0f-4643-9068-4966b57ef29b" d="M759.2,451.6c.9,13.9,2.4,32.2,4.4,35.9,3.3,6.2,192,6.2,195.4,0,2-3.7,3.5-22,4.3-35.9,0,0-28,9.5-49.8,10.6l1.3,10.6-9.8,1.4s.8-10.9-8.2-11c-21.1-.3-56.4.3-71.5,0-3.3-.1-8.5,5.5-7.8,12.9l-10.2-3.5s5.4-10.5,3.4-10.5C774,461.2,759.2,451.6,759.2,451.6Z"/>
    <path class="ffe4c9aa-3b3b-420f-8de4-9965b9d8f307" d="M761.4,397.1h9.5a4.7,4.7,0,0,1,4.7,4.7v8.6H761.4a6.7,6.7,0,0,1-6.7-6.7h0A6.6,6.6,0,0,1,761.4,397.1Z"/>
    <path class="bf87109f-7cb0-4457-9cb2-34104a80f0ba" d="M769.7,464.8l23.7,1.7a2.2,2.2,0,0,1,2,2.4.6.6,0,0,1-.1.4c-1.6,4.6-5,13.7-7.3,14s-17.1.6-19.3-2.6-2.7-11.4-1-14.8A2.2,2.2,0,0,1,769.7,464.8Z"/>
    <path class="bf87109f-7cb0-4457-9cb2-34104a80f0ba" d="M952.2,464.8l-23.6,1.7a2,2,0,0,0-2,2.2,1.3,1.3,0,0,0,.1.6c1.6,4.6,5,13.7,7.3,14s17.1.6,19.3-2.6,2.6-11.4,1-14.8A2.6,2.6,0,0,0,952.2,464.8Z"/>
    <path class="bf87109f-7cb0-4457-9cb2-34104a80f0ba" d="M782.9,408s10.2-34.3,24.2-37.1,82.3-3.7,109.4,0c7.3.9,16.9,14.5,22.1,37.1Z"/>
    <path class="abcb9b7e-b245-467d-b26e-2baad2cf5426" d="M908.2,456s20.8,1.5,27.1-1.9,18.9-14.3,18-17.8-18.9-.9-31.9,5.8S901.9,455.3,908.2,456Z"/>
    <path class="abcb9b7e-b245-467d-b26e-2baad2cf5426" d="M811.9,456s-20.8,1.5-27.1-1.9-18.8-14.3-18-17.8,18.9-.9,31.9,5.8S818.2,455.3,811.9,456Z"/>
    <path class="ffe4c9aa-3b3b-420f-8de4-9965b9d8f307" d="M959,409.9H944.8v-8.7a4.7,4.7,0,0,1,4.7-4.7H959a6.7,6.7,0,0,1,6.7,6.7h0A6.7,6.7,0,0,1,959,409.9Z"/>
    <path class="bf87109f-7cb0-4457-9cb2-34104a80f0ba" d="M828.2,468.7h66.1a3.8,3.8,0,0,1,3.8,3.8v7.3a3.8,3.8,0,0,1-3.8,3.8H828.2a3.8,3.8,0,0,1-3.8-3.8v-7.3A3.8,3.8,0,0,1,828.2,468.7Z"/>
    <path class="bf87109f-7cb0-4457-9cb2-34104a80f0ba" d="M825.2,442.5h72.1a.9.9,0,0,1,.8.8v1.5a.9.9,0,0,1-.8.8H825.2a.9.9,0,0,1-.8-.8v-1.5A.8.8,0,0,1,825.2,442.5Z"/>
    <path class="bf87109f-7cb0-4457-9cb2-34104a80f0ba" d="M825.2,447.9h72.1a.9.9,0,0,1,.8.8v1.5a.9.9,0,0,1-.8.8H825.2a.9.9,0,0,1-.8-.8v-1.5A.8.8,0,0,1,825.2,447.9Z"/>
    <path class="bf87109f-7cb0-4457-9cb2-34104a80f0ba" d="M825.2,453.4h72.1a.9.9,0,0,1,.8.8v1.5a.9.9,0,0,1-.8.8H825.2a.9.9,0,0,1-.8-.8v-1.5A.8.8,0,0,1,825.2,453.4Z"/>
    <path class="b8e351ea-cc0f-4643-9068-4966b57ef29b" d="M865.8,368.4c-25.4-.1-50.8.9-58.7,2.5-14,2.8-24.2,37.1-24.2,37.1H842Z"/>
    <path class="b8e351ea-cc0f-4643-9068-4966b57ef29b" d="M938.6,411.4s-19.1,25.7-37.3,26.3c-14.1.4-55.8-.6-85.5-.6-7.3,0-27.7-10.3-32.9-25.7Z"/>
  </g>
  <g>
    <path class="f93e953d-58be-4d95-8de7-e74f792c6ad6" d="M90.1,62.3h78a8.9,8.9,0,0,1,8.9,8.9V234.5a8.9,8.9,0,0,1-8.9,8.9h-78a8.9,8.9,0,0,1-8.9-8.9V71.2A8.9,8.9,0,0,1,90.1,62.3Z"/>
    <path class="abcb9b7e-b245-467d-b26e-2baad2cf5426" d="M110,70.1h38.2a1.8,1.8,0,0,1,1.8,1.8h0a1.8,1.8,0,0,1-1.8,1.8H110a1.8,1.8,0,0,1-1.8-1.8h0A1.8,1.8,0,0,1,110,70.1Z"/>
    <path class="b8e351ea-cc0f-4643-9068-4966b57ef29b" d="M96.4,97.8h65.1a3.5,3.5,0,0,1,3.5,3.5v31a3.5,3.5,0,0,1-3.5,3.5H96.4a3.5,3.5,0,0,1-3.5-3.5v-31A3.5,3.5,0,0,1,96.4,97.8Z"/>
    <path class="b59bdc7d-ac1a-4b84-b27d-2e8ac799a777" d="M158.2,127.2c-29.3,0-29.3-22.1-58.5-22.1"/>
    <path class="b8e351ea-cc0f-4643-9068-4966b57ef29b" d="M96.4,145.5h65.1A3.5,3.5,0,0,1,165,149v30.9a3.5,3.5,0,0,1-3.5,3.5H96.4a3.5,3.5,0,0,1-3.5-3.5V149A3.5,3.5,0,0,1,96.4,145.5Z"/>
    <path class="b8e351ea-cc0f-4643-9068-4966b57ef29b" d="M95.9,193.2h66.5a2.9,2.9,0,0,1,2.8,2.8v18.6a2.9,2.9,0,0,1-2.8,2.8H95.9a2.9,2.9,0,0,1-2.8-2.8V196A2.8,2.8,0,0,1,95.9,193.2Z"/>
    <path class="b59bdc7d-ac1a-4b84-b27d-2e8ac799a777" d="M158.1,174.9c-3.6,0-3.6-22-7.3-22s-3.6,22-7.3,22-3.6-22.1-7.3-22.1-3.7,22.1-7.3,22.1-3.7-22.1-7.3-22.1-3.7,22.1-7.4,22.1-3.6-22.1-7.3-22.1-3.6,22-7.3,22"/>
  </g>
  <g>
    <path class="ffe4c9aa-3b3b-420f-8de4-9965b9d8f307" d="M81.7,371.2h94.9a8.5,8.5,0,0,1,8.5,8.5v94.9a8.5,8.5,0,0,1-8.5,8.5H81.7a8.5,8.5,0,0,1-8.5-8.5V379.7A8.5,8.5,0,0,1,81.7,371.2Z"/>
    <g>
      <path class="abcb9b7e-b245-467d-b26e-2baad2cf5426" d="M129.1,394.1h0a4.2,4.2,0,0,1,4.2,4.2v14.6a4.2,4.2,0,0,1-4.2,4.2h0a4.2,4.2,0,0,1-4.2-4.2V398.3A4.2,4.2,0,0,1,129.1,394.1Z"/>
      <path class="abcb9b7e-b245-467d-b26e-2baad2cf5426" d="M117.7,445.6h0a4,4,0,0,1-4,4H97.9a4,4,0,0,1-4-3.9h0a3.9,3.9,0,0,1,4-3.9h15.8A3.7,3.7,0,0,1,117.7,445.6Z"/>
      <path class="abcb9b7e-b245-467d-b26e-2baad2cf5426" d="M164.4,445.6h0a4,4,0,0,1-4,4H144.5a4,4,0,0,1-4-3.9h0a3.9,3.9,0,0,1,4-3.9h15.8A3.8,3.8,0,0,1,164.4,445.6Z"/>
    </g>
  </g>
  <g>
    <path class="ffe4c9aa-3b3b-420f-8de4-9965b9d8f307" d="M1327.3,38.3h-13.8a4.7,4.7,0,0,0-4.4,2.9h0a6.9,6.9,0,0,1-6.3,4.1h-65.2a6.9,6.9,0,0,1-6.3-4.1h0a4.6,4.6,0,0,0-4.3-2.9h-14a10.9,10.9,0,0,0-10.7,10.8V199h0a2.2,2.2,0,0,0,2.2,2.2h4.2a5.8,5.8,0,0,1,5.2,4.1l.2.7a2.5,2.5,0,0,0,2.1,1.5h17.2a2.3,2.3,0,0,0,2.2-1.5v-.4a6.1,6.1,0,0,1,5.6-4.2l57.6-.2a5.8,5.8,0,0,1,5.6,4.1l.3.7a2.4,2.4,0,0,0,2.1,1.5h16.7a2.3,2.3,0,0,0,2.1-1.5v-.4a6.2,6.2,0,0,1,5.6-4.2h4.4a2.4,2.4,0,0,0,2.3-2.2V49.1A11,11,0,0,0,1327.3,38.3Z"/>
    <path class="f83bfea9-9a27-4bdc-8e44-e99d159880a6" d="M1327.3,56.1h-13.8a4.9,4.9,0,0,0-4.4,2.8h0a6.9,6.9,0,0,1-6.3,4.1h-65.2a6.9,6.9,0,0,1-6.3-4.1h0a4.6,4.6,0,0,0-4.3-2.8h-14a10.7,10.7,0,0,0-10.7,10.7v9.9a10.7,10.7,0,0,1,10.6-10.8H1227a4.6,4.6,0,0,1,4.3,2.9h0a7.2,7.2,0,0,0,6.3,4.2h65.2a7.2,7.2,0,0,0,6.3-4.2h0a4.7,4.7,0,0,1,4.4-2.9h13.8A10.7,10.7,0,0,1,1338,76.6h0V66.8A10.7,10.7,0,0,0,1327.3,56.1Z"/>
    <path class="f83bfea9-9a27-4bdc-8e44-e99d159880a6" d="M1328.2,95h-13.9a4.7,4.7,0,0,0-4.3,2.8h0a6.8,6.8,0,0,1-6.3,4.2h-65.1a7.3,7.3,0,0,1-6.4-4.2h0a4.6,4.6,0,0,0-4.3-2.8H1214a10.7,10.7,0,0,0-10.8,10.6v10a10.7,10.7,0,0,1,10.7-10.7h14a4.6,4.6,0,0,1,4.3,2.8h0a7,7,0,0,0,6.4,4.1h65.1a6.6,6.6,0,0,0,6.3-4.1h0a4.8,4.8,0,0,1,4.3-2.8h13.9a10.9,10.9,0,0,1,10.8,10.7v-9.8A10.8,10.8,0,0,0,1328.2,95Z"/>
    <path class="f83bfea9-9a27-4bdc-8e44-e99d159880a6" d="M1327.3,165.9h-13.8a4.9,4.9,0,0,0-4.4,2.8h0a6.9,6.9,0,0,1-6.3,4.1h-65.2a6.9,6.9,0,0,1-6.3-4.1h0a4.6,4.6,0,0,0-4.3-2.8h-14a10.7,10.7,0,0,0-10.7,10.7v9.9a10.7,10.7,0,0,1,10.6-10.8H1227a4.6,4.6,0,0,1,4.3,2.9h0a7.2,7.2,0,0,0,6.3,4.2h65.2a7.2,7.2,0,0,0,6.3-4.2h0a4.7,4.7,0,0,1,4.4-2.9h13.8a10.7,10.7,0,0,1,10.7,10.7h0v-9.9A10.7,10.7,0,0,0,1327.3,165.9Z"/>
  </g>
  <line class="f39e566c-4dac-435d-8853-7a9e496b1569" x1="613.4" y1="-0.4" x2="613.4" y2="547.3"/>
  <line class="becf325e-508c-4a5b-b69f-8d87adaef1ae" x1="1103.9" y1="-0.4" x2="1103.9" y2="542.9"/>
  <line class="f3a2034c-7a12-48ab-bb77-01fffd648dde" x1="253.2" y1="-0.4" x2="253.2" y2="559.7"/>
  <line class="ac687107-5380-4c93-9096-c32f41b6dbaf" x1="1441.6" y1="-0.4" x2="1441.6" y2="541.5"/>
  <g>
    <circle class="ffe4c9aa-3b3b-420f-8de4-9965b9d8f307" cx="429.2" cy="97.4" r="45.8"/>
    <circle class="ab438603-daf9-4663-96bc-ea4a03c1af14" cx="429.2" cy="97.4" r="56.3"/>
    <path class="abcb9b7e-b245-467d-b26e-2baad2cf5426" d="M409.2,96.3a20.3,20.3,0,0,1,18-20.2V66.5a29.9,29.9,0,0,0-11.5,56.2l4.3-8.5A20.4,20.4,0,0,1,409.2,96.3Z"/>
    <path class="abcb9b7e-b245-467d-b26e-2baad2cf5426" d="M438.7,67.8a30.5,30.5,0,0,0-6.7-1.3v9.6a16.1,16.1,0,0,1,3.8.8Z"/>
    <g>
      <path class="abcb9b7e-b245-467d-b26e-2baad2cf5426" d="M449.3,73.8a28.3,28.3,0,0,0-6.1-4.1l-3,9.2,2.4,1.7Z"/>
      <path class="abcb9b7e-b245-467d-b26e-2baad2cf5426" d="M445.9,84.1A20.6,20.6,0,0,1,450,96.3a20.3,20.3,0,0,1-11.3,18.2l4.4,8.4a29.8,29.8,0,0,0,9.6-45.6Z"/>
    </g>
  </g>
  <line class="b91a1d5b-decf-43ff-ab8b-3a95ca8b78c6" x1="1103.9" y1="282.8" x2="613.6" y2="282.8"/>
  <line class="b91a1d5b-decf-43ff-ab8b-3a95ca8b78c6" x1="613.6" y1="204.9" x2="254.1" y2="204.9"/>
  <line class="ede6c074-c028-45b9-99c0-c425456e5058" x1="1441.6" y1="243.1" x2="1103.9" y2="243.1"/>
  <line class="b91a1d5b-decf-43ff-ab8b-3a95ca8b78c6" x1="1718.9" y1="295.6" x2="1442.6" y2="295.6"/>
  <line class="a701d822-5a2c-46f5-9346-22b23e0d9d8f" x1="253" y1="307.3" x2="-4.5" y2="307.3"/>
  <g>
    <path class="b2bfc8b7-0e2d-415e-a93c-f0ce38c00411" d="M1568.6,243.9h-3.8a2.9,2.9,0,0,1-2.9-3.1h0l2-140.8a2.9,2.9,0,0,1,2.8-3h0a3.1,3.1,0,0,1,3,3l1.9,140.8a3,3,0,0,1-3,3.1Z"/>
    <path class="ac38934c-58a8-4537-8595-8490fd9d62b3" d="M1630.5,210.8h-3.2a2.7,2.7,0,0,1-2.5-2.5l1.8-117.1a2.4,2.4,0,0,1,2.3-2.5h0a2.6,2.6,0,0,1,2.4,2.5l1.6,117.1A2.6,2.6,0,0,1,1630.5,210.8Z"/>
    <path class="ffe4c9aa-3b3b-420f-8de4-9965b9d8f307" d="M1622.1,78.2l6.4,9.7,24.3-56a1.6,1.6,0,0,0-.7-2h0a1.5,1.5,0,0,0-1.9.5l-28.1,41.9A5.3,5.3,0,0,0,1622.1,78.2Z"/>
    <path class="ffe4c9aa-3b3b-420f-8de4-9965b9d8f307" d="M1640.2,86.9l-11.5,1,37.5,48.1a1.7,1.7,0,0,0,2.1.3h0a1.7,1.7,0,0,0,.5-2l-23.4-44.6A5.3,5.3,0,0,0,1640.2,86.9Z"/>
    <path class="ffe4c9aa-3b3b-420f-8de4-9965b9d8f307" d="M1623.3,99l5.1-10.3-60.6,7.6a1.6,1.6,0,0,0-1.4,1.6h0a1.5,1.5,0,0,0,1.5,1.4l50.3,2.8A5.4,5.4,0,0,0,1623.3,99Z"/>
    <circle class="abcb9b7e-b245-467d-b26e-2baad2cf5426" cx="1628.7" cy="88" r="5.9"/>
    <path class="abcb9b7e-b245-467d-b26e-2baad2cf5426" d="M1558.7,83.9l7.6,11.5,29.2-67.2a1.9,1.9,0,0,0-.8-2.4h0a2,2,0,0,0-2.4.6l-33.6,50.4A6.2,6.2,0,0,0,1558.7,83.9Z"/>
    <path class="abcb9b7e-b245-467d-b26e-2baad2cf5426" d="M1580.3,94.2l-13.8,1.2,45.2,57.9a1.9,1.9,0,0,0,2.4.4h0a1.9,1.9,0,0,0,.6-2.4l-28.2-53.7A6.4,6.4,0,0,0,1580.3,94.2Z"/>
    <path class="abcb9b7e-b245-467d-b26e-2baad2cf5426" d="M1560.1,108.9l6-12.5-72.8,9.2a1.7,1.7,0,0,0-1.6,1.9h0a1.8,1.8,0,0,0,1.7,1.8l60.6,3.2A6.4,6.4,0,0,0,1560.1,108.9Z"/>
    <circle class="ffe4c9aa-3b3b-420f-8de4-9965b9d8f307" cx="1566.5" cy="95.5" r="7.1"/>
  </g>
  <g>
    <g>
      <path class="a8f7bb04-ad30-410a-9d47-8001c4790524" d="M1216.1,427h-14a4.1,4.1,0,0,1-4.2-4.2V408.7a4.1,4.1,0,0,1,4.2-4.2h14a4.1,4.1,0,0,1,4.2,4.2v14A4.2,4.2,0,0,1,1216.1,427Z"/>
      <path class="ffe4c9aa-3b3b-420f-8de4-9965b9d8f307" d="M1190.6,427h-14.1a4.2,4.2,0,0,1-4.2-4.2V408.7a4.2,4.2,0,0,1,4.2-4.2h14.1a4.1,4.1,0,0,1,4.1,4.2v14A4.2,4.2,0,0,1,1190.6,427Z"/>
      <path class="a8f7bb04-ad30-410a-9d47-8001c4790524" d="M1241.5,427h-14a4.2,4.2,0,0,1-4.2-4.2V408.7a4.2,4.2,0,0,1,4.2-4.2h14a4.1,4.1,0,0,1,4.2,4.2v14A4.2,4.2,0,0,1,1241.5,427Z"/>
      <path class="ffe4c9aa-3b3b-420f-8de4-9965b9d8f307" d="M1216.1,427h-14a4.1,4.1,0,0,1-4.2-4.2V408.7a4.1,4.1,0,0,1,4.2-4.2h14a4.1,4.1,0,0,1,4.2,4.2v14A4.2,4.2,0,0,1,1216.1,427Z"/>
      <path class="ffe4c9aa-3b3b-420f-8de4-9965b9d8f307" d="M1267.1,427h-14a4.1,4.1,0,0,1-4.2-4.2V408.7a4.1,4.1,0,0,1,4.2-4.2h14a4.1,4.1,0,0,1,4.2,4.2v14A4.2,4.2,0,0,1,1267.1,427Z"/>
      <path class="ffe4c9aa-3b3b-420f-8de4-9965b9d8f307" d="M1241.5,427h-14a4.2,4.2,0,0,1-4.2-4.2V408.7a4.2,4.2,0,0,1,4.2-4.2h14a4.1,4.1,0,0,1,4.2,4.2v14A4.2,4.2,0,0,1,1241.5,427Z"/>
      <path class="ffe4c9aa-3b3b-420f-8de4-9965b9d8f307" d="M1190.6,453.4h-14.1a4.2,4.2,0,0,1-4.2-4.2V435.1a4.1,4.1,0,0,1,4.2-4.1h14.1a4.1,4.1,0,0,1,4.1,4.1v14.1A4.3,4.3,0,0,1,1190.6,453.4Z"/>
      <path class="ffe4c9aa-3b3b-420f-8de4-9965b9d8f307" d="M1216.1,453.4h-14a4.2,4.2,0,0,1-4.2-4.2V435.1a4.1,4.1,0,0,1,4.2-4.1h14a4.1,4.1,0,0,1,4.2,4.1v14.1A4.3,4.3,0,0,1,1216.1,453.4Z"/>
      <path class="ffe4c9aa-3b3b-420f-8de4-9965b9d8f307" d="M1267.1,453.4h-14a4.2,4.2,0,0,1-4.2-4.2V435.1a4.1,4.1,0,0,1,4.2-4.1h14a4.1,4.1,0,0,1,4.2,4.1v14.1A4.3,4.3,0,0,1,1267.1,453.4Z"/>
      <path class="ffe4c9aa-3b3b-420f-8de4-9965b9d8f307" d="M1241.5,453.4h-14a4.2,4.2,0,0,1-4.2-4.2V435.1a4.1,4.1,0,0,1,4.2-4.1h14a4.1,4.1,0,0,1,4.2,4.1v14.1A4.3,4.3,0,0,1,1241.5,453.4Z"/>
      <path class="ffe4c9aa-3b3b-420f-8de4-9965b9d8f307" d="M1190.6,479.8h-14.1a4.2,4.2,0,0,1-4.2-4.2v-14a4.2,4.2,0,0,1,4.2-4.2h14.1a4.1,4.1,0,0,1,4.1,4.2v14A4.2,4.2,0,0,1,1190.6,479.8Z"/>
      <path class="ffe4c9aa-3b3b-420f-8de4-9965b9d8f307" d="M1216.1,479.8h-14a4.1,4.1,0,0,1-4.2-4.2v-14a4.2,4.2,0,0,1,4.2-4.2h14a4.2,4.2,0,0,1,4.2,4.2v14A4.2,4.2,0,0,1,1216.1,479.8Z"/>
      <path class="ffe4c9aa-3b3b-420f-8de4-9965b9d8f307" d="M1267.1,479.8h-14a4.1,4.1,0,0,1-4.2-4.2v-14a4.2,4.2,0,0,1,4.2-4.2h14a4.2,4.2,0,0,1,4.2,4.2v14A4.2,4.2,0,0,1,1267.1,479.8Z"/>
      <path class="ffe4c9aa-3b3b-420f-8de4-9965b9d8f307" d="M1241.5,479.8h-14a4.2,4.2,0,0,1-4.2-4.2v-14a4.2,4.2,0,0,1,4.2-4.2h14a4.2,4.2,0,0,1,4.2,4.2v14A4.2,4.2,0,0,1,1241.5,479.8Z"/>
    </g>
    <line class="afd33553-daf2-46c7-9630-a3948fb60a29" x1="1234.6" y1="404.6" x2="1234.6" y2="479.8"/>
    <line class="afd33553-daf2-46c7-9630-a3948fb60a29" x1="1260.1" y1="404.6" x2="1260.1" y2="479.9"/>
    <line class="afd33553-daf2-46c7-9630-a3948fb60a29" x1="1183.5" y1="404.6" x2="1183.5" y2="479.9"/>
    <line class="afd33553-daf2-46c7-9630-a3948fb60a29" x1="1271.3" y1="415.8" x2="1172.3" y2="415.8"/>
    <line class="afd33553-daf2-46c7-9630-a3948fb60a29" x1="1271.3" y1="442.3" x2="1172.3" y2="442.3"/>
    <line class="afd33553-daf2-46c7-9630-a3948fb60a29" x1="1271.3" y1="468.7" x2="1172.3" y2="468.6"/>
    <line class="afd33553-daf2-46c7-9630-a3948fb60a29" x1="1209" y1="479.9" x2="1209" y2="404.6"/>
    <path class="a8f7bb04-ad30-410a-9d47-8001c4790524" d="M1216.1,347.1h-14a4.1,4.1,0,0,1-4.2-4.2v-14a4.2,4.2,0,0,1,4.2-4.2h14a4.2,4.2,0,0,1,4.2,4.2v14A4.2,4.2,0,0,1,1216.1,347.1Z"/>
    <path class="ffe4c9aa-3b3b-420f-8de4-9965b9d8f307" d="M1190.6,347.1h-14.1a4.2,4.2,0,0,1-4.2-4.2v-14a4.2,4.2,0,0,1,4.2-4.2h14.1a4.1,4.1,0,0,1,4.1,4.2v14A4.2,4.2,0,0,1,1190.6,347.1Z"/>
    <path class="a8f7bb04-ad30-410a-9d47-8001c4790524" d="M1241.5,347.1h-14a4.2,4.2,0,0,1-4.2-4.2v-14a4.2,4.2,0,0,1,4.2-4.2h14a4.2,4.2,0,0,1,4.2,4.2v14A4.2,4.2,0,0,1,1241.5,347.1Z"/>
    <path class="ffe4c9aa-3b3b-420f-8de4-9965b9d8f307" d="M1216.1,347.1h-14a4.1,4.1,0,0,1-4.2-4.2v-14a4.2,4.2,0,0,1,4.2-4.2h14a4.2,4.2,0,0,1,4.2,4.2v14A4.2,4.2,0,0,1,1216.1,347.1Z"/>
    <path class="ffe4c9aa-3b3b-420f-8de4-9965b9d8f307" d="M1267.1,347.1h-14a4.1,4.1,0,0,1-4.2-4.2v-14a4.2,4.2,0,0,1,4.2-4.2h14a4.2,4.2,0,0,1,4.2,4.2v14A4.2,4.2,0,0,1,1267.1,347.1Z"/>
    <path class="ffe4c9aa-3b3b-420f-8de4-9965b9d8f307" d="M1241.5,347.1h-14a4.2,4.2,0,0,1-4.2-4.2v-14a4.2,4.2,0,0,1,4.2-4.2h14a4.2,4.2,0,0,1,4.2,4.2v14A4.2,4.2,0,0,1,1241.5,347.1Z"/>
    <path class="ffe4c9aa-3b3b-420f-8de4-9965b9d8f307" d="M1190.6,373.6h-14.1a4.2,4.2,0,0,1-4.2-4.2v-14a4.2,4.2,0,0,1,4.2-4.2h14.1a4.1,4.1,0,0,1,4.1,4.2v14A4.2,4.2,0,0,1,1190.6,373.6Z"/>
    <path class="ffe4c9aa-3b3b-420f-8de4-9965b9d8f307" d="M1216.1,373.6h-14a4.2,4.2,0,0,1-4.2-4.2v-14a4.1,4.1,0,0,1,4.2-4.2h14a4.1,4.1,0,0,1,4.2,4.2v14A4.2,4.2,0,0,1,1216.1,373.6Z"/>
    <path class="ffe4c9aa-3b3b-420f-8de4-9965b9d8f307" d="M1267.1,373.6h-14a4.2,4.2,0,0,1-4.2-4.2v-14a4.1,4.1,0,0,1,4.2-4.2h14a4.1,4.1,0,0,1,4.2,4.2v14A4.2,4.2,0,0,1,1267.1,373.6Z"/>
    <path class="ffe4c9aa-3b3b-420f-8de4-9965b9d8f307" d="M1241.5,373.6h-14a4.2,4.2,0,0,1-4.2-4.2v-14a4.2,4.2,0,0,1,4.2-4.2h14a4.1,4.1,0,0,1,4.2,4.2v14A4.2,4.2,0,0,1,1241.5,373.6Z"/>
    <path class="ffe4c9aa-3b3b-420f-8de4-9965b9d8f307" d="M1190.6,399.9h-14.1a4.1,4.1,0,0,1-4.2-4.1V381.7a4.1,4.1,0,0,1,4.2-4.1h14.1a4.1,4.1,0,0,1,4.1,4.1v14.1A4.2,4.2,0,0,1,1190.6,399.9Z"/>
    <path class="ffe4c9aa-3b3b-420f-8de4-9965b9d8f307" d="M1216.1,399.9h-14a4.1,4.1,0,0,1-4.2-4.1V381.7a4.1,4.1,0,0,1,4.2-4.1h14a4.1,4.1,0,0,1,4.2,4.1v14.1A4.2,4.2,0,0,1,1216.1,399.9Z"/>
    <path class="ffe4c9aa-3b3b-420f-8de4-9965b9d8f307" d="M1267.1,399.9h-14a4.1,4.1,0,0,1-4.2-4.1V381.7a4.1,4.1,0,0,1,4.2-4.1h14a4.1,4.1,0,0,1,4.2,4.1v14.1A4.2,4.2,0,0,1,1267.1,399.9Z"/>
    <path class="ffe4c9aa-3b3b-420f-8de4-9965b9d8f307" d="M1241.5,399.9h-14a4.1,4.1,0,0,1-4.2-4.1V381.7a4.1,4.1,0,0,1,4.2-4.1h14a4.1,4.1,0,0,1,4.2,4.1v14.1A4.2,4.2,0,0,1,1241.5,399.9Z"/>
    <line class="afd33553-daf2-46c7-9630-a3948fb60a29" x1="1234.6" y1="324.7" x2="1234.6" y2="399.9"/>
    <line class="afd33553-daf2-46c7-9630-a3948fb60a29" x1="1260.1" y1="324.7" x2="1260.1" y2="400"/>
    <line class="afd33553-daf2-46c7-9630-a3948fb60a29" x1="1183.5" y1="324.7" x2="1183.5" y2="400"/>
    <line class="afd33553-daf2-46c7-9630-a3948fb60a29" x1="1271.3" y1="335.9" x2="1172.3" y2="335.9"/>
    <line class="afd33553-daf2-46c7-9630-a3948fb60a29" x1="1271.3" y1="362.4" x2="1172.3" y2="362.4"/>
    <line class="afd33553-daf2-46c7-9630-a3948fb60a29" x1="1271.3" y1="388.8" x2="1172.3" y2="388.7"/>
    <line class="afd33553-daf2-46c7-9630-a3948fb60a29" x1="1209" y1="400" x2="1209" y2="324.7"/>
    <g>
      <path class="a8f7bb04-ad30-410a-9d47-8001c4790524" d="M1318.7,427h-14a4.1,4.1,0,0,1-4.2-4.2V408.7a4.1,4.1,0,0,1,4.2-4.2h14a4.1,4.1,0,0,1,4.2,4.2v14A4.2,4.2,0,0,1,1318.7,427Z"/>
      <path class="ffe4c9aa-3b3b-420f-8de4-9965b9d8f307" d="M1293.2,427h-14.1a4.2,4.2,0,0,1-4.2-4.2V408.7a4.2,4.2,0,0,1,4.2-4.2h14.1a4.1,4.1,0,0,1,4.1,4.2v14A4.2,4.2,0,0,1,1293.2,427Z"/>
      <path class="a8f7bb04-ad30-410a-9d47-8001c4790524" d="M1344.3,427h-14a4.1,4.1,0,0,1-4.2-4.2V408.7a4.1,4.1,0,0,1,4.2-4.2h14a4.1,4.1,0,0,1,4.2,4.2v14A4.2,4.2,0,0,1,1344.3,427Z"/>
      <path class="ffe4c9aa-3b3b-420f-8de4-9965b9d8f307" d="M1318.7,427h-14a4.1,4.1,0,0,1-4.2-4.2V408.7a4.1,4.1,0,0,1,4.2-4.2h14a4.1,4.1,0,0,1,4.2,4.2v14A4.2,4.2,0,0,1,1318.7,427Z"/>
      <path class="ffe4c9aa-3b3b-420f-8de4-9965b9d8f307" d="M1369.7,427h-14a4.1,4.1,0,0,1-4.2-4.2V408.7a4.1,4.1,0,0,1,4.2-4.2h14a4.1,4.1,0,0,1,4.2,4.2v14A4.2,4.2,0,0,1,1369.7,427Z"/>
      <path class="ffe4c9aa-3b3b-420f-8de4-9965b9d8f307" d="M1344.3,427h-14a4.1,4.1,0,0,1-4.2-4.2V408.7a4.1,4.1,0,0,1,4.2-4.2h14a4.1,4.1,0,0,1,4.2,4.2v14A4.2,4.2,0,0,1,1344.3,427Z"/>
      <path class="ffe4c9aa-3b3b-420f-8de4-9965b9d8f307" d="M1293.2,453.4h-14.1a4.2,4.2,0,0,1-4.2-4.2V435.1a4.1,4.1,0,0,1,4.2-4.1h14.1a4.1,4.1,0,0,1,4.1,4.1v14.1A4.3,4.3,0,0,1,1293.2,453.4Z"/>
      <path class="ffe4c9aa-3b3b-420f-8de4-9965b9d8f307" d="M1318.7,453.4h-14a4.2,4.2,0,0,1-4.2-4.2V435.1a4.1,4.1,0,0,1,4.2-4.1h14a4.1,4.1,0,0,1,4.2,4.1v14.1A4.3,4.3,0,0,1,1318.7,453.4Z"/>
      <path class="ffe4c9aa-3b3b-420f-8de4-9965b9d8f307" d="M1369.7,453.4h-14a4.2,4.2,0,0,1-4.2-4.2V435.1a4.1,4.1,0,0,1,4.2-4.1h14a4.1,4.1,0,0,1,4.2,4.1v14.1A4.3,4.3,0,0,1,1369.7,453.4Z"/>
      <path class="ffe4c9aa-3b3b-420f-8de4-9965b9d8f307" d="M1344.3,453.4h-14a4.2,4.2,0,0,1-4.2-4.2V435.1a4.1,4.1,0,0,1,4.2-4.1h14a4.1,4.1,0,0,1,4.2,4.1v14.1A4.3,4.3,0,0,1,1344.3,453.4Z"/>
      <path class="ffe4c9aa-3b3b-420f-8de4-9965b9d8f307" d="M1293.2,479.8h-14.1a4.2,4.2,0,0,1-4.2-4.2v-14a4.2,4.2,0,0,1,4.2-4.2h14.1a4.1,4.1,0,0,1,4.1,4.2v14A4.2,4.2,0,0,1,1293.2,479.8Z"/>
      <path class="ffe4c9aa-3b3b-420f-8de4-9965b9d8f307" d="M1318.7,479.8h-14a4.1,4.1,0,0,1-4.2-4.2v-14a4.2,4.2,0,0,1,4.2-4.2h14a4.2,4.2,0,0,1,4.2,4.2v14A4.2,4.2,0,0,1,1318.7,479.8Z"/>
      <path class="ffe4c9aa-3b3b-420f-8de4-9965b9d8f307" d="M1369.7,479.8h-14a4.1,4.1,0,0,1-4.2-4.2v-14a4.2,4.2,0,0,1,4.2-4.2h14a4.2,4.2,0,0,1,4.2,4.2v14A4.2,4.2,0,0,1,1369.7,479.8Z"/>
      <path class="ffe4c9aa-3b3b-420f-8de4-9965b9d8f307" d="M1344.3,479.8h-14a4.1,4.1,0,0,1-4.2-4.2v-14a4.2,4.2,0,0,1,4.2-4.2h14a4.2,4.2,0,0,1,4.2,4.2v14A4.2,4.2,0,0,1,1344.3,479.8Z"/>
    </g>
    <line class="afd33553-daf2-46c7-9630-a3948fb60a29" x1="1337.2" y1="404.6" x2="1337.2" y2="479.8"/>
    <line class="afd33553-daf2-46c7-9630-a3948fb60a29" x1="1362.8" y1="404.6" x2="1362.8" y2="479.9"/>
    <line class="afd33553-daf2-46c7-9630-a3948fb60a29" x1="1286.2" y1="404.6" x2="1286.2" y2="479.9"/>
    <line class="afd33553-daf2-46c7-9630-a3948fb60a29" x1="1374" y1="415.8" x2="1275" y2="415.8"/>
    <line class="afd33553-daf2-46c7-9630-a3948fb60a29" x1="1374" y1="442.3" x2="1275" y2="442.3"/>
    <line class="afd33553-daf2-46c7-9630-a3948fb60a29" x1="1374" y1="468.7" x2="1275" y2="468.6"/>
    <line class="afd33553-daf2-46c7-9630-a3948fb60a29" x1="1311.7" y1="479.9" x2="1311.7" y2="404.6"/>
    <path class="a8f7bb04-ad30-410a-9d47-8001c4790524" d="M1318.7,347.1h-14a4.1,4.1,0,0,1-4.2-4.2v-14a4.2,4.2,0,0,1,4.2-4.2h14a4.2,4.2,0,0,1,4.2,4.2v14A4.2,4.2,0,0,1,1318.7,347.1Z"/>
    <path class="ffe4c9aa-3b3b-420f-8de4-9965b9d8f307" d="M1293.2,347.1h-14.1a4.2,4.2,0,0,1-4.2-4.2v-14a4.2,4.2,0,0,1,4.2-4.2h14.1a4.1,4.1,0,0,1,4.1,4.2v14A4.2,4.2,0,0,1,1293.2,347.1Z"/>
    <path class="a8f7bb04-ad30-410a-9d47-8001c4790524" d="M1344.3,347.1h-14a4.1,4.1,0,0,1-4.2-4.2v-14a4.2,4.2,0,0,1,4.2-4.2h14a4.2,4.2,0,0,1,4.2,4.2v14A4.2,4.2,0,0,1,1344.3,347.1Z"/>
    <path class="ffe4c9aa-3b3b-420f-8de4-9965b9d8f307" d="M1318.7,347.1h-14a4.1,4.1,0,0,1-4.2-4.2v-14a4.2,4.2,0,0,1,4.2-4.2h14a4.2,4.2,0,0,1,4.2,4.2v14A4.2,4.2,0,0,1,1318.7,347.1Z"/>
    <path class="ffe4c9aa-3b3b-420f-8de4-9965b9d8f307" d="M1369.7,347.1h-14a4.1,4.1,0,0,1-4.2-4.2v-14a4.2,4.2,0,0,1,4.2-4.2h14a4.2,4.2,0,0,1,4.2,4.2v14A4.2,4.2,0,0,1,1369.7,347.1Z"/>
    <path class="ffe4c9aa-3b3b-420f-8de4-9965b9d8f307" d="M1344.3,347.1h-14a4.1,4.1,0,0,1-4.2-4.2v-14a4.2,4.2,0,0,1,4.2-4.2h14a4.2,4.2,0,0,1,4.2,4.2v14A4.2,4.2,0,0,1,1344.3,347.1Z"/>
    <path class="ffe4c9aa-3b3b-420f-8de4-9965b9d8f307" d="M1293.2,373.6h-14.1a4.2,4.2,0,0,1-4.2-4.2v-14a4.2,4.2,0,0,1,4.2-4.2h14.1a4.1,4.1,0,0,1,4.1,4.2v14A4.2,4.2,0,0,1,1293.2,373.6Z"/>
    <path class="ffe4c9aa-3b3b-420f-8de4-9965b9d8f307" d="M1318.7,373.6h-14a4.2,4.2,0,0,1-4.2-4.2v-14a4.1,4.1,0,0,1,4.2-4.2h14a4.1,4.1,0,0,1,4.2,4.2v14A4.2,4.2,0,0,1,1318.7,373.6Z"/>
    <path class="ffe4c9aa-3b3b-420f-8de4-9965b9d8f307" d="M1369.7,373.6h-14a4.2,4.2,0,0,1-4.2-4.2v-14a4.1,4.1,0,0,1,4.2-4.2h14a4.1,4.1,0,0,1,4.2,4.2v14A4.2,4.2,0,0,1,1369.7,373.6Z"/>
    <path class="ffe4c9aa-3b3b-420f-8de4-9965b9d8f307" d="M1344.3,373.6h-14a4.2,4.2,0,0,1-4.2-4.2v-14a4.1,4.1,0,0,1,4.2-4.2h14a4.1,4.1,0,0,1,4.2,4.2v14A4.2,4.2,0,0,1,1344.3,373.6Z"/>
    <path class="ffe4c9aa-3b3b-420f-8de4-9965b9d8f307" d="M1293.2,399.9h-14.1a4.1,4.1,0,0,1-4.2-4.1V381.7a4.1,4.1,0,0,1,4.2-4.1h14.1a4.1,4.1,0,0,1,4.1,4.1v14.1A4.2,4.2,0,0,1,1293.2,399.9Z"/>
    <path class="ffe4c9aa-3b3b-420f-8de4-9965b9d8f307" d="M1318.7,399.9h-14a4.1,4.1,0,0,1-4.2-4.1V381.7a4.1,4.1,0,0,1,4.2-4.1h14a4.1,4.1,0,0,1,4.2,4.1v14.1A4.2,4.2,0,0,1,1318.7,399.9Z"/>
    <path class="ffe4c9aa-3b3b-420f-8de4-9965b9d8f307" d="M1369.7,399.9h-14a4.1,4.1,0,0,1-4.2-4.1V381.7a4.1,4.1,0,0,1,4.2-4.1h14a4.1,4.1,0,0,1,4.2,4.1v14.1A4.2,4.2,0,0,1,1369.7,399.9Z"/>
    <path class="ffe4c9aa-3b3b-420f-8de4-9965b9d8f307" d="M1344.3,399.9h-14a4.1,4.1,0,0,1-4.2-4.1V381.7a4.1,4.1,0,0,1,4.2-4.1h14a4.1,4.1,0,0,1,4.2,4.1v14.1A4.2,4.2,0,0,1,1344.3,399.9Z"/>
    <line class="afd33553-daf2-46c7-9630-a3948fb60a29" x1="1337.2" y1="324.7" x2="1337.2" y2="399.9"/>
    <line class="afd33553-daf2-46c7-9630-a3948fb60a29" x1="1362.8" y1="324.7" x2="1362.8" y2="400"/>
    <line class="afd33553-daf2-46c7-9630-a3948fb60a29" x1="1286.2" y1="324.7" x2="1286.2" y2="400"/>
    <line class="afd33553-daf2-46c7-9630-a3948fb60a29" x1="1374" y1="335.9" x2="1275" y2="335.9"/>
    <line class="afd33553-daf2-46c7-9630-a3948fb60a29" x1="1374" y1="362.4" x2="1275" y2="362.4"/>
    <line class="afd33553-daf2-46c7-9630-a3948fb60a29" x1="1374" y1="388.8" x2="1275" y2="388.7"/>
    <line class="afd33553-daf2-46c7-9630-a3948fb60a29" x1="1311.7" y1="400" x2="1311.7" y2="324.7"/>
  </g>
</svg>
