<svg width="14" height="18" viewBox="0 0 14 18" fill="none" xmlns="http://www.w3.org/2000/svg">
    <path
        d="M12.9219 14.5023L11.2479 12.4255C10.6539 11.6863 9.53794 11.5631 8.79994 12.1615L7.95393 12.8479C7.77393 12.9887 7.48593 12.9711 7.32394 12.8127C5.73993 11.0879 4.62394 9.06394 4.01193 6.82874C3.95794 6.59994 4.08393 6.35354 4.31793 6.28314L5.34393 5.94874C6.26193 5.64954 6.74794 4.68154 6.44194 3.78394L5.54193 1.31994C5.27193 0.563138 4.37193 0.228738 3.65193 0.598338C0.933935 2.04154 -0.722066 5.17434 2.73393 11.3695C6.18993 17.5647 9.78994 17.8815 12.5079 16.4383C13.2279 16.0687 13.4259 15.1359 12.9219 14.5023Z"
        fill="#B0B8C8" />
</svg>