<svg xmlns="http://www.w3.org/2000/svg" xmlns:xlink="http://www.w3.org/1999/xlink" viewBox="0 0 21 26" style="enable-background:new 0 0 21 26;" aria-labelledby="icon-award-title" role="img">
	<title id="icon-award-title">An award ribbon</title>
	<style type="text/css">
		.icon-award-0{fill-rule:evenodd;clip-rule:evenodd;fill:#6018C8;}
		.icon-award-1{fill-rule:evenodd;clip-rule:evenodd;fill:#180048;fill-opacity:0.4;}
		.icon-award-2{fill-rule:evenodd;clip-rule:evenodd;fill:#F050F8;}
		.icon-award-3{fill-rule:evenodd;clip-rule:evenodd;fill:#F050F8;stroke:#E8F8F8;stroke-width:0.5;}
	</style>
	<g transform="translate(0.000000, 6.000000)">
		<polygon class="icon-award-0" points="8,2 14,2 14,20 11,17 8,20"/>
		<polygon class="icon-award-1" points="11,2 14,2 14,20 11,17"/>
		<path class="icon-award-2" d="M11.3-4.9l1.5,2.1l2.4-1.1c0.2-0.1,0.4,0,0.4,0.2c0,0,0,0.1,0,0.1L16-0.9l2.6,0.3
		c0.2,0,0.3,0.2,0.3,0.4c0,0,0,0.1,0,0.1l-1.1,2.4l2.1,1.5C20,3.8,20,4,19.9,4.2c0,0,0,0.1-0.1,0.1l-2.1,1.6l1.1,2.4
		c0.1,0.2,0,0.4-0.2,0.4c0,0-0.1,0-0.1,0l-2.6,0.3l-0.3,2.6c0,0.2-0.2,0.3-0.4,0.3c0,0-0.1,0-0.1,0l-2.4-1.1l-1.5,2.1
		C11.2,13,11,13,10.8,12.9c0,0-0.1,0-0.1-0.1l-1.5-2.1l-2.4,1.1c-0.2,0.1-0.4,0-0.4-0.2c0,0,0-0.1,0-0.1L6,8.9L3.5,8.7
		c-0.2,0-0.3-0.2-0.3-0.4c0,0,0-0.1,0-0.1l1.1-2.4L2.1,4.3C2,4.2,2,4,2.1,3.8c0,0,0-0.1,0.1-0.1l2.1-1.6L3.2-0.2
		c-0.1-0.2,0-0.4,0.2-0.4c0,0,0.1,0,0.1,0l2.6-0.3l0.3-2.6c0-0.2,0.2-0.3,0.4-0.3c0,0,0.1,0,0.1,0l2.4,1l1.5-2.1
		C10.8-5,11-5,11.3-4.9C11.2-4.9,11.2-4.9,11.3-4.9z M12.1,0H9.9L8,1.1L7,2.9l0,2.3l1,1.7L10,8H12l1.9-1.1L15,5l0-2l-1.2-2L12.1,0z"
		/>
		<circle class="icon-award-3" cx="11" cy="4" r="5.2"/>
	</g>
</svg>
