<?xml version="1.0" encoding="UTF-8"?>
<svg viewBox="0 0 22 21" version="1.1" xmlns="http://www.w3.org/2000/svg" xmlns:xlink="http://www.w3.org/1999/xlink" aria-labelledby="title-octopus-blue" aria-describedby="desc-octopus-blue" role="img">
    <title id="title-octopus-blue">Octopus silhouette</title>
    <desc id="desc-octopus-blue">A silhouette of a small happy Octopus</desc>
    <g stroke="none" stroke-width="1" fill="none" fill-rule="evenodd">
        <g transform="translate(1.000000, 12.000000)" stroke="#5BF8FF" stroke-linecap="round" stroke-linejoin="round" stroke-width="1.5">
            <path d="M5.45043665,2.71087646 C4.95410759,3.0206247 4.41468194,2.97718874 3.87884767,2.87465139 C2.91563889,2.69022658 2.2002355,2.09422824 1.58826392,1.39142017 C1.33543059,1.10160975 1.08116071,0.934986557 0.735669713,1.02399467 C0.375813187,1.11656311 0.179005427,1.42203896 0.0590532512,1.76383012 C-0.101840685,2.22168786 0.0935305231,2.61403563 0.315477961,2.98715765 C0.613562709,3.48702722 0.9928127,3.92138682 1.49129659,4.24181603 C1.58179943,4.30020535 1.65865501,4.37212391 1.71755369,4.47323713 C1.69097746,4.52165754 1.67014744,4.58431925 1.62992395,4.63060347 C1.11707453,5.22019322 1.10342728,5.70439737 1.57461666,6.33030243 C2.21388275,7.17979587 3.07581455,7.73235825 4.10510477,7.89969351 C5.85985426,8.18451947 7.51260848,7.8875884 8.90175523,6.68847108 C9.46560228,6.20213074 9.85203504,5.59402731 10,4.85419186"></path>
            <path d="M6,3 C5.82924305,3.34346286 5.79228267,3.73920928 5.57643406,4.0770416 C5.20683028,4.65537835 4.69308102,4.8999046 4.09210526,4.97712341 C3.31741573,5.07606002 2.61221171,4.85164284 1.98388527,4.35132927 C1.68820225,4.11484664 1.38217031,3.9153647 1,3.91214725"></path>
            <path d="M15.6422539,2.71087646 C15.1459248,3.0206247 14.6064991,2.97718874 14.0706649,2.87465139 C13.1074561,2.69022658 12.3920527,2.09422824 11.7800811,1.39142017 C11.1681095,0.688612095 10.2853477,0.904447257 10.0612442,1.55084458 C9.8371407,2.1972419 10.2833617,2.68596166 10.5108424,3.05748002 C10.7335318,3.42117324 11.1846299,3.92138682 11.6831138,4.24181603 C11.7736166,4.30020535 11.8504722,4.37212391 11.9093709,4.47323713 C11.8827947,4.52165754 11.8619646,4.58431925 11.8217412,4.63060347 C11.3088917,5.22019322 11.2952445,5.70439737 11.7664339,6.33030243 C12.4056999,7.17979587 13.2676317,7.73235825 14.296922,7.89969351 C16.0516715,8.18451947 17.7044257,7.8875884 19.0935724,6.68847108 C19.6574195,6.20213074 20.0438522,5.59402731 20.1918172,4.85419186" transform="translate(15.095909, 4.477777) scale(-1, 1) translate(-15.095909, -4.477777) "></path>
            <path d="M19,3 C18.8292431,3.34346286 18.7922827,3.73920928 18.5764341,4.0770416 C18.2068303,4.65537835 17.693081,4.8999046 17.0921053,4.97712341 C16.3174157,5.07606002 15.6122117,4.85164284 14.9838853,4.35132927 C14.6882022,4.11484664 14.3821703,3.9153647 14,3.91214725" transform="translate(16.500000, 4.000000) scale(-1, 1) translate(-16.500000, -4.000000) "></path>
        </g>
        <ellipse stroke="#5BF8FF" stroke-width="1.5" cx="11" cy="8.5" rx="7" ry="7.5"></ellipse>
        <path d="M9.52063368,12 C9.97972712,11.6854539 10.0743089,11.0712724 9.94997106,10.5039534 C9.89630389,10.2582808 9.77568559,10.0253889 9.54135665,10.0019577 C9.34475413,9.98136663 9.14921434,10.1233739 9.06791654,10.4201691 C8.91594811,10.9782577 9.00202813,11.7216657 9.49991071,12" stroke="#5BF8FF" stroke-width="1.5" fill="#5BF8FF" stroke-linecap="round" stroke-linejoin="round"></path>
        <path d="M12.5206203,12 C13.0166003,11.7113458 13.1279428,10.7951516 12.8535822,10.2581698 C12.6921622,9.94121615 12.3698551,9.90796431 12.1887239,10.2036934 C11.8504346,10.7569473 11.9745628,11.7085158 12.4998434,12" stroke="#5BF8FF" stroke-width="1.5" fill="#5BF8FF" stroke-linecap="round" stroke-linejoin="round"></path>
    </g>
</svg>