<?xml version="1.0" encoding="utf-8"?>
<!-- Generator: Adobe Illustrator 21.1.0, SVG Export Plug-In . SVG Version: 6.00 Build 0)  -->
<svg version="1.1" id="bloomberg" xmlns="http://www.w3.org/2000/svg" xmlns:xlink="http://www.w3.org/1999/xlink" x="0px" y="0px"
	 viewBox="0 0 187.6667 37.8333" style="enable-background:new 0 0 187.6667 37.8333;" xml:space="preserve">
<style type="text/css">
	.bloomberg-0{fill-rule:evenodd;clip-rule:evenodd;}
</style>
<g>
	<path class="bloomberg-0" d="M0.3727,0.5232h7.8001c4.8747,0,6.3377,0,8.2874,2.4375c0.9751,0.9751,1.4627,2.9248,1.4627,4.3875
		c0,1.95-0.9751,3.4127-2.9248,4.8748c4.3875,1.4627,3.8999,5.3629,3.8999,6.8253c0,1.9502-0.4876,3.8999-2.4378,5.3626
		c-2.4375,1.95-3.4126,2.4375-7.7998,2.4375H0.3727V0.5232L0.3727,0.5232z M7.1976,10.2733h1.95c0.9751,0,2.4378,0,2.4378-1.9503
		c0-1.9499-1.4627-1.9499-2.4378-1.9499h-1.95V10.2733L7.1976,10.2733z M7.1976,20.9984h2.4375c0.9751,0,3.4123,0,2.9248-2.4375
		c0.4875-2.4377-1.4621-2.4377-2.9248-2.4377H7.1976V20.9984L7.1976,20.9984z"/>
	<polygon class="bloomberg-0" points="20.8479,0.5232 26.6983,0.5232 26.6983,26.8483 20.8479,26.8483 20.8479,0.5232 	"/>
	<path class="bloomberg-0" d="M38.8856,6.3731c7.3125,0,10.7252,5.3629,10.7252,10.7251c0,4.3878-3.4126,10.2376-10.7252,10.2376
		c-6.825,0-10.2376-5.8499-10.7252-10.2376C28.648,11.7359,32.0606,6.3731,38.8856,6.3731L38.8856,6.3731z M38.8856,21.9735
		c2.925,0,4.8753-2.4378,4.8753-4.8753c0-3.4126-1.9503-5.3623-4.8753-5.3623c-2.4375,0-4.3878,1.9497-4.3878,5.3623
		C34.4978,19.5357,36.4481,21.9735,38.8856,21.9735L38.8856,21.9735z"/>
	<path class="bloomberg-0" d="M61.7986,6.3731c7.3125,0,10.7252,5.3629,10.7252,10.7251c0,4.3878-3.4126,10.2376-10.7252,10.2376
		c-7.3126,0-10.7252-5.8499-10.7252-10.2376C51.0734,11.7359,54.486,6.3731,61.7986,6.3731L61.7986,6.3731z M61.7986,21.9735
		c2.4375,0,4.8747-2.4378,4.8747-4.8753c0-3.4126-2.4372-5.3623-4.8747-5.3623c-2.4378,0-4.8753,1.9497-4.8753,5.3623
		C56.9233,19.5357,59.3608,21.9735,61.7986,21.9735L61.7986,21.9735z"/>
	<path class="bloomberg-0" d="M73.9862,6.8606h5.3625v2.4375c0.4876-0.9751,1.95-2.925,5.3626-2.925c1.9502,0,4.3874,0.4875,5.8501,3.4126
		c1.4624-1.9499,3.4127-3.4126,6.3377-3.4126c1.4627,0,3.8999,0,5.3626,1.9499c1.95,1.9503,1.95,3.4129,1.95,7.8001v10.7251h-5.8499
		V16.1231c0-1.4621,0-4.3872-2.9256-4.3872c-3.4124,0-3.4124,2.9251-3.4124,4.3872v10.7251H86.174V16.1231
		c0-1.4621,0-4.3872-2.9251-4.3872c-3.4126,0-3.4126,3.4126-3.4126,4.3872v10.7251h-5.8501V6.8606L73.9862,6.8606z"/>
	<path class="bloomberg-0" d="M106.6489,0.5232h6.338v8.2874c1.95-2.4375,4.8747-2.4375,5.3626-2.4375
		c4.3875,0,10.2373,2.925,9.7498,10.2376c0.4875,7.3125-4.8748,10.7252-9.7498,10.7252c-2.925,0-4.8753-1.4624-5.8501-2.4375v1.9499
		h-5.8504V0.5232L106.6489,0.5232z M117.3741,21.9735c2.9256,0,4.8753-2.4378,4.8753-4.8753c0-2.925-1.9497-5.3623-4.8753-5.3623
		c-2.9248,0-4.8748,2.4373-4.8748,5.3623C112.4993,19.5357,114.4493,21.9735,117.3741,21.9735L117.3741,21.9735z"/>
	<path class="bloomberg-0" d="M150.5247,20.5109c-0.9751,2.4372-2.4373,3.8999-4.3875,5.3625c-1.4624,0.9749-3.4127,1.4624-5.3626,1.4624
		c-5.8501,0-10.7249-4.3878-10.7249-10.2376c0-5.8499,4.3874-10.7251,10.2373-10.7251c6.3377,0,10.7252,4.8753,10.7252,10.7251
		c0,0.9752,0,0.9752,0,1.4627h-15.1126c0.4875,2.4375,2.4377,3.9002,4.875,3.9002c1.9499,0,2.9251-0.9751,3.4126-1.9502H150.5247
		L150.5247,20.5109z M145.1624,14.661c0-0.9754-1.4627-3.4127-4.3878-3.4127c-2.9248,0-4.3875,2.4373-4.875,3.4127H145.1624
		L145.1624,14.661z"/>
	<path class="bloomberg-0" d="M153.4498,6.8606h5.3629v2.4375c0.9751-0.9751,3.4124-2.4375,5.8499-1.95v5.3623
		c-2.4375,0-5.3623,0-5.3623,3.4127v10.7251h-5.8504V6.8606L153.4498,6.8606z"/>
	<path class="bloomberg-0" d="M187.0879,24.4108c0,2.9251-0.4876,6.8253-1.4626,8.2879c-1.4624,2.4373-4.8748,4.8748-9.7501,4.3872
		c-6.825-0.9749-8.775-3.8996-9.2625-6.825h6.3374c0.9752,1.4627,2.9251,1.4627,3.4127,1.9502
		c2.925-0.4875,4.8753-0.4875,4.3877-6.8252v-0.4875c-0.4875,0.9751-1.9502,2.4375-5.3629,2.4375
		c-5.3623,0-9.7501-3.9002-9.7501-10.2376c0-6.825,4.8753-10.7251,9.7501-10.7251c2.4378,0,4.3877,0.4875,5.3629,2.4375v-1.95
		h6.3374V24.4108L187.0879,24.4108z M176.3628,21.9735c2.925,0,4.8753-1.9502,4.3877-4.8753
		c0.4876-3.4126-1.9502-5.3623-4.3877-5.3623c-2.4375,0-4.8753,1.9497-4.8753,5.3623
		C171.4874,20.0233,173.9253,21.9735,176.3628,21.9735L176.3628,21.9735z"/>
</g>
</svg>
