<?xml version="1.0" encoding="utf-8"?>
<!-- Generator: Adobe Illustrator 21.1.0, SVG Export Plug-In . SVG Version: 6.00 Build 0)  -->
<svg version="1.1" id="financialtimes" xmlns="http://www.w3.org/2000/svg" xmlns:xlink="http://www.w3.org/1999/xlink" x="0px" y="0px"
	 viewBox="0 0 85.72 85.3333" style="enable-background:new 0 0 85.72 85.3333;" xml:space="preserve">
<style type="text/css">
	.financialtimes-0{fill-rule:evenodd;clip-rule:evenodd;fill:none;stroke:#000000;stroke-miterlimit:10;}
	.financialtimes-1{fill-rule:evenodd;clip-rule:evenodd;}
</style>
<g>
	<polygon class="financialtimes-0" points="1.6821,83.4426 83.5856,83.4426 83.5856,1.5392 1.6821,1.5392 1.6821,83.4426 	"/>
	<path class="financialtimes-1" d="M77.3088,20.3694h-1.0715c-0.4595-3.062-1.531-6.2767-4.746-7.8077c-1.9902-0.9184-5.205-0.6123-6.8891-0.6123
		l-0.1531,35.67c0.6123,3.2148,5.6645,2.6025,5.8176,2.6025v1.531H50.9772c-0.153-0.1531-0.153-1.531,0-1.531
		c6.736,0,5.9706-0.4592,5.9706-12.094c0-10.8694,0-26.1785,0-26.1785c0-0.3062-4.2865,0-6.5829,0.4592
		c-3.8273,1.0715-4.7458,4.7458-5.2053,8.1139c0-0.1531-1.2245-0.1531-1.2245,0V9.8062h5.5111h28.0157L77.3088,20.3694
		L77.3088,20.3694z"/>
	<path class="financialtimes-1" d="M39.9547,20.3694h-1.531c-0.4592-3.215-1.2246-6.5829-4.7458-7.8077
		c-3.6743-0.9184-7.3483-0.6123-11.1756-0.6123v0.6123v16.8401c2.1432,0,4.7457,0.1531,6.5829-1.2249
		c1.8371-1.9902,2.2964-4.4396,2.7556-7.0421h1.0718v19.2895h-1.2248c-0.6123-3.062-0.7654-6.4298-3.9804-7.9608
		c-1.6837-0.6123-3.674-1.0715-5.205-1.0715v14.2373c0.1531,1.3779,0.3061,3.0617,1.3779,3.9804
		c1.2246,0.9184,3.2148,0.6122,4.4396,0.6122v1.378L9.0304,51.753v-1.378c1.2249-0.1531,4.7458,0.1531,5.205-2.4494l0.4595-2.4494
		V14.8581c-0.1533-1.0715-0.4595-2.2964-1.531-3.0617c-1.2249-0.7657-2.7556-0.7657-4.1335-0.7657
		c0-0.4592-0.1531-1.2245-0.1531-1.2245h31.0774V20.3694L39.9547,20.3694z"/>
</g>
</svg>
