<?xml version="1.0" encoding="utf-8"?>
<svg version="1.1" xmlns="http://www.w3.org/2000/svg" xmlns:xlink="http://www.w3.org/1999/xlink" x="0px" y="0px"
	 viewBox="0 0 199.7 56.4" style="enable-background:new 0 0 199.7 56.4;" xml:space="preserve" aria-labelledby="title-forbes" aria-describedby="desc-forbes" role="img">
<style type="text/css">
	.forbes-0{fill:#FFFFFF;}
</style>
<title id="title-forbes">Forbes logo</title>
<desc id="desc-forbes">Forbes logo</desc>
<g>
	<path id="path2995_3_" class="forbes-0" d="M50.9,54.1c-3.4-0.5-6.4-1.9-8.7-4.2c-1.9-1.9-3.1-4-4-6.8c-1.4-4.4-1.4-10.1,0-14.5
		c1.4-4.2,4.5-7.9,8.3-9.8c5.2-2.6,12.6-2.5,17.5,0.4c4.4,2.6,7,7.1,7.8,13.4c0.2,1.9,0.1,5.9-0.3,7.6c-1.4,6.8-5.7,11.6-11.9,13.4
		c-0.7,0.2-1.7,0.4-2.3,0.5C56,54.2,52.1,54.2,50.9,54.1L50.9,54.1z M56,51.3c1-0.3,2.2-1.4,2.9-2.7c1.4-2.6,2-6.4,2-12.5
		c0-7.6-1.2-12.5-3.7-15c-1.1-1.1-1.8-1.4-3.2-1.4c-3,0-4.9,3.1-5.7,9.3c-0.3,2.8-0.3,9.6,0,12.1C49.4,48.8,52.1,52.5,56,51.3
		L56,51.3z M111.3,54.1c-1.4-0.1-5.7-0.9-7.2-1.2l-1-0.2l0.1-5.5c0.2-13.3,0.2-20.5,0.1-27.5c-0.1-6.9-0.2-7.6-0.4-8.6
		c-0.3-1.3-0.8-2.2-1.4-2.6c-0.2-0.2-0.8-0.4-1.4-0.5c-1.8-0.4-1.7-0.3-1.7-1.1c0-0.5,0-0.8,0.1-0.9c0.2-0.1,14.5-2.9,15-2.9
		c0.1,0,0.2,1.8,0.1,8.2c0,4.5-0.1,8.2,0,8.2c0,0,0.6-0.2,1.2-0.5c1.8-0.8,3.5-1.2,5.9-1.3c1.6-0.1,2.4,0,3.2,0.2
		c5.4,1.1,9.4,5.6,10.8,12c0.4,1.7,0.5,5.8,0.3,7.9c-0.2,1.8-0.8,4.2-1.4,5.7c-2.3,5.9-7.3,9.7-13.9,10.7
		C118.2,54.2,113.4,54.3,111.3,54.1L111.3,54.1z M117,51.3c1-0.2,1.8-0.6,2.7-1.4c2.1-1.9,3.7-5.9,4.4-10.8c0.3-2,0.2-6.6-0.1-8.2
		c-0.8-4.5-2.4-7.5-4.8-8.7c-1-0.5-1.2-0.5-2.3-0.5c-0.9,0-1.6,0.1-2.2,0.3l-0.9,0.3l-0.1,5.1c-0.1,6.6,0.1,23.1,0.3,23.6
		c0.1,0.3,0.2,0.4,0.8,0.4C116,51.4,116.2,51.4,117,51.3L117,51.3z M151.8,54c-7-1.3-12-6.2-13.6-13.5c-0.2-0.9-0.3-2-0.4-4
		c-0.1-3.2,0.2-5.2,1-7.7c1.6-4.8,4.4-8.1,8.6-10.1c4.4-2.1,10.3-2.3,14.2-0.3c4.4,2.2,6.9,6.5,7.6,12.9c0.1,0.9,0.1,1.9,0.1,2.3
		l0,0.7l-10.4,0l-10.4,0l0,1.2c0.1,2.9,0.7,5.4,1.8,7.6c0.5,1,0.9,1.5,1.9,2.5c2.3,2.3,4.5,3.2,8,3.2c2.6,0,4.4-0.5,6.3-1.8
		c0.5-0.3,1.1-0.6,1.2-0.6c0.3,0,1,0.9,1,1.3c0,0.6-2,2.6-4,4c-1.6,1.1-4.2,2.1-6.4,2.5C156.8,54.3,153.3,54.3,151.8,54L151.8,54z
		 M156.2,31l2.4-0.1l-0.1-1.7c-0.3-6.1-1.8-9.5-4.2-9.5c-2.6,0-4.8,3.4-5.6,9.1c-0.1,0.7-0.2,1.5-0.2,1.8l0,0.6l2.6,0
		C152.6,31.2,154.9,31.1,156.2,31L156.2,31z M180,54.1c-2.5-0.3-6.5-1.1-7.8-1.7l-0.6-0.3l-0.1-3.2c0-1.8-0.1-4.1-0.1-5.3l0-2
		l0.4-0.2c0.2-0.1,0.6-0.2,1-0.2l0.6,0l0.5,1.2c1.9,4.7,4.1,7.2,7,7.9c1.1,0.3,3.2,0.3,4,0c2.3-0.8,3.6-2.6,3.6-4.9
		c0-2.8-1.5-4.2-7.4-6.5c-3.6-1.4-4.9-2.1-6.4-3.7c-1.6-1.7-2.4-3.6-2.5-6.2c-0.2-3.2,0.8-5.9,3-8.2c2.2-2.3,5.1-3.5,9-3.9
		c3.5-0.3,8.8,0.4,11.5,1.6l0.5,0.2l0.1,2.9c0,1.6,0.1,3.7,0.1,4.7l0,1.8l-0.7,0.3c-1.1,0.4-1.1,0.3-1.7-1.2
		c-1.7-4.5-3.6-6.6-6.7-7.2c-1.9-0.4-3.4,0-4.5,1.2c-0.9,0.9-1.2,1.8-1.3,3.2c-0.1,1.5,0.2,2.3,1.1,3.4c1.1,1.2,3,2.3,6.7,3.9
		c4.6,1.9,6.7,3.5,7.9,5.9c0.8,1.5,1,2.8,0.9,5.1c-0.1,1.8-0.1,2.1-0.5,3.3c-1.3,3.9-4.3,6.4-8.9,7.6c-1.6,0.4-1.8,0.4-4.9,0.5
		C182,54.2,180.3,54.2,180,54.1z M2.4,53.3c-0.1,0-0.2-0.4-0.2-1c0-1.2-0.1-1.1,2.2-1.5c1.7-0.3,2.3-0.6,3.1-1.7
		C9,47.1,9.3,43.4,9.4,28c0-14.5-0.3-17.5-1.8-19.7c-0.7-1-1.8-1.5-3.7-1.8L2.3,6.3l0-1.2l0-1.2l0.5-0.1c0.3,0,9.2-0.1,19.9,0
		l19.4,0l0.1,0.6c0.1,0.3,0.1,3.5,0.2,7.1l0.1,6.5l-1,0.3c-1.5,0.5-1.5,0.5-2.2-1.3c-1.7-4.4-3.6-6.9-6.2-8.2c-1.8-0.9-2.6-1-7.7-1
		h-4.4l-0.1,0.7c-0.1,1.4-0.4,10.3-0.4,14.5l0,4.2l1.3,0c0.7,0,2.1-0.1,3.1-0.1c1.5-0.1,2-0.2,2.6-0.5c1.6-0.7,2.6-2.3,3.3-4.9
		l0.3-1.3l1.1,0l1.1,0v8.5v8.5l-1.1,0l-1.1,0l-0.3-1.3c-0.6-2.5-1.8-4.3-3.3-5c-0.7-0.3-2.3-0.5-5.6-0.6l-1.5,0v3.2
		c0,3.5,0.2,8.1,0.4,10.7c0.3,3.5,1.2,5.5,2.9,6.2c0.3,0.1,1.3,0.4,2.2,0.5s1.7,0.3,1.9,0.4c0.3,0.2,0.4,2,0,2.1
		C27.5,53.4,2.7,53.4,2.4,53.3L2.4,53.3z M71.8,53.3c-0.1-0.1-0.2-0.4-0.1-1.1l0-1l0.5-0.1c0.3-0.1,0.9-0.2,1.3-0.3
		c1.4-0.3,2.1-1,2.6-2.4c0.4-1.2,0.5-5,0.5-12.5c0-9.3-0.2-11.5-1.1-12.7c-0.5-0.7-0.9-0.9-2.1-1.1c-0.6-0.1-1.2-0.2-1.4-0.3
		c-0.3-0.1-0.3-0.2-0.3-0.8c0-0.7,0-0.8,0.3-0.9c0.4-0.2,14.4-3,14.8-3h0.3l-0.1,2.1c0,1.1-0.1,2.8-0.1,3.7l-0.1,1.6l0.5-0.9
		c1.6-2.9,3.4-4.7,5.8-5.8c1.3-0.6,2.2-0.8,3.8-0.8c1.9,0,3.9,0.6,3.9,1.3c0,0.4-3.4,9.5-3.6,9.5c-0.1,0-0.8-0.2-1.5-0.6
		c-1.5-0.7-2.9-1.1-4.3-1.1c-1.7,0-3.6,0.6-4.4,1.4c-0.3,0.3-0.3,0.4-0.4,5.5c-0.1,5.1,0.1,11.4,0.4,13.9c0.2,2.1,0.8,3.2,2,3.7
		c0.4,0.2,2.9,0.5,3.7,0.5c0.1,0,0.1,0.5,0.1,1.1l0,1.1l-10.4,0C76.7,53.4,71.9,53.3,71.8,53.3L71.8,53.3z"/>
</g>
</svg>
