<?xml version="1.0" encoding="utf-8"?>
<svg version="1.1"
	 id="svg2" xmlns:cc="http://creativecommons.org/ns#" xmlns:dc="http://purl.org/dc/elements/1.1/" xmlns:rdf="http://www.w3.org/1999/02/22-rdf-syntax-ns#" xmlns:svg="http://www.w3.org/2000/svg"
	 xmlns="http://www.w3.org/2000/svg" xmlns:xlink="http://www.w3.org/1999/xlink" x="0px" y="0px" viewBox="0 0 912.3066 130.9067"
	 style="enable-background:new 0 0 912.3066 130.9067;" xml:space="preserve" aria-labelledby="title-gizmodo" aria-describedby="desc-gizmodo" role="img">
<title id="title-gizmodo">Gizmodo logo</title>
<desc id="desc-gizmodo">Gizmodo logo</desc>
<g id="g10" transform="matrix(1.3333333,0,0,-1.3333333,0,130.90667)">
	<g id="g12" transform="scale(0.1)">
		<path id="path14" d="M1148.048,121.5727v739.3002c0,38.3916,8.757,67.2167,26.271,86.406
			c17.4943,19.1953,40.1578,28.8132,67.9016,28.8132c28.6234,0,51.7811-9.5171,69.5225-28.5009
			c17.7118-18.9877,26.5973-47.8781,26.5973-86.7183V121.5727c0-38.8204-8.8855-67.8425-26.5973-87.0424
			c-17.7412-19.2194-40.8988-28.8252-69.5223-28.8252c-27.3386,0-49.8636,9.7178-67.5952,29.1379
			C1156.9038,54.263,1148.048,83.1885,1148.048,121.5727"/>
		<path id="path16" d="M6317.6235,779.2002c-159.1387,0-288.6064-129.4814-288.6064-288.6144
			c0-159.1171,129.4678-288.5907,288.6064-288.5907c159.1191,0,288.5962,129.4736,288.5962,288.5907
			c0,159.1329-129.4775,288.6144-288.5967,288.6144 M6317.623,5.7051c-267.3662,0-484.8989,217.5283-484.8989,484.8807
			c0,267.3871,217.5322,484.9044,484.8989,484.9044c267.3857,0,484.8784-217.5174,484.8784-484.9044
			c0-267.3524-217.4922-484.8807-484.8779-484.8807"/>
		<path id="path18" d="M4140.8682,779.2002c-159.1191,0-288.5869-129.4814-288.5869-288.6144
			c0-159.1171,129.4678-288.5907,288.5869-288.5907c159.1484,0,288.5864,129.4736,288.5864,288.5907
			C4429.4546,649.7188,4300.0166,779.2002,4140.8682,779.2002 M4140.8682,5.7051c-267.3665,0-484.8789,217.5283-484.8789,484.8807
			c0,267.3871,217.5125,484.9044,484.8789,484.9044c267.376,0,484.8984-217.5174,484.8984-484.9044
			C4625.7666,223.2334,4408.2441,5.7051,4140.8682,5.7051"/>
		<path id="path20" d="M5226.8389,204.3692c-23.4644-1.529-48.707-1.7949-75.8584-1.7949h-127.3027V779.219h127.3027
			c27.1514,0,52.394-0.3005,75.8584-1.791c84.1602-10.0617,157.2803-56.3919,203.2202-123.0107
			c32.0034-46.3846,50.8521-102.4592,50.9805-162.9401c0-0.1581,0.02-0.3123,0.02-0.4784v-0.2125c0-0.1542-0.02-0.3123-0.02-0.4665
			c-0.1284-60.4808-18.9771-116.5594-50.9805-162.9559C5384.1196,260.7492,5310.9995,214.4417,5226.8389,204.3692
			 M5677.3711,490.8981v0.1315c-0.0591,107.0117-34.9487,205.9771-93.8364,286.2749
			c-85.6626,116.7789-222.187,193.8615-376.6611,198.4052c-4.7935,0.1472-9.5771,0.3825-14.4199,0.3825
			c-0.2671,0-243.4873-0.3134-243.4873-0.3134c-41.5713,0-71.6772-9.4706-90.2783-28.4
			c-18.6309-18.9334-27.9414-49.5267-27.9414-91.8115V126.229c0-42.2836,9.3105-72.8694,27.9414-91.8222
			c18.6011-18.9414,48.707-28.4005,90.2783-28.4005c0,0,243.2202-0.3011,243.4873-0.3011c4.8428,0,9.627,0.2355,14.4199,0.3668
			c154.4741,4.5597,290.9985,81.6378,376.6611,198.4208c58.8877,80.2979,93.7773,179.2632,93.8364,286.271V490.8981"/>
		<path id="path22" d="M3381.3779,971.7679c-35.4333,11.0076-73.7131-2.9187-94.3506-34.3619L2994.665,492.0565L2702.3127,937.406
			c-20.6177,31.4432-58.9172,45.3696-94.3506,34.3619c-35.4236-11.0194-59.6091-44.4118-59.6091-82.2637V97.9834
			c0-47.4962,37.6672-85.9928,84.1013-85.9928c46.4636,0,84.1208,38.4966,84.1208,85.9928v509.0384l207.5791-316.1694
			c0.1382-0.2204,0.2769-0.4211,0.415-0.6444l0.2571-0.3785c0.2471-0.3904,0.5435-0.7373,0.8005-1.1277
			c1.2949-1.8918,2.6289-3.7756,4.1018-5.5784c0.6423-0.8036,1.3145-1.5172,1.9766-2.2743
			c1.1663-1.3284,2.2932-2.6637,3.5286-3.9229c1.1072-1.1347,2.2932-2.1962,3.4692-3.2854c0.8501-0.7719,1.7-1.5943,2.5898-2.3513
			c1.6604-1.3936,3.3406-2.6409,5.0801-3.8685c0.4941-0.344,0.929-0.7571,1.4331-1.0922c0.0593-0.0544,0.1284-0.0781,0.2173-0.1314
			c1.8484-1.2592,3.7659-2.3978,5.7229-3.5097c0.5337-0.3123,1.0674-0.68,1.6108-0.9577c1.4529-0.8026,2.9553-1.4628,4.4775-2.1734
			c8.51-3.9763,17.4248-6.463,26.3994-7.3901c0.0791,0,0.1284-0.0069,0.178-0.0306c1.7888-0.1542,3.5681-0.1888,5.3271-0.2659
			c0.9785-0.0356,1.9668-0.1236,2.9255-0.1236c0.9983,0,1.957,0.088,2.9355,0.1236c1.7891,0.0771,3.5581,0.1117,5.3372,0.2659
			c0.0493,0.0237,0.1187,0.0306,0.168,0.0306c8.9941,0.9271,17.8997,3.4138,26.4192,7.3901
			c1.5024,0.7106,3.0247,1.3708,4.4675,2.1734c0.5635,0.2777,1.0676,0.6454,1.6309,0.9577c1.947,1.1119,3.8545,2.2505,5.7029,3.5097
			c0.0891,0.0533,0.168,0.0771,0.2371,0.1314c0.4944,0.3351,0.9292,0.7482,1.4133,1.0922c1.7397,1.2276,3.4495,2.4749,5.0901,3.8685
			c0.8994,0.7571,1.7297,1.5794,2.6191,2.382c1.1465,1.0586,2.3228,2.1201,3.4297,3.232c1.2551,1.2819,2.3818,2.6291,3.5383,3.9575
			c0.6721,0.7452,1.3542,1.4786,1.9768,2.2624c1.4629,1.8028,2.7974,3.6866,4.1018,5.5784
			c0.2568,0.3904,0.5535,0.7373,0.8105,1.1277l0.2371,0.3785c0.1482,0.2234,0.2769,0.424,0.4348,0.6444l207.5496,316.1694V97.9834
			c0-47.4962,37.6377-85.9928,84.1506-85.9928c46.4141,0,84.1111,38.4966,84.1111,85.9928v791.5209
			c0,37.8519-24.2153,71.2443-59.6489,82.2637"/>
		<path id="path24" d="M2262.0791,35.2098h-628.7767c-33.0712,0-69.8191,20.6903-83.4291,52.8898
			c-13.6199,32.1685-16.4071,75.9704,12.8785,110.876l514.3424,596.7799h-424.9238c-46.4537,0-84.1307,40.2339-84.1307,89.8732
			c0,49.6384,37.677,79.9539,84.1307,79.9539h573.0024c33.0613,0,67.3086-5.2582,97.2268-38.0368
			c27.3386-29.9528,26.1328-94.5987-4.4871-133.1494L1820.9459,214.933h441.1332c46.4636,0,80.2859-40.2349,80.2859-89.8505
			C2342.365,75.4553,2308.5427,35.2098,2262.0791,35.2098"/>
		<path id="path26" d="M521.1462,5.7051c-139.5274,0-266.0665,55.3222-356.3065,155.7773
			C85.3369,249.9848,39.7595,366.5986,39.7595,481.4275c0,360.3568,299.5558,494.6527,488.3904,494.6527
			c185.657,0,321.9445-91.0425,327.6514-94.8992c41.8124-28.3773,53.0018-85.7151,24.9911-128.0651
			c-27.9454-42.2067-84.283-53.6156-126.0568-25.5585c-2.4364,1.5597-99.1156,63.9204-226.5858,63.9204
			c-118.3623,0-281.5841-78.1165-281.5841-310.0504c0-131.9445,98.147-287.5677,278.0971-287.5677
			c101.2476,0,172.4305,26.9758,213.811,53.3072v137.2335H598.2585c-50.3293,0-91.1354,41.3152-91.1354,92.3017
			c0,50.9747,40.8062,92.3017,91.1354,92.3017h231.3586c50.3263,0,91.1315-41.327,91.1315-92.3017V202.1651
			c0-24.9724-9.9846-48.8476-27.6597-66.2411C831.9874,75.8568,697.9158,5.7051,521.1462,5.7051"/>
	</g>
</g>
</svg>
