<?xml version="1.0" encoding="utf-8"?>
<svg version="1.1" xmlns="http://www.w3.org/2000/svg" xmlns:xlink="http://www.w3.org/1999/xlink" x="0px" y="0px"
	 viewBox="0 0 288.0033 56.539" style="enable-background:new 0 0 288.0033 56.539;" xml:space="preserve" aria-labelledby="title-rea" role="img">
<title id="title-rea">The association for renewable energy and clean technology</title>
<g>
	<path d="M27.2972,50.9057L12.6468,30.3109h-0.1201v20.5947H6.0419V6.4735h14.2305c10.6875,0,15.4312,5.644,15.4312,14.7705
		c0,8.4663-6.4849,12.9097-12.7295,13.0894l12.4292,16.5723H27.2972z M17.2699,29.41c7.5654,0,11.9487-2.9419,11.9487-8.7061
		c0-5.104-4.083-8.2861-9.8472-8.2861h-6.8447V29.41H17.2699z"/>
	<path d="M44.1088,50.9057V6.4735h23.9575v5.9443H50.5936v13.0894h17.4727v5.9443H50.5936v13.5098h17.4727v5.9443H44.1088z"/>
</g>
<polygon points="75.1598,50.2996 98.6156,6.2391 122.5184,50.3363 106.5184,50.3363 98.7302,35.8363 91.2637,50.3165 "/>
<g>
	<path d="M134.9173,12.6713v7.917h-1.3921v-7.917h-2.1216v-1.3086h5.6289v1.3086H134.9173z"/>
	<path d="M139.6673,14.9716h3.9795v-3.6089h1.3921v9.2256h-1.3921v-4.3081h-3.9795v4.3081h-1.3921v-9.2256h1.3921V14.9716z"/>
	<path d="M152.3407,12.6713h-3.6982v2.2168h3.5908v1.3086h-3.5908v3.083h3.6982v1.3086h-5.0908v-9.2256h5.0908V12.6713z"/>
	<path d="M163.3661,18.3475h-3.9502l-1.0273,2.2407h-1.5l4.5654-9.8052l4.4033,9.8052h-1.5234L163.3661,18.3475z M162.7977,17.039
		l-1.3682-3.1367l-1.4336,3.1367H162.7977z"/>
	<path d="M172.2264,12.7367l-1.1289,0.6694c-0.2109-0.3667-0.4121-0.6055-0.6035-0.7173c-0.1992-0.1274-0.4561-0.1909-0.7705-0.1909
		c-0.3867,0-0.707,0.1094-0.9619,0.3286c-0.2549,0.2148-0.3828,0.4858-0.3828,0.8125c0,0.4502,0.335,0.8125,1.0039,1.0874
		l0.9199,0.3765c0.749,0.3027,1.2969,0.6724,1.6436,1.1084c0.3467,0.4365,0.5195,0.9712,0.5195,1.6045
		c0,0.8486-0.2822,1.5498-0.8486,2.103c-0.5693,0.5581-1.2764,0.8369-2.1211,0.8369c-0.8008,0-1.4619-0.2373-1.9834-0.7114
		c-0.5137-0.4736-0.835-1.1411-0.9619-2.0015l1.4102-0.3105c0.0635,0.5415,0.1748,0.916,0.334,1.123
		c0.2871,0.3984,0.7051,0.5977,1.2549,0.5977c0.4346,0,0.7949-0.1455,1.082-0.436c0.2871-0.291,0.4297-0.6597,0.4297-1.1055
		c0-0.1792-0.0244-0.3438-0.0742-0.4932s-0.1279-0.2866-0.2334-0.4121s-0.2422-0.2432-0.4092-0.3525
		c-0.167-0.1099-0.3662-0.2144-0.5977-0.314l-0.8896-0.3701c-1.2637-0.5342-1.8945-1.3149-1.8945-2.3423
		c0-0.6934,0.2646-1.2729,0.7949-1.7388c0.5293-0.4702,1.1885-0.7051,1.9775-0.7051
		C170.7987,11.1835,171.6297,11.7011,172.2264,12.7367z"/>
	<path d="M179.3602,12.7367l-1.1289,0.6694c-0.2109-0.3667-0.4121-0.6055-0.6035-0.7173c-0.1992-0.1274-0.4561-0.1909-0.7705-0.1909
		c-0.3867,0-0.707,0.1094-0.9619,0.3286c-0.2549,0.2148-0.3828,0.4858-0.3828,0.8125c0,0.4502,0.335,0.8125,1.0039,1.0874
		l0.9199,0.3765c0.749,0.3027,1.2969,0.6724,1.6436,1.1084c0.3467,0.4365,0.5195,0.9712,0.5195,1.6045
		c0,0.8486-0.2822,1.5498-0.8486,2.103c-0.5693,0.5581-1.2764,0.8369-2.1211,0.8369c-0.8008,0-1.4619-0.2373-1.9834-0.7114
		c-0.5137-0.4736-0.835-1.1411-0.9619-2.0015l1.4102-0.3105c0.0635,0.5415,0.1748,0.916,0.334,1.123
		c0.2871,0.3984,0.7051,0.5977,1.2549,0.5977c0.4346,0,0.7949-0.1455,1.082-0.436c0.2871-0.291,0.4297-0.6597,0.4297-1.1055
		c0-0.1792-0.0244-0.3438-0.0742-0.4932s-0.1279-0.2866-0.2334-0.4121s-0.2422-0.2432-0.4092-0.3525
		c-0.167-0.1099-0.3662-0.2144-0.5977-0.314l-0.8896-0.3701c-1.2637-0.5342-1.8945-1.3149-1.8945-2.3423
		c0-0.6934,0.2646-1.2729,0.7949-1.7388c0.5293-0.4702,1.1885-0.7051,1.9775-0.7051
		C177.9325,11.1835,178.7635,11.7011,179.3602,12.7367z"/>
	<path d="M180.8192,15.9335c0-1.2983,0.4756-2.4141,1.4277-3.3462c0.9482-0.9321,2.0879-1.3979,3.418-1.3979
		c1.3145,0,2.4414,0.4702,3.3818,1.4102c0.9443,0.9399,1.416,2.0693,1.416,3.3877c0,1.3267-0.4736,2.4521-1.4219,3.376
		c-0.9521,0.9282-2.1016,1.3926-3.4473,1.3926c-1.1914,0-2.2607-0.4126-3.209-1.2368
		C181.3407,18.6063,180.8192,17.4115,180.8192,15.9335z M182.2235,15.9515c0,1.0195,0.3418,1.8584,1.0273,2.5156
		c0.6816,0.6572,1.4678,0.9858,2.3604,0.9858c0.9678,0,1.7842-0.3345,2.4502-1.0039c0.665-0.6772,0.9971-1.5015,0.9971-2.4736
		c0-0.9839-0.3281-1.8086-0.9854-2.4736c-0.6533-0.6694-1.4619-1.0039-2.4258-1.0039c-0.96,0-1.7715,0.3345-2.4326,1.0039
		C182.5536,14.163,182.2235,14.9794,182.2235,15.9515z"/>
	<path d="M199.0311,11.8583v1.6494c-0.8047-0.6733-1.6367-1.0098-2.4971-1.0098c-0.9482,0-1.7471,0.3403-2.3965,1.0215
		c-0.6533,0.6772-0.9795,1.5059-0.9795,2.4858c0,0.9678,0.3262,1.7847,0.9795,2.4497c0.6533,0.6655,1.4541,0.998,2.4023,0.998
		c0.4902,0,0.9062-0.0796,1.249-0.2393c0.1904-0.0796,0.3887-0.187,0.5938-0.3223c0.2051-0.1357,0.4219-0.2988,0.6484-0.4902v1.6792
		c-0.7969,0.4502-1.6328,0.6753-2.5098,0.6753c-1.3184,0-2.4434-0.4604-3.376-1.3804c-0.9277-0.9282-1.3916-2.0474-1.3916-3.3579
		c0-1.1753,0.3887-2.2231,1.165-3.1431c0.9561-1.1274,2.1924-1.6909,3.7109-1.6909
		C197.4579,11.1835,198.2587,11.4086,199.0311,11.8583z"/>
	<path d="M202.1805,11.3627v9.2256h-1.3926v-9.2256H202.1805z"/>
	<path d="M209.8172,18.3475h-3.9502l-1.0273,2.2407h-1.5l4.5654-9.8052l4.4033,9.8052h-1.5234L209.8172,18.3475z M209.2489,17.039
		l-1.3682-3.1367l-1.4336,3.1367H209.2489z"/>
	<path d="M215.4921,12.6713v7.917h-1.3916v-7.917h-2.1211v-1.3086h5.6279v1.3086H215.4921z"/>
	<path d="M220.244,11.3627v9.2256h-1.3926v-9.2256H220.244z"/>
	<path d="M221.9999,15.9335c0-1.2983,0.4756-2.4141,1.4277-3.3462c0.9482-0.9321,2.0879-1.3979,3.418-1.3979
		c1.3145,0,2.4414,0.4702,3.3818,1.4102c0.9443,0.9399,1.416,2.0693,1.416,3.3877c0,1.3267-0.4736,2.4521-1.4219,3.376
		c-0.9521,0.9282-2.1016,1.3926-3.4473,1.3926c-1.1914,0-2.2607-0.4126-3.209-1.2368
		C222.5213,18.6063,221.9999,17.4115,221.9999,15.9335z M223.4042,15.9515c0,1.0195,0.3418,1.8584,1.0273,2.5156
		c0.6816,0.6572,1.4678,0.9858,2.3604,0.9858c0.9678,0,1.7842-0.3345,2.4502-1.0039c0.665-0.6772,0.9971-1.5015,0.9971-2.4736
		c0-0.9839-0.3281-1.8086-0.9854-2.4736c-0.6533-0.6694-1.4619-1.0039-2.4258-1.0039c-0.96,0-1.7715,0.3345-2.4326,1.0039
		C223.7342,14.163,223.4042,14.9794,223.4042,15.9515z"/>
	<path d="M233.3944,20.5883v-9.853l6.7285,7.0386v-6.4111h1.3916v9.7871l-6.7275-7.0205v6.459H233.3944z"/>
	<path d="M136.9789,27.3558h-3.2148v2.2168h3.1011v1.3086h-3.1011v4.3916h-1.3921v-9.2256h4.6069V27.3558z"/>
	<path d="M138.1439,30.6181c0-1.2983,0.4756-2.4141,1.4277-3.3462c0.9482-0.9321,2.0874-1.3979,3.418-1.3979
		c1.3145,0,2.4419,0.4702,3.3823,1.4102c0.9434,0.9399,1.416,2.0693,1.416,3.3877c0,1.3267-0.4746,2.4517-1.4219,3.3765
		c-0.9531,0.9277-2.1016,1.3916-3.4482,1.3916c-1.1909,0-2.2607-0.4121-3.2085-1.2363
		C138.6654,33.2914,138.1439,32.0961,138.1439,30.6181z M139.5477,30.6361c0,1.0195,0.3428,1.8584,1.0278,2.5156
		c0.6812,0.6572,1.4678,0.9854,2.3604,0.9854c0.9678,0,1.7847-0.334,2.4497-1.0029c0.666-0.6777,0.998-1.502,0.998-2.4741
		c0-0.9839-0.3281-1.8086-0.9863-2.4736c-0.6523-0.6694-1.4614-1.0039-2.4258-1.0039c-0.96,0-1.7705,0.3345-2.4316,1.0039
		C139.8783,28.8475,139.5477,29.664,139.5477,30.6361z"/>
	<path d="M152.6639,31.3412l2.8564,3.9316h-1.7031l-2.6348-3.7764h-0.251v3.7764h-1.3926v-9.2256h1.6309
		c1.2197,0,2.0996,0.229,2.6416,0.687c0.5977,0.5098,0.8965,1.1831,0.8965,2.0195c0,0.6533-0.1875,1.2153-0.5625,1.6851
		C153.7713,30.9091,153.2772,31.2099,152.6639,31.3412z M150.9315,30.2836h0.4414c1.3184,0,1.9785-0.5039,1.9785-1.5117
		c0-0.9443-0.6416-1.416-1.9248-1.416h-0.4951V30.2836z"/>
	<path d="M163.8075,31.3412l2.8564,3.9316h-1.7031l-2.6348-3.7764h-0.251v3.7764h-1.3926v-9.2256h1.6309
		c1.2197,0,2.0996,0.229,2.6416,0.687c0.5977,0.5098,0.8965,1.1831,0.8965,2.0195c0,0.6533-0.1875,1.2153-0.5625,1.6851
		C164.9149,30.9091,164.4208,31.2099,163.8075,31.3412z M162.0751,30.2836h0.4414c1.3184,0,1.9785-0.5039,1.9785-1.5117
		c0-0.9443-0.6416-1.416-1.9248-1.416h-0.4951V30.2836z"/>
	<path d="M173.1405,27.3558h-3.6982v2.2168h3.5908v1.3086h-3.5908v3.083h3.6982v1.3086h-5.0908v-9.2256h5.0908V27.3558z"/>
	<path d="M174.9696,35.2728v-9.853l6.7285,7.0386v-6.4111h1.3916v9.7871l-6.7275-7.0205v6.459H174.9696z"/>
	<path d="M190.3915,27.3558h-3.6982v2.2168h3.5908v1.3086h-3.5908v3.083h3.6982v1.3086h-5.0908v-9.2256h5.0908V27.3558z"/>
	<path d="M192.6737,26.0473l2.4023,6.166l2.5088-6.6143l2.4023,6.6143l2.5518-6.166h1.5117l-4.123,9.8115l-2.3721-6.5371
		l-2.4736,6.543l-3.9199-9.8174H192.6737z"/>
	<path d="M209.8348,33.0326h-3.9502l-1.0273,2.2402h-1.5l4.5654-9.8052l4.4033,9.8052h-1.5234L209.8348,33.0326z M209.2665,31.723
		l-1.3682-3.1362l-1.4336,3.1362H209.2665z"/>
	<path d="M213.4794,35.2728v-9.2256h1.3857c0.6182,0,1.1094,0.0479,1.4766,0.1431c0.3701,0.0957,0.6826,0.2573,0.9375,0.4844
		c0.2588,0.2349,0.4648,0.5278,0.6162,0.8779c0.1553,0.355,0.2324,0.7134,0.2324,1.0757c0,0.6616-0.2529,1.2212-0.7588,1.6792
		c0.4902,0.1675,0.876,0.46,1.1592,0.8784c0.2871,0.4141,0.4307,0.8965,0.4307,1.4463c0,0.7207-0.2549,1.3301-0.7646,1.8281
		c-0.3076,0.3066-0.6514,0.5195-1.0342,0.6396c-0.418,0.1152-0.9424,0.1729-1.5713,0.1729H213.4794z M214.8719,30.0087h0.4355
		c0.5176,0,0.8975-0.1143,1.1387-0.3438c0.2412-0.229,0.3613-0.5664,0.3613-1.0127c0-0.4341-0.123-0.7637-0.3701-0.9888
		s-0.6055-0.3379-1.0762-0.3379h-0.4893V30.0087z M214.8719,33.9642h0.8604c0.6289,0,1.0908-0.123,1.3857-0.3701
		c0.3105-0.2676,0.4658-0.6055,0.4658-1.0156c0-0.3984-0.1494-0.7334-0.4473-1.0039c-0.291-0.2671-0.8115-0.4009-1.5596-0.4009
		h-0.7051V33.9642z"/>
	<path d="M222.1083,26.0473v7.917h2.7119v1.3086h-4.1045v-9.2256H222.1083z"/>
	<path d="M231.2313,27.3558h-3.6982v2.2168h3.5908v1.3086h-3.5908v3.083h3.6982v1.3086h-5.0908v-9.2256h5.0908V27.3558z"/>
	<path d="M241.9276,27.3558h-3.6982v2.2168h3.5908v1.3086h-3.5908v3.083h3.6982v1.3086h-5.0908v-9.2256h5.0908V27.3558z"/>
	<path d="M243.7557,35.2728v-9.853l6.7285,7.0386v-6.4111h1.3916v9.7871l-6.7275-7.0205v6.459H243.7557z"/>
	<path d="M259.1776,27.3558h-3.6983v2.2168h3.5908v1.3086h-3.5908v3.083h3.6983v1.3086h-5.0908v-9.2256h5.0908V27.3558z"/>
	<path d="M264.1307,31.3412l2.8564,3.9316h-1.7031l-2.6348-3.7764h-0.251v3.7764h-1.3926v-9.2256h1.6309
		c1.2197,0,2.0996,0.229,2.6416,0.687c0.5977,0.5098,0.8965,1.1831,0.8965,2.0195c0,0.6533-0.1875,1.2153-0.5625,1.6851
		C265.2382,30.9091,264.744,31.2099,264.1307,31.3412z M262.3983,30.2836h0.4414c1.3184,0,1.9785-0.5039,1.9785-1.5117
		c0-0.9443-0.6416-1.416-1.9248-1.416h-0.4951V30.2836z"/>
	<path d="M272.9091,30.4686h3.8125v0.3047c0,0.6938-0.082,1.3071-0.2451,1.8403c-0.1592,0.4941-0.4287,0.9561-0.8066,1.3867
		c-0.8564,0.9639-1.9463,1.4453-3.2686,1.4453c-1.291,0-2.3965-0.4658-3.3164-1.3975c-0.9199-0.9365-1.3799-2.0596-1.3799-3.3701
		c0-1.3389,0.4678-2.4741,1.4043-3.4062c0.9355-0.936,2.0752-1.4038,3.418-1.4038c0.7207,0,1.3936,0.1475,2.0195,0.4419
		c0.5967,0.2949,1.1846,0.7729,1.7627,1.4341l-0.9922,0.9502c-0.7568-1.0078-1.6787-1.5117-2.7666-1.5117
		c-0.9756,0-1.7949,0.3364-2.4561,1.0098c-0.6611,0.6611-0.9912,1.4897-0.9912,2.4858c0,1.0273,0.3682,1.874,1.1055,2.5391
		c0.6885,0.6182,1.4355,0.9268,2.2402,0.9268c0.6855,0,1.3008-0.2314,1.8467-0.6934c0.5449-0.4658,0.8496-1.0234,0.9141-1.6729
		h-2.3008V30.4686z"/>
	<path d="M280.0311,31.2875l-3.0117-5.2402h1.6016l2.1094,3.6865l2.1152-3.6865h1.6016l-3.0234,5.2402v3.9854h-1.3926V31.2875z"/>
	<path d="M135.9989,44.8246l1.6611,2.0078l0.0537-0.0596c0.1792-0.1953,0.3486-0.3867,0.5078-0.5742
		c0.1592-0.1865,0.3125-0.376,0.46-0.5674l0.9082,0.9326c-0.1113,0.1592-0.2578,0.3438-0.439,0.5557
		c-0.1812,0.2109-0.3975,0.4541-0.6484,0.7285l1.709,2.1094h-1.7329l-0.9199-1.1289c-0.8447,0.8721-1.7231,1.3086-2.6353,1.3086
		c-0.8164,0-1.5098-0.2617-2.0791-0.7832c-0.5581-0.5254-0.8369-1.1748-0.8369-1.9482c0-0.9199,0.4424-1.6846,1.3267-2.2939
		l0.6035-0.4121c0.0078-0.0039,0.022-0.0146,0.042-0.0303c0.0195-0.0156,0.0479-0.0381,0.0835-0.0654
		c-0.6094-0.6494-0.9141-1.2891-0.9141-1.918c0-0.6221,0.2031-1.1279,0.6094-1.5176c0.4141-0.3906,0.9478-0.5859,1.6016-0.5859
		c0.6333,0,1.1567,0.1895,1.5713,0.5674c0.4141,0.3789,0.6216,0.8564,0.6216,1.4346c0,0.3984-0.1138,0.7588-0.3408,1.0811
		C136.9886,43.9887,136.5843,44.3744,135.9989,44.8246z M134.8934,45.6078l-0.0776,0.0537c-0.5698,0.3945-0.958,0.7109-1.165,0.9502
		c-0.2031,0.2383-0.3047,0.4912-0.3047,0.7588c0,0.3818,0.1533,0.7324,0.46,1.0518c0.3184,0.3066,0.6689,0.46,1.0518,0.46
		c0.5376,0,1.1567-0.3525,1.8579-1.0576L134.8934,45.6078z M135.1922,43.8451l0.1133-0.084
		c0.1953-0.1475,0.3564-0.2754,0.4844-0.3857c0.1274-0.1094,0.2188-0.2021,0.2744-0.2773c0.1196-0.1475,0.1797-0.3291,0.1797-0.5439
		c0-0.2432-0.082-0.4404-0.2451-0.5918c-0.1636-0.1514-0.3823-0.2266-0.6572-0.2266c-0.251,0-0.4624,0.0771-0.6333,0.2324
		c-0.1714,0.1475-0.2573,0.3369-0.2573,0.5684c0,0.2705,0.1079,0.5371,0.3228,0.8008l0.3467,0.418
		C135.1322,43.7748,135.1561,43.8051,135.1922,43.8451z"/>
	<path d="M151.911,41.2279v1.6484c-0.8047-0.6729-1.6367-1.0098-2.498-1.0098c-0.9473,0-1.7461,0.3408-2.3965,1.0225
		c-0.6523,0.6768-0.9785,1.5059-0.9785,2.4854c0,0.9678,0.3262,1.7842,0.9785,2.4502c0.6543,0.665,1.4551,0.9971,2.4023,0.9971
		c0.4902,0,0.9062-0.0791,1.25-0.2383c0.1895-0.0801,0.3887-0.1875,0.5938-0.3232c0.2051-0.1348,0.4219-0.2988,0.6484-0.4893v1.6787
		c-0.7969,0.4502-1.6328,0.6748-2.5098,0.6748c-1.3184,0-2.4434-0.46-3.377-1.3799c-0.9277-0.9277-1.3906-2.0479-1.3906-3.3584
		c0-1.1748,0.3887-2.2227,1.1641-3.1426c0.957-1.127,2.1934-1.6914,3.7109-1.6914
		C150.3368,40.5521,151.1376,40.7777,151.911,41.2279z"/>
	<path d="M155.0604,40.7318v7.917h2.7119v1.3086h-4.1045v-9.2256H155.0604z"/>
	<path d="M164.1835,42.0404h-3.6982v2.2168h3.5908v1.3086h-3.5908v3.083h3.6982v1.3086h-5.0908v-9.2256h5.0908V42.0404z"/>
	<path d="M171.4325,47.7172h-3.9502l-1.0273,2.2402h-1.5l4.5654-9.8057l4.4033,9.8057h-1.5234L171.4325,47.7172z M170.8641,46.4086
		l-1.3682-3.1377l-1.4336,3.1377H170.8641z"/>
	<path d="M175.077,49.9574v-9.8535l6.7285,7.0391v-6.4111h1.3916v9.7871l-6.7275-7.0205v6.459H175.077z"/>
	<path d="M191.7294,42.0404v7.917h-1.3916v-7.917h-2.1211v-1.3086h5.6279v1.3086H191.7294z"/>
	<path d="M200.1786,42.0404h-3.6982v2.2168h3.5908v1.3086h-3.5908v3.083h3.6982v1.3086h-5.0908v-9.2256h5.0908V42.0404z"/>
	<path d="M208.8241,41.2279v1.6484c-0.8047-0.6729-1.6367-1.0098-2.4971-1.0098c-0.9482,0-1.7471,0.3408-2.3965,1.0225
		c-0.6533,0.6768-0.9795,1.5059-0.9795,2.4854c0,0.9678,0.3262,1.7842,0.9795,2.4502c0.6533,0.665,1.4541,0.9971,2.4023,0.9971
		c0.4902,0,0.9062-0.0791,1.249-0.2383c0.1904-0.0801,0.3887-0.1875,0.5938-0.3232c0.2051-0.1348,0.4219-0.2988,0.6484-0.4893
		v1.6787c-0.7969,0.4502-1.6328,0.6748-2.5098,0.6748c-1.3184,0-2.4434-0.46-3.376-1.3799
		c-0.9277-0.9277-1.3916-2.0479-1.3916-3.3584c0-1.1748,0.3887-2.2227,1.165-3.1426c0.9561-1.127,2.1924-1.6914,3.7109-1.6914
		C207.2508,40.5521,208.0516,40.7777,208.8241,41.2279z"/>
	<path d="M212.2313,44.3412h3.9795v-3.6094h1.3916v9.2256h-1.3916v-4.3086h-3.9795v4.3086h-1.3926v-9.2256h1.3926V44.3412z"/>
	<path d="M219.8133,49.9574v-9.8535l6.7285,7.0391v-6.4111h1.3916v9.7871l-6.7275-7.0205v6.459H219.8133z"/>
	<path d="M229.7674,45.3031c0-1.2988,0.4756-2.4141,1.4277-3.3467c0.9482-0.9316,2.0879-1.3984,3.418-1.3984
		c1.3145,0,2.4414,0.4707,3.3818,1.4102c0.9443,0.9404,1.416,2.0703,1.416,3.3887c0,1.3262-0.4736,2.4512-1.4219,3.376
		c-0.9521,0.9277-2.1016,1.3916-3.4473,1.3916c-1.1914,0-2.2607-0.4121-3.209-1.2363
		C230.2889,47.976,229.7674,46.7807,229.7674,45.3031z M231.1717,45.3207c0,1.0195,0.3418,1.8584,1.0273,2.5156
		c0.6816,0.6572,1.4678,0.9854,2.3604,0.9854c0.9678,0,1.7842-0.334,2.4502-1.0029c0.665-0.6777,0.9971-1.502,0.9971-2.4746
		c0-0.9834-0.3281-1.8076-0.9854-2.4736c-0.6533-0.6689-1.4619-1.0039-2.4258-1.0039c-0.96,0-1.7715,0.335-2.4326,1.0039
		C231.5018,43.5316,231.1717,44.349,231.1717,45.3207z"/>
	<path d="M242.5555,40.7318v7.917h2.7119v1.3086h-4.1045v-9.2256H242.5555z"/>
	<path d="M245.7518,45.3031c0-1.2988,0.4756-2.4141,1.4277-3.3467c0.9482-0.9316,2.0879-1.3984,3.418-1.3984
		c1.3145,0,2.4414,0.4707,3.3818,1.4102c0.9443,0.9404,1.416,2.0703,1.416,3.3887c0,1.3262-0.4736,2.4512-1.4219,3.376
		c-0.9521,0.9277-2.1016,1.3916-3.4473,1.3916c-1.1914,0-2.2607-0.4121-3.209-1.2363
		C246.2733,47.976,245.7518,46.7807,245.7518,45.3031z M247.1561,45.3207c0,1.0195,0.3418,1.8584,1.0273,2.5156
		c0.6816,0.6572,1.4678,0.9854,2.3604,0.9854c0.9678,0,1.7842-0.334,2.4502-1.0029c0.665-0.6777,0.9971-1.502,0.9971-2.4746
		c0-0.9834-0.3281-1.8076-0.9854-2.4736c-0.6533-0.6689-1.4619-1.0039-2.4258-1.0039c-0.96,0-1.7715,0.335-2.4326,1.0039
		C247.4862,43.5316,247.1561,44.349,247.1561,45.3207z"/>
	<path d="M261.8905,45.1537h3.8125v0.3047c0,0.6924-0.082,1.3066-0.2451,1.8398c-0.1592,0.4941-0.4287,0.9561-0.8066,1.3867
		c-0.8564,0.9639-1.9463,1.4453-3.2686,1.4453c-1.291,0-2.3965-0.4658-3.3164-1.3975c-0.9199-0.9365-1.3799-2.0596-1.3799-3.3701
		c0-1.3389,0.4678-2.4736,1.4043-3.4062c0.9355-0.9355,2.0752-1.4043,3.418-1.4043c0.7207,0,1.3936,0.1475,2.0195,0.4424
		c0.5967,0.2949,1.1846,0.7725,1.7627,1.4346l-0.9922,0.9492c-0.7568-1.0078-1.6787-1.5117-2.7666-1.5117
		c-0.9756,0-1.7949,0.3369-2.4561,1.0098c-0.6611,0.6621-0.9912,1.4902-0.9912,2.4863c0,1.0273,0.3682,1.874,1.1055,2.5391
		c0.6885,0.6182,1.4355,0.9268,2.2402,0.9268c0.6855,0,1.3008-0.2314,1.8467-0.6934c0.5449-0.4658,0.8496-1.0234,0.9141-1.6729
		h-2.3008V45.1537z"/>
	<path d="M269.0126,45.9721l-3.0117-5.2402h1.6016l2.1094,3.6865l2.1152-3.6865h1.6016l-3.0234,5.2402v3.9854h-1.3926V45.9721z"/>
</g>
</svg>
