<?xml version="1.0" encoding="utf-8"?>
<!-- Generator: Adobe Illustrator 21.0.2, SVG Export Plug-In . SVG Version: 6.00 Build 0)  -->
<svg version="1.1" id="cont" xmlns="http://www.w3.org/2000/svg" xmlns:xlink="http://www.w3.org/1999/xlink" x="0px" y="0px"
     viewBox="0 0 267.9804 74.1812" style="enable-background:new 0 0 267.9804 74.1812;" xml:space="preserve">
<text transform="matrix(1 0 0 1 -644.9409 -287.1499)" class="switch-guarantee-0"><tspan x="0" y="0" class="switch-guarantee-1" style="font-family:'MyriadPro-Bold'; font-size:40.1543px;">energy</tspan><tspan x="125.6816" y="0" class="switch-guarantee-1" style="font-family:'MyriadPro-Regular'; font-size:40.1543px;">switch</tspan></text>
<text transform="matrix(1 0 0 1 -632.8584 -78.5088)" class="switch-guarantee-0"><tspan x="0" y="0" class="switch-guarantee-1" style="font-family:'MyriadPro-Bold'; font-size:24.1835px;">energy</tspan><tspan x="75.6934" y="0" class="switch-guarantee-1" style="font-family:'MyriadPro-Regular'; font-size:24.1835px;">switch</tspan></text>
<text transform="matrix(1.0812 0 0 1 -632.8589 -52.5176)" class="switch-guarantee-0" style="font-family:'MyriadPro-Bold'; font-size:23px;">GUARANTEE</text>
<text transform="matrix(1.0812 0 0 1 -632.8589 147.4824)" class="switch-guarantee-0" style="font-family:'MyriadPro-Bold'; font-size:23px;">GUARANTEE</text>
<text transform="matrix(1 0 0 1 -631.3584 20.4854)" class="switch-guarantee-0"><tspan x="0" y="0" class="switch-guarantee-1" style="font-family:'MyriadPro-Bold'; font-size:24.1835px;">energy</tspan><tspan x="75.6934" y="0" class="switch-guarantee-1" style="font-family:'MyriadPro-Regular'; font-size:24.1835px;">switch</tspan></text>
<g class="switch-guarantee-0">
</g>
<text transform="matrix(1 0 0 1 -632.8584 318.4912)" class="switch-guarantee-0"><tspan x="0" y="0" class="switch-guarantee-1" style="font-family:'MyriadPro-Bold'; font-size:24.1835px;">energy</tspan><tspan x="75.6934" y="0" class="switch-guarantee-1" style="font-family:'MyriadPro-Regular'; font-size:24.1835px;">switch</tspan></text>
<text transform="matrix(1.0812 0 0 1 -632.8589 344.4825)" class="switch-guarantee-0" style="font-family:'MyriadPro-Bold'; font-size:23px;">GUARANTEE</text>
<text transform="matrix(1 0 0 1 -385.8584 102.4917)" class="switch-guarantee-0"><tspan x="0" y="0" class="switch-guarantee-1" style="font-family:'MyriadPro-Bold'; font-size:24.1835px;">energy</tspan><tspan x="75.6934" y="0" class="switch-guarantee-1" style="font-family:'MyriadPro-Regular'; font-size:24.1835px;">switch</tspan></text>
<text transform="matrix(1.0812 0 0 1 -385.8589 128.4824)" class="switch-guarantee-0" style="font-family:'MyriadPro-Bold'; font-size:23px;">GUARANTEE</text>
<g>
    <g>
        <radialGradient cx="134.1454" cy="37.0906" r="98.2026" gradientUnits="userSpaceOnUse">
            <stop  offset="0.5744" style="switch-guarantee-op-color:#130C0E"/>
            <stop  offset="0.7977" style="switch-guarantee-op-color:#130C0E"/>
            <stop  offset="1" style="switch-guarantee-op-color:#130C0E"/>
        </radialGradient>
        <path class="switch-guarantee-2" d="M228.6474,74.1812H39.6435c-21.6885,0-39.333-16.6397-39.333-37.0904C0.3105,16.6387,17.955,0,39.6435,0
            h189.0039c21.6885,0,39.333,16.6387,39.333,37.0908C267.9804,57.5415,250.3359,74.1812,228.6474,74.1812L228.6474,74.1812z
             M39.6435,5.1836c-18.8301,0-34.1494,14.3135-34.1494,31.9072c0,17.5933,15.3193,31.9068,34.1494,31.9068h189.0039
            c18.8301,0,34.1494-14.3135,34.1494-31.9068c0-17.5937-15.3193-31.9072-34.1494-31.9072H39.6435L39.6435,5.1836z"/>
    </g>
    <radialGradient cx="37.2836" cy="36.1614" r="23.3377" gradientUnits="userSpaceOnUse">
        <stop  offset="0.5744" style="switch-guarantee-op-color:#130C0E"/>
        <stop  offset="0.7977" style="switch-guarantee-op-color:#130C0E"/>
        <stop  offset="1" style="switch-guarantee-op-color:#130C0E"/>
    </radialGradient>
    <path class="switch-guarantee-3" d="M25.9687,45.8101c-0.3305-8.6499,6.9423-15.7529,15.7744-16.4003l-0.2294,6.0806l14.5791-10.0157
        L42.5117,9.041l-0.2595,6.8751c-13.1823,0.4081-23.7776,10.8662-23.7776,23.6733c0,13.0635,11.0244,23.6924,24.5752,23.6924
        c0.4736,0,0.9424-0.0137,1.4092-0.0391C44.459,63.2427,26.5683,61.5708,25.9687,45.8101z"/>
    <radialGradient cx="231.3903" cy="37.5734" r="23.1518" gradientUnits="userSpaceOnUse">
        <stop  offset="0.5744" style="switch-guarantee-op-color:#130C0E"/>
        <stop  offset="0.7977" style="switch-guarantee-op-color:#130C0E"/>
        <stop  offset="1" style="switch-guarantee-op-color:#130C0E"/>
    </radialGradient>
    <path d="M249.75,32.8819c-0.7443-13.046-12.3585-23.0743-25.8898-22.3565c-0.4717,0.0254-0.9404,0.0635-1.4033,0.1143
        c0,0,17.957,0.7226,19.4561,16.4277c0.8221,8.6194-6.0359,16.0953-14.817,17.2097l-0.1176-6.0826l-13.9854,10.7719l14.4971,15.6914
        l-0.133-6.8791C240.4969,56.6716,250.4794,45.6677,249.75,32.8819z"/>
    <g>
        <radialGradient id="SVGID_SG_4_" cx="69.9121" cy="27.5723" r="5.9013" gradientUnits="userSpaceOnUse">
            <stop  offset="0.5744" style="switch-guarantee-op-color:#130C0E"/>
            <stop  offset="0.7977" style="switch-guarantee-op-color:#130C0E"/>
            <stop  offset="1" style="switch-guarantee-op-color:#130C0E"/>
        </radialGradient>
        <path class="switch-guarantee-5" d="M67.7968,28.7578c0.1202,1.5235,1.6192,2.2491,3.337,2.2491c1.2578,0,2.2734-0.169,3.2646-0.5079
            l0.4844,2.4913c-1.209,0.5078-2.6856,0.749-4.2813,0.749c-4.0146,0-6.3125-2.3213-6.3125-6.0215
            c0-2.999,1.8868-6.3125,5.9746-6.3125c3.8204,0,5.2715,2.9746,5.2715,5.9014c0,0.6289-0.0722,1.1845-0.1211,1.4511H67.7968z
             M72.125,26.2432c0-0.8955-0.3867-2.3945-2.0557-2.3945c-1.5713,0-2.2002,1.4257-2.2978,2.3945H72.125z"/>
        <radialGradient id="SVGID_SG_5_" cx="83.2978" cy="27.4517" r="5.856" gradientUnits="userSpaceOnUse">
            <stop  offset="0.5744" style="switch-guarantee-op-color:#130C0E"/>
            <stop  offset="0.7977" style="switch-guarantee-op-color:#130C0E"/>
            <stop  offset="1" style="switch-guarantee-op-color:#130C0E"/>
        </radialGradient>
        <path d="M77.7353,25.4444c0-1.4747-0.0478-2.709-0.0967-3.7735h3.1924L81,23.3154h0.0732
            c0.4834-0.7734,1.669-1.9101,3.6514-1.9101c2.4189,0,4.2324,1.6211,4.2324,5.1035v6.9893h-3.6758v-6.5537
            c0-1.5235-0.5322-2.5645-1.8623-2.5645c-1.0156,0-1.6201,0.7012-1.8857,1.3789c-0.0977,0.2422-0.1211,0.5801-0.1211,0.919v6.8203
            h-3.6768V25.4444z"/>
        <radialGradient id="SVGID_SG_6_" cx="96.8534" cy="27.5723" r="5.9013" gradientUnits="userSpaceOnUse">
            <stop  offset="0.5744" style="switch-guarantee-op-color:#130C0E"/>
            <stop  offset="0.7977" style="switch-guarantee-op-color:#130C0E"/>
            <stop  offset="1" style="switch-guarantee-op-color:#130C0E"/>
        </radialGradient>
        <path class="switch-guarantee-7" d="M94.7363,28.7578c0.1211,1.5235,1.6211,2.2491,3.3379,2.2491c1.2578,0,2.2734-0.169,3.2656-0.5079
            l0.4824,2.4913c-1.2089,0.5078-2.6836,0.749-4.2802,0.749c-4.0147,0-6.3116-2.3213-6.3116-6.0215
            c0-2.999,1.8858-6.3125,5.9727-6.3125c3.8223,0,5.2734,2.9746,5.2734,5.9014c0,0.6289-0.0732,1.1845-0.1211,1.4511H94.7363z
             M99.0664,26.2432c0-0.8955-0.3877-2.3945-2.0567-2.3945c-1.5722,0-2.2011,1.4257-2.2968,2.3945H99.0664z"/>
        <radialGradient id="SVGID_SG_7_" cx="108.2548" cy="27.4517" r="5.0039" gradientUnits="userSpaceOnUse">
            <stop  offset="0.5744" style="switch-guarantee-op-color:#130C0E"/>
            <stop  offset="0.7977" style="switch-guarantee-op-color:#130C0E"/>
            <stop  offset="1" style="switch-guarantee-op-color:#130C0E"/>
        </radialGradient>
        <path class="switch-guarantee-8" d="M104.6758,25.5654c0-1.7421-0.0245-2.8779-0.0977-3.8945h3.1445l0.1455,2.2012h0.0967
            c0.6045-1.7412,2.0313-2.4668,3.1924-2.4668c0.3389,0,0.5078,0.0244,0.7744,0.0723v3.4589
            c-0.291-0.0488-0.581-0.0966-0.9922-0.0966c-1.3545,0-2.2734,0.7011-2.5156,1.8623c-0.0479,0.2422-0.0723,0.5078-0.0723,0.8222
            v5.9737h-3.6757V25.5654z"/>
        <radialGradient id="SVGID_SG_8_" cx="118.9799" cy="29.979" r="7.3939" gradientUnits="userSpaceOnUse">
            <stop  offset="0.5744" style="switch-guarantee-op-color:#130C0E"/>
            <stop  offset="0.7977" style="switch-guarantee-op-color:#130C0E"/>
            <stop  offset="1" style="switch-guarantee-op-color:#130C0E"/>
        </radialGradient>
        <path class="switch-guarantee-9" d="M124.8691,31.7803c0,2.2734-0.459,4.1367-1.8135,5.3213c-1.2822,1.1123-3.0478,1.4512-4.789,1.4512
            c-1.5713,0-3.1924-0.3145-4.2569-0.8956l0.7266-2.8046c0.749,0.4355,2.0312,0.8945,3.4336,0.8945
            c1.7412,0,3.0723-0.919,3.0723-3.1192v-0.75h-0.0489c-0.7011,0.9668-1.8379,1.5235-3.1924,1.5235
            c-2.9267,0-5.0068-2.3701-5.0068-5.7559c0-3.8222,2.4434-6.2402,5.3692-6.2402c1.621,0,2.6367,0.7012,3.2412,1.6934h0.0478
            l0.1211-1.4278h3.1924c-0.0479,0.7744-0.0967,1.7656-0.0967,3.5313V31.7803z M121.1933,26.4844
            c0-0.2178-0.0244-0.46-0.0722-0.6768c-0.2666-0.9677-0.9678-1.6211-1.9844-1.6211c-1.3535,0-2.418,1.209-2.418,3.3614
            c0,1.7656,0.8711,3.1445,2.3946,3.1445c0.9667,0,1.7167-0.6289,1.9589-1.4746c0.0967-0.291,0.1211-0.6777,0.1211-0.9922V26.4844z"
            />
        <radialGradient id="SVGID_SG_9_" cx="132.7041" cy="30.2571" r="7.4953" gradientUnits="userSpaceOnUse">
            <stop  offset="0.5744" style="switch-guarantee-op-color:#130C0E"/>
            <stop  offset="0.7977" style="switch-guarantee-op-color:#130C0E"/>
            <stop  offset="1" style="switch-guarantee-op-color:#130C0E"/>
        </radialGradient>
        <path class="switch-guarantee-10" d="M130.5761,21.6709l1.7657,5.8291c0.1933,0.6768,0.4355,1.5723,0.58,2.2012h0.0723
            c0.1699-0.6533,0.3633-1.5244,0.5332-2.2256l1.4512-5.8047h3.9414l-2.7568,7.7881c-1.6934,4.7158-2.8291,6.5791-4.1602,7.7637
            c-1.2568,1.1123-2.6123,1.5234-3.5557,1.6206l-0.7734-3.0962c0.459-0.0967,1.04-0.3145,1.5957-0.6289
            c0.5566-0.2901,1.1855-0.8945,1.5244-1.4746c0.1201-0.1934,0.1934-0.3867,0.1934-0.5332c0-0.1446-0.0244-0.3135-0.1455-0.6035
            l-4.3535-10.836H130.5761z"/>
        <radialGradient id="SVGID_SG_10_" cx="143.7803" cy="27.6329" r="5.0937" gradientUnits="userSpaceOnUse">
            <stop  offset="0.5744" style="switch-guarantee-op-color:#130C0E"/>
            <stop  offset="0.7977" style="switch-guarantee-op-color:#130C0E"/>
            <stop  offset="1" style="switch-guarantee-op-color:#130C0E"/>
        </radialGradient>
        <path class="switch-guarantee-11" d="M140.4668,31.3213c0.6523,0.3867,1.7656,0.8223,2.83,0.8223c1.5235,0,2.2481-0.75,2.2481-1.7412
            c0-1.0157-0.6035-1.5479-2.1524-2.128c-2.1279-0.7744-3.1191-1.9355-3.1191-3.3144c0-1.8858,1.5469-3.4336,4.0391-3.4336
            c1.1845,0,2.2246,0.3144,2.8535,0.7256l-0.5078,1.5234c-0.46-0.2656-1.3067-0.6767-2.3946-0.6767
            c-1.2578,0-1.9355,0.7246-1.9355,1.5957c0,0.9677,0.6777,1.4023,2.2012,2.0078c2.0078,0.75,3.0722,1.7656,3.0722,3.5068
            c0,2.0791-1.6211,3.5303-4.3535,3.5303c-1.2822,0-2.4668-0.3379-3.289-0.8223L140.4668,31.3213z"/>
        <radialGradient id="SVGID_SG_11_" cx="157.5049" cy="27.6451" r="7.2981" gradientUnits="userSpaceOnUse">
            <stop  offset="0.5744" style="switch-guarantee-op-color:#130C0E"/>
            <stop  offset="0.7977" style="switch-guarantee-op-color:#130C0E"/>
            <stop  offset="1" style="switch-guarantee-op-color:#130C0E"/>
        </radialGradient>
        <path class="switch-guarantee-12" d="M151.1797,21.792l1.5722,5.9258c0.3145,1.3066,0.6289,2.5391,0.8467,3.748h0.0723
            c0.2666-1.1845,0.6533-2.4414,1.04-3.7236l1.9102-5.9502h1.79l1.8135,5.8535c0.4355,1.3789,0.7744,2.6358,1.041,3.8203h0.0723
            c0.1933-1.1845,0.5078-2.4179,0.8945-3.7968l1.6689-5.877h2.1045l-3.7734,11.7061h-1.9346l-1.79-5.5869
            c-0.4112-1.3301-0.75-2.4903-1.0401-3.8692h-0.0478c-0.291,1.4024-0.6533,2.6358-1.0645,3.8936l-1.8867,5.5625h-1.9346
            l-3.5302-11.7061H151.1797z"/>
        <radialGradient id="SVGID_SG_12_" cx="169.1841" cy="25.3355" r="5.8466" gradientUnits="userSpaceOnUse">
            <stop  offset="0.5744" style="switch-guarantee-op-color:#130C0E"/>
            <stop  offset="0.7977" style="switch-guarantee-op-color:#130C0E"/>
            <stop  offset="1" style="switch-guarantee-op-color:#130C0E"/>
        </radialGradient>
        <path class="switch-guarantee-13" d="M169.1484,19.8096c-0.7744,0-1.2822-0.6055-1.2822-1.3067c0-0.75,0.5322-1.33,1.3301-1.33
            c0.7744,0,1.3056,0.58,1.3056,1.33c0,0.7012-0.5078,1.3067-1.3301,1.3067H169.1484z M168.1328,33.4981V21.792h2.1279v11.7061
            H168.1328z"/>
        <radialGradient id="SVGID_SG_13_" cx="175.9316" cy="26.3633" r="5.7642" gradientUnits="userSpaceOnUse">
            <stop  offset="0.5744" style="switch-guarantee-op-color:#130C0E"/>
            <stop  offset="0.7977" style="switch-guarantee-op-color:#130C0E"/>
            <stop  offset="1" style="switch-guarantee-op-color:#130C0E"/>
        </radialGradient>
        <path class="switch-guarantee-14" d="M176.3545,18.9873v2.8047h3.0478v1.6211h-3.0478v6.2881c0,1.4502,0.4111,2.2734,1.5966,2.2734
            c0.5801,0,0.918-0.0488,1.2325-0.1455l0.0976,1.6211c-0.4121,0.1445-1.0644,0.2891-1.8867,0.2891
            c-0.9922,0-1.7891-0.3379-2.2979-0.8946c-0.58-0.6523-0.8222-1.6933-0.8222-3.0712v-6.3604h-1.8135V21.792h1.8135v-2.1523
            L176.3545,18.9873z"/>
        <radialGradient id="SVGID_SG_14_" cx="185.4238" cy="27.6329" r="5.4141" gradientUnits="userSpaceOnUse">
            <stop  offset="0.5744" style="switch-guarantee-op-color:#130C0E"/>
            <stop  offset="0.7977" style="switch-guarantee-op-color:#130C0E"/>
            <stop  offset="1" style="switch-guarantee-op-color:#130C0E"/>
        </radialGradient>
        <path class="switch-guarantee-15" d="M189.9941,33.0625c-0.5557,0.2666-1.7891,0.6768-3.3613,0.6768c-3.5313,0-5.8281-2.3936-5.8281-5.9727
            c0-3.6035,2.4668-6.2402,6.2871-6.2402c1.2578,0,2.3711,0.3144,2.9511,0.6289l-0.4834,1.6201
            c-0.5087-0.2656-1.3056-0.5557-2.4677-0.5557c-2.6836,0-4.1348,2.0069-4.1348,4.4258c0,2.709,1.7412,4.377,4.0625,4.377
            c1.209,0,2.0078-0.2901,2.6123-0.5567L189.9941,33.0625z"/>
        <radialGradient id="SVGID_SG_15_" cx="197.4668" cy="24.9126" r="7.0191" gradientUnits="userSpaceOnUse">
            <stop  offset="0.5744" style="switch-guarantee-op-color:#130C0E"/>
            <stop  offset="0.7977" style="switch-guarantee-op-color:#130C0E"/>
            <stop  offset="1" style="switch-guarantee-op-color:#130C0E"/>
        </radialGradient>
        <path class="switch-guarantee-16" d="M192.4843,16.3272h2.129v7.3027h0.0488c0.3379-0.6035,0.8701-1.1602,1.5234-1.499
            c0.6289-0.3867,1.3779-0.6045,2.1758-0.6045c1.5723,0,4.0879,0.9668,4.0879,5.0058v6.9659h-2.1289V26.751
            c0-1.8867-0.7012-3.459-2.709-3.459c-1.3779,0-2.4414,0.9668-2.8535,2.1289c-0.1211,0.2891-0.1445,0.6035-0.1445,1.0156v7.0616
            h-2.129V16.3272z"/>
    </g>
    <g>
        <radialGradient id="SVGID_SG_16_" cx="71.748" cy="51.7397" r="7.6529" gradientUnits="userSpaceOnUse">
            <stop  offset="0.5744" style="switch-guarantee-op-color:#130C0E"/>
            <stop  offset="0.7977" style="switch-guarantee-op-color:#130C0E"/>
            <stop  offset="1" style="switch-guarantee-op-color:#130C0E"/>
        </radialGradient>
        <path class="switch-guarantee-17" d="M79.1347,58.7759c-1.1679,0.3682-3.3828,0.874-5.5957,0.874c-3.0595,0-5.2734-0.7129-6.8144-2.0693
            c-1.5176-1.3574-2.3633-3.3809-2.3633-5.6582c0.0254-5.1494,4.0791-8.0928,9.5762-8.0928c2.1631,0,3.83,0.3906,4.6504,0.7363
            l-0.7959,2.8282c-0.9209-0.3907-2.0401-0.668-3.8799-0.668c-3.1582,0-5.5713,1.6562-5.5713,5.0127
            c0,3.2187,2.1885,5.082,5.2978,5.082c0.8457,0,1.542-0.0918,1.8399-0.207v-3.2656h-2.586v-2.7364h6.2422V58.7759z"/>
        <radialGradient id="SVGID_SG_17_" cx="89.1562" cy="51.8657" r="7.3761" gradientUnits="userSpaceOnUse">
            <stop  offset="0.5744" style="switch-guarantee-op-color:#130C0E"/>
            <stop  offset="0.7977" style="switch-guarantee-op-color:#130C0E"/>
            <stop  offset="1" style="switch-guarantee-op-color:#130C0E"/>
        </radialGradient>
        <path class="switch-guarantee-18" d="M86.0966,43.9898v8.8994c0,2.6894,1.1202,4.0469,3.0342,4.0469c1.9903,0,3.084-1.2872,3.084-4.0469v-8.8994
            h3.7813v8.6923c0,4.7833-2.6114,7.0596-6.9893,7.0596c-4.2275,0-6.6904-2.1846-6.6904-7.1064v-8.6455H86.0966z"/>
        <radialGradient id="SVGID_SG_18_" cx="105.1836" cy="51.7398" r="7.6994" gradientUnits="userSpaceOnUse">
            <stop  offset="0.5744" style="switch-guarantee-op-color:#130C0E"/>
            <stop  offset="0.7977" style="switch-guarantee-op-color:#130C0E"/>
            <stop  offset="1" style="switch-guarantee-op-color:#130C0E"/>
        </radialGradient>
        <path class="switch-guarantee-19" d="M102.6347,55.5103l-1.1699,3.9795h-3.9297l5.124-15.5h4.9502l5.2227,15.5h-4.0791l-1.2939-3.9795H102.6347z
             M106.8867,52.8892l-1.044-3.2891c-0.2734-0.9189-0.5722-2.0908-0.8212-2.9873h-0.0743c-0.2236,0.9199-0.497,2.0918-0.7461,2.9873
            l-1.0195,3.2891H106.8867z"/>
        <radialGradient id="SVGID_SG_19_" cx="121.6216" cy="51.6822" r="7.1071" gradientUnits="userSpaceOnUse">
            <stop  offset="0.5744" style="switch-guarantee-op-color:#130C0E"/>
            <stop  offset="0.7977" style="switch-guarantee-op-color:#130C0E"/>
            <stop  offset="1" style="switch-guarantee-op-color:#130C0E"/>
        </radialGradient>
        <path class="switch-guarantee-20" d="M115.292,44.2202c1.2187-0.207,3.0088-0.3457,5.0488-0.3457c2.4873,0,4.2285,0.3457,5.4228,1.2422
            c1.0196,0.7363,1.5664,1.8164,1.5664,3.2422c0,1.9541-1.5175,3.3115-2.9599,3.794v0.0683
            c1.1689,0.4375,1.8154,1.4492,2.2383,2.875c0.5224,1.7715,1.0205,3.7959,1.3427,4.3936h-3.8789
            c-0.25-0.461-0.6718-1.7022-1.1445-3.6123c-0.4727-1.9532-1.1934-2.459-2.7607-2.4825h-1.1202v6.0948h-3.7548V44.2202z
             M119.0468,50.8657h1.4932c1.8897,0,3.0088-0.875,3.0088-2.2295c0-1.4023-1.0439-2.1386-2.7852-2.1386
            c-0.9199,0-1.4423,0.0449-1.7168,0.1152V50.8657z"/>
        <radialGradient id="SVGID_SG_20_" cx="136.9155" cy="51.7398" r="7.6991" gradientUnits="userSpaceOnUse">
            <stop  offset="0.5744" style="switch-guarantee-op-color:#130C0E"/>
            <stop  offset="0.7977" style="switch-guarantee-op-color:#130C0E"/>
            <stop  offset="1" style="switch-guarantee-op-color:#130C0E"/>
        </radialGradient>
        <path class="switch-guarantee-21" d="M134.3662,55.5103l-1.169,3.9795h-3.9297l5.1231-15.5h4.9502l5.2226,15.5h-4.0791l-1.2929-3.9795H134.3662z
             M138.6191,52.8892l-1.0449-3.2891c-0.2734-0.9189-0.5713-2.0908-0.8203-2.9873h-0.0742
            c-0.2247,0.9199-0.4981,2.0918-0.7461,2.9873l-1.0196,3.2891H138.6191z"/>
        <radialGradient id="SVGID_SG_21_" cx="153.9628" cy="51.7398" r="7.3559" gradientUnits="userSpaceOnUse">
            <stop  offset="0.5744" style="switch-guarantee-op-color:#130C0E"/>
            <stop  offset="0.7977" style="switch-guarantee-op-color:#130C0E"/>
            <stop  offset="1" style="switch-guarantee-op-color:#130C0E"/>
        </radialGradient>
        <path class="switch-guarantee-22" d="M147.0234,59.4898v-15.5h4.4277l3.4815,5.6787c0.9951,1.6328,1.9648,3.5644,2.7353,5.3125h0.0508
            c-0.2246-2.0469-0.2988-4.1387-0.2988-6.4834v-4.5078h3.4824v15.5h-3.9805l-3.581-5.9795
            c-0.9951-1.6797-2.1143-3.6563-2.9102-5.4717h-0.0986c0.123,2.0674,0.1738,4.2529,0.1738,6.7822v4.669H147.0234z"/>
        <radialGradient id="SVGID_SG_22_" cx="169.5796" cy="51.7398" r="7.126" gradientUnits="userSpaceOnUse">
            <stop  offset="0.5744" style="switch-guarantee-op-color:#130C0E"/>
            <stop  offset="0.7977" style="switch-guarantee-op-color:#130C0E"/>
            <stop  offset="1" style="switch-guarantee-op-color:#130C0E"/>
        </radialGradient>
        <path class="switch-guarantee-23" d="M167.664,46.9331h-4.5263v-2.9433h12.8838v2.9433h-4.5762v12.5567h-3.7813V46.9331z"/>
        <radialGradient id="SVGID_SG_23_" cx="183.6181" cy="51.7398" r="6.653" gradientUnits="userSpaceOnUse">
            <stop  offset="0.5744" style="switch-guarantee-op-color:#130C0E"/>
            <stop  offset="0.7977" style="switch-guarantee-op-color:#130C0E"/>
            <stop  offset="1" style="switch-guarantee-op-color:#130C0E"/>
        </radialGradient>
        <path class="switch-guarantee-24" d="M188.2324,52.9341h-6.169v3.6797h6.8897v2.876h-10.6699v-15.5h10.3222v2.875h-6.542v3.2177h6.169V52.9341z"
            />
        <radialGradient id="SVGID_SG_24_" cx="197.1221" cy="51.7398" r="6.653" gradientUnits="userSpaceOnUse">
            <stop  offset="0.5744" style="switch-guarantee-op-color:#130C0E"/>
            <stop  offset="0.7977" style="switch-guarantee-op-color:#130C0E"/>
            <stop  offset="1" style="switch-guarantee-op-color:#130C0E"/>
        </radialGradient>
        <path class="switch-guarantee-25" d="M201.7353,52.9341h-6.1689v3.6797h6.8906v2.876h-10.6699v-15.5h10.3213v2.875h-6.542v3.2177h6.1689V52.9341z
            "/>
    </g>
</g>
<text transform="matrix(1 0 0 1 -344.8584 222.4912)" class="switch-guarantee-0"><tspan x="0" y="0" class="switch-guarantee-1" style="font-family:'MyriadPro-Bold'; font-size:24.1835px;">energy</tspan><tspan x="75.6934" y="0" class="switch-guarantee-1" style="font-family:'MyriadPro-Regular'; font-size:24.1835px;">switch</tspan></text>
<text transform="matrix(1.0812 0 0 1 -344.8589 248.4824)" class="switch-guarantee-0" style="font-family:'MyriadPro-Bold'; font-size:23px;">GUARANTEE</text>
<text transform="matrix(1 0 0 1 -385.8584 -18.5083)" class="switch-guarantee-0"><tspan x="0" y="0" class="switch-guarantee-1" style="font-family:'MyriadPro-Bold'; font-size:24.1835px;">energy</tspan><tspan x="75.6934" y="0" class="switch-guarantee-1" style="font-family:'MyriadPro-Regular'; font-size:24.1835px;">switch</tspan></text>
<text transform="matrix(1.0812 0 0 1 -385.8589 7.4824)" class="switch-guarantee-0" style="font-family:'MyriadPro-Bold'; font-size:23px;">GUARANTEE</text>
</svg>
