<?xml version="1.0" encoding="utf-8"?>
<svg version="1.1" id="theguardian" xmlns="http://www.w3.org/2000/svg" xmlns:xlink="http://www.w3.org/1999/xlink" x="0px" y="0px"
	 viewBox="0 0 69.4167 12.5256" style="enable-background:new 0 0 69.4167 12.5256;" xml:space="preserve" aria-labelledby="title-theguardian" aria-describedby="desc-theguardian" role="img">
<title id="title-theguardian">The Guardian logo</title>
<desc id="desc-theguardian">The Guardian logo</desc>
<g>
	<path d="M58.5581,8.1819v-1.75l-0.479,0.0469c-0.4775,0.0459-0.8687,0.3623-0.8687,0.9561c0,0.6836,0.3765,0.9834,0.7725,0.9834
		C58.2119,8.4183,58.4448,8.306,58.5581,8.1819 M57.105,3.8548l-0.4365,1.2656h-1.0669V3.4935
		c0.5781-0.1787,1.394-0.4707,2.4829-0.4707c1.6533,0,2.5322,0.6504,2.5322,2.042v3.371l0.7314,0.3038v0.5429
		C61.1465,9.3899,60.54,9.5286,60.042,9.5286c-0.6465,0-1.1504-0.206-1.2461-0.874h-0.0557
		c-0.2754,0.5547-1.0083,0.8857-1.7783,0.8857c-1.0996,0-1.791-0.706-1.791-1.7382c0-1.2686,0.8384-1.5479,2.1987-1.8291
		l1.1885-0.2022v-0.749c0-0.7969-0.2397-1.1934-1.0317-1.1934C57.4243,3.8284,57.2295,3.8431,57.105,3.8548"/>
	<path d="M36.2202,8.1819v-1.75l-0.4795,0.0469c-0.477,0.0459-0.8681,0.3623-0.8681,0.9561c0,0.6836,0.3769,0.9834,0.7729,0.9834
		C35.8735,8.4183,36.1069,8.306,36.2202,8.1819 M34.7666,3.8548l-0.4365,1.2656h-1.0664V3.4935
		c0.5781-0.1787,1.394-0.4707,2.4824-0.4707c1.6533,0,2.5327,0.6504,2.5327,2.042v3.371l0.7315,0.3038v0.5429
		c-0.2022,0.1074-0.8082,0.2461-1.3062,0.2461c-0.6465,0-1.1504-0.206-1.2456-0.874h-0.0562
		c-0.2753,0.5547-1.0083,0.8857-1.7788,0.8857c-1.0996,0-1.79-0.706-1.79-1.7382c0-1.2686,0.8379-1.5479,2.1982-1.8291
		l1.1885-0.2022v-0.749c0-0.7969-0.2402-1.1934-1.0317-1.1934C35.0859,3.8284,34.8916,3.8431,34.7666,3.8548"/>
	<path d="M1.5034,7.6556V4.223H0.5527V3.2845l0.9507-0.127V1.9857l2.0508-0.2872v1.459h1.3604V4.223H3.5542v3.2529
		c0,0.6064,0.1709,0.9199,0.771,0.9199c0.2153,0,0.5073-0.0244,0.6562-0.0498v0.8027C4.646,9.3421,3.9468,9.5071,3.3008,9.5071
		C2.0767,9.5071,1.5034,8.9681,1.5034,7.6556"/>
	<path d="M15.6772,3.7757c0.5152,0,0.793,0.2207,0.793,1.8389L14.75,5.7142C14.75,4.2552,15.0234,3.7757,15.6772,3.7757
		 M14.7681,6.4544h3.6963c0-2.6035-0.8951-3.4316-2.753-3.4316c-1.8471,0-3.0595,1.1894-3.0595,3.2304
		c0,2.1094,1.0986,3.2754,3.2285,3.2754c1.146,0,2.0708-0.5049,2.3569-0.8974V8.0257c-0.4302,0.1348-0.8721,0.2139-1.666,0.2139
		C15.4526,8.2396,14.8774,7.6614,14.7681,6.4544"/>
	<path d="M21.8208,11.4066c-1.126,0-1.6143-0.2833-1.6143-0.7139c0-0.3028,0.0904-0.5772,0.2896-0.7539h2.4282
		c0.5098,0,0.9058,0.0722,0.9058,0.5322C23.8301,11.1107,23.2275,11.4066,21.8208,11.4066 M21.876,3.7767
		c0.4482,0,0.7392,0.33,0.7392,1.3672c0,1.0351-0.2949,1.2998-0.7392,1.2998c-0.4434,0-0.7315-0.2647-0.7315-1.2998
		C21.1445,4.1067,21.4282,3.7767,21.876,3.7767 M23.1226,8.0569h-2.0635c-0.312,0-0.5127-0.2041-0.5127-0.417
		c0-0.1669,0.0454-0.4179,0.1943-0.539c0.3384,0.1015,0.7197,0.1523,1.1353,0.1523c1.5981,0,2.6914-0.7002,2.6914-2.0468
		c0-0.6084-0.2134-0.9502-0.6104-1.3038l0.0205-0.0517l1.0743,0.3301V3.0169h-0.1202l-1.5405,0.2744h-0.0879
		c-0.3847-0.1416-0.9297-0.2578-1.4272-0.2578c-1.5972,0-2.7036,0.7637-2.7036,2.1104c0,0.8203,0.3369,1.4238,1.019,1.7705v0.0644
		c-0.5679,0.4209-1.0303,0.9893-1.0303,1.4942c0,0.4814,0.3399,1.04,0.9976,1.1972v0.0655c-0.564,0.1972-1.3706,0.4082-1.3706,1.081
		c0,0.8301,1.0332,1.4024,2.9829,1.4024c2.4224,0,3.5078-0.9844,3.5078-2.46C25.2788,8.5482,24.4912,8.0569,23.1226,8.0569"/>
	<polygon points="51.4165,3.4271 51.4165,4.0648 52.1812,4.3841 52.1812,8.4358 51.4487,8.7396 51.4487,9.3841 54.9766,9.3841
		54.9766,8.7396 54.2432,8.4358 54.2432,3.0159 54.0698,3.0159 	"/>
	<path d="M39.2817,3.4271v0.6377l0.7652,0.3193v4.0517l-0.7334,0.3038v0.6445h3.79V8.7396l-0.9941-0.3038l-0.002-3.371
		c0.3521-0.169,0.8164-0.2247,1.3716-0.2247c0.1816,0,0.3965,0.0225,0.5215,0.0557V3.0892
		c-0.0679-0.0225-0.2041-0.0323-0.3062-0.0323c-0.6801,0-1.2348,0.4366-1.5986,1.2666h-0.0674V3.0159H41.855L39.2817,3.4271"/>
	<path d="M53.2056,0.4642c0.6049,0,1.0942,0.4882,1.0942,1.0927s-0.4893,1.0948-1.0942,1.0948c-0.604,0-1.0938-0.4903-1.0938-1.0948
		S52.6016,0.4642,53.2056,0.4642"/>
	<path d="M48.3003,1.8382l-0.8374-0.3184V0.8831l2.7266-0.4121h0.1733v7.7734l0.729,0.3594v0.6113l-2.5249,0.2774l-0.1753-0.001
		V8.846h-0.0684c-0.2578,0.3291-0.79,0.6729-1.5595,0.6729c-1.1338,0-2.4815-0.7188-2.4815-3.0977
		c0-2.501,1.3784-3.3994,3.021-3.3994c0.3389,0,0.7476,0.0791,0.9971,0.2578V1.8382 M48.2988,8.2874V4.098
		c-0.1577-0.1231-0.3266-0.2237-0.7011-0.2237c-0.6465,0-1.1407,0.584-1.1407,2.335c0,1.5332,0.3926,2.1992,1.2076,2.1992
		C47.9814,8.4085,48.1597,8.345,48.2988,8.2874"/>
	<path d="M26.1162,4.3841l-0.7671-0.3193V3.4271l2.6533-0.4112h0.1739V7.387c0,0.7071,0.3452,0.8311,0.8667,0.8311
		c0.3847,0,0.5371-0.0664,0.7412-0.1455V4.3841l-0.7661-0.3193V3.4271l2.6548-0.4112h0.1733v5.3028l0.7617,0.3593v0.5371
		l-2.5791,0.2774l-0.1753-0.001l-0.0014-0.8252h-0.0684c-0.3965,0.4932-1.0498,0.8526-1.8882,0.8526
		c-1.2466,0-1.7793-0.8887-1.7793-1.9649V4.3841"/>
	<path d="M5.3652,8.7386l0.7315-0.3028V1.8343L5.3315,1.5149V0.8773l2.6319-0.4112h0.1728v3.375h0.0684
		c0.5547-0.5039,1.3022-0.8183,2.1406-0.8183c1.043,0,1.5635,0.5205,1.5635,1.6582v3.7548l0.7344,0.3028v0.6455H9.1855V8.7386
		l0.6602-0.3028V5.2161c0-0.6279-0.2773-0.8642-0.8364-0.8642c-0.3067,0-0.6006,0.0556-0.8501,0.1572v3.9267l0.6601,0.3028v0.6455
		H5.3652V8.7386"/>
	<path d="M61.7188,8.7386l0.7304-0.3028V4.3841l-0.7651-0.3193V3.4271l2.6323-0.4112h0.1733v0.8252h0.0674
		c0.5552-0.5039,1.3018-0.8183,2.1407-0.8183c1.0424,0,1.5625,0.5205,1.5625,1.6582v3.7548l0.7358,0.3028v0.6455h-3.458V8.7386
		l0.6606-0.3028V5.2161c0-0.6279-0.2773-0.8642-0.8369-0.8642c-0.3066,0-0.6001,0.0556-0.8501,0.1572v3.9267l0.6607,0.3028v0.6455
		h-3.4536V8.7386"/>
</g>
</svg>
