<?xml version="1.0" encoding="utf-8"?>
<!-- Generator: Adobe Illustrator 15.0.0, SVG Export Plug-In . SVG Version: 6.00 Build 0)  -->
<!DOCTYPE svg PUBLIC "-//W3C//DTD SVG 1.0//EN" "http://www.w3.org/TR/2001/REC-SVG-20010904/DTD/svg10.dtd">
<svg version="1.0" xmlns="http://www.w3.org/2000/svg" xmlns:xlink="http://www.w3.org/1999/xlink" x="0px" y="0px"
	viewBox="0 0 170 35" enable-background="new 0 0 170 35" xml:space="preserve" aria-labelledby="title-icon-thetelegraph" aria-describedby="desc-icon-thetelegraph" role="img">
    <title id="title-icon-thetelegraph">The Daily Telegraph logo</title>
    <desc id="desc-icon-thetelegraph">The Daily Telegraph logo</desc>
<path fill-rule="evenodd" clip-rule="evenodd" fill="#FFFFFF" d="M166.223,25.994c-0.133,0.132-0.133,0.099-0.23,0.034l-2.633-2.337
	c-0.262-0.23-0.394-0.427-0.394-0.856V13.82c0-0.098,0-0.198-0.133-0.296l-0.888-0.791c-0.099-0.064-0.229-0.096-0.36-0.031
	l-1.681,0.789v8.491c0,0.132-0.033,0.263,0.101,0.361L160.761,23c0.198,0.164,0.525,0.362,0.824,0.265l0.262-0.101
	c0.33-0.132,0.394,0.064,0.197,0.23l-3.026,2.6c-0.132,0.132-0.165,0.099-0.265,0.034l-2.665-2.369
	c-0.327-0.265-0.327-0.33-0.327-0.757V8.293c0-0.164,0-0.199-0.166-0.33l-0.329-0.297c-0.33-0.294-0.46-0.229-0.886-0.03
	l-0.66,0.294c-0.099,0.033-0.198-0.099-0.032-0.264l3.486-2.927c0.133-0.131,0.133-0.098,0.23-0.033l2.106,1.942
	c0.265,0.263,0.394,0.427,0.394,0.854v5.495l4.377-2.764c0.133-0.065,0.262-0.065,0.362,0.033l2.139,1.976
	c0.294,0.262,0.361,0.46,0.361,0.788v9.016c0,0.165,0,0.198,0.164,0.329l0.824,0.689c0.328,0.298,0.458,0.232,0.888,0.035
	l0.657-0.296c0.101-0.033,0.197,0.099,0.033,0.261L166.223,25.994z"/>
<path fill-rule="evenodd" clip-rule="evenodd" fill="#FFFFFF" d="M153.363,12.275l-2.344-2.041c-0.031-0.033-0.196-0.065-0.329,0
	l-4.445,2.369l-2.45-2.402c-0.065-0.065-0.206-0.065-0.306,0.033l-3.359,2.831c-0.196,0.164-0.033,0.328,0.194,0.196l0.988-0.493
	c0.066-0.035,0.014-0.035,0.046,0L142,13.657v14.145l-0.642,0.823c-0.064,0.101-0.056,0.166,0.042,0.231l2.915,2.337
	c0.133,0.097,0.208,0.032,0.274,0l2.604-2.402c0.099-0.098-0.055-0.166-0.152-0.229L146,27.802v-3.849l3.279,1.91
	c0.396,0.229,0.539,0.296,0.87,0.033l3.306-2.306c0.23-0.164,0.545-0.294,0.545-0.526V12.998
	C154,12.702,153.527,12.438,153.363,12.275z M149,22.311c0,0.524,0.121,0.821-0.176,1.084l-0.253,0.297
	c-0.329,0.296-0.776,0.328-1.532,0.098L146,23.494V13.065l1.801-0.627c0.101-0.032,0.243-0.032,0.308,0.034l0.808,0.888
	c0.132,0.131,0.084,0.297,0.084,0.493V22.311z"/>
<path fill-rule="evenodd" clip-rule="evenodd" fill="#FFFFFF" d="M140.817,22.967l-0.46,0.229c-0.328,0.166-0.734,0.198-1.459-0.426
	L138,22.244v-9.279c0-0.196,0.209-0.362-0.09-0.658l-1.886-2.041c-0.132-0.131-0.187-0.131-0.314-0.066l-7.574,3.159
	c-0.066,0.033-0.136,0.065-0.136,0.231v9.605c0,0.395,0.008,0.463,0.373,0.757l2.257,2.041c0.133,0.099,0.158,0.132,0.288,0.034
	l3.551-2.634l2.993,2.634c0.1,0.064,0.132,0.098,0.264-0.034l3.354-2.83C141.344,22.935,141.112,22.804,140.817,22.967z M135,23
	l-0.824,0.265c-0.428,0.196-0.926,0.064-1.22-0.2l-0.545-0.392c-0.229-0.198-0.411-0.362-0.411-0.691v-9.51l0.871-0.361
	c0.101-0.032,0.125-0.067,0.189,0l1.464,1.184c0.164,0.164,0.476,0.262,0.476,0.46V23z"/>
<path fill-rule="evenodd" clip-rule="evenodd" fill="#FFFFFF" d="M125.583,14.412c-0.164,0.133-0.328,0.199-0.492,0.199
	c-0.165,0-0.33-0.065-0.493-0.199l-2.008-1.71l-0.197,0.165v9.146c0,0.198,0,0.231,0.132,0.33l0.526,0.461
	c0.56,0.461,0.689,0.525,1.283,0.296l0.395-0.165c0.264-0.1,0.328,0.032,0.165,0.197l-3.391,2.862
	c-0.13,0.132-0.163,0.099-0.263,0.034l-2.599-2.337c-0.296-0.265-0.396-0.362-0.396-0.725v-9.375l-0.787-0.823
	c-0.068-0.066-0.099-0.066-0.199,0l-0.986,0.559c-0.295,0.164-0.395-0.066-0.197-0.229l3.39-2.864
	c0.13-0.099,0.197-0.099,0.263-0.033l2.303,2.271l2.271-2.238c0.132-0.099,0.229-0.131,0.361,0l1.743,1.614
	c0.33,0.294,0.527,0.459,0.725,0.459c0.131,0,0.297-0.065,0.496-0.197l0.458-0.298c0.297-0.196,0.429,0.1,0.264,0.266
	L125.583,14.412z"/>
<path fill-rule="evenodd" clip-rule="evenodd" fill="#FFFFFF" d="M114,21.751v-8.753c0-0.229,0.314-0.427,0.053-0.69l-1.885-2.106
	c-0.065-0.065-0.085-0.065-0.283,0.033l-7.627,3.126C104.19,13.393,104,13.425,104,13.591v9.605c0,0.331,0.182,0.463,0.51,0.757
	l2.296,2.041c0.099,0.099,0.226,0.132,0.356,0.034l3.568-2.634c1.711,0.856,3.102,2.205,3.102,3.882
	c0,0.525-0.097,1.087-0.359,1.679l-0.099,0.065c-0.987-0.657-3.451-2.269-6.083-2.269c-1.776,0-3.687,0.723-5.233,3.06
	c-0.065,0.098-0.031,0.198,0.101,0.163c1.48-0.396,2.633-0.625,3.784-0.625c1.645,0,3.157,0.592,5.066,1.876
	c0.066,0.033,0.132,0.064,0.229-0.032l3.619-2.929c1.447-1.186,1.562-2.303,1.562-3.454C116.42,23.789,117,22.771,114,21.751z
	 M111,23c0,0.164-0.817,0.362-1.081,0.362c-0.3,0-0.212-0.098-0.511-0.362c-0.523-0.493-0.408-0.559-0.408-1.084v-9.444l0.478-0.361
	c0.101-0.032-0.022-0.067,0.042,0l1.267,1.217c0.13,0.131,0.214,0.229,0.214,0.362V23z"/>
<path fill-rule="evenodd" clip-rule="evenodd" fill="#FFFFFF" d="M102.854,15.104c0.131-0.065,0.145-0.164,0.079-0.264l-2.593-4.606
	c-0.064-0.131-0.16-0.099-0.258-0.065L93.2,12.406c-0.195,0.066-0.2,0.131-0.2,0.296V23.1c0,0.459,0.038,0.527,0.369,0.689
	l4.213,2.239c0.132,0.064,0.084,0.098,0.182,0l4.764-3.85c0.163-0.133-0.07-0.23-0.366-0.065l-1.746,1.019
	c-0.327,0.197-0.889,0.032-1.217-0.132l-1.905-0.987C97.061,21.916,97,21.815,97,21.554v-2.798L102.854,15.104z M97,11.943
	l0.092-0.031l2.32,4.246c0.065,0.096,0.042,0.164-0.087,0.262L97,18.33V11.943z"/>
<path fill-rule="evenodd" clip-rule="evenodd" fill="#FFFFFF" d="M89.162,25.994c-0.133,0.132-0.163,0.099-0.262,0.034l-2.668-2.369
	c-0.327-0.265-0.327-0.33-0.327-0.757V8.293c0-0.164,0-0.199-0.166-0.33l-0.328-0.297c-0.33-0.294-0.463-0.229-0.889-0.03
	l-0.659,0.294c-0.098,0.033-0.198-0.099-0.033-0.264l3.486-2.927c0.133-0.131,0.133-0.098,0.231-0.033l2.106,1.942
	c0.264,0.263,0.396,0.427,0.396,0.854v14.479c0,0.132-0.035,0.263,0.097,0.361L90.905,23c0.197,0.164,0.527,0.362,0.821,0.265
	l0.265-0.101c0.33-0.132,0.395,0.064,0.197,0.23L89.162,25.994z"/>
<path fill-rule="evenodd" clip-rule="evenodd" fill="#FFFFFF" d="M84.689,15.104c0.134-0.065,0.067-0.164-0.001-0.264l-2.63-4.606
	c-0.067-0.131-0.182-0.099-0.281-0.065l-6.729,2.237C74.849,12.472,75,12.537,75,12.702V23.1c0,0.459-0.124,0.527,0.206,0.689
	l4.131,2.239c0.131,0.064,0.042,0.098,0.141,0l4.744-3.85c0.164-0.133-0.08-0.23-0.376-0.065l-1.751,1.019
	c-0.328,0.197-0.892,0.032-1.221-0.132l-1.743-0.987C78.901,21.916,79,21.815,79,21.554v-2.798L84.689,15.104z M79,11.943
	l-0.068-0.031l2.235,4.246c0.066,0.096,0.168,0.164,0.036,0.262L79,18.33V11.943z"/>
<path fill-rule="evenodd" clip-rule="evenodd" fill="#FFFFFF" d="M67.907,8.426c-0.592,0-1.085-0.067-1.644-0.132v9.706
	c0,0.23-0.035,0.296-0.166,0.395l-5.526,3.522c0.821,0.395,1.809,0.658,2.83,0.658c3.486,0,7.434-1.91,9.275-6.68
	c0.101-0.264,0.332-0.33,0.332,0.131v0.33c0,5.231-3.981,9.935-9.871,9.935c-6.416,0-10.267-4.836-10.267-9.869
	c0-3.783,2.074-7.304,6.779-8.784c0.196-0.068,0.231,0.03,0.098,0.131c-2.074,1.611-3.192,4.244-3.192,6.876
	c0,2.797,1.118,5.561,3.62,7.043l1.382-0.99c0.493-0.326,0.56-0.688,0.56-1.216V7.437c-1.514-0.559-2.863-0.888-4.113-0.888
	c-1.711,0-3.257,0.755-4.77,2.599c-0.166,0.197-0.266,0.197-0.266,0c0.199-3.717,3.521-5.823,6.812-5.823
	c3.784,0,7.27,1.844,11.086,1.844c1.351,0,2.731-0.298,3.883-0.923c0.165-0.065,0.196,0.065,0.133,0.197
	C73.698,7.405,70.802,8.426,67.907,8.426z"/>
<path fill-rule="evenodd" clip-rule="evenodd" fill="#FFFFFF" d="M47.354,15.104l-5.824,3.652v2.798
	c0,0.262,0.033,0.362,0.265,0.459L43.669,23c0.328,0.164,0.888,0.329,1.218,0.132l1.744-1.019c0.295-0.165,0.527-0.067,0.361,0.065
	l-4.771,3.85c-0.099,0.098-0.065,0.064-0.197,0l-4.246-2.239c-0.329-0.162-0.427-0.23-0.427-0.689V12.702
	c0-0.166,0.066-0.23,0.262-0.296l6.944-2.237c0.099-0.033,0.197-0.065,0.262,0.065l2.6,4.606
	C47.485,14.94,47.485,15.039,47.354,15.104z"/>
<path fill-rule="evenodd" clip-rule="evenodd" fill="#FFFFFF" d="M33.339,25.994c-0.133,0.132-0.133,0.099-0.231,0.034l-2.632-2.337
	c-0.263-0.23-0.396-0.427-0.396-0.856V13.82c0-0.098,0-0.198-0.131-0.296l-0.888-0.791c-0.099-0.064-0.23-0.096-0.362-0.031
	l-1.677,0.789v8.491c0,0.132-0.034,0.263,0.099,0.361L27.877,23c0.197,0.164,0.524,0.362,0.821,0.265l0.263-0.101
	c0.329-0.132,0.396,0.064,0.198,0.23l-3.026,2.6c-0.133,0.132-0.166,0.099-0.264,0.034l-2.666-2.369
	c-0.328-0.265-0.328-0.33-0.328-0.757V8.293c0-0.164,0-0.199-0.166-0.33l-0.33-0.297c-0.328-0.294-0.458-0.229-0.887-0.03
	l-0.659,0.294c-0.099,0.033-0.197-0.099-0.033-0.264l3.487-2.927c0.133-0.131,0.133-0.098,0.231-0.033l2.106,1.942
	c0.264,0.263,0.395,0.427,0.395,0.854v5.495l4.375-2.764c0.133-0.065,0.264-0.065,0.362,0.033l2.139,1.976
	c0.295,0.262,0.361,0.46,0.361,0.788v9.016c0,0.165,0,0.198,0.166,0.329l0.822,0.689c0.329,0.298,0.46,0.232,0.887,0.035
	l0.659-0.296c0.099-0.033,0.199,0.099,0.033,0.261L33.339,25.994z"/>
<path fill-rule="evenodd" clip-rule="evenodd" fill="#FFFFFF" d="M15.439,8.426c-0.591,0-1.085-0.067-1.644-0.132v9.706
	c0,0.23-0.033,0.296-0.166,0.395l-5.527,3.522c0.823,0.395,1.81,0.658,2.831,0.658c3.486,0,7.433-1.91,9.277-6.68
	c0.098-0.264,0.328-0.33,0.328,0.131v0.33c0,5.231-3.981,9.935-9.869,9.935c-6.417,0-10.265-4.836-10.265-9.869
	c0-3.783,2.07-7.304,6.776-8.784c0.198-0.068,0.231,0.03,0.098,0.131c-2.072,1.611-3.191,4.244-3.191,6.876
	c0,2.797,1.12,5.561,3.619,7.043l1.382-1.055c0.462-0.362,0.56-0.691,0.56-1.219V7.437c-1.513-0.559-2.86-0.888-4.113-0.888
	c-1.71,0-3.257,0.755-4.771,2.599c-0.164,0.197-0.264,0.197-0.264,0C0.7,5.431,4.022,3.325,7.312,3.325
	c3.785,0,7.271,1.844,11.088,1.844c1.348,0,2.731-0.298,3.882-0.923c0.164-0.065,0.197,0.065,0.131,0.197
	C21.23,7.405,18.334,8.426,15.439,8.426z"/>
<path fill-rule="evenodd" clip-rule="evenodd" fill="#FFFFFF" d="M41.598,11.913l-0.068,0.031v6.387l2.304-1.91
	c0.132-0.099,0.132-0.166,0.067-0.262L41.598,11.913z"/>
</svg>
