<?xml version="1.0" encoding="utf-8"?>
<!-- Generator: Adobe Illustrator 15.0.0, SVG Export Plug-In . SVG Version: 6.00 Build 0)  -->
<svg version="1.2" baseProfile="tiny"
	 id="svg2985" xmlns:inkscape="http://www.inkscape.org/namespaces/inkscape" sodipodi:docname="A.svg" xmlns:sodipodi="http://sodipodi.sourceforge.net/DTD/sodipodi-0.dtd" xmlns:rdf="http://www.w3.org/1999/02/22-rdf-syntax-ns#" xmlns:svg="http://www.w3.org/2000/svg" xmlns:cc="http://creativecommons.org/ns#" xmlns:dc="http://purl.org/dc/elements/1.1/" inkscape:version="0.48.5 r10040"
	 xmlns="http://www.w3.org/2000/svg" xmlns:xlink="http://www.w3.org/1999/xlink" x="0px" y="0px"
	 viewBox="264.75 38.5 177 23" overflow="inherit" xml:space="preserve" aria-labelledby="title-icon-logo-thetimes-sm" aria-describedby="desc-icon-logo-thetimes-sm" role="img">
    <title id="title-icon-logo-thetimes-sm">The Times logo</title>
    <desc id="desc-icon-logo-thetimes-sm">The Times logo</desc>
<path id="path6110" inkscape:connector-curvature="0" fill="#FFFFFF" d="M437.424,39.428l0.406,5.364l-0.358,0.071
	c0,0-3.713-4.045-4.143-4.382c-0.204-0.159-1.964-1.412-3.846-0.095c0,0-1.83,1.245-0.657,3.544
	c1.173,2.298,4.646,3.926,5.533,4.453c0.886,0.526,5.324,2.685,4.764,7.086c-0.525,4.145-4.23,5.337-5.771,5.63
	c-3.28,0.622-8.356-0.767-8.356-0.767l-0.384-5.627l0.432-0.049c0,0,3.71,4.432,5.172,4.98c1.46,0.551,3.473,0.743,4.669-0.79
	c1.198-1.533,0.202-3.69-0.981-4.502c-1.677-1.149-4.114-2.438-5.817-3.568c-1.917-1.269-3.12-3.098-3.379-5.196
	c-0.357-2.921,1.366-5.315,3.593-6.201c2.058-0.819,3.736-0.647,5.245-0.552C435.105,38.928,437.424,39.428,437.424,39.428"/>
<path id="path6090" inkscape:connector-curvature="0" fill="#FFFFFF" d="M331.852,60.854h-18.473v-0.296l2.67-1.496V40.947
	l-2.67-1.523v-0.296h7.583l0.001-0.001h10.264l0.391,5.677l-0.327,0.114c0,0-2.859-2.96-3.517-3.567
	c-0.658-0.608-1.14-0.76-1.561-0.903c-0.877-0.229-1.831-0.22-1.831-0.22l-3.268-0.102l-0.012,9.179c0,0,3.429-0.055,3.808-0.101
	c0.518-0.062,0.719-0.062,1.437-0.896c0.584-0.675,1.513-1.89,1.513-1.89h0.378v7.275h-0.378c0,0-1.802-2.623-1.941-2.711
	c-0.138-0.089-0.428-0.504-1.374-0.492c-0.946,0.013-3.455-0.064-3.455-0.064l0.009,9.375c0,0,1.95,0.026,3.521-0.109
	c1.57-0.135,2.438-0.162,3.467-1.029c1.029-0.866,3.737-4.034,3.737-4.034l0.407,0.135L331.852,60.854z"/>
<path id="path6106" inkscape:connector-curvature="0" fill="#FFFFFF" d="M389.091,54.002l6.616-14.878h7.247l-0.008,0.321
	l-2.641,1.51v18.064l2.641,1.51l0.008,0.32h-10.305v-0.295l2.672-1.497V43.604l-7.808,16.945h-0.944l-8.323-17.295v15.764
	l2.644,1.51l0.008,0.32h-6.933v-0.295l2.671-1.497V40.915l-2.671-1.496v-0.295h7.842L389.091,54.002z"/>
<path id="path6074" inkscape:connector-curvature="0" fill="#FFFFFF" d="M365.328,59.058l-2.671,1.497v0.294h10.318l-0.007-0.32
	l-2.645-1.511V40.955l2.645-1.51l0.007-0.321h-10.318v0.295l2.671,1.496V59.058z"/>
<path id="path6058" inkscape:connector-curvature="0" fill="#FFFFFF" d="M357.537,60.854H345.95v-0.296l3.233-1.535V40.139h-0.026
	c0,0-0.954-0.009-1.832,0.219c-0.421,0.145-0.903,0.295-1.56,0.903c-0.66,0.607-4.103,4.161-4.103,4.161l-0.369-0.144l0.514-6.151
	h7.494h0.005h11.96l0.645,6.151l-0.369,0.144c0,0-3.442-3.553-4.102-4.161c-0.658-0.607-1.138-0.758-1.561-0.903
	c-0.878-0.228-1.634-0.205-1.634-0.205v0.014v18.855l3.282,1.511L357.537,60.854z"/>
<path id="path6094" inkscape:connector-curvature="0" fill="#FFFFFF" d="M422.731,54.764l-0.405-0.136c0,0-2.709,3.169-3.738,4.035
	c-1.028,0.867-1.896,0.895-3.466,1.029c-1.572,0.136-3.521,0.109-3.521,0.109l-0.009-9.375c0,0,2.509,0.077,3.454,0.064
	c0.947-0.013,1.236,0.403,1.375,0.491c0.139,0.09,1.94,2.712,1.94,2.712h0.38v-7.276h-0.38c0,0-0.928,1.215-1.512,1.891
	c-0.718,0.833-0.922,0.833-1.437,0.896c-0.38,0.046-3.808,0.101-3.808,0.101l0.012-9.179l3.268,0.102c0,0,0.951-0.009,1.83,0.219
	c0.421,0.143,0.903,0.295,1.562,0.903c0.657,0.607,3.515,3.566,3.515,3.566l0.327-0.113l-0.389-5.676h-10.263l-0.003,0.001h-7.583
	v0.296l2.671,1.523v18.115l-2.671,1.496v0.296h18.474"/>
<path id="path6062" inkscape:connector-curvature="0" fill="#FFFFFF" d="M309.774,40.96l2.642-1.51l0.008-0.321h-10.319v0.296
	l2.671,1.497v8.096l-9.91,0.067v-8.125l2.642-1.51l0.009-0.321h-10.319v0.297l2.671,1.524v18.113l-2.671,1.496v0.296h10.319
	l-0.009-0.319l-2.642-1.512V50.3l9.91,0.067v8.695l-2.671,1.496v0.296h10.319l-0.008-0.319l-2.642-1.512V40.96L309.774,40.96z"/>
<path id="path6054" inkscape:connector-curvature="0" fill="#FFFFFF" d="M282.053,60.854h-11.585v-0.296l3.232-1.535V40.139h-0.025
	c0,0-0.954-0.009-1.831,0.219c-0.422,0.145-0.903,0.295-1.561,0.903c-0.659,0.607-4.101,4.161-4.101,4.161l-0.372-0.144l0.515-6.151
	h7.493h0.006h11.959l0.646,6.151l-0.371,0.144c0,0-3.442-3.553-4.101-4.161c-0.658-0.607-1.139-0.758-1.561-0.903
	c-0.877-0.228-1.635-0.205-1.635-0.205l0.001,0.014v18.855l3.282,1.511L282.053,60.854z"/>
</svg>
