<svg version="1.2" baseProfile="tiny" xmlns="http://www.w3.org/2000/svg" viewBox="0 0 190 25" aria-labelledby="title-icon-logo-thetimes" aria-describedby="desc-icon-logo-thetimes" role="img">
    <title id="title-icon-logo-thetimes">The Times logo</title>
    <desc id="desc-icon-logo-thetimes">The Times logo</desc>
    <path fill-rule="evenodd" fill="#FFF" d="M95.83 12.23c.14-.7.12-1.32.1-2.02.74.07.65.49 1.05 1.07l.71-.74c.11.03.26.02.38.02-.01-.12.07-.39.02-.5-.06-.12-.21-.07-.29-.19-.17-.27-.22-.7-.48-.89-.25-.19-.54-.09-.75 0-.07.03-.15.21-.31.27-.17.06-.45-.13-.56-.09-.54.2-.41 1.15-.97 1.45-.29.15-.96-.05-1.18.15-.38.35.25.45-.55.64.15-.33 0-.56.02-.88.04-.57.16-.48.6-.77.39-.25.5-.34.34-.83-.06-.19-.25-.31-.28-.5-.02-.08.13-.42.17-.39-.26-.23-.34-.45-.07-.77.28-.34.54-.14.88-.34.37-.21.29-.58.85-.5.08.01 1.17.52 1.16.2-.01-.29-.35-.48-.32-.86.15.11.73.48.91.33.26-.21-.46-.33-.32-.59.11-.2.99.24.86-.2.01.02-.63-.53-.67-.57-.36-.33-.82-.59-1.2-.95-.17-.16-.27-.3-.42-.46-.1-.11-.29-.08-.4-.21-.1-.13-.11-.32-.2-.45-.11-.15-.71-.28-.6-.67.1-.33.47.18.55.22.18.11.44.17.64.3.11.07.17.22.26.29.06.04.18-.04.25.02.38.31.78.56 1.17.84.21.15.37.43.57.56.29.19.51.03.74.46.45-.07.57-.72.72-1.07.13 0 .28.06.41.09-.31.47-.08 1.74.31 2.1-.15-.83.24-1.23.74-1.86.15.01.31.07.45.1-.28.88.39 1.3.47 2.12.24-.14.5-.3.77-.37s1.09.23 1.2.15c.23-.17-.05-.39.13-.62.14-.18.73-.26.95-.33.09.07.17.22.24.31-.91.25-.17.5-.43 1.09-.19.43-1.2.46-1.62.55.46-.02 1.17.18 1.56-.1.55-.4.32-.75 1.18-.64.03.08.06.16.1.24-.91 0-.78.67-1.46.94-.31.13-.78 0-1.12.05-.14.02-.75.28-.86.24.41.14 1.2-.16 1.64-.15.78.01 1.37-.45 2.16-.49.11.34-.12.2-.31.33-.23.16-.83.53-1.07.62-.58.2-1.34-.15-1.97-.04l-.26.05c-.54-.69-.71-.71.07-1.22.36-.23.57-.24.96-.31.8-.13.36-.39.69-1-.08.15-.1.61-.21.71-.3.27-.79-.04-1.12.14l-1.12.62c-.06-.04-.11-.08-.17-.12.31-.18.95-.39 1.15-.69.12-.19-.7.12-.72.13-.25.17-.34.19-.47.5-.13.32-.14.11-.07.4.08.31.56.73.72 1.02.79 1.36.91 3.26.19 4.68l.16.26-.05.19-.24.6.88-.22c.41.56 1.33-.24 1.83-.29.41-.03 1.64.48 1.72.93.21.09.43.17.64.26-.06-.54-.17-1.06-.29-1.59.44.04.74.44 1.05.72.18-.52.21-1.03.22-1.57.47.03.61.65.74 1.02.41-.35.77-.61 1.28-.78h.19c-.36.41-.57.82-.76 1.33l.21-.22.15.02-.07.31.21-.22.14.07-.09.31.24-.24.12.12-.12.22.26-.15.12.07c-.03.06-.06.13-.09.19.45-.11.09-.93.02-1.26l.12-.12c.15.22.28.45.47.64.27-.34.29-.78.38-1.19.39-.11.32.66.33.93.28-.37.5-.78.89-1.05.26.12-.1 1.28-.1 1.65.53-.16 1.05-.21 1.59-.28l.17.14c-.56.13-.82.41-1.19.81.24-.04.5-.05.74-.02l.36.05c-.02.33-.81.47-1.05.74.35.17.58.45.86.71-.25.28-.84-.01-1.19-.03-.49-.02-1 .09-1.48.17l.64.07-.52.26.81-.14c.18.28-.3.66-.38 1l1.07-.78c.05.01.09.02.14.02-.11.35-.13.69-.28 1.02.48-.1.94-.24 1.38-.45.03.39-.27.65-.59.83.51-.05.98-.1 1.48.02-.14.63-.1 1.02-.67 1.34-.59.33-1.19.66-1.79.98.87.21 1.69.51 2.54.81-.25.34-.49.81-.84.99-.59.31-1.7.26-2.33.33-2.98.33-6.02.4-8.99-.08-2.63-.42-5.17-1.19-7.71-1.97-.61-.19-1.25-.45-1.9-.44-.25 0-3.06.71-2.58 1.31.01.01 2.04-.98 2.25-1 .89-.1 1.88.3 2.7.63l-.38.52c-1.31-.36-2.61-.82-3.76.27-.25.23-.4.66-.74.77-.3.09-.97-.18-1.15-.45-.38-.59.4-1.29.01-1.84-.11.09-.34.21-.41.33-.12.21-.02.09-.08.25-.08.2.2.36-.08.57-.13.09-.42.04-.56 0-.58.31-1.47.65-1.79 1.12-.1.15.02.28-.24.44-.25.15-.71.1-.99.08-.71-.04-1.42-.23-2.1-.46l-.18.27.11.09c-.12.14-.26.39-.42.49-.36.23-.03.12-.49.1-.42-.02-.85-.12-1.26-.18l-.39-.57-.11-1.4.17-.14c-.27-.32-.55-.63-.82-.95-.47.71.53 1.73-.59 2.23-.8.36-1.26-.64-1.75-1.08-1.03-.92-2.41-.29-3.55.17l-.33-.75c.99-.33 2.32-.87 3.37-.6.58.15.8.56 1.26.83.72.42.06-.42-.24-.65-1.57-1.17-3.76-.11-5.39.39-2.25.69-4.58 1.56-6.94 1.76-1.96.17-4.02.12-5.97-.01-1.22-.08-2.43-.18-3.65-.28-.28-.02-.93.05-1.18-.09-.23-.14-.41-.77-.57-1.03.68-.22 1.37-.38 2.06-.58-.52-.28-1.22-.52-1.69-.88-.42-.32-.47-.82-.71-1.33.53-.04 1.09.01 1.6.17.12-.09.2-.16.39-.21-.1.01-.18-.01-.26-.07.01.03.12-.2.07-.21.3.1.56.28.88.35-.2.08-.47-.04-.65.05-.08.04.28.1.29.11-.08.02-.58.19-.63.16.5.24.99-.23 1.39-.47-.07.01-.99-.04-.89-.15.01-.01.13-.11.06-.14.18.11.32.16.54.09-.01-.01-.19-.22-.14-.22.07.01.13.03.18.07.08-.01.2-.05.36-.02-.21-.27-.77-.04-.86-.35-.06-.21.28-.54.42-.66-.43.07-1.16.36-1.11-.25-.14-.05-.25-.11-.39-.22l.25-.06c-.13-.01-.26-.04-.39-.07.04-.02.08-.03.12-.05-.17.01-.23-.1-.35-.15.07-.13-.21-.13-.38-.28l.08-.03c-.1-.06-.19-.11-.27-.2.2.11.42.17.64.1-.17-.03-.28-.09-.43-.14.2.05.41.05.62.02-.12-.17.24-.08.32-.08l.45.01c-.08-.02-.15-.04-.23-.05.19-.06.4-.08.6-.06-.04-.17-.07-.35-.09-.52-.13.01-.26.07-.35.15l.06-.15c-.13.11-.29.14-.42.22.04-.19-.27-.02-.52-.06.06-.04.13-.08.19-.12-.16.02-.31-.02-.47-.02l.12-.06a.906.906 0 0 1-.45-.16c.05 0 .11-.01.16-.01-.13-.13-.26-.26-.38-.39.07.01.15.01.22.02-.15-.08-.21-.22-.32-.33.13-.14-.06-.18-.21-.35 0 0 .16.04.17.05a.867.867 0 0 1-.35-.59c.06.05.11.11.17.16a.494.494 0 0 1-.08-.48c.07.16.19.23.28.35.12.02.27.18.46.26l-.06-.15c.2.09.4.03.59.12 0-.04 0-.08.01-.12.09.03.2.08.26.14.06-.11.2-.03.34.08v-.08c.08.09.18.17.29.22.22-.01.52 1.09.55 1.41.06-.15.11-.5.08-.66-.02-.13.05-.06 0-.21-.06-.18-.29-.28-.34-.52.06.13.17.17.25.26-.09-.12-.17-.25-.23-.39.06.07.14.15.22.2-.15-.1-.17-.5-.12-.68.05.17.16.24.27.37-.03-.04-.24-.54-.14-.52.06.04.11.09.16.14-.11-.19-.15-.37-.06-.57.03.03.06.07.09.1-.12-.16-.01-.54-.02-.73.29.18.28.62.56.86.04-.22.21.12.29.25.01-.02.07-.09.07-.11-.01.11.01.21-.02.33.15.05.11.23-.02.42a.65.65 0 0 1 .83-.07c.04-.28.28-.39.54-.42-.31-.33-.52-.67-.43-1.13.06-.34.4-.69-.11-.89-.32-.13-.68.15-1.05.04-.26-.08-.87-.48-.72-.81.13-.29.22-.17.46-.14.38.04.46.17.88.06.83-.2 1.25-.37 1.92.25.1-.08.59-.03.72.03.51.24.27.8.75.95.24.08.88-.15 1.14-.18.45-.04.96-.07 1.4.02.97.22 1.4 1.13 1.58 2.04.09.44 0 .75-.1 1.17-.12.5-.25-.02-.04.44.08.17.37.33.48.49.1-.19-.05-.15.22-.26.01 0-.24-.23-.23-.24.08-.1.2-.04.28-.11.03-.02.84-.41.76-.48-.24-.2-.71-.08-.97-.3.36-.39.64-.38 1.08-.54.39-.14.69-.45 1.08-.6-.69-.12-1.91.84-2.42.19.29-.17.62-.08.89-.2.17-.08.22-.25.36-.34.27-.16.52-.06.76-.19.33-.17.34-.3.22-.56-.09-.19-.35-.17-.39-.44-.02-.13.24-.57.18-.62-.12-.11-.61.22-.65.33-.05.17.09.43.2.57-.29.22-.34-.08-.55-.24-.25-.19-.57-.35-.79-.54-.6-.52.13-.79-.04-1.31-.05-.16-.39-.24-.48-.41-.15-.28-.02-.55.09-.83.2-.52.47-1.02.74-1.51-.29.11-.37-.09-.3-.36-.24.24-.57.13-.52-.22-.44.39-.63-.44-.16-.4-.46-.35.06-.9.4-.54.04-.32.35-.5.62-.32l.26-.1c-.09-.24-.17-.48-.26-.72.08.03.69.32.72.25.09-.21-.6-.42-.7-.47.43-.23.86-.47 1.29-.7-.04.15-.37.87-.22.93.22.09.47-.54.57-.69l.26.9c.39-.06.06-.85.72-.6-.19-.47.3-.83.68-.48.32-.71 1.24.11.8.56.32.06.31.4.1.6.51-.15.94.39 1 .86.47-.19.8.08 1.23.08.33 0 .64-.16.92-.32l.04.34c-.13.07-.24.19-.36.28.41.19 1.01.46 1.38.06.41.59-.4.73-.82.64.11.07.21.22.3.32-.17.11-.37.13-.56.18 1.12.11 1.36 1.21 2.41 1.42-.64.44-1.58-.53-2.33-.48.77 1.04 2.37 1.04 2.73 2.41-.48-.1-1.1-.6-1.54-.86.25.69 2.06 1.16 1.58 2.12-.38-.48-.71-.71-1.29-.9.23.37.62.62.85.99.19.31.21.66.28 1.01.72-.25 1.13-.45 1.44-1.15.08-.19.33-.61.28-.78-.05-.17-.72-.73-.88-.9.21-.08.41-.17.64-.2-.27-.42-.68-.82-.84-1.29.33.14.68.2 1.04.14-.11-.37-.42-.85-.32-1.24.21.13.42.26.64.38.24-.68.38-1.24.42-1.97.19-.1.33.72.45.96.18.35.44.72.79.93.29-.3.39-.78.72-.98-.19-.1-.36-.23-.52-.38-.28.39-.6-.24-.3-.54-.41.2-.89-.34-.44-.56-.35-.06-.49-.55-.06-.56-.23-.32-.02-.77.39-.73 0-.43 1.2-.84 1.46-.41.21-.47.67-.15.83.18.18-.43.32-.59.72-.35l.42.25-.01-1.35.29.02c-.07-.09-.1-.24-.15-.34.76-.11 1.74-.16 2.49 0l-.15.3.26.01V3.3c.59-.37.85-.8 1.15-.02.08-.32.84-.4 1.11-.4.04 0 .34.13.38.15.23.08.44-.08.49.33.46-.32.69.41.77.61.12.25.33.08.24.52-.04.16-.23.21-.37.22.34.32.05.76-.37.62.41.48-.24.38-.41.46-.16.07-.32.31-.52.43.2.1.53.3.22.45.36.18.64.46.92.73.43-.66.58-1.47.89-2.19.2.56.29 1.13.39 1.71.2-.25.42-.47.68-.64.03.12.08.27.08.39 0 .79.1.6.82.68-.13.43-.5.7-.66 1.11-.24.6.1.52.66.58-.23.17-.98.74-1.05 1.01-.09.33.32 1.06.54 1.25.91.79 2.54 1.04 3.69 1.15-.03-.05-.1-.15-.18-.22zm-.27 5.35c-.54.09-.19 1.53.31 1.5.46-.04.06-1.42-.31-1.5m-.09-.2c.82.03 1.53 1.83.53 1.98-1.08.16-1.66-2.04-.53-1.98m.94.34c.08.24.9 1.52.26 1.67l-.02.14.9.37c-.02-.29-.26-.28-.37-.53-.08-.19-.07-.46-.1-.67.43.46.94.91 1.3 1.43l.07.1c.1.03.24.01.34.02-.09-.36-.7-1.79-.05-1.76-.14-.29-.72-.31-1.04-.41.29.45.44.77.58 1.34-.3-.39-.57-.87-.92-1.21-.28-.29-.54-.36-.95-.49zm-4.35-.39c-.07.08-.13.19-.18.27.38-.1.76 1.17.44 1.37l.03.14.6-.2c-.27-.22-.33-.41-.45-.82l.74.8.2-.03c.1-.29.21-.59.31-.88.09.26.29.57-.03.68 0 .34.84.28 1.13.3-.02-.08-1-1.72-.27-1.48-.1-.32-.59-.28-.88-.3l-.33 1c-.18-.23-.41-.69-.66-.84-.27-.14-.27-.11-.65-.01zm8.06 1.7c.07.28.14 1.24.35 1.4.39.3.51-.28.47-.57a.945.945 0 0 0-.82-.83m-.98-.44c.23.3.35.32.46.77.07.28.45 1.04-.09.91-.03.38 2.06.94 2.01-.2-.03-.69-.67-1.05-1.24-1.25-.28-.1-1.01-.3-1.14-.23zm3.24.88c.13.29.21.73.64.6.71-.22-.4-.54-.64-.6m-.97-.44c.1.36.43.69.58 1.08.18.48.17.56.05.91l1.1.15c-.19-.23-.4-.45-.47-.8-.04-.13.67.45.74.53.16.17.72.85 1.04.53.01-.01-.9-1.04-1-1.1.9-.21-.2-.91-.54-1.01-.48-.15-1.02-.2-1.5-.29m3.52.77c-.42.07.16 1.91.68 1.46.3-.25-.27-1.4-.68-1.46m-.08-.23c.68.05.99.34 1.25.95.24.57.17 1.06-.59 1.04-1.05-.02-2.02-2.07-.66-1.99m-5.76-.41l.35.5-.2.42c-.38-.45-.47-.44-.15-.92zm-8.75 1.61c.15-.21.36-.73.12-.96.12.12.18.31.2.48.19-.22.07-.53-.02-.77.07.09.16.21.19.32l.07.24c.2-.18.01-.53-.08-.74.15.16.24.36.31.57.12-.23-.04-.55-.11-.81.13.22.23.45.3.7.2-.29.02-.7-.08-1.02.17.24.24.53.34.8.18-.32-.06-.82-.16-1.15.2.32.32.68.44 1.03l-.07-.67c-.05-.19-.11-.39-.16-.58.25.32.33.72.45 1.1-.08-.5-.22-.96-.34-1.44.24.32.33.7.46 1.07.15-.4-.16-.96-.37-1.3.26-.44.28-.58.72-.73.54-.18 1.23-.12 1.77-.02 1.39.27 2.77.69 4.13 1.08 2.58.75 5.17 1.23 7.85 1.51l.09.24-.35.03c.21.23 1.37 1.56.56 1.6l.06.14 1.28.1c-.17-.37-.54-.57-.72-1.01.37.31.77.45 1.24.53l.09.27-.22.05c.08.31 1.18.13 1.51.11-.17-.32-.53-.22-.68-.62-.12-.31.07-.32.04-.66.27.01.55-.09.68.23l.4-.03-.37-.62-.69-.04c-.03-.08-.06-.16-.1-.24.79-.01 1.11.25 1.71.72l-.47.41.7.47.52-.44-.49-.38c.17-.34-.15-.65-.35-.93.45.02.85.14 1.27.3.15-.29-.43-.54-.63-.74.43.2.91.27 1.37.4.02-.34-.31-.5-.54-.68.45.13.91.22 1.35.37-.67.47-1.37.81-2.08 1.2.27.31 1.08.25 1.49.33.71.13 1.53.25 2.17.63-.51.32-1.44.3-2.02.39-1.05.16-2.1.27-3.16.32-2.88.12-5.75-.02-8.57-.65-1.98-.44-3.88-1.1-5.83-1.62-.85-.23-1.7-.51-2.57-.28-.81.15-2.19.66-2.65 1.39m17.55-3.98l-.13.27h.23c.05-.07.08-.18.12-.26-.07 0-.14 0-.22-.01zm-.15-.41l-.11.17.18.02c.02-.06.05-.12.07-.18-.05-.01-.1-.01-.14-.01zm.24.03l.23.02-.1.23c-.07-.01-.14-.03-.22-.04.03-.08.06-.15.09-.21zm.56.1l-.05.23-.25-.07c.01-.21.12-.26.3-.16zm.1.04l-.06.17.18.07c.07-.14.03-.22-.12-.24zm.11-.31l-.05.2.17.06c.1-.16.06-.25-.12-.26zm-.33-.1l-.05.2.2.04c.03-.07.06-.13.09-.2-.09-.01-.16-.03-.24-.04zm-.36-.05l-.03.17.2.04c.03-.07.06-.13.08-.2-.08 0-.16 0-.25-.01zm-.28-.03l-.06.2.22.04.03-.23c-.07 0-.13 0-.19-.01zm-.31-.05l-.07.22.23.03c.02-.08.05-.16.07-.24-.08-.01-.16-.01-.23-.01zm1.02-.14l-.05.13c.12.05.25.09.37.13-.07-.15-.19-.2-.32-.26m-.37-.08l-.03.17.22.02c0-.06.01-.12.01-.18-.07-.01-.13-.01-.2-.01zm-.27-.01l-.07.14.23.04c.04-.14-.01-.21-.16-.18zm-.13 0l-.26.13c.16.06.25.04.26-.13zm-.68.37c.6-.64 1.9-.69 2.12.35l-.14-.13-.04.16.12.1v.08l-.14-.07c-.1.54-.37.05-.67.16-.15.06-.2.22-.13.33l-.04.06-.1.03-.14.23.08-.26-.23-.04-.13.09.07-.12.15-.38-.3-.05-.1.15.03-.16-.14-.02.03-.12.17.02.1-.2-.24-.04-.18.2.07-.24-.16-.03.06-.08h.13c.03-.06.06-.12.08-.18-.1.04-.23.09-.33.16zm.84 2.68l.15-.1.1.33c-.11 0-.2-.09-.25-.23zm-.26.14l.14-.04.16.24-.09.09c-.06-.09-.16-.19-.21-.29zm-.12.09c.03.06.06.12.1.18-.35.11-.68.19-.63.6.05.36.58.74.9.81 1.06.24.04-.71.16-1.25.12.21.49 1.15.75.89.26-.26-.22-1.09-.3-1.33-.16-.46-.29-.47-.6-.78-.35-.34-.63-1.04-.83-1.47-.37-.79-.38-1.92-.98-2.54-.37-.38-.71-.59-1.23-.47-.5.12-.89.54-.77 1.08.11-.43.34-.81.81-.87-.35.19-.41.54-.47.9.11-.32.45-.66.8-.67-.29.17-.43.45-.48.77.23-.21.48-.4.78-.5-.05.26-.42.36-.48.72.25-.19.53-.35.85-.35-.04.23-.44.48-.67.62.14-.01.29-.02.43-.06l.34-.08c.02.05.04.1.05.15-.24.05-.47.21-.65.37.28-.01.53-.06.8 0-.26.08-.53.14-.67.4.22-.05.45-.06.67.01l-.6.33c.23.02.47.02.7.07-.21.1-.41.2-.64.24.26.04.53.05.78.12-.08.21-.47.2-.7.22.22.19.53.21.82.2.02.08.04.16.05.24-.1-.02-.2-.02-.3 0-.14.01-.28.05-.41.07.14.08.31.14.47.14h.29c.01.04.02.08.03.13-.12-.03-.25-.05-.37-.06h-.21c.2.19.45.23.68.34-.01.17-.32.05-.56.02.12.11.63.22.66.36-.01.02-.43.08-.46-.02.16.5.62.47 1.09.47m3.43-1.25c-.06.1-.75.94-.72.97.14.12.5.12.68.19.21.09.41.25.6.38-.43-.15-.83-.29-1.3-.24.39.29.63.64.88 1.04-.56-.4-1.08-.82-1.58-1.28.49-.36.96-.72 1.44-1.06m2.55.51c.32.18.38.27.71.22.26-.04.6-.29.84-.42-.51.02-1.02.16-1.55.2m.62-.82c-.25.18-.96.52-1.06.8-.01.04 1.09.79 1.2.87-.4-.28-1.07-.77-1.58-.77.07 0 .56-.43.69-.5.24-.14.5-.26.75-.4m-.92-.55c-.21.32-.42.68-.69.95-.33.34-1.01.45-.52.8.19.14.39.28.58.43-.26-.11-1.15-.31-1.31-.55-.16-.23.39-.93.5-1.29 0 .32-.06.62-.13.93.58-.37 1.06-.83 1.57-1.27m-1.9-1.43l-1.23.78c.19-.15 1.11-1.01 1.23-.78m-.39.7c-.07.15-.44 1.21-.3 1.23l.94.14c-.17-.11-.34-.21-.52-.32.47-.18.86-.43 1.24-.75-.25.11-.92.5-1.19.44-.37-.08 0-.35-.17-.74m-1.16-.45c-.05.68-.2 1.51-.55 2.09.31-.08.6-.22.91-.3-.46.44-.9.65-1.48.87-.3-.24-.22-1.02-.28-1.38l.37.83c.41-.4.98-1.56 1.03-2.11m-9.75-1.54c0 .6-.5 1.19-.76 1.7-.14-.33.12-.74.08-1.1-.09-.05-.23-.06-.33-.08 0 .31.01.66-.24.88.04-.34-.07-.66-.18-.97-.09-.03-.22-.03-.32-.05.1.44.41 1.04-.31 1.11.37-.32.01-.75-.15-1.08-.14.05.01.75-.2 1.03.11-.35-.15-.65-.32-.93-.35.34.56 1.05-.58 1.27.4.43.93 0 1.44.15.78.23 1.52.66 2.3.92.69.23 1.68-.07 2.12.49.26.34.42.82-.11.95-.32.08-.76-.23-1.08-.23.19 0 .41-.11.59-.16-.56-.23-.54-.14-1.09-.06-.51.08-1.03-.14-1.52-.28-.64-.18-1.26-.4-1.89-.61-.29-.1-1.47-.23-1-.63-.28-.21-.41.26-.78.11.11-.2.3-.31.51-.4-.36-.28-.47.33-.79.31-.58-.02.5-.67.48-.73-.06-.18-2.11 1.32-.53.01.36-.3.36-.35-.11-.17-.27.1-1.1.44-1.07.75-.74.15-.17-.37.12-.52.35-.18.71-.37 1.05-.56.52-.29 1.46-.54 1.58-1.26.3.18.52-.06.75-.24.24.03.31-.42.45-.38.1.03-.08.35-.11.4.19.08.49-.05.49-.32 0 .13.02.27-.12.44.21.11.58-.29.55-.32.06.07-.07.4-.08.51l.18.06.23-.35.09-.09-.1.52c.24.12.26-.14.44-.32l-.15.53c.22.15.29-.08.47-.3zm.44.28c-.07.16-.74 1.63-.84 1.47-.12-.2.72-1.28.84-1.47m.2.45c-.09.22-.37 1.35-.63 1.36-.18.02.54-1.21.63-1.36m.38.57c-.06.13-.63 1.17-.67 1.1-.14-.2.54-.92.67-1.1m.03.74c-.04.08-.26.69-.33.64-.12-.07.27-.55.33-.64m2.96 1.92c-.09.24-.16.29.05.58-.53.17-.76-.59-.05-.58m.58.39c-.25.09.24.42.26.26.01-.1-.14-.3-.26-.26m-.82-1.08c.15.2.3-.07.47.39.09.26.22.48-.15.57 1.1.32.13-1.83-.32-.96m.1-1.55c0 .08.24.65.38.71l.14.05c-.08.07-.13.2-.19.29.45.11.59 1.09.68 1.49l.25.35c.17-.1.79-.36.76-.54-.03-.15-.56-.29-.65-.45-.14-.23-.06-.47-.05-.73.02-.46.02-.95-.36-1.31-.39-.36-.57-.15-.96.14m-.78.27c.46-.17.81.6.57.92.49-.09.36-.56.13-.86-.36-.46-.38-.18-.7-.06m.35.53c-.54.29-.16 1.56.59 1.11-.26-.08-.3-.07-.46-.27-.16-.2-.15-.7-.13-.84m-1.22-.88c.17.41.73.55 1.12.59-.53.39-1.08 0-1.12-.59m-.2-.3c-.3.3-.2.6.17.78-.39-.05-.72-.24-.61-.67.27-1 1.39-.04 1.01.24.02-.03-.29-.63-.57-.35m-6.64-1.11c.18 1.15 1.86-.66 1.04-.77-.02 0-.12.36-.22.48-.19.23-.55.38-.71.16-.09 0-.12.04-.11.13m-.84.17c-.21-.43.2-.57.54-.66.09-.02 1.13-.06.65.34-.11.09-.13-.13-.16-.16l-.9.33c.05.13-.12.25-.13.15m-.82.37c0 .61.38.57.84.38.17-.07.55-.21.63-.4.03-.09.05-.54-.13-.51-.06.01-.06.25-.19.32-.14.08-.36.14-.51.18-.34.08-.43.03-.64.03m-.31.1c-.09.41-.56.34-.88.38-.05.18-.09.36-.14.54.29-.02.73-.04.96-.24.21-.18.4-.73.06-.68m-.49.01c-.14-.52 1.36-.34 1.36-.42.04-.53-.96-.37-1.19-.24-.2.14-.56.63-.17.66m4.14-1.98c-.38-.13-.74-.02-1.01.3-.05.06-.22.17-.23.26 0 .02.15.52.22.41.11-.16-.07-.16.08-.33.11-.12.29-.28.43-.35.21-.11.51-.15.51-.29m.73-.5c.35.39.04.7-.29.95-.15.12-.21.29-.43.26-.05-.01-.47-.36-.35-.42.12-.05.21.2.35.12.14-.08.32-.24.42-.36.08-.1.19-.17.26-.28.06-.1-.22-.19-.12-.28.05-.01.11-.01.16.01m-3.28.25c-.21.41-.5.78-.72 1.18-.41-.31.46-.99.72-1.18m-.64-.24c-.31.46-.6.91-.82 1.42-.34-.3.6-1.19.82-1.42m-.57-.2c-.25.51-.55.99-.74 1.53-.11-.64.39-1.05.74-1.53m-.4-.37l-.2.3c-.1-.18-.02-.27.2-.3zm9.46.32l-.2.47c-.15-.16.06-.29.2-.47zm.07-.89c-.05.12-.6 1.23-.62 1.21-.15-.2.52-1.05.62-1.21m-.06-.67c-.12.26-.63 1.87-.91 1.91.05-.01.79-1.68.91-1.91m-.05-1.05c-.29.68-.52 1.69-1 2.25-.02.03.02-.43.05-.52.08-.21.23-.42.34-.62.21-.38.41-.74.61-1.11m-.81 4.25l.1.08-.4.34c-.04-.03-.08-.07-.13-.1.15-.11.29-.22.43-.32zm-5.23-3.6l.55 1.05.29.05.8-.76.21.04.05 1.08.12.04.98-.69.28.11.06 1.13.19.1.93-.55.27.15-.24 1.07.16.09.95-.43.34.28-.34.86.18.11.85-.2c.11.08.21.23.3.33-.28.2-.52.44-.78.65.07-.09.49-.75.55-.75-.27 0-.8.48-1.01.63.15-.14.37-.32.47-.5-.03.05-.75.4-.88.53l-.16-.1.43-.35-.1-.15c-.23.19-.32.34-.56.31-.29-.04-.83-.57-1.07-.74-.38-.27-1.44-.68-1.26-1.23-.08-.03-.2-.02-.29-.03.06.3-.22.47-.48.56.82-1.22-1.31-.53-.68-.13l.1.06c-.43.23-.63-1 .34-.95a.284.284 0 0 0-.12-.2l-.45.08-.08-.16c-.18.11-.13.21-.33.39.11-.2.11-.42-.05-.58-.13.03-.09.27-.24.46l.08-.74-.16-.29-.08.96c-.26-.34-.11-1.16-.12-1.59zm-1.31-1.04c.04.48-.11.84-.54 1-.13.05-1.37.06-1.13.53-.3-.62.66-.71.99-.83.38-.15.5-.29.68-.7m-.89-1.15c0 .87 1.15-.12 1.48.52-.37-.06-.69.2-1.01.16-.32-.04-.64-.36-.47-.68m5.32-.09c-.06.85-1.88.75-1.78.01.56.81 1.18.02 1.78-.01m.31-1.68c-.12.67.56 1.37 1.21.83.43-.45.45.47.4.72-.12.66-.49 1.25-.55 1.92.21-.41.82-1.2.86-1.62-.08.77-.73 1.3-.72 2.11.12-.19 1.02-1.49.93-1.67.3.63-1.25 1.82-.83 2.47-.09-.15.91-1.73 1.04-1.97-.07.89-.81 1.72-.92 2.66l-.34-.18-.89.48-.09-.97c-.61-.32-.54-.17-1.12.16.03-.02-.02-.47.03-.54.1-.13.09-.05.24-.12.45-.22.93.1 1.4-.33.03-.2.06-.4.1-.61-.36.43-.83.4-1.34.38.86-.41 1.18-.79 1.52-1.68-.27.37-.79 1.23-1.34 1 .49-.29.8-.77 1.05-1.27-.33-.04-.76.87-1.37.89-.76.03-1.93-.47-1.53-1.41-.06-.04-.12-.09-.18-.13-.05.17-.17.78-.39.83-.08-.18.02-.62-.12-.91-.06-.01-.13-.01-.19-.02.04.36.11 1.74-.61 1.29.6.17.52-.97.19-1.16-.37-.21.06.73-.4.87.44-.41-.32-.74-.16-.31-.12-.32-.96.03-1.13 0-.27-.04-.72-.56-.44-.81.16-.14.57.09.76-.01.1-.05.09-.27.2-.37.4-.37.91-.25 1.17.24L97.29 7c-.08-.69 1.9-.39 2.4-.53m-5.16 2.82c.12.67-.97.69-1.31 1.09.17-.7 1.09-.4 1.31-1.09m.86-2.32c-.22.04-.3.38-.17.47.09.06.53-.09.64-.11-.07-.16-.28-.4-.47-.36m2.09.14c.12-.14.67-.24.67-.24.18-.52.9-.1 1.06.11.15.2.1.37.38.54.25.15.67.18.97.14-.34.35-.92.17-1.26-.09-.25.47-1.28.09-1.14-.45-.04 0-.72.12-.72.13-.01-.06.01-.1.04-.14m1.07-.12c.06.3.31.48.26.05.41-.02.31.48-.1.43-.28-.04-.43-.32-.16-.48m2.33-1.83c0 .42.32.71.21 1.14-.04.14-.49.99-.77.73-.22-.21.46-.61.54-.76.18-.36-.04-.73.02-1.11m-.21-.77c-.26.5-.15.78-.18 1.28-.01.22-.15.99-.49.94.02 0 .36-.86.36-1 .01-.54-.08-.75.31-1.22M96.6 6.2c.24.29 2.75.17 2.76.1.07-.45-2.6-.07-2.76-.1m.74-.57c.17.32.62.26.93.25.27-.01.89.05 1.12-.01-.09.02-.6-.27-.81-.26-.46.02-.77.15-1.24.02m1.66-.6c.14-.08.2.34.19.41-.05-.04-.3-.33-.19-.41m-.43-.19c.16-.03.18.38.17.48-.05-.05-.36-.43-.17-.48m-.57-.4c.21-.12.34.8.34.95 0-.17-.6-.8-.34-.95m-.81-.55c.19-.11.36.96.38 1.09-.08-.13-.61-.96-.38-1.09m-.57-.45c-.18 0 .3.91.36 1.02-.03-.16-.15-1.02-.36-1.02M95.95 3c.14-.06.33.79.36.89-.08-.11-.58-.79-.36-.89m-.5-.34c-.16.03.33.74.38.82-.03-.12-.21-.85-.38-.82m-.38-.29c-.26.03.19.6.19.6l-.19-.6zm-.47-.31c-.19.02.1.41.1.41l-.1-.41zm12.57 11.21c.35.59.49 1.2.55 1.88.15-.14.44-.42.67-.41-.05 0-.53.75-.72.78-.26.04-.96-.59-1.09-.8.34.11.67.26.95.48-.07-.66-.26-1.28-.36-1.93m-4.19-3.16c.72-.15 1.6.17 2.25-.14.32-.15.5-.53.85-.65.24-.08.58 0 .83.02.04.07.05.18.07.26-.83-.19-1.02.36-1.66.7-.64.34-1.37.02-2.03.3.58.27 1.31.35 1.92.16.69-.21.99-.46 1.75-.3.02.08.05.16.07.24-.73-.15-1.01.18-1.66.38-.18.06-.37.11-.55.17.61.03 1.21 0 1.81.14.07.1.1.26.14.38-1.3.08-2.34.75-3.65.45.21.64 2.28.19 2.81.28.01.09.01.18.02.26-.7-.11-.95.37-1.55.4-.1.01-1.69-.39-1.62-.33.16.16.82.22 1.06.3-.24.22-.92.23-1.14-.01-.18-.2.15-1.13.21-1.44.41.12.88.26 1.31.23.64-.04 1.19-.37 1.85-.37h.48c-.97-.16-1.81.04-2.77-.22-.33-.09-.72-.04-.82-.3-.09-.19.01-.68.02-.91zm-.46-1.72c.08.24.13.63.3.75.08.05.64.03.72.05.23.07.28.14.47.23 1.11.58 1.55-.25 2.65-.31-.13-1.01-1.39.26-1.66.26-.29 0-.35-.2-.59-.35-.25-.16-.65-.22-.94-.32.42.06 1.11.19 1.45-.12.28-.26.19-.63.6-.76.23-.08.65.01.89.03-.03-.35-.34-.41-.64-.4-.58.02-.56.44-.93.69-.51.37-1.67.13-2.32.25m8.41 6.64c-.27.29-.55.56-.84.84.1-.08 1-.85 1.03-.83a.408.408 0 0 0-.19-.01m-.41-.31c-.2.29-.42.58-.64.86.09-.08.88-.87.84-.89-.07 0-.14.01-.2.03m-.21-.16c-.19.24-1.09 1.24-1.09 1.24.17-.3.83-1.73 1.09-1.24m-.6-.5c-.3.41-.49.94-.71 1.4.2-.24 1.24-1.32.71-1.4m-.38-.1c-.15.47-.36.93-.55 1.38.13-.21.93-1.22.78-1.45-.04-.06-.19.05-.23.07m-.26-.21c-.06.35-.67 1.43-.59 1.7-.04-.12.41-1.79.46-1.8.06.02.1.05.13.1m.95-1.1c-.06.07-.43.65-.54.62-.29-.06.51-.59.54-.62m-1.54-.23c.04.37.22 1.19-.04 1.51-.06.07-.08-.62-.08-.67.02-.28.07-.57.12-.84m4 2.21c-.07.18-.11.38-.12.57.58-.32 1.17-.44 1.81-.6-.55.27-1.11.51-1.66.76.29.03.99.12 1.19.36l.12.15c-.65-.19-1.24-.25-1.91-.29.22-.28.34-.65.57-.95m.3-1.88c-.21.49-.45.97-.62 1.48.35-.13.72-.19 1.09-.21-.48.18-.95.37-1.36.69-.33.13-.47-.68-.59-.93.24.12.43.34.45.62.28-.62.64-1.12 1.03-1.65M89 17.38l.12.1c-.17.23.55.78.73.55l.17.15-.67.82-.28-.22c.21-.19.31-.09.37-.4.01-.07-.41-.29-.25.14l-.05.03-.41-.32c.75-.31-.32-.49-.06.2l-.05.05c-.5-.32.13-.79.38-1.1m.44-.73l-.07.1.09.12c-.59.16-.3.57.1.63.1.02.56-.17.59.02.03.18-.24.14-.34.13l-.12.09.38.33.11-.18c-.07-.21.34-.21.21-.55-.13-.36-1.08-.03-1.05-.19.02-.1.35-.13.43-.12.08-.2-.13-.28-.33-.38zm.44-1.28l.18.07-.02.1.89.28.08-.12.19.06c-.06.6-.68.47-1.09.7.01.05.03.08.08.11l.43.19.09-.12.13.06-.23.44-.17-.08.06-.13-.9-.46-.13-.05c.22-.31.88-.13 1.14-.45l-.65-.21-.05.12c-.27-.06-.13-.3-.03-.51m1.29-.91h.19c-.01.38-.03.75-.11 1.12l-.49-.12c.01-.06.02-.12.03-.17.31.12.51-.27.31-.44-.19-.16-.5.07-.14.27l-.01.04-.62-.02c.75-.38-1.02-.46.14.2l-.04.11c-.73-.28-.43-.33-.43-1.1.05-.01.1-.01.15-.02.03.37.97.43 1.02.13m-.47-.7c1.06-.17-.15.79 0 0m-.72-.36l.02.52.18.03v-.16c.08-.02.2 0 .29 0-.05.37.21.74.62.57.44-.17.26-.72.25-1.11l-.24-.03c.03.13-.08.2-.09.26-.25 0-.72.12-.76-.17-.15-.03-.28-.04-.27.09zm-.13-1.14l.1.75.16-.02.05-.23.49-.04.42.32.02.08h.22l-.07-.53c-.05 0-.1 0-.15-.01 0 .01.05.26.02.25-.11-.02-.27-.15-.34-.22l.27-.33.04.15.14-.04-.13-.73c-.29.08-.21.5-.52.69-.33.21-.47-.05-.72-.09zm-3.36 1.86c-.09-.02-.52-.02-.55.11-.06.27.37.15.37.23 0 .18-.78-.3-.82-.27-.18.14.04.33.05.49.02.19-.08.17-.15.31-.05.11.39-.13.4-.1.01.02-.12.17-.09.16.12-.02.55-.48.63-.3.03.07-.54.19-.3.32.03.02.28-.18.28-.19 0 .11-.09.11.07.14.06.01.05-.34.05-.37 0-.16-.01-.6-.36-.39-.01.01.75-.08.42-.14m-.83.44c.07.06.1.12.09.21a.479.479 0 0 1-.09-.21m.16 0c.09.03.12.09.1.16-.07-.04-.1-.09-.1-.16m0-.09c.09.02.15.06.17.14a.265.265 0 0 1-.17-.14m-.24 1.02c.08.05.11.11.1.2-.07-.05-.11-.12-.1-.2m.07 0c.07.01.11.04.13.1a.155.155 0 0 1-.13-.1m.44-.36c-.65 0-.3.37-.11.31-.2.07-.46-.23-.51-.15.01-.02.06.9.01.85.02.02.22-.32.3-.36.01 0-.09.19-.05.2.08.02.2-.39.23-.36.02.02-.08.28-.08.29.22-.16.29-.79-.11-.69.03-.01.4-.09.32-.09m.33.96c.06.05.35.41.35.41l.43-.35.71.6c-.36.79-.41.17-.91.12.15.02.31-.02.45-.02.02 0-.47-.28-.58-.06.09-.17.4-.24.57-.28-.24-.3-.33.02-.55.12-.23.1-.61.23-.9.36.06-.18.27-.52.21-.74-.15.34-.29.19-.53.31-.02.01.29.21.3.2-.22.11-.48.18-.64.32.21-.06.42-.07.63-.09-.18.01-.65.36-.59.36.2 0 .82-.32 1-.43.15-.03.3-.05.45-.08-.5.18-.52.52-1.08.58-.42.04-.51.11-.57-.25-.06-.39 1.06-1.29 1.25-1.08m.12-.67c0 .48.46 1.11.57.32.05-.39-.25-.54-.57-.32zm-.16-.17c0 .32-.06.8.29.98.24.13.55-.11.55-.45.01-.64-.17-.67-.84-.53zm.61-.22c-.01-.11.45-.27.44-.27-.26-.09-.39-.35-.38-.61.02-.21.26.34.23.32.03.02.63.26.48.08-.06-.07-.25-.21-.19-.37.03-.1.77.02.75-.03.03.1-.67 1.49-.09 1.4-.21.03.44-1.53.46-1.44.05.32-.23.39-.29.66-.05.21.07.43.03.63-.03.17-.16.32-.24.47 0 0-.5.67-.4.32.06-.01.12-.03.18-.04-.02-.09-.07-.4.03-.42-.01 0-.24.06-.24.04-.03.57-.23.03-.37.16.05-.05.24 0 .3.02-.05-.04-.21-.17-.25-.23-.05-.06.38-.14.37-.21-.02-.14-.23-.18-.2-.36.01-.06.07-.19.07-.24-.03.06-.02.1.02.12.04-.08.08-.17.11-.26-.02.06-.01.13.02.19.04.01.38-.6.35-.6-.07 0-.98.94-1.05.75.06.14.24-.03.26.18.01.18-.05.46-.01.62.04.18-.11.02-.04.18.04.08.42.4.51.42.66.18 1.23-1.8 1-2.38-.16-.4.07-.2-.4-.28-.32-.06-1.04-.09-1.32.02-.33.13-.27.19-.28.59-.02.24-.1.65.14.57zm-1.67-1.16c-.1 0-.14-.01-.14.15v1.35c0 .26-.14 1 .02 1.24.05.08.97-.59 1.07-.66l.01-.81.44-.01c0-.26.14-1.12-.05-1.27-.2-.15-1.07.01-1.35.01m1.82 3.47c-.71-.23-1.44 2.04-1.98 2.42.17-.34 1.63-3.25 1.98-2.42m.69.96l1.28 1.55.11-.19c-.26-.29-1.06-1.45-1.39-1.36zm-1.8 1.46c-.08.05.52.56.57.6-.06-.09-.42-.69-.57-.6m.05-.59c.01 0 .76 1.1.93 1.23-.15-.2-.69-1.23-.93-1.23m.36 2.67c.12-.01.22.01.31.07.03.04-.29-.06-.31-.07m-.05-.23c.31-.13.23.06.44.06-.13-.01-.31-.04-.44-.06m-.66.54c.16.05.58-.15.57-.15-.18-.09-.43.05-.57.15m-.77-.16l1.86-.86.27.05c-.46.21-1.66 1.02-2.13.81m-.54-.16l1.77-.78.32.04c-.49.2-1.58.94-2.09.74zm-.52-.12l1.68-.82.3.08c-.44.2-1.52.97-1.98.74zm-.46-.23c.02 0 .9-.36.9-.36l.05-.11.75-.29.22.1c-.42.16-1.54.89-1.92.66zm.03-.39l.05.05-.43.21c-.07-.17.19-.18.38-.26zm.25-.1l-.02.08.19.07.06-.12-.23-.03zm.95-.45l.22.08-.5.21c-.05-.19.07-.27.28-.29zm-1.39.28l.08.07-.68.25c-.04-.03-.09-.06-.13-.09.24-.08.49-.16.73-.23zm.7-.71c.07.04.14.07.21.11-.56.24-1.11.47-1.69.64-.04-.02-.08-.05-.12-.07.55-.2 1.07-.45 1.6-.68m-.43.65c.3-.07.54 0 .67.3.08-.46-.36-.52-.67-.3m.77-.47l.14.12-.32.15c-.05-.02-.11-.03-.16-.05.12-.08.23-.17.34-.22zm-.66-.43l.17.14c-.58.23-1.17.42-1.76.62-.05-.02-.09-.05-.14-.07.59-.2 1.16-.44 1.73-.69m-.35-.29c.07.05.14.13.2.19-.61.23-1.2.45-1.83.6-.03-.04-.06-.07-.09-.11.59-.2 1.15-.42 1.72-.68m-.38-.37l.22.21-1.8.66-.12-.12.46-.2c.44.09.87-.37 1.24-.55m4.94 2.11c-.26.09-.52.18-.77.28.3-.11.34-.32.77-.28m-3.4-2l.52-.02-.06.1c-.19.05-.37.03-.46-.08zm-.49-.37l1.17.02-.04.1c-.35-.01-.86.09-1.13-.12zm-.24-.32l1.61.02-.08.12c-.42-.02-1.19.13-1.53-.14zm.08-.33h1.71l-.08.15c-.59-.01-1.17-.03-1.76-.04.04-.04.08-.07.13-.11zm.28-.29l-.1.12 1.68.03.09-.15H84.1zm.39-.32l-.15.15h1.53c.03-.07.07-.13.1-.2-.49.02-.98.04-1.48.05zm-.21-.16c-.06-.03-.85.83-.94.95.18-.2.37-1.21.94-.95m-1.68.55c-.3-.26.22.61.31.71.54.58 1.19 1.08 1.9 1.43.86.42 1.83.64 2.78.75.24.03 1.54.24 1.69-.06-.12.25-2.73-.33-2.96-.39-1.47-.37-2.72-1.32-3.72-2.44m-.37.96l.12.16.43-.12c-.14-.18-.34-.16-.55-.04zm-1.28.56l.15.17c.13-.01.27-.09.39-.13.07-.03-.37-.13-.54-.04m.97-.72l.46-.22c.02.04.05.08.07.12-.18.05-.36.11-.53.1m-.59.26v.09l-.5.22c-.07-.17.3-.23.5-.31zm.77-.72l-.01.07-1.73.68c.05-.3 1.39-.62 1.74-.75zm-.49.94c.1.22.26.26.27.01-.09 0-.18 0-.27-.01m-.1-.25c.42-.3.75.31.65.32-.2.03-.24-.44-.65-.32m-1.29.2c.59.98 1.84 1.89 2.85 2.38.73.35 2.89 1.34 3.73.86-1.05.6-3.2-.38-4.09-.86-1.01-.53-1.93-1.38-2.49-2.38m3.42 3.03c.1.27-.32.34-.24.07-.04.16.27-.08.24-.07m-.78.63c.09-.05.12.21.12.24-.04-.03-.22-.19-.12-.24m-1.47-1.61c-.23.27-.1 1.18.11 1.34.22.17 1.26.26 1.39-.05.08-.19-.05-.35-.29-.44-.47-.17-.53.37-.86.31-.3-.05.25-.52.21-.7-.04-.23-.39-.36-.56-.46m3.5-7.51c.21 0 .16 2.84.11 3.21-.11.79-.47.06-1.04.32-.53.24-.72 1.03-1.21.4-.41-.52-.92-1.45-1.04-2.09-.08-.43-.66-1.53-.22-1.84.27-.19 1.36 0 1.69 0h1.71zm-.51.39c-.24-.05-.65.21-.9.23-.48.05-.74-.19-1.2-.22-.87-.06-.19.54.02.95.21.39.68 1.09.72 1.53.03.3-.38.41.05.52.11.03.56-.13.7-.17l.08.25.26-.06.39-1.72c.08-.39.54-1.28-.12-1.31zm-.91 2.49l-.07.08.53-.08.06-.15c-.17.06-.35.1-.52.15zm.14-.27l-.05.08.46-.08c.02-.05.03-.09.05-.14-.16.04-.32.07-.46.14zm.48-.37l-.05.12-.35.06a.49.49 0 0 1 .4-.18zm.06-.25l-.04.09-.26.05c.06-.1.17-.14.3-.14zm.07-.27l-.04.13-.24.02c.06-.1.16-.15.28-.15zm.07-.26l-.04.09-.18.03c.04-.08.11-.12.22-.12zm-.19-.49c-.03-.09-.27-.29-.21-.16.05.13.27.24.21.16m-.1.16c-.04-.13-.34-.42-.29-.31.05.17.33.37.29.31m-.11.18c-.06-.1-.4-.52-.35-.42.04.07.4.55.35.42m-.11.14c-.07-.12-.43-.57-.39-.5.09.16.42.55.39.5m-.13.22c-.09-.17-.49-.71-.46-.65.09.17.48.7.46.65m-.07.22c-.11-.2-.2-.43-.34-.61-.02-.02-.33-.39-.25-.23.11.2.21.43.34.61.05.06.32.33.25.23m-.11.21c-.14-.25-.28-.51-.42-.76-.07-.13-.37-.46-.33-.39.14.25.28.51.42.76.05.1.39.5.33.39m-.14.14l-.48-.87c-.05-.09-.43-.61-.38-.47l.48.87c.09.15.41.51.38.47m-.11.16c-.18-.32-.35-.64-.53-.95-.07-.13-.47-.64-.43-.57.18.32.35.64.53.95.07.13.17.44.3.53-.03-.02.23.22.13.04m-1.17-1.82c-.03.19.52.15.65.16-.06-.04-.61-.33-.65-.16m3.14-4.91c0 1.12-.02 2.24-.02 3.36 0 .33-.1.69.15.85.3.19 1.35.01 1.7.01.36 0 1.37.19 1.68 0 .36-.22.05-1.03-.04-1.39-.23-.87-.57-1.59-1.27-2.17-.42-.35-1.72-1.01-2.2-.66m-.31-.07c-1.78 0-3.06 1.56-3.37 3.19-.03.18-.23.8-.14.96.1.19.23.1.43.13.61.1 1.32 0 1.94-.01.23 0 1.08.14 1.27-.04.16-.16.02-1.05.02-1.24 0-.29.13-3-.15-2.99m-3.04 3.23c-.3.08.05.21 0 .34.01-.03-.18.42-.22.4-.07-.03.58-.24.5-.12-.08.04-.16.08-.24.1-.01.04.97-.19.97-.18.01.05-.37.24-.37.24.27 0 .48.09.58-.18-.01-.01.29.22.25.22.06 0-.08-.48-.07-.46-.06-.19.19-.12-.11-.31-.05-.03-.56.04-.55-.05.01-.15.78.05.77-.11-.01-.11-.8-.09-.89.04-.28.38.77.16.75.25-.11.48-1.09-.27-1.18-.34-.01.14-.11.08-.19.16zm.15.33c.01.01.2.15.17.19-.05.08-.16-.17-.17-.19m.11-.11c.02.02.2.13.15.19-.06.07-.14-.17-.15-.19m.07-.05c.04.03.24.12.22.19-.01.08-.22-.19-.22-.19m-.36-.08c-.01.07 0-.1 0 0m.3-.05c-.02.07-.06.08-.11.04.03-.06.06-.08.11-.04m1.91-.14c.47.35.31.72-.05.72-.51.15-.19-.16-.37-.26.35.23.24-.4.42-.46m-.43-1.02c0 .27-.02.55-.01.82 0 .03.12.7.16.5.06-.28-.2-.44.01-.73.1-.14.21.33.33.06.06-.14-.1-.57-.17-.64-.24-.23-.06.09-.18.11.08-.02.02.38-.14-.12m.71-1.15c.01.03-.12.71-.16.72-.07.01.01-.29.01-.3 0-.08-.15.51-.09.52-.11 0-.03-.33-.02-.39-.02.04-.09.53-.11.53-.1 0-.05-.19-.06-.24-.03.03-.31.16-.29.18-.07-.14 0-.48.01-.64.02-.04.05-.06.1-.05.12.17.01.28.18.42.08-.28.28-.5.43-.75m-.09 1.77s-.04.47.03.55c-.17-.18-.22-.35-.03-.55m.41-2.3c.03 0 .02 1.86.02 1.96 0 .31.11.89 0 1.19-.03.08.03.18 0 .26-.03.08-.27 0-.28.01.25-.43.04-.43.02-.85 0-.14.16-.24.17-.41.02-.31-.08-.62-.08-.93 0-.29.13-.59.08-.86-.2.19-.28 1.68-.17 1.86-.42-.53.01-1.7.11-2.1-.15-.01-.23.15-.17.14-.14.01-.23-.06-.3.06-.03.06-.15-.13-.15.13 0 .13.24.06.27.15-.03-.04-.03-.08.02-.1.12.03-.27.49-.37.38.01-.06.06-.09.13-.1-.01.11-.2-.22-.13-.2-.66-.05.67-.53.83-.59m-.92.23c.23-.07 1.27-.55 1.01-.08l.01 2.95c.06.22.1.56-.18.42-.36-.01-1.24.17-1.03-.22.01-.69.01-1.37.02-2.06-.01-.35-.17-1.09.17-1.01zm-1.41 1.89c.01.03.16.17.09.2-.09.04-.08-.18-.09-.2m.07-.09c.03.04.2.16.16.22-.06.08-.16-.21-.16-.22m.08-.1c.1.05.16.12.17.21-.08.07-.16-.19-.17-.21m-.28-.19c.06-.15.32.07.33.08-.05-.02.82.45.69.16-.05-.11-.67.14-.59-.19.05-.22.82-.16.82-.1 0 .15-.59-.01-.66.12.06-.12.55.14.6.21-.08-.13 0 .63.02.51.04-.18-.74.08-.72-.01.02-.12.34-.04.39-.2.05-.09-1.01.34-.99.25.02-.09.29-.03.31-.12.04-.17-.47.12-.49.12-.33-.04.25-.25.24-.23.06-.2-.21-.44.05-.6zm.13.12c.01.05.15.03 0 0m-.15.01s.09-.02 0 0m1.15-.63c.26-.13.13-.32-.07-.32.06-.03.12-.07.18-.1-.01-.32-.58-.25-.58-.22.02.15.41-.01.48.13.01 0-.27.16-.26.22.02.14.28.02.3.11-.08.15-1.18-.47-.74.24a.58.58 0 0 0-.38.19c-.03.03.46-.07.55-.09-.08.04-.23.19-.31.19.16 0 .54-.28.62-.25-.04.06-.09.11-.15.15.05 0 .13.12.22-.08.03.03.17.21.22.1.04-.09-.15-.18-.08-.27m-.59-.32c.07-.02.03.07 0 0m.02.1c.04-.03.07.1 0 0m-.08.12l.14.15c-.11.04-.14-.04-.14-.15zm.09-.02l.21.15c-.11.05-.18-.03-.21-.15zm.12-.11l.11.18c-.08.02-.11-.07-.11-.18zm6.45 2.96c-.15-2.61-1.47-5.02-4.38-4.87-2.61.13-4.05 2.57-3.91 5.02l.04.14c.27-1.43.21-2.79 1.31-3.95 1.25-1.33 3.64-1.51 5.11-.42 1.5 1.11 2.03 3.57 1.61 5.31-.22.92-.73 1.8-1.4 2.47-.11.11-1.16 1.01-1.13 1.03.18.12 1.48-1.27 1.57-1.38.76-.95 1.25-2.13 1.18-3.35m-.86-6.1c.18.09.35.21.49.36l-.19 1.06c.5-.13 1-.47 1.23.13-.29.01-1.08.19-1.03.64l-.13.1-.28-.29c.24-.16.53-.3.82-.53l-.91.33-.11-.02c.08-.38.16-.76.24-1.15-.09.1-.62.55-.49.68l.07.08-.12.12-.42-.28c.2-.21.98-.54.89-.99-.06-.03-.12-.07-.18-.1.04-.04.08-.09.12-.14zm-.3.39l.03.25c-.35.18-.19-.2-.31-.2.1-.01.19-.03.28-.05m-.34-.76c.17.08.33.17.48.29-.26.15-.89.73-.69 1.11l-.07.15-.47-.24c.03-.06.05-.12.08-.18.41.16.66-.89.67-1.13zm-1.51-.5s.23.05.34.08l.29.09c-.15.16-.72.99-.3 1.23.39.23.88-.71.56-.97.11-.27.33-.08.55.06-.35.21-.48 1.26-1.05 1.17-.5-.07-.4-.56-.35-.9.02-.15.12-.33.11-.47-.02-.13-.18-.04-.15-.29zm-.67-.06c-.97 0-.56 2.06.32 1.36.09.2.28.34.5.32-.78-.23.33-1.65-.82-1.68m.1.24c-.43 0-.57.81-.2.96.56.23.53-.96.2-.96m-.94.45l-.21.26.21.19c.17-.13.18-.3 0-.45zm-.86-.53c-.32.07-.62.19-.62.19l.14.56c.1-.15.04-.45.35-.5l.23.98-.22.05.05.22.58-.13-.04-.24-.15.02-.24-.97c.25-.1.42.06.46.31l.14-.03c-.02-.19-.03-.37-.05-.56-.21.03-.42.06-.63.1m-1.28.4l.08.22.15-.02.34.86-.11.05.05.18.46-.15-.05-.22-.14.04-.31-.84.1-.07c-.02-.08-.04-.16-.07-.24-.15.06-.33.13-.5.19zm-.46.43c-.35.21-.01.94.37.78.42-.16-.04-.98-.37-.78m-.21-.14c-.5.5.18 1.61.8 1.19.64-.44-.27-1.72-.8-1.19m3.96 5.5c.18-.11.46-.05.63.03-.2.06-.43.06-.63-.03m.01-.13c.11-.9-.8-.45-.32.05.08-.24.26-.62.32-.05m.81.06c.51-.42-.62-.98-.33-.08.12-.29.35-.31.33.08m-.58-1.23c.25.34.17.86.01 1.21-.14-.43-.18-.79-.01-1.21m.01-.17c.19.15.14.4.26.55.08.09.22 0 .3.11.18.25.37.66.07.91 0-.05-.03-.08-.07-.09-.07.03-.07.16-.08.17-.01 0-.12-.06-.12-.05.03.08.05.16.08.24l-.18.01-.09-.22v.21c-.09-.07-.15-.01-.23-.03l-.01-.19-.11.19h-.17c.17-.43-.22-.21-.39-.48-.22-.36.12-.53.27-.74.09-.09.32-.47.47-.59m-.2-.48c.19-.1.45-.05.63.04-.21.06-.43.06-.63-.04m.01-.12c.05-.91-.77-.43-.32.05.07-.27.26-.61.32-.05m.8.05c.52-.43-.63-.97-.32-.09.12-.28.35-.29.32.09m-.57-1.22c.25.34.16.85.01 1.2-.14-.43-.19-.78-.01-1.2m.01-.17c.2.15.13.39.26.55.08.09.22 0 .3.11.18.25.38.67.07.91-.22-.08 0-.01-.15.07-.01.01-.12-.06-.12-.05.02.08.05.16.08.24l-.18.01-.09-.22v.21c-.09-.07-.15-.01-.23-.04l-.01-.18-.11.19h-.17c.17-.42-.22-.21-.39-.48-.22-.35.12-.53.27-.73.09-.1.32-.47.47-.59m1.1 2.64c.18-.11.46-.05.63.04-.2.06-.43.06-.63-.04m.01-.13c.1-.89-.79-.46-.32.05.04-.09-.1-.46.16-.36.12.06.15.19.16.31m.81.06c.5-.42-.61-.98-.33-.09.12-.28.35-.3.33.09m-.57-1.22c.25.34.17.85.01 1.2-.15-.43-.19-.78-.01-1.2m0-.17c.19.15.13.39.26.55.08.09.22 0 .3.11.18.25.38.67.07.91-.22-.07-.01.02-.15.08-.01 0-.12-.06-.12-.05.02.08.05.16.08.24l-.18.01-.09-.22v.21c-.09-.07-.15-.01-.23-.03l-.02-.19-.11.2h-.17c.18-.43-.22-.21-.39-.48-.22-.35.12-.53.27-.74.11-.11.33-.48.48-.6m3.18-.2c.04.05.18.5.18.5l-.15.04-.06-.09-.89.32.09.23.32.08.03.14-.45.17-.35-.88.22-.08.09.1.85-.3c-.08-.15-.04-.22.12-.23zm-.05 2.15l.15.2-.2.18c-.06-.06-.12-.13-.18-.19.07-.06.15-.15.23-.19zm-.11-.97l.13.15-.18.15-.16-.16c.07-.05.14-.1.21-.14zm-1.01-1.72l.09.18c.1-.06.19-.15.28-.22-.12.01-.25.01-.37.04zm-.69-.03l.23.34.12-.06-.08-.18.2-.03.18.27-.07.21-.13-.17-.16.05.26.53.22-.1c.03-.41 1.03-.74.7-1.17l-1.27.23-.04-.08c-.13.04-.2.08-.16.16zm2.71-1.26l.22-.13c-.13-.03-.21 0-.22.13zm-.4.1l1.09.26c-.32-.02-.93.08-1.09-.26zm.22.3l.69.18c-.29.01-.59.13-.69-.18zm.1.36l.06.1c.13.01.27 0 .4 0-.16-.03-.31-.07-.46-.1zM81.18 8.15l.1-.14.32.42c-.01 0-.65.06-.54.21.18.26.75-.1.97.26.2.35-.06.65-.44.6l.18.14-.2.16-.4-.48c.08-.1 1.25-.18.34-.36-.25-.05-.5.2-.68-.08-.22-.34.17-.62.46-.65a.522.522 0 0 1-.11-.08zm-1.04 1.11l.2.08-.1.18.82.55.08-.16.18.1-.22.44-.28-.14.08-.16-.76-.52-.04.15c-.07-.03-.15-.07-.22-.1.09-.14.18-.28.26-.42zm.38.06l.2.4.32-.08c0-.36-.21-.46-.52-.32zm.28 1.89l-.16.44-.2-.06.02-.16-.97-.3-.02.14-.22-.04.2-.38.93-.28-.54-.3-.1.22-.18-.08.26-.55.22.04-.06.26 1.02.47-1.12.44.62.16c.02-.05.04-.11.05-.16.08.04.19.08.25.14zm-.87.26c.79.34.59 1.23-.3 1.02-.96-.24-.43-1.34.3-1.02m-.1.2c.46.02.43.61-.02.64-.61.04-.58-.67.02-.64m-.92 2.36l-.04-.62.16-.02.02.14h.32l.06-.62-.26-.04-.02.14h-.2l.02-.58h.18v.2l.99.08.02-.2h.16l-.06.56-.2-.02v-.14h-.32l-.12.62.36.06.02-.18h.2l.02.62-.2.02-.04-.22-.82.02c.04.18-.07.22-.25.18zM89.19 7.1c.1.38.62.69.89.98.35.38.66.78.92 1.22.7 1.16 1.04 2.49 1.1 3.84.11 2.59-.46 5.7-2.79 7.22-.02.03-.04.07-.07.1 2.36-1.45 3.1-4.36 3.06-6.97-.03-2.59-1.19-4.73-3.11-6.39m2.83 1.28c-.13.13-.77.45-.77.45-.02-.32.51-.36.77-.45zm.43-.51c-.17.18-1.06.64-1.06.64.03-.4.75-.51 1.06-.64zm-.6-1.26c-.02.4-.08.79-.14 1.19.35-.16.23-1.09.14-1.19zm-.24.31c0 .16-.12 1.1-.18 1.15.29-.22.17-.83.18-1.15zm-.79-1.11c0 .92.25 1.78.1 2.69.04.08.11.16.17.24.19-1.03-.14-1.92-.27-2.93m-.2.92c0 .51.16.95.08 1.48l.15.15c.06-.6-.05-1.06-.23-1.63m-.2.39c.04.26.02.53 0 .79.04.03.09.06.13.08.01-.29-.06-.59-.13-.87m-1.9-.68c-1.01-.67-2.47-.88-3.65-.83-.87.03-1.73.27-2.54.6-.19.08-1.5.59-.83.81.28.1 1.34-.57 1.63-.67.86-.28 1.72-.4 2.62-.32.7.06 1.39.21 2.04.49.12.05.37.24.5.24.13.02.59-.08.23-.32m-.45-.53c.02-.28.5-.65.74-.42.18.17-.08.7-.32.72.44-.46-.03-.68-.42-.3m.59-1.48c-.83-.39-.78 1.31-.97 1.39.13-.05 1.23-1.25.97-1.39m-2.37 1.06c.16-.92 1.68-.73.95.22.28-.71-.63-.69-.95-.22m.43-.89c.79-1.63 4.43-.25 2.26 1.1.33-.47.54-1.11-.07-1.44-.62-.32-1.6.1-2.19.34m3.19.32c-.4.31.25.27.2.2 0 0 .01-.37-.2-.2m.07-.64c-.06.28.38.41.36 0-.01-.22-.32-.21-.36 0m-.36-.7c-.29.15.05.52.28.39.29-.16-.01-.52-.28-.39m-.66-.27c-.24.28.22.31.37.23.13-.08-.14-.51-.37-.23m-.73-.04c-.03.24.34.31.42.09.1-.27-.37-.4-.42-.09m-.6.1c.07.25.53.17.4-.03-.1-.14-.5-.3-.4.03m-.2.42c-.02-.94-.5-.62-.89-.03-.27.4-.67 1.08-.54 1.57.09-.3 1.25-2.36 1.43-1.54m-1.9 1.67c.27-1.02-1.28-.76-.81.02-.1-.58.76-.55.81-.02m-2.91-1.81c.16-.64.56-.54.98-.14.49.47.61 1.2.74 1.84-.14-.39-1.29-2.58-1.72-1.7m1.8.04c.12.11.56 0 .81-.01-.17-.11-.55-.02-.81.01m.11-.19l-.06.1.72-.05c-.13-.16-.43-.06-.66-.05zm.13-.12l.41-.06.04.07c-.19.01-.42.04-.45-.01zm-.65-1.23c.21.26.48.49.49.78l-.49.35c-.03-.38-.04-.82 0-1.13zm2.04.12c-.24.19-.64.35-.61.68.2.12.41.23.61.35V2.27zm-1.92-.51c.57-.01 1.13-.01 1.69.04-.33.49-.34.76-.9.68-.35-.05-.06.13-.39-.16-.16-.14-.28-.38-.4-.56zm.75 1.01c.05.06.05.12.02.18.04-.01.22.01.2-.08-.05-.08-.13-.11-.22-.1m-.17.05c-.03.31.6.27.58.04-.02-.24-.56-.3-.58-.04m-4.52 2.17c.21.49-.35.11-.3.09-.02.02.17-.37.3-.09m-.13-.51c0 .4-.39.04-.39.04-.02 0 .39-.39.39-.04m.04-.83c.27-.05.39.47.08.45-.24 0-.35-.39-.08-.45m.73-.31c.15.2-.23.48-.4.18-.12-.2.29-.33.4-.18m.68-.1c.02.25-.34.3-.43.08-.11-.3.4-.33.43-.08m.66.08c-.17.4-.27-.03-.33-.03-.13-.01.49-.33.33.03m-.99 2.66c-.62-.59-.76-1.3.16-1.67.83-.33 1.62.06 2.36.45-.6-.78-1.7-1.19-2.63-.79-.96.42-.87 1.65.11 2.01m.33-1.56c.72.12.98.73 1.11 1.38-.56-.18-1.04-.8-1.11-1.38m1.37 1.21c-.23-.63.76-.25.99-.09-.14-.26-.41-.64-.75-.62-.72.05-.26.86-.22.83.01-.04 0-.08-.02-.12m-1.25.67c-.28-.36.15-.78.43-.34-.22-.92-1.14-.22-.43.34m-3.22 3.79l.3-.13c-.07.1-.17.14-.3.13zm-.18-.23l.56-.15c-.09.19-.31.13-.56.15zm-.17-.19c.3-.07.57-.21.88-.26-.14.28-.61.26-.88.26m.2-.8c.24.06.47.14.71.2-.01.05-.02.1-.04.15-.22-.12-.46-.18-.67-.35m-.47-.52c.4.3.85.35 1.31.5-.02.06-.04.12-.05.18-.41-.23-1-.22-1.26-.68m.6-.8c.18.38.34.89.69 1.15-.47-.1-.54-.75-.69-1.15zm.28.13l.43.71c-.28 0-.33-.46-.43-.71zm.73-1.69c.16.76-.39 1.8.04 2.46l-.15.18c-.31-.89.11-1.74.11-2.64m.24.76c0 .5-.15.84-.02 1.36-.04.07-.07.14-.11.21-.18-.54-.03-1.05.13-1.57m.21.37c0 .3-.11.54.02.84-.04.02-.09.05-.13.07-.1-.3-.01-.62.11-.91m1.04.15c-1.97 1.93-3.16 4.78-2.74 7.56.14.03.03-.68.04-.91.02-.84.17-1.68.39-2.48.26-.96.65-1.82 1.21-2.65.17-.25 1.27-1.32 1.23-1.55-.04-.06-.08-.05-.13.03m-1.2 11.03c.6-.21 1.19-.43 1.77-.69.04.03.07.06.11.09-.4.17-1.48.82-1.88.6zm-.16-.24c.6-.21 1.19-.43 1.77-.69.04.03.07.06.11.09-.41.17-1.49.81-1.88.6zm-.26-.24c.6-.21 1.19-.43 1.77-.69.06.06.12.11.18.17-.35.11-1.74.78-1.95.52zm-.22-.26c.6-.21 1.19-.43 1.77-.69.03.06.06.11.09.17-.37.13-1.62.8-1.86.52zm-.23-.23c.65-.22 1.31-.44 1.93-.73.06.33-1.73 1-1.93.73zm.04-.17l-.03-.02.61-.26c-.1.2-.37.22-.58.28zm-.06-.37l-.04-.02.45-.17c-.07.14-.22.2-.41.19zm.02-.26l-.04-.02.45-.17c-.07.14-.22.2-.41.19zm1.47-.24l-.05-.04.45-.17c-.05.16-.2.22-.4.21zm.04.3l-.06-.04.45-.17c-.04.16-.19.22-.39.21zm-.09-.62l-.06-.04.45-.17c-.05.17-.2.23-.39.21zm-1.35.24l-.07-.05.45-.17c-.01.19-.16.24-.38.22zm1.33-.54l-.07-.06.45-.17c-.02.2-.17.25-.38.23zm-.75.62c-.13.21.65.28.62-.24.46.51-.81.89-.62.24m1.49-1.12c-.01.36-.03.74.08 1.08.13.43.82.91.82 1.34-.07.1-.63-.5-.75-.68-.38-.54-.39-1.14-.15-1.74m-2.53.99c0 .38.02.8.17 1.15.19.44.69.71.87 1.14-.01-.03-.39-.21-.45-.25-.26-.2-.4-.35-.53-.66-.15-.42-.22-.96-.06-1.38m.76 2.33c.47.46 1.24.05 1.74-.18.65-.29 1.4-.51.99-1.3-.18-.34-.37-.54-.49-.91-.09-.29-.06-.82-.29-1.04-.24-.23-1.81.43-1.26-.16.47-.5 1.26-.16 1.45.35.13.33.13.68.28 1.01.15.32.5.62.57.98.27 1.3-3.04 2.12-2.99 1.25m-.11-3.28c.64.23-.98.58-.84.95 0-.61.26-.72.84-.95m.34-.17c.04.22.11 1.32.36 1.28.3-.06-.28-1.1-.36-1.28m-1.61-.47c.09.69.09 1.36.3 2.03-.29.06-.36-.07-.52-.24-.09-.1-.12-.3-.21-.41-.11-.13-.31-.19-.41-.32-.22-.3-.2-.01-.08-.36.11-.31.64-.56.92-.7m-2.31 3.45c-.1.3-.24.59-.3.9.16-.27.32-.55.5-.81-.05.26-.12.51-.19.76.1-.29.26-.53.43-.78.01.26-.06.5-.13.75.15-.24.24-.51.43-.72 0 .22-.05.44-.11.65.13-.23.27-.45.37-.69 0 .21-.03.43-.09.63.16-.2.27-.46.39-.69.05.24-.02.48-.11.71.18-.22.31-.47.45-.73.04.24-.03.48-.13.69.19-.22.29-.49.41-.75.03.27-.06.51-.18.75.3-.24.4-.58.5-.93.03.3.04.59-.05.88.22-.3.33-.59.41-.95 0 .34-.02.69-.15 1.01.25-.27.28-.6.37-.93.06.4-.03.73-.13 1.12.1-.1.21-.24.25-.37l.09-.43c.02.33-.01.66-.06.99a.97.97 0 0 0 .22-.67c.03.28.05.56.02.84.12-.17.19-.36.26-.56.01.24 0 .47-.02.71l.15.09.13-.41v.52l.13.11.11-.39-.02.52.17.13.06-.35.09.5.09.11c.03-.11.07-.22.11-.33-.03.33-.01.59.09.91-1.27-1.3-2.41-2.14-4.31-1.6-1.71.48-3.41 1.02-5.12 1.53-1.63.49-3.31 1-5.02 1.07-1.57.06-3.17-.01-4.74-.08-1.83-.08-3.93-.01-5.67-.61 1.2-.21 2.37-.5 3.55-.81-1.3-.57-2.63-1.06-3.79-1.88.39.05.77.1 1.15.22l-.12.03c.18.11.4.17.61.14-.09.06-.17.14-.26.21.26.07.55.04.79-.08 0 .04-.04.25.03.25.29.02.25-.38.67-.19-.04.06-.08.13-.12.19.32-.26.51-.08.34.28l.18-.24c-.01.11-.01.23-.01.35 0-.24.18-.5.34-.66.18.07-.58.8-.24 1.05-.06-.05.72-.6.74-.62.07.68.61.76 1.2.5l.13.21c-.32.1-.63.2-.95.29.05.14.14.63.27.68.13.05.86-.37 1.04-.42-.08-.17-.15-.33-.23-.5.48.25.96-.33.97-.79 2.28.11 4.3.08 6.5-.52 2.16-.59 4.28-1.43 6.47-1.88l.2.26-1.69.5-.22.88c.29-.06.71-1.14.89-.65.12.32-.17 1.31-.57 1.36-.05.09-.06.22-.09.32.51-.21 1.02-.36 1.55-.52.01-.09.03-.17.04-.26-1.05.63.19-2.02.17-1.02h.17c-.31.46.33.29.59.22m-3-3.87c.25.2.31.66.52.82.08.06.33.03.41.05.59.13 1.21.16 1.81.26.49.08.97.2 1.41.44.28.15.54.36.72.61.14.21.21.92.31 1.01-.07-.06-.12-.21-.16-.3-.08.09-.17.24-.3.26.03-.01.31-.51.21-.49-.01 0-.27.14-.27.15.14-.16.2-.3.1-.51-.01.01-.23.28-.23.21 0-.09.08-.2.12-.29-.32-.11-.64-.17-.95-.3.5.27 1.23 1.7.13 1.6.25-.1.36-.33.41-.58-.08.17-.26.28-.45.32.11-.1.24-.24.28-.37.02-.06.04-.11.05-.17-.13.11-.3.26-.47.32.03-.01.24-.35.3-.41-.11.07-.29.15-.41.17-.05.01.19-.27.22-.3-.08.02-.16.04-.24.05-.03-.04-.02-.08.02-.11-.24-.06-.47-.11-.71-.17.26.32 1.16 1.85-.04 1.45.15-.01.44-.09.48-.26l.06-.2c.09-.06-.22.19-.28.2-.08.03-.17.05-.26.08.21-.08.37-.24.45-.45-.18.14-.41.21-.63.21.06-.02.48-.29.46-.29-.18-.02-.35.06-.54.03.12.01.44-.21.41-.21-.09-.01-.35.02-.45.03.02-.01.43-.12.28-.21-.09-.05-.4.03-.49.05.1-.16.26-.25.45-.26-.17 0-.34 0-.5.02-.15.03-.3.04-.45.06.14-.07.58-.21.63-.35.03-.08-1.42.36-1.53.41.38-.32.87-.47 1.31-.69-.77.24-1.41.51-2.11.92.63-.52 1.17-.88 1.92-1.19-.98.32-1.71.72-2.55 1.31.39-.36.78-.72 1.18-1.08-.59.34-1.13.7-1.68 1.1.38-.38.8-.7 1.18-1.06-.72.41-1.33.91-2.01 1.38.25-.26.5-.52.74-.78.09-.08.17-.17.26-.26-.57.33-1.11.69-1.65 1.06.37-.42.75-.9 1.23-1.21-.47.23-.92.45-1.34.76.34-.48.74-.83 1.18-1.23-.32.17-.63.33-.95.5-.17.09-.34.19-.5.28.64-.54 1.22-.96 1.51-1.77.01.44-.03 1.04.24 1.42.48-.18.95-1.57 1.16-2.04m-.76-1.53c.15.59.22 1.16.26 1.77.06-.09.13-.18.19-.26-.27.59-.5 1.18-.8 1.75-.05-.55-.04-1.05.09-1.59.12-.55.1-1.14.26-1.67m-.88.01c.02.56.08 1.23-.1 1.77-.24.72-1.06 1.09-1.74 1.29.85-.95 1.39-1.87 1.84-3.06m1.7.25c.46.53.69 1.05.8 1.75-.29-.42-.89-1.21-.8-1.75zm1.05-.52c0 .4.27.75.41 1.1.13.33.15.69.32 1.01.06-.35.2-.77.07-1.1-.14-.35-.57-.72-.8-1.01m-.93-.37c-.14.63.67 1.29.98 1.81-.19-.7-.35-1.38-.98-1.81m2.16.82c.25.52.38 1.02.45 1.58.18-.74.23-1.21-.45-1.58m1.39.61c.12.42-.22.85-.19 1.22-.03-.37-.26-1.21.19-1.22m-.52-1.73c.33.88.43 1 1.31 1.32-.3-.47-.9-.91-1.31-1.32M74 10.52c1.1.24 1 1.28 1.69 2.01-.92-.48-.95-1.4-1.69-2.01m-1.42-.51c1.31.39 1.16 1.6 1.92 2.5-.56-.26-.74-.66-.99-1.19-.24-.54-.52-.88-.93-1.31m-1.64.04c1.32.2.06 1.87 1.28 2.27-.54-.02-1.12-.19-1.1-.85.01-.39.35-.53.11-.91-.13-.23-.56-.21-.29-.51zm.04-.67c.75-.04.97.33 1.37.89.34.47.83.75 1.03 1.33-.41-.48-1.02-.67-1.43-1.17-.25-.31-.48-.41-.76-.65-.16-.16-.33-.09-.21-.4zm-4.48.52c.34.04 1.09.2.81.57-.38.5-1.02-.05-.81-.57m1.3-1.45c-.26 0-.48-.08-.48.26.08-.01.79.07.77.09-.15.13-.71 0-.91.06-.26.08-.52.29-.75.43-.06-.37.23-.75.4-1.06-.07.11-.72.33-.87.4.07-.36.38-1.1.64-1.38.32-.34 1.14-.55.64-1.22.21.31.56.22.45.79.32-.41.4-1.03.32-1.53a.7.7 0 0 1 .1-.08c.37.43.25.92.08 1.4.55-.43.51-1.1.51-1.74.38.49.34.92.05 1.44.56-.29.72-.85.86-1.43.42.76-.15 1.23-.61 1.77.28.08.63-.38.93-.5.54-.23.82-.24 1.13-.79-.1.86-.91 1.12-1.48 1.62.24.16.62-.25.88-.35.44-.16 1.2-.01 1.33-.6.17.59-.27.63-.71.75-.47.12-.72.25-1.08.58.24.14.58-.32.91-.4.6-.14 1.15.06 1.63.4-.61-.12-1.21-.05-1.74.3.45.17 1-.2 1.54.01.67.26.69.99 1.36 1.24-1.06.12-1.57-1.29-2.78-.76.08.4.8.27 1.13.45.56.31.78 1 1.32 1.29-.22-.13-.53-.18-.77-.32-.37-.21-.71-.57-1.15-.64-.55-.08-.4.16-.76-.25-.27-.31-.46-.72-.7-1.05-.47.25.25.8.38 1.16.26.73.16 1.48-.49 1.95l.43.15-.05.08-.46-.17c-.07.05-.13.14-.19.2.19.05.38.1.57.14-.31.23-.63-.19-.96.11.07.05.15.09.22.13l.24.11c-.26.17-.41-.12-.67-.2-.31-.11-.69.1-.63-.33.05-.33.71-.2.75-.54.02-.17-.29-.24-.29-.39 0-.08.33-.32.4-.4.02.11.05.24.05.35-.02.13 0 .28 0 .42.46-.41 1.03-1.34.31-1.86-.58-.42-.18.39-.19.43-.06.25-.16.39-.35.61-.33.37-1.29 1.17-1.52.35-.18-.69 1.66-1.38.26-1.48m1.02.88c.16-.01.09.26-.03.23-.13-.1-.12-.17.03-.23m-.03-.38c-.29.12.13.28.12.24-.01-.02.15-.37-.12-.24m-.31.01c.26.06-.12.34-.1.29 0 .01-.2-.38.1-.29m.49-.11c-.14.02-.16-.27-.06-.31.1-.04.22.29.06.31m-.37 0c.1-.02.13-.27-.01-.24-.12.02-.11.26.01.24m.3-.68c.35-.15.12.44-.11.23-.1-.09.08-.19.11-.23m-1.05-.52c.02.28.15.2.4.28.27.09.35.13.51.05.16-.08.43-.66.62-.83-.19-.37-1.19.38-1.53.5m.13-.56l.15.15c-.31.1-.53.29-.36.63.14.27.54.23.86.4-.08.27-.81.05-1.12.05.02-.21-.17-.78-.08-.95.07-.17.34-.16.55-.28m5.98 2.25c.56-.05 1.2.79 1.44 1.2-.5-.45-1.1-.58-1.44-1.2m-.98-1.75c.81.37 1.31 1.06 2.25 1.13-1 .92-1.6-.63-2.25-1.13m-2.69-2.6c.22-.2.64-.54.97-.43.42.14.51.75.32 1.09.01-.49-.18-1.1-.79-.79.34.28-.19.81-.56.73.3-.07.42-.53.47-.54-.16.06-.32.2-.43.32.14-.22.32-.4.48-.59-.16.06-.31.13-.46.21zm-.09-1.06c-.34.22.05.3-.01.53-.03.12-.26.26-.33.43-.06-.09-.19-.16-.28-.23-.05.07-.1.15-.15.22.11-.21-.11-.53.23-.83.18-.13.35-.25.54-.12m2.09 2.36c.41-.22.78-.29 1.24-.34-.43-.24-1.05-.18-1.24.34m-1.93-2.02c.15-.08.29-.16.44-.24-.22-.25-.49-.06-.44.24M69 4.35c-.04.03-.17.32-.01.35-.31-.07-.3-.3.01-.35zm.1-.62c-.09.05-.12.12-.08.21.11.03.19-.01.24-.11a.366.366 0 0 0-.16-.1m1.62-.45c-.02.3-.58.28-.48.06.09-.21.33-.2.48-.06zm-.96.22c.41-.12-.13-.38-.11-.3 0 .01-.17.38.11.3m-1.63.87l.54-.04c-.01.1-.08.22-.12.32-.14-.09-.28-.18-.42-.28zm-.4.2l-.32.44c-.33-.27.03-.36.32-.44m-1.08.72c-.43-.09-.19-.59.18-.38-.23.03-.28.17-.18.38m-1.08.56c.09.34.49-.11 0 0m.19-.64c.61-.17-.17.73 0 0m1.39.4c-.18.29-.44.87-.84.36-.44-.56.52-.48.84-.36m3.07 7.43c-.48 1.09-.72 2.05-1.93 2.53.53-.91 1.29-1.69 1.93-2.53m-3.55 1.79c.56-.06 1.19-.51 1.71-.74.57-.25.84-.58 1.2-1.07-.28.97-1.79 2.57-2.91 1.81m.1-1.01c.37-.27.96-.24 1.38-.4.44-.16.68-.46 1.08-.68-.5 1-1.4 1.21-2.46 1.08m-8.23 4.85c-.1.13-.21.26-.31.4-.05-.18.17-.39.31-.4zm-.35-.22c-.07.22-.23.35-.45.29.15-.1.3-.2.45-.29zm1.96.81c-.18.1-.36.2-.52.31 0-.16.28-.24.52-.31m.23-.28c-.2.22-.56.3-.85.42.2-.25.57-.3.85-.42m.42-.45c-.26.38-.58 1.59-1.26 1.22-.93-.52 1.02-1.04 1.26-1.22m-1.61.14c.22.04.59-.23.79-.33-.23-.09-.59.19-.79.33zm.25-.34c.07-.02.13-.04.2-.05-.19.11-.38.21-.58.3.05-.1.22-.19.38-.25m-.49.02c.15.08.36-.1.55-.21-.19.06-.37.13-.55.21m-.06-.19c.14.06.26-.09.51-.16-.17.06-.34.11-.51.16zm1.72.26c-.5-.14-1.35-1.03-1.74-.43.08-.06.17-.11.26-.15-.48.11-.32.77.03.93.31.14 1.13-.26 1.45-.35zm11.04-.25l-.86.28-.05.19c.56-.24.2 1.49-.32 1.55-.03.08-.05.17-.08.25.68-.19 1.34-.41 2-.63l.06-.69c-.21.05-.63.96-.97.69-.17-.13.12-.89.46-.41l.19-.82c-.22.26-.76.58-.41-.04.34-.61.52.05.82.02l.12-.74c-.31.12-.63.23-.96.35zm-1.39 1l.18.32-.35.55c-.32-.38-.09-.53.17-.87zm-2.63.22c.38-.11.77-.21 1.16-.3-.12.32-.7 1.35-.34 1.66.43.37 1.3-1.72.54-1.51l.07-.22.94-.33c.01.25-.38.53-.49.81-.18.47-.15 1.04-.59 1.37-.55.41-1.18.22-1.18-.46 0-.25.46-1.07-.15-.82.02-.07.03-.13.04-.2zm-2.08.33c.63-.07 1.25-.16 1.88-.3-.06.2-.11.48-.23.65.05-.07-.61-.49-.82.02-.26.64.39-.04.53-.06-.01 0-.15.59-.18.66.06-.11-.36-.22-.45-.18-.06.02-.24.45-.21.5.22.36.85-.39 1.12-.42-.24.63-.23.71-.93.77-.46.05-.93.05-1.39.06.06-.12 1.54-1.55.6-1.52a.75.75 0 0 0 .08-.18zm-1.39.03l1.16-.02c-.11.2-1.21 1.48-.55 1.54l-.09.16-1.19-.02c.09-.26.41-.33.56-.64.12-.24.46-.84.02-.86.03-.05.06-.11.09-.16zm-1.71.2c-.18.35-.73.98-.33 1.13.86.34 1.3-1.52.33-1.13zm-.85-.31l-.11.19c.55-.01-.16 1.34-.75 1.25-.04.06-.08.13-.13.19.77.04 1.85.31 2.53-.16.45-.31.69-.94.15-1.28-.4-.26-1.22-.16-1.69-.19m-.71-.92c-.03.42-.92 1.23-.16 1.31.34.04.69-.49.63-.78-.06-.23-.29-.38-.47-.53m.18-.14c.13.07.71.6.81.45.15-.21-.68-.47-.81-.45zm7.73-2.23c-.05.4-.12.79-.13 1.19-.18-.36-.17-.88.13-1.19m-.59-.42c.03.02.01 1.68.03 1.88-.27-.7-.36-1.21-.03-1.88m-.61-.14c-.03.66-.07 1.32-.1 1.98-.11-.72-.19-1.3.1-1.98m-.51-.31c-.13.51-.16 1.02-.2 1.55-.05-.54-.17-1.1.2-1.55m-5.52 2.66c.03.01.5.21.45.24-.13.08-.47-.1-.6-.15.05-.02.1-.06.15-.09zm.19-.14c.04 0 .55.03.52.11-.05.12-.53-.01-.64-.03.04-.03.08-.05.12-.08zm.25-.23c-.04.04-.09.08-.13.12.08.02.39.05.45-.02.06-.09-.3-.09-.32-.1m-1.01.65c.35-.23 1.24-1.32 1.49-.6.34 1.02-1.08.57-1.49.6m.8-1.45c-.11 0-.06.55.01.53.1-.05.01-.44-.01-.53m-.22-.1c.12 0 .05.76.05.76-.04.03-.08.06-.12.1.01-.29-.1-.64.07-.86zm-.32.1c-.19.19 0 .68.03.93.14-.23.17-.76-.03-.93m-.3.19c-.16.09.07.77.08.94.17-.22.08-.71-.08-.94m1.1-.11s.08.1.04.2c-.02.05-.04.09-.06.14-.05-.13-.01-.22.02-.34m.52-.8c.64-.46 1.28-.99 2.05-1.22-.68.49-1.35.98-2.03 1.45 0-.08-.01-.15-.02-.23zm5.26 2.2c-.56-.17-1-.67-1.3-1.15-.49-.77-.62-2.1-1.3-2.72-.78-.71-2.22.96-2.79 1.49.02.2.05.39.07.59.78-.53 1.59-1.16 2.52-1.37-.82.53-1.6 1.09-2.37 1.68.84-.52 1.68-1.15 2.67-1.31-.85.5-1.65 1.18-2.54 1.59 1.01-.29 1.72-1.07 2.8-1.21-.84.44-1.56 1.06-2.41 1.51.83-.31 1.71-1.17 2.64-1.05-.73.36-1.4.77-2.1 1.17.7-.34 1.48-.84 2.28-.82-.53.21-1.21.52-1.62.91.69-.17 1.18-.56 1.92-.48-.5.22-1 .48-1.5.68.54-.23 1.07-.37 1.66-.42-.46.16-.86.38-1.26.65.54-.2 1.02-.35 1.6-.36-.4.12-.78.26-1.14.47.44-.12.87-.22 1.33-.26-.36.14-.7.3-1.03.51.46-.15.93-.18 1.41-.22-.26.08-.68.41-.91.42.46-.06.92-.19 1.37-.3m-4.3-3.68c.09-.01.17-.04.25-.09-.39.2-1.33 1.49-1.81 1.44-.64-.07-.35-1.08-.07-1.35.58-.53 1.03.02 1.63 0m-3.04 2.66c-.16-.04-.1.63-.11.72.19.03.19-.56.11-.72zm-.27-.35c-.04.18-.16.98.04 1.03-.11-.03.17-.93-.04-1.03m-.15-.02c-.22-.05-.16.69-.15.88.13.07.12-.66.15-.88m-.4-.05c-.11.11-.02.57-.01.71.03.03.06.07.09.1.01-.25.11-.64-.08-.81m-.22.41c.08.05.1.13.08.22-.15-.04-.04-.11-.08-.22m.69-1.16c-.3.24.4.34.58.21.14-.09-.56-.2-.58-.21m-2.19.16c-.19.09-.98.73-.86 1.02.08.19 1.12-.11 1.32-.16.29-.08.78-.27 1.01-.49.14-.14.28-.21.24-.48-.01-.04-.37-.54-.4-.55-.04-.02.02.19.02.21-.07-.12-.13-.1-.22-.19 0 .22-.04.18.12.3-.15-.02-.55.29-.56.29v-.09c-.07-.06-.41.3-.67.14m1.65-1.48c.06-.14 1-.58 1.15-.59.72-.07.26.7.06 1.05-.31.55-.43.69-1.04.47.03.01-.65-.36-.48-.41.24-.04.43-.19.32-.42.29-.14.88-.24 1.08-.51-.16.19-.87.39-1.09.41m.21.7c-.07.01-.14.03-.2.05.03.01.57.09.59.05.01-.04-.36-.09-.39-.1m.52-.22c0-.02-.91.13-.93.09-.04-.13.89-.1.93-.09m.16-.32c-.07.14-.59.12-.77.19.13-.23.52-.21.77-.19m.14-.33c-.04.17-.74.29-.88.35.17-.2.59-.31.88-.35m-1.14.33c.05.21-.22.21-.22.15.03-.2.12-.1.22-.15m-.21-.27s-.27.11-.1.16c.22.06.08-.13.1-.16m.22-.3c.25.29-.59.16 0 0m.93-.87c-.02-.02-.43.67-.46.7 0-.01.2-.56.46-.7m-.52-.36c-.05.15-.32 1.15-.37 1.16-.23.06-.3-.04-.48.24.23-.41-.09-.56-.04-1.04.04-.36-.05-.3.39-.47.43-.17.51-.18.88.07.49.33.56 1.04-.21 1.18-.86.16-.03-.83-.17-1.14zm-.58-.02c-.16.02-.02.99-.05 1.07.1-.32.15-.75.05-1.07m-.49 3.13c-.01.1.1.12.1.12.04-.1.01-.15-.1-.12zm.35-.27c-.1.13.05.23.15.23-.05-.08-.1-.15-.15-.23m-.7.33c.13.04.01.32-.03.37-.02-.13 0-.25.03-.37m-.35-.33c-.32.35.62.16 0 0m.58-.38c.1.19-.28.31-.28.26 0-.17.14-.22.28-.26m.39-.32c-.08.03-.13.08-.17.15-.03.07.27.01.24-.04-.01-.05-.04-.08-.07-.11m-.39-.12c-.05.06-.09.14-.1.22-.01.05.38-.05.31-.21-.05 0-.09.01-.13.04.01-.07.04-.07-.08-.05m-.04-.41c-.22.39.33.07.23 0-.03-.03-.19-.01-.23 0m-.51.69c-.05.47.46.01 0 0m-.24.21c.19.03.05.35-.17.25-.07-.03.14-.24.17-.25m.21.77c.04.04.05.42-.17.42-.07-.01.13-.36.17-.42m-.08-1.38c-.19.33.44.05.31-.05-.09-.08-.2-.03-.31.05m-.26-.03c-.17.45.3.22 0 0m.86-.47c.04.21.37.03.24-.09-.06-.04-.19.08-.24.09m.31-.53s-.17.28-.08.28c.28 0 .27-.16.08-.28m-.98.63c.44 0-.23.4-.18.23.01-.04.14-.18.18-.23m.47-.14c.15.31-.43.35 0 0m-.09-.2c-.35.07-.04.46 0 0m.4.09c-.21-.28.25-.53.02-.85-.29-.41-.85.15-1.09.36-.22.18-.68.64-.1.82.49.15.12-.44.01-.64.17.16.3.34.46.51 0-.06.01-.12.03-.18-.02-.14-.09-.34-.12-.52.08.14.15.29.21.45l.07-.07-.06-.53c.03-.03.07-.06.1-.1.04.34.03.54.27.75-.02-.26-.02-.54.08-.78.2.16-.16.56.12.78m-2.05 1.69c.2-.18.52-.26.78-.3-.25.14-.51.25-.78.3m.45-.59c.12-.02.24-.04.37-.04-.13.1-.22.05-.37.04m.05-.19s.11 0 .18-.03c.04-.02.08-.03.12-.05-.09.17-.16.07-.3.08m.52-.34c-.56.51.79.46-.01.56.07.2-.33.56.11.49-.13.38-1.52.97-1.36.21.04-.22.22-.21.31-.38s.03-.42.12-.57c.22-.39.32-.27.83-.31m-1.57 1.08c.04-.01.5-.29.51-.27.05.16-.41.26-.51.27m-.21-.08c.22-.23.43-.37.76-.37-.24.16-.5.26-.76.37m-.32-.27c.27-.06.43-.22.72-.13-.24.08-.47.17-.72.13m1.72-2.53c-.07-.01-.14-.02-.21-.04.08.07.17.1.27.15l.01.1c-.1-.02-.24-.03-.34-.03.08 0 .26.13.36.16l.02.08a.99.99 0 0 1-.34-.04c.13.13.3.19.47.14-.13-.46-.02-.93-.22-1.39-.02.14-.01.27.02.42l-.15-.09c.14.09.14.21.19.34h-.15c-.14 0 .04.05.08.06l.05.02c-.04.01-.08.03-.13.04.03.01.05.05.07.08zm-.89 1.12c.15.19-.44.28-.66.32.2-.15.41-.27.66-.32m-1.72-.61c.7 0 1.36.09 1.9.55-.49-.16-.89.21-1.38.11.33-.01.6-.22.92-.29-.38-.1-.74.13-1.13.11.25-.07.49-.16.75-.23-.26.02-.52.03-.78.07.04-.05.1-.08.16-.1l.14-.03a4.36 4.36 0 0 1-.58-.19m-.14-.48c.2.12.36.28.54.43-.26 0-.45-.2-.54-.43m6.12-.06c.49.04.65-.13.93-.48.37-.46.54-.58 1.11-.69.87-.17 1.84-.36 2.25.62.51 1.21-.32 1.53-1.38 1.23-1-.29-1.43-.26-2.39.2l-.25-.24c.27-.25-.12-.42-.27-.64m.35-2.78c.44.07.11.73.36.97-.45-.05-.25-.66-.36-.97m-3.57-.3c.56.92 2.26-.65 2.37 1.02.03.52-.29.89.23 1.28.54.41.97.1 1.39-.25.72-.59 1.77-.67 2.72-.52.87.14 1.64 1.59 1.17 2.4.61-.37.2-1.17-.01-1.67-.36-.88-.75-1.12-1.74-1.14-.45-.01-.93.05-1.37.12-.27.04-1.05.46-1.27.39-.64-.19.18-1.22-.78-1.42.82.62-.18 1.8 1.28 1.42-.21.37-.49.69-.95.6-.81-.16-.41-.84-.45-1.38-.11-1.55-1.75-.45-2.59-.85M84.4 14.4l.18.07-.56 2.37-.01.18-.11.05-.08-.16-.55.09c-.07.03-.15-.01-.1-.11.41-.83.9-1.65 1.23-2.49zm4.69 5.77c1.59-.98 2.4-3.22 2.65-4.97.36-2.45-.16-5.1-1.87-6.97-1.36-1.48-3.95-2.23-6.11-1.68-.63.16-1.22.42-1.78.72-.52.28-.6.01-1.01.38-.72.66-1.3 1.63-1.71 2.5-.24.52-1.37 4.64-.68 4.73.56-.16 1.3-.24 1.81-.51.26-.14.2 0 .3-.21.12-.24.05-.84.08-1.11.3-2.41 2.17-4.58 4.79-4.35 2.42.21 3.91 2.46 4.07 4.74.09 1.24-.17 2.71-.99 3.69-.61.72-1.49 1.29-2.27 1.82l1.45 1.63-1.13-1.77.14-.14 1.41 1.81-1.19-1.85 1.47 1.71-1.27-1.79 1.53 1.61-1.28-1.75c.49.53 1.28 1.12 1.59 1.76zM84.41 4.16c.1-.04 1.26-.27 1.22-.02-.02.12-.27.01-.34-.01 0 .05.02.34-.04.36-.05.01-.09-.31-.1-.35-.05 0-.09 0-.14-.01.01.06.05.41-.05.42-.09.01-.12-.37-.12-.43-.14 0-.3.03-.42.11-.01-.03 0-.08-.01-.07zm-.06-.26c.48-.13 1.03-.19 1.51-.01-.16-.93-1.66-.94-1.51.01zM69.39 7.74c.32.31.71.7.85 1.13.09.28.16 1.42-.43 1.36.28.03.25-1.15.22-1.26-.11-.39-.39-.76-.7-1.01 0-.02.06-.27.06-.22zm3.8-1.31c-.3.06-.58.22-.83.37.59.01 1.07-.16 1.63-.23.04-.01.08-.01.13-.02l-.93-.12zM12.73 21H3.88v-.22l2.47-1.18V5.18h-.02s-.73-.01-1.4.17c-.32.1-.69.22-1.19.69C3.23 6.5.61 9.21.61 9.21L.32 9.1l.39-4.7h14.86l.49 4.7-.28.11s-2.63-2.72-3.14-3.18c-.5-.46-.87-.58-1.19-.69-.67-.18-1.25-.16-1.25-.16V19.6l2.51 1.15.02.25zM127.24 21h-8.85v-.22l2.47-1.18V5.18h-.02s-.73-.01-1.4.17c-.32.11-.69.22-1.19.69-.5.46-3.13 3.18-3.13 3.18l-.28-.11.39-4.7H130.1l.49 4.7-.28.11s-2.63-2.72-3.13-3.18c-.5-.46-.87-.58-1.19-.69-.67-.18-1.25-.16-1.25-.16V19.6l2.51 1.15-.01.25zM33.91 5.81l2.01-1.16.01-.24h-7.88v.22l2.04 1.15v6.18l-7.57.05v-6.2l2.02-1.16v-.24h-7.88v.22L18.7 5.8v13.83l-2.04 1.15v.23h7.88v-.25l-2.02-1.15v-6.67l7.57.05v6.64l-2.04 1.15v.23h7.88l-.01-.25-2.01-1.15zM133.19 19.63l-2.04 1.14V21h7.88l-.01-.25-2.01-1.15V5.8l2.01-1.15.01-.25h-7.88v.23l2.04 1.14zM50.77 21H36.66v-.22l2.04-1.15V5.8l-2.04-1.16v-.23H50.29l.29 4.34-.25.09s-2.18-2.26-2.69-2.73c-.5-.46-.87-.58-1.19-.69-.67-.17-1.4-.17-1.4-.17l-2.49-.08-.01 7.01s2.62-.04 2.91-.08c.39-.05.55-.05 1.1-.68.45-.52 1.16-1.45 1.16-1.45h.29v5.56h-.29s-1.38-2-1.48-2.07c-.11-.07-.33-.38-1.05-.38-.72.01-2.64-.05-2.64-.05l.01 7.16s1.49.02 2.69-.08 1.86-.12 2.65-.78c.78-.66 2.86-3.08 2.86-3.08l.31.1-.3 4.65zM177.04 16.35l-.31-.1s-2.07 2.42-2.85 3.08c-.79.66-1.45.68-2.65.79-1.2.1-2.69.08-2.69.08l-.01-7.16s1.92.06 2.64.05c.72-.01.95.31 1.05.37.11.07 1.48 2.07 1.48 2.07h.29V9.98h-.29s-.71.93-1.16 1.45c-.55.64-.7.64-1.09.68-.29.04-2.91.08-2.91.08l.01-7.01 2.5.08s.73-.01 1.4.16c.32.11.69.23 1.19.69.5.47 2.69 2.73 2.69 2.73l.25-.09-.3-4.34h-13.64v.23l2.04 1.16v13.84l-2.04 1.14V21h14.11M151.34 15.77l5.05-11.37h5.54l-.01.25-2.01 1.15v13.8l2.01 1.15.01.25h-7.87v-.23l2.04-1.14V7.83l-5.96 12.94h-.73l-6.36-13.21V19.6l2.03 1.15V21h-5.3v-.23l2.04-1.14V5.77l-2.04-1.14V4.4h6zM188.26 4.63l.31 4.1-.28.05s-2.83-3.09-3.16-3.35c-.15-.12-1.5-1.08-2.94-.08 0 0-1.4.95-.5 2.71.9 1.76 3.55 3 4.23 3.4.68.4 4.07 2.05 3.64 5.41-.4 3.17-3.23 4.08-4.41 4.3-2.51.48-6.38-.58-6.38-.58l-.29-4.3.33-.04s2.84 3.38 3.95 3.81c1.12.42 2.65.56 3.57-.61.92-1.17.15-2.82-.75-3.44-1.28-.88-3.14-1.86-4.45-2.72-1.46-.97-2.38-2.37-2.58-3.97-.27-2.23 1.04-4.06 2.75-4.74 1.57-.63 2.85-.49 4-.42 1.19.09 2.96.47 2.96.47"/></svg>
