<?xml version="1.0" encoding="utf-8"?>
<svg version="1.1" xmlns="http://www.w3.org/2000/svg" xmlns:xlink="http://www.w3.org/1999/xlink" x="0px" y="0px"
	 viewBox="0 0 215.6 57.7" style="enable-background:new 0 0 215.6 57.7;" xml:space="preserve" aria-labelledby="title-vogue" aria-describedby="desc-vogue" role="img">
<style type="text/css">
	.vogue-0{fill:#FFFFFF;}
</style>
<title id="title-vogue">Vogue logo</title>
<desc id="desc-vogue">Vogue logo</desc>
<g>
	<path class="vogue-0" d="M79.6,9.7c-3.7-4.6-9.5-8-15.5-8c-6.5,0-12.4,3.6-16.3,8.7c-4,5.2-5.9,11.7-5.9,18.1c0,6.7,2.1,13.5,6.4,18.8
		c3.8,4.6,9.6,8,15.6,8c6.5,0,12.3-3.7,16.2-8.7C84,41.5,86,35,86,28.6C86,21.8,83.8,15,79.6,9.7z M63.9,54.6
		c-10.1,0-12.7-18.6-12.7-26.1c0-7.5,2.6-26.1,12.7-26.1c10.1,0,12.7,18.6,12.7,26.1C76.7,36,74,54.6,63.9,54.6z"/>
	<polygon class="vogue-0" points="3,2.8 21.3,2.8 21.3,3.3 16.8,3.3 30.4,40.6 41.9,3.3 37.4,3.3 37.4,2.8 47.2,2.8 47.2,3.3 42.9,3.3 
		26.7,54.9 7.8,3.3 3,3.3 	"/>
	<path class="vogue-0" d="M125.9,1.9v17.9h-0.4c-0.8-3.5-1.9-7-3.8-10.1c-2.3-3.6-5.8-7.7-10.5-7.7c-10.7,0-11.7,19.2-11.7,26.6
		c0,6.6,0.5,13.3,2.9,19.5c1.7,4.3,4.1,6.4,8.6,6.4c3.6,0,7.4-1.8,9.3-4.9c0.5-0.8,0.5-1.7,0.5-2.6v-0.1V33.2h-4.7v-0.5h17.2v0.5h-4
		v20.7h-0.4c-1-1.7-2.6-2.8-4.7-2.8c-1.5,0-2.9,0.5-4.2,1.2l-1.2,0.6c-2.6,1.2-5.1,2-8.1,2c-13.3,0-20.4-14.2-20.4-26
		c0-8.6,3.3-17.8,10.3-23.2c3.1-2.4,6.9-4.2,11-4.2c1.6,0,3.1,0.5,4.6,1.1l1.1,0.4c1.2,0.5,2.6,0.9,3.9,0.9c1.6,0,3.1-1.1,4.4-2
		L125.9,1.9L125.9,1.9z"/>
	<path class="vogue-0" d="M131.1,2.8h18.3v0.5h-4.9v39.8c0,6.2,6.4,10,12,10c6,0,11.1-4.2,11.1-10.4V3.3h-5.7V2.8h47.3v18.4h-0.4
		c-0.5-4.9-1.5-9.9-4.8-13.7c-3.4-3.8-8-4.2-12.8-4.2h-5.1v23.7c1.1,0.1,2.1,0.2,3.2,0.2c6.4,0,8.1-4.4,8.4-9.9h0.5v20.8h-0.5
		c-0.8-5-3-10.3-8.8-10.3c-0.9,0-1.8,0.1-2.7,0.1v25.4h7.7c4,0,7.9-1.7,10.8-4.5c2.4-2.4,4.1-5.4,4.7-8.8c0.3-1.9,0.5-3.8,0.6-5.6
		h0.4v19.4h-36.9v-0.5h4.3v-50h-9.1v39.6c0,8.2-7.8,11.8-15,11.8c-8.2,0-17.3-4-17.3-13.4V3.3h-5L131.1,2.8L131.1,2.8z"/>
</g>
</svg>
