<?xml version="1.0" encoding="utf-8"?>
<svg version="1.1" xmlns="http://www.w3.org/2000/svg" xmlns:xlink="http://www.w3.org/1999/xlink" x="0px" y="0px"
	 viewBox="0 0 162.4 130.1" style="enable-background:new 0 0 162.4 130.1;" xml:space="preserve" aria-labelledby="title-which-recommended-supplier-2021" aria-describedby="desc-which-recommended-supplier-2021" role="img">
<style type="text/css">
	.which-recommended-supplier-2021-0{fill:url(#WRS_2021_ID_1_);}
	.which-recommended-supplier-2021-1{fill:url(#WRS_2021_ID_2_);}
	.which-recommended-supplier-2021-2{fill:url(#WRS_2021_ID_3_);}
	.which-recommended-supplier-2021-3{fill:url(#WRS_2021_ID_4_);}
	.which-recommended-supplier-2021-4{fill:#E30613;}
</style>
<title id="title-which-recommended-supplier-2021">Which recommended supplier 2021</title>
<desc id="desc-which-recommended-supplier-2021">Which recommended supplier 2021</desc>
<g id="Recommended_Provider_Icon">
		<linearGradient id="WRS_2021_ID_1_" gradientUnits="userSpaceOnUse" x1="31.2695" y1="17.0391" x2="131.1017" y2="116.8713" gradientTransform="matrix(1 0 0 -1 0 132)">
		<stop  offset="0" style="stop-color:#B8B8B8"/>
		<stop  offset="1" style="stop-color:#EDEDED"/>
	</linearGradient>
	<path class="which-recommended-supplier-2021-0" d="M3.2,65c0,34.4,34.9,62.4,78,62.4c43.1,0,78-27.9,78-62.4c0-34.4-34.9-62.4-78-62.4C38.1,2.7,3.2,30.6,3.2,65"
		/>
		<linearGradient id="WRS_2021_ID_2_" gradientUnits="userSpaceOnUse" x1="33.7585" y1="19.5283" x2="128.6127" y2="114.3823" gradientTransform="matrix(1 0 0 -1 0 132)">
		<stop  offset="0" style="stop-color:#DBDBDB"/>
		<stop  offset="1" style="stop-color:#FFFFFF"/>
	</linearGradient>
	<path class="which-recommended-supplier-2021-1" d="M6.8,65c0,32.5,33.3,58.8,74.4,58.8c41.1,0,74.4-26.3,74.4-58.8c0-32.5-33.3-58.8-74.4-58.8
		C40.1,6.2,6.8,32.6,6.8,65"/>
	<g>
		<path d="M20,51.4l-0.4,0.9l3.4,1.4l-1,2.5l-9.2-3.7l1.4-3.4c1-2.4,2.4-3.2,4.3-2.4c1.2,0.5,1.8,1.3,1.9,2.3l4.1-0.4l0.6,0.2
			L24.1,51L20,51.4z M17.9,51.7l0.3-0.8c0.4-0.9,0.1-1.5-0.7-1.8c-0.8-0.3-1.4-0.1-1.8,0.8l-0.3,0.8L17.9,51.7z"/>
		<path d="M23.7,45c1.1,0.6,1.7,0.3,2.3-0.5c0.4-0.7,0.6-1.3,0.6-1.8L27,42l1.3,0.8c0,0.7-0.2,1.6-1,2.9c-1.4,2.1-3.3,2.4-5.3,1.1
			c-2-1.3-2.4-3.4-1.2-5.2c1.2-1.9,2.9-2.2,5-0.8c0.2,0.2,0.5,0.3,0.5,0.4L23.7,45z M22.6,44.3l1.2-1.9c-1-0.6-1.5-0.5-1.9,0.1
			C21.7,42.9,21.7,43.5,22.6,44.3z"/>
		<path d="M26.5,40.1c-1.8-1.6-1.7-3.8-0.1-5.6c0.7-0.8,1.4-1.2,1.9-1.3l1.3,1.2L29,35.1c-0.4,0-0.8,0.2-1.2,0.6
			c-0.6,0.7-0.6,1.6,0.5,2.6c1,1,1.9,0.9,2.6,0.2c0.5-0.5,0.6-1,0.6-1.4l0.6-0.6l1.2,1.1c-0.1,0.6-0.4,1.4-1.2,2.3
			C30.3,41.7,28.3,41.8,26.5,40.1z"/>
		<path d="M31.2,35.1c-1.5-1.9-1.2-4.1,0.5-5.5c1.7-1.4,3.9-1.3,5.5,0.5c1.5,1.8,1.1,4-0.5,5.4C34.9,36.9,32.7,36.9,31.2,35.1z
			 M35.2,31.7c-1-1.2-1.8-1.3-2.4-0.8c-0.6,0.5-0.6,1.4,0.3,2.5c0.9,1.1,1.8,1.3,2.4,0.8C36.1,33.7,36.2,32.9,35.2,31.7z"/>
		<path d="M38.4,25.9c0.3-0.8,0.8-1.7,1.6-2.2c0.7-0.4,1.4-0.5,2.1,0c0.3-0.9,0.9-1.7,1.7-2.2c0.9-0.5,1.9-0.5,2.7,0.9l2.8,4.7
			l-2.1,1.2l-2.4-4.2c-0.3-0.5-0.6-0.6-1.1-0.3c-0.3,0.2-0.6,0.5-0.8,0.7l2.7,4.7l-2.1,1.2l-2.4-4.2c-0.3-0.5-0.6-0.6-1.1-0.3
			c-0.3,0.2-0.6,0.5-0.8,0.7l2.7,4.7l-2.1,1.2l-3.8-6.5l1.5-0.9C37.6,25.3,37.9,25.3,38.4,25.9z"/>
		<path d="M50.3,19.7c0.4-0.8,1.1-1.5,2-1.8c0.8-0.3,1.5-0.2,2,0.4c0.4-0.8,1.2-1.5,2.1-1.9c1-0.4,2-0.2,2.5,1.3l1.9,5.2l-2.3,0.8
			l-1.6-4.5c-0.2-0.6-0.5-0.7-1-0.5c-0.4,0.1-0.7,0.4-0.9,0.6l1.8,5.1l-2.3,0.8l-1.6-4.5c-0.2-0.6-0.5-0.7-1-0.5
			c-0.4,0.1-0.7,0.4-1,0.6l1.8,5.1l-2.3,0.8l-2.5-7.1l1.6-0.6C49.7,18.9,50,19,50.3,19.7z"/>
		<path d="M63.1,19.3c0.4,1.2,1,1.4,2,1.2c0.8-0.2,1.3-0.5,1.7-0.9l0.8-0.2l0.3,1.5c-0.5,0.5-1.3,1-2.8,1.4
			c-2.5,0.5-4.1-0.6-4.6-2.9c-0.5-2.3,0.6-4.1,2.8-4.6c2.2-0.5,3.6,0.5,4.1,3c0.1,0.3,0.1,0.6,0.1,0.6L63.1,19.3z M62.8,18l2.2-0.5
			c-0.3-1.1-0.7-1.4-1.4-1.3C63.1,16.3,62.7,16.7,62.8,18z"/>
		<path d="M70.7,14.5c0.6-0.6,1.4-1.2,2.5-1.3c1.1-0.1,2,0.2,2.2,1.9l0.6,5.5l-2.5,0.3L73,16c-0.1-0.6-0.4-0.8-0.9-0.7
			c-0.5,0.1-0.8,0.2-1.2,0.4l0.6,5.4L69,21.3l-0.8-7.4l1.7-0.2C70.3,13.6,70.5,13.7,70.7,14.5z"/>
		<path d="M81.4,19.6c-0.4,0.5-1.1,0.9-2.1,0.9c-1.6,0-2.9-1.2-2.9-3.7c0-3,1.5-4,3-4c0.9,0,1.4,0.3,1.9,0.7l0-3.1l1.6,0
			c0.8,0,0.9,0.2,0.9,1.3l0.1,8.6l-1.7,0C81.7,20.4,81.5,20.2,81.4,19.6z M81.3,18.4l0-3.4c-0.3-0.2-0.6-0.2-1-0.2
			c-0.7,0-1.4,0.4-1.4,2c0,1.6,0.5,2.1,1.3,2.1C80.6,18.8,80.9,18.7,81.3,18.4z"/>
		<path d="M87,17.4c0,1.3,0.6,1.6,1.6,1.7c0.8,0.1,1.4-0.1,1.9-0.4l0.8,0.1l-0.1,1.5c-0.7,0.3-1.5,0.6-3.1,0.5
			c-2.5-0.2-3.7-1.8-3.5-4.1c0.2-2.4,1.8-3.8,4-3.6c2.2,0.2,3.3,1.5,3.1,4c0,0.3-0.1,0.6-0.1,0.6L87,17.4z M87.2,16.1l2.2,0.2
			c0.1-1.2-0.3-1.6-0.9-1.6C87.9,14.6,87.4,14.9,87.2,16.1z"/>
		<path d="M97.1,21.2c-0.5,0.4-1.3,0.7-2.2,0.5c-1.6-0.3-2.6-1.7-2.1-4.3c0.6-2.9,2.3-3.6,3.7-3.3c0.9,0.2,1.4,0.5,1.7,1.1l0.6-3
			l1.5,0.3c0.8,0.1,0.9,0.4,0.6,1.5l-1.6,8.5l-1.7-0.3C97.3,22.1,97.1,21.9,97.1,21.2z M97.3,20l0.7-3.4c-0.2-0.2-0.5-0.4-0.9-0.4
			c-0.7-0.1-1.5,0.1-1.8,1.7c-0.3,1.5,0,2.2,0.8,2.3C96.5,20.3,96.9,20.3,97.3,20z"/>
		<path d="M106.5,14.1l3.3,1.2c2.5,0.9,3.4,2.3,2.6,4.4c-0.7,2.1-2.4,2.6-4.9,1.7l-0.8-0.3l-1.2,3.3l-2.5-0.9L106.5,14.1z
			 M107.4,19.5l0.8,0.3c1,0.4,1.5-0.1,1.8-0.9c0.3-0.9,0.2-1.4-0.9-1.8l-0.8-0.3L107.4,19.5z"/>
		<path d="M115.1,22.7l-2.2,4.6l-2.2-1l3.2-6.8l1.6,0.7c0.3,0.2,0.5,0.4,0.2,1.2c0.7-0.4,1.5-0.5,2.3-0.1c0.1,0.1,0.3,0.2,0.4,0.2
			l-0.9,1.9l-0.3-0.1C116.3,22.9,115.5,22.7,115.1,22.7z"/>
		<path d="M117.1,25.1c1.2-2.1,3.4-2.5,5.3-1.4c1.9,1.1,2.5,3.3,1.3,5.3c-1.2,2.1-3.4,2.4-5.3,1.3C116.6,29.3,115.9,27.2,117.1,25.1
			z M121.6,27.8c0.8-1.3,0.6-2.2,0-2.6c-0.7-0.4-1.5-0.1-2.3,1.2c-0.8,1.3-0.6,2.1,0.1,2.5C120,29.4,120.8,29.1,121.6,27.8z"/>
		<path d="M125.8,26.6l0.4-0.5l1.9,1.5l-1.6,4.7l0,0l4-2.8l1.7,1.3l-0.4,0.5l-6.2,3.9l-1.9-1.5L125.8,26.6z"/>
		<path d="M127.7,37l5.2-5.4l1.2,1.1c0.5,0.5,0.5,0.8-0.4,1.6l-4.2,4.4L127.7,37z M134,30.4c0.5-0.5,1.2-0.5,1.8,0
			c0.5,0.5,0.6,1.3,0.1,1.8c-0.5,0.5-1.2,0.5-1.8,0C133.6,31.6,133.5,30.9,134,30.4z"/>
		<path d="M133.9,42.5c-0.7,0-1.4-0.3-2-1c-1-1.3-0.9-3,1.1-4.6c2.3-1.9,4.1-1.3,5-0.2c0.6,0.7,0.7,1.3,0.7,1.9l2.4-1.9l1,1.2
			c0.5,0.6,0.4,0.8-0.5,1.6l-6.6,5.5l-1.1-1.3C133.5,43.2,133.5,43,133.9,42.5z M134.8,41.7l2.6-2.2c0-0.3-0.2-0.6-0.4-0.9
			c-0.5-0.6-1.2-0.9-2.4,0.2c-1.2,1-1.4,1.7-0.8,2.3C134,41.4,134.3,41.6,134.8,41.7z"/>
		<path d="M139.1,45.8c-1,0.7-1,1.4-0.5,2.3c0.4,0.7,0.9,1.1,1.4,1.3l0.4,0.7l-1.3,0.7c-0.6-0.4-1.4-0.9-2.1-2.3
			c-1.2-2.2-0.6-4,1.4-5.2c2.1-1.2,4.2-0.6,5.2,1.3c1.1,2,0.6,3.6-1.6,4.8c-0.3,0.1-0.5,0.3-0.6,0.3L139.1,45.8z M140.3,45.2l1.1,2
			c1-0.6,1.1-1.1,0.8-1.7C141.9,45,141.4,44.7,140.3,45.2z"/>
		<path d="M144.5,52.8l-4.8,1.7l-0.8-2.3l7.1-2.5l0.6,1.6c0.1,0.4,0,0.6-0.7,1c0.7,0.2,1.4,0.7,1.7,1.5c0,0.1,0.1,0.3,0.1,0.4
			l-1.9,0.7l-0.1-0.3C145.2,53.8,144.8,53.1,144.5,52.8z"/>
	</g>
		<linearGradient id="WRS_2021_ID_3_" gradientUnits="userSpaceOnUse" x1="47.3276" y1="33.0976" x2="115.0435" y2="100.8134" gradientTransform="matrix(1 0 0 -1 0 132)">
		<stop  offset="0" style="stop-color:#FFFFFF"/>
		<stop  offset="1" style="stop-color:#D1D1D1"/>
	</linearGradient>
	<path class="which-recommended-supplier-2021-2" d="M25.9,65c0,21.5,25.3,39.7,55.3,39.7c30,0,55.3-18.2,55.3-39.7c0-21.5-25.3-39.7-55.3-39.7
		C51.2,25.4,25.9,43.5,25.9,65"/>
		<linearGradient id="WRS_2021_ID_4_" gradientUnits="userSpaceOnUse" x1="49.7825" y1="35.5527" x2="112.5887" y2="98.3589" gradientTransform="matrix(1 0 0 -1 0 132)">
		<stop  offset="0" style="stop-color:#DBDBDB"/>
		<stop  offset="1" style="stop-color:#FFFFFF"/>
	</linearGradient>
	<path class="which-recommended-supplier-2021-3" d="M29.5,65c0,19.6,23.7,36.1,51.7,36.1c28,0,51.7-16.6,51.7-36.1c0-19.6-23.7-36.1-51.7-36.1
		C53.1,28.9,29.5,45.5,29.5,65"/>
	<g>
		<path class="which-recommended-supplier-2021-4" d="M58.6,66l-2.2-9.2c-0.3-1.4-0.8-1.8-2-1.8h-2.2l-2.6,11l-2.2-11h-4.5l4.3,18.5h3.9L53.9,63l2.9,10.6h3.8
			L65,55h-4.3L58.6,66z"/>
		<path class="which-recommended-supplier-2021-4" d="M74.1,59.2c-1.5,0-3.2,0.5-4.2,1.4v-4c0-1-0.4-1.6-1.4-1.6h-2.8v18.5h4.2V63c0.8-0.2,1.6-0.3,2.4-0.3
			c0.9,0,1.4,0.2,1.4,1.3v9.5H78V62.9C78,60.8,77.2,59.2,74.1,59.2"/>
		<rect x="79.2" y="59.6" class="which-recommended-supplier-2021-4" width="4.2" height="14"/>
		<path class="which-recommended-supplier-2021-4" d="M84.4,66.6c0,4.2,2.3,7.4,6.9,7.4c1.7,0,3.3-0.3,4.2-1.2v-2.7c-1.7,0.3-2.5,0.3-3.4,0.3
			c-2.2,0-3.3-1.5-3.3-3.9c0-2.4,1.1-3.9,3.3-3.9c1,0,1.8,0,3.4,0.3v-2.7c-0.9-0.8-2.5-1.2-4.2-1.2C86.7,59.2,84.4,62.4,84.4,66.6"
			/>
		<path class="which-recommended-supplier-2021-4" d="M104.9,59.2c-1.5,0-3.2,0.5-4.2,1.4v-4c0-1-0.3-1.6-1.4-1.6h-2.8v18.5h4.2V63c0.9-0.2,1.6-0.3,2.5-0.3
			c0.9,0,1.4,0.2,1.4,1.3v9.5h4.2V62.9C108.8,60.8,108,59.2,104.9,59.2"/>
		<path class="which-recommended-supplier-2021-4" d="M82.7,55H80c-0.5,0-0.9,0.4-0.9,0.9v1.6c0,0.5,0.4,0.9,0.9,0.9h2.8c0.5,0,0.9-0.4,0.9-0.9v-1.6
			C83.6,55.4,83.2,55,82.7,55"/>
		<path d="M113.3,53.1c-1.8,0-4,0.5-5.2,1.5v2.8c1.4-0.3,3-0.4,3.8-0.4c2,0,3.2,0.6,3.2,2.2c0,1.5-0.7,1.9-1.9,2.9
			c-1.5,1.3-2.7,1.9-2.7,4.7v1.9h1.6h2.6v-1.4c0-1.6,0.9-2.2,2.3-3.4c1.7-1.4,2.5-3,2.5-5.3C119.5,55.4,117.4,53.1,113.3,53.1"/>
		<path d="M113.9,69.8h-2.7c-0.5,0-1,0.4-1,1v1.8c0,0.5,0.4,1,1,1h2.7c0.5,0,1-0.4,1-1v-1.8C114.8,70.2,114.4,69.8,113.9,69.8"/>
	</g>
</g>
<g id="Editable_Text">
	<g>
		<path d="M23,80.1l2.1,3.8l-0.7,0.4l-1.6-2.8l-1.9,1l1.1,2.1l-0.7,0.4l-1.1-2.1L18.1,84l1.6,2.9l-0.7,0.4l-2.1-3.9L23,80.1z"/>
		<path d="M24.1,86.7c0.6,0.2,1.3,0.6,1.8,1.2c0.4,0.6,0.5,1.3-0.4,1.9l-3.1,2.3l-0.6-0.8l2.9-2.1c0.5-0.4,0.5-0.7,0.2-1.1
			c-0.3-0.5-0.9-0.7-1.3-0.9l-3.2,2.3l-0.6-0.8l4.2-3.1l0.4,0.5C24.5,86.2,24.5,86.4,24.1,86.7z"/>
		<path d="M25.8,92.5c-0.9,0.9-0.9,1.6-0.2,2.3c0.5,0.5,0.9,0.7,1.3,0.8l0.2,0.2l-0.5,0.5c-0.4-0.1-1-0.3-1.7-1.1
			c-1.1-1.2-0.9-2.5,0.3-3.6c1.2-1.1,2.7-1,3.6,0c0.9,1,0.9,2.2-0.4,3.3c-0.1,0.1-0.2,0.2-0.3,0.2L25.8,92.5z M26.3,92l1.7,1.9
			c0.8-0.8,0.8-1.4,0.3-1.9C27.8,91.5,27.2,91.4,26.3,92z"/>
		<path d="M30.7,95.6l-2.6,2.8l-0.7-0.7l3.6-3.8l0.5,0.4c0.2,0.2,0.2,0.3-0.2,0.8c0.5-0.1,1.2,0,1.6,0.5c0.1,0.1,0.1,0.2,0.2,0.2
			l-0.6,0.6c0,0-0.1-0.1-0.2-0.2C31.8,95.8,31.2,95.6,30.7,95.6z"/>
		<path d="M33.9,103c-0.8,1-1.9,0.9-3.1-0.1c-0.7-0.6-1.1-1.1-1.3-1.6l0.5-0.6l0.3,0.2c0.1,0.4,0.4,0.9,0.9,1.3
			c0.7,0.6,1.4,0.7,1.9,0l0.3-0.4c-0.5,0.1-1.1,0-1.7-0.5c-0.8-0.7-1.2-1.8-0.1-3.2c1.2-1.5,2.5-1.4,3.4-0.7
			c0.5,0.4,0.8,0.9,0.8,1.4c0.2-0.2,0.5-0.3,0.7-0.1l0.4,0.3L33.9,103z M33.9,101.3l1.6-2c-0.1-0.4-0.2-0.8-0.7-1.1
			c-0.5-0.4-1.3-0.6-2.2,0.5c-0.9,1.1-0.7,1.7-0.1,2.2C32.9,101.3,33.4,101.4,33.9,101.3z"/>
		<path d="M35.1,105.7l1.5-1l0.9-5l0.2-0.2l0.8,0.5l-0.8,3.9l0,0l3.2-2.3l0.7,0.5l-0.2,0.2l-5.8,4l-0.7-0.5L35.1,105.7z"/>
		<path d="M43.2,105.1c1-2,2.9-2.5,4.5-1.7c0.9,0.5,1.2,0.9,1.6,1.4l-0.4,0.8l-0.4-0.2c-0.1-0.4-0.4-0.9-1.1-1.2
			c-1.1-0.6-2.3-0.1-3.1,1.4c-0.8,1.6-0.6,2.8,0.6,3.4c0.8,0.4,1.4,0.3,2,0.1l0.3,0.2l-0.4,0.7c-0.6,0.2-1.4,0.1-2.3-0.3
			C42.7,108.9,42.2,107.1,43.2,105.1z"/>
		<path d="M48.4,108.7c0.6-1.5,2-2.1,3.4-1.6c1.3,0.5,1.9,1.9,1.3,3.5c-0.6,1.5-2,2-3.3,1.5C48.4,111.6,47.7,110.2,48.4,108.7z
			 M52,110.2c0.5-1.2,0.2-2-0.6-2.4c-0.8-0.3-1.6,0.1-2.1,1.2c-0.5,1.2-0.2,2,0.6,2.3C50.8,111.8,51.6,111.4,52,110.2z"/>
		<path d="M55.7,109.5c0.6-0.2,1.3-0.4,2-0.1c0.5,0.2,0.9,0.5,0.9,1.1c0.6-0.3,1.4-0.4,2.1-0.2c0.7,0.2,1.2,0.7,0.8,1.7l-1.1,3.8
			l-1-0.3l1.1-3.5c0.2-0.6,0-0.9-0.5-1c-0.5-0.2-1.1-0.1-1.5,0.1l-1.1,3.8l-1-0.3l1.1-3.5c0.2-0.6,0-0.9-0.5-1
			c-0.5-0.2-1-0.1-1.5,0.1l-1.1,3.8l-1-0.3l1.5-5l0.6,0.2C55.7,108.8,55.8,109,55.7,109.5z"/>
		<path d="M63.2,115.8l-0.4,2.1l-1-0.2l1.4-6.7l0.6,0.1c0.2,0,0.3,0.2,0.2,0.7c0.5-0.3,1.1-0.6,1.8-0.4c1,0.2,1.8,1,1.4,2.9
			c-0.4,2-1.6,2.4-2.7,2.2C63.9,116.4,63.5,116.1,63.2,115.8z M63.9,112.5l-0.5,2.6c0.2,0.4,0.6,0.6,1.1,0.7
			c0.7,0.1,1.5-0.1,1.8-1.5c0.3-1.5-0.3-2-0.9-2.1C64.9,112,64.3,112.2,63.9,112.5z"/>
		<path d="M71,117c-0.4,0.4-0.9,0.5-1.6,0.4c-0.9-0.1-1.6-0.8-1.4-1.8c0.1-1.1,1.1-1.5,2.2-1.3c0.4,0.1,0.8,0.2,1.1,0.3l0.1-0.7
			c0.1-0.6-0.2-0.9-0.9-1c-0.6-0.1-1.1,0-1.5,0.2l-0.3,0l0.1-0.8c0.5-0.2,1.1-0.3,1.9-0.2c1.2,0.2,1.9,0.7,1.7,1.8l-0.5,3.7
			l-0.4-0.1C71.1,117.6,71,117.5,71,117z M71.1,116.3l0.1-1.1c-0.3-0.1-0.6-0.2-1-0.2c-0.7-0.1-1.2,0.1-1.3,0.7
			c-0.1,0.6,0.3,1,0.8,1C70.3,116.9,70.7,116.6,71.1,116.3z"/>
		<path d="M74.8,113.4c0.5-0.4,1.3-0.7,2.1-0.6c0.7,0,1.3,0.4,1.3,1.5l-0.2,3.9l-1-0.1l0.2-3.6c0-0.6-0.2-0.8-0.7-0.9
			c-0.6,0-1.1,0.2-1.6,0.4l-0.3,3.9l-1-0.1l0.3-5.2l0.6,0C74.8,112.7,74.9,112.8,74.8,113.4z"/>
		<path d="M79.4,118.2l0.1-5.2l0.6,0c0.4,0,0.5,0.1,0.4,0.8l-0.1,4.4L79.4,118.2z M79.4,111.8c0-0.3,0.3-0.6,0.6-0.6
			s0.6,0.3,0.6,0.6c0,0.3-0.3,0.6-0.6,0.6C79.7,112.4,79.4,112.1,79.4,111.8z"/>
		<path d="M82.7,115.8c0.1,1.2,0.7,1.7,1.7,1.7c0.7,0,1.1-0.3,1.4-0.5l0.3,0l0,0.7c-0.4,0.3-0.9,0.6-1.9,0.6
			c-1.6,0.1-2.5-0.9-2.6-2.6c-0.1-1.7,0.9-2.7,2.3-2.8c1.4,0,2.2,0.7,2.3,2.5c0,0.1,0,0.3,0,0.4L82.7,115.8z M82.7,115.1l2.5-0.1
			c-0.1-1.1-0.5-1.5-1.2-1.5C83.3,113.6,82.8,114,82.7,115.1z"/>
		<path d="M87.3,117.6l-0.1-0.8l0.3,0c0.3,0.2,0.7,0.4,1.4,0.3c0.7-0.1,1.1-0.4,1-0.9c0-0.4-0.3-0.6-1.2-0.7c-1.1,0-1.7-0.4-1.8-1.3
			c-0.1-1,0.6-1.6,1.7-1.7c0.7-0.1,1.2,0.1,1.6,0.2l0.1,0.8l-0.3,0c-0.3-0.2-0.7-0.3-1.2-0.3c-0.7,0.1-1,0.3-0.9,0.8
			c0,0.4,0.3,0.6,1.2,0.6c1.2,0.1,1.7,0.4,1.8,1.4c0.1,1-0.5,1.7-1.8,1.8C88.2,118,87.7,117.8,87.3,117.6z"/>
		<path d="M94.1,116.9l-0.1-0.8l0.4-0.1c0.2,0.1,0.5,0.3,1.1,0.2c0.6-0.1,0.9-0.5,0.8-1.2l-0.9-5.2l1.1-0.2l0.9,5.2
			c0.2,1.1-0.3,1.9-1.7,2.1C95,117.2,94.5,117.1,94.1,116.9z"/>
		<path d="M101.9,115c-0.3,0.5-0.7,0.8-1.4,1c-0.9,0.2-1.7-0.1-2-1.1c-0.3-1,0.5-1.7,1.6-2c0.4-0.1,0.8-0.1,1.1-0.1l-0.2-0.7
			c-0.1-0.6-0.6-0.8-1.2-0.6c-0.6,0.1-1,0.4-1.3,0.8l-0.3,0.1l-0.2-0.7c0.4-0.3,0.9-0.7,1.7-0.9c1.2-0.3,2,0,2.3,1.1l0.9,3.6
			l-0.4,0.1C102.2,115.6,102.1,115.5,101.9,115z M101.7,114.4l-0.3-1.1c-0.3,0-0.6,0-1,0.1c-0.7,0.2-1.1,0.5-1,1.2
			c0.2,0.6,0.6,0.8,1.2,0.7C101.2,115.1,101.5,114.8,101.7,114.4z"/>
		<path d="M104.2,110.3c0.4-0.5,1-1.1,1.7-1.3c0.7-0.2,1.4-0.1,1.7,1l1.2,3.7l-1,0.3l-1.1-3.5c-0.2-0.6-0.5-0.7-1-0.5
			c-0.5,0.2-1,0.6-1.3,1l1.2,3.8l-1,0.3l-1.6-5l0.6-0.2C103.8,109.7,104,109.8,104.2,110.3z"/>
		<path d="M112.9,110.7l-1.5-3.7l1-0.4l2,4.8l-0.6,0.2c-0.2,0.1-0.3,0.1-0.6-0.4c-0.3,0.5-0.9,1.1-1.5,1.3c-0.8,0.3-1.5,0.2-1.9-0.8
			l-1.5-3.6l1-0.4l1.4,3.4c0.3,0.6,0.6,0.6,1.1,0.5C112.2,111.5,112.6,111,112.9,110.7z"/>
		<path d="M118.2,108.9c-0.2,0.5-0.5,1-1.1,1.3c-0.9,0.4-1.7,0.2-2.2-0.7c-0.5-1,0.1-1.8,1.1-2.3c0.4-0.2,0.7-0.3,1.1-0.4l-0.3-0.6
			c-0.3-0.6-0.7-0.6-1.3-0.3c-0.6,0.3-0.9,0.7-1.1,1l-0.3,0.1l-0.3-0.7c0.3-0.4,0.7-0.9,1.5-1.2c1.1-0.6,2-0.5,2.5,0.6l1.6,3.3
			l-0.4,0.2C118.6,109.3,118.5,109.3,118.2,108.9z M117.9,108.3l-0.5-1c-0.3,0.1-0.6,0.2-0.9,0.3c-0.6,0.3-1,0.8-0.7,1.3
			c0.3,0.6,0.8,0.6,1.3,0.4C117.6,109.2,117.8,108.8,117.9,108.3z"/>
		<path d="M119.7,104.4l1.9,3.3l-0.9,0.5l-2.6-4.5l0.6-0.3c0.2-0.1,0.4-0.1,0.7,0.4c0.1-0.5,0.4-1.1,0.9-1.4
			c0.1-0.1,0.2-0.1,0.3-0.1l0.4,0.7c0,0-0.2,0.1-0.2,0.1C120.2,103.5,119.9,104,119.7,104.4z"/>
		<path d="M125.8,106.7l-0.3-1.8l-4.2-2.8l-0.2-0.2l0.8-0.5l3.3,2.2l0,0l-0.9-3.8l0.7-0.5l0.2,0.2l1.5,6.9l-0.7,0.5L125.8,106.7z"/>
		<path d="M133.9,98.8l-3.4,3l-0.6-0.7l0.2-2.8c0.1-1.3,0.1-2.1-0.4-2.6c-0.4-0.5-1-0.6-1.6-0.1c-0.5,0.5-0.7,1-0.8,1.5l-0.3,0.2
			l-0.5-0.6c0.1-0.5,0.4-1.3,1.1-1.8c1.1-0.9,2.1-1,2.9,0c0.7,0.8,0.7,1.8,0.5,3.3l-0.2,2.1l2.5-2.1L133.9,98.8z"/>
		<path d="M132.3,95.5c-1.8-1.7-1.7-3.4-0.6-4.5c1-1.1,2.8-1.3,4.6,0.3c1.8,1.7,1.7,3.4,0.6,4.5C135.8,97,134.1,97.2,132.3,95.5z
			 M135.5,92.2c-1.4-1.3-2.5-1.4-3.2-0.6c-0.7,0.8-0.6,1.8,0.8,3.2c1.4,1.3,2.5,1.4,3.2,0.6C137,94.6,136.9,93.5,135.5,92.2z"/>
		<path d="M142.1,89.3l-2.7,3.6l-0.7-0.5l-0.4-2.8c-0.2-1.3-0.4-2.1-1-2.5c-0.5-0.4-1.1-0.3-1.6,0.3c-0.4,0.6-0.5,1.2-0.4,1.6
			l-0.2,0.3l-0.6-0.5c0-0.5,0.1-1.3,0.6-2c0.8-1.1,1.9-1.4,2.9-0.6c0.8,0.6,1,1.6,1.2,3.1l0.3,2.1l2-2.6L142.1,89.3z"/>
		<path d="M143.6,87.1l-4.7-3.4l-0.1,1.1l-0.2,0.3l-0.6-0.4l0.1-1.9l0.4-0.6l5.7,4.1L143.6,87.1z"/>
	</g>
</g>
</svg>
