<?xml version="1.0" encoding="utf-8"?>
<svg version="1.1" xmlns="http://www.w3.org/2000/svg" xmlns:xlink="http://www.w3.org/1999/xlink" x="0px" y="0px"
	 viewBox="0 0 199.9 56.5" style="enable-background:new 0 0 199.9 56.5;" xml:space="preserve" aria-labelledby="title-which" aria-describedby="desc-which" role="img">
<style type="text/css">
	.which-0{fill:#FFFFFF;}
</style>
<title id="title-which">Which? logo</title>
<desc id="desc-which">Which? logo</desc>
<g>
	<path class="which-0" d="M42.9,35l-5.6-23.4c-0.9-3.6-2.1-4.7-5.2-4.7h-5.7L20,35l-5.7-28H2.9l11,47.3h9.9l7.2-27l7.3,27H48L59.1,6.9
		H48.3L42.9,35z"/>
	<path class="which-0" d="M82.3,17.7c-3.8,0-8.2,1.3-10.7,3.5V11c0-2.6-0.9-4.1-3.6-4.1h-7.2v47.3h10.8V27.4c2.2-0.5,4.1-0.9,6.2-0.9
		c2.3,0,3.7,0.6,3.7,3.4v24.3h10.8V27C92.3,21.7,90.2,17.7,82.3,17.7"/>
	<rect x="95.4" y="18.6" class="which-0" width="10.8" height="35.6"/>
	<path class="which-0" d="M108.5,36.4c0,10.7,5.8,18.7,17.6,18.7c4.4,0,8.4-0.9,10.6-3v-6.8c-4.2,0.8-6.2,0.9-8.8,0.9
		c-5.6,0-8.3-3.8-8.3-9.8c0-6,2.8-9.8,8.3-9.8c2.5,0,4.5,0.1,8.8,0.9v-6.8c-2.2-2.1-6.2-3-10.6-3C114.4,17.7,108.5,25.7,108.5,36.4"
		/>
	<path class="which-0" d="M160.8,17.7c-3.8,0-8.2,1.3-10.7,3.5V11c0-2.6-0.9-4.1-3.6-4.1h-7.2v47.3h10.8V27.4c2.2-0.5,4.1-0.9,6.3-0.9
		c2.3,0,3.7,0.6,3.7,3.4v24.3h10.8V27C170.8,21.7,168.7,17.7,160.8,17.7"/>
	<path class="which-0" d="M104.3,6.9h-7c-1.3,0-2.3,1.1-2.3,2.3v4c0,1.3,1.1,2.3,2.3,2.3h7c1.3,0,2.3-1,2.3-2.3v-4
		C106.6,8,105.6,6.9,104.3,6.9"/>
	<path class="which-0" d="M182.3,2c-4.5,0-10.1,1.3-13.4,3.8v7.1c3.5-0.7,7.7-1,9.6-1c5.1,0,8.2,1.5,8.2,5.6c0,3.7-1.8,4.8-4.9,7.5
		c-3.8,3.3-7,4.8-7,11.9v4.8h4.1h6.6V38c0-4.2,2.2-5.7,5.8-8.6c4.3-3.5,6.4-7.7,6.4-13.5C197.9,7.9,192.6,2,182.3,2"/>
	<path class="which-0" d="M183.7,44.5h-6.8c-1.3,0-2.5,1.1-2.5,2.5v4.7c0,1.4,1.1,2.5,2.5,2.5h6.8c1.4,0,2.5-1.1,2.5-2.5V47
		C186.2,45.7,185.1,44.5,183.7,44.5"/>
</g>
</svg>
