<?xml version="1.0" encoding="utf-8"?>
<!-- Generator: Adobe Illustrator 23.0.1, SVG Export Plug-In . SVG Version: 6.00 Build 0)  -->
<svg version="1.1" xmlns="http://www.w3.org/2000/svg" xmlns:xlink="http://www.w3.org/1999/xlink" x="0px" y="0px"
	 viewBox="0 0 158.9795 129.4606" style="enable-background:new 0 0 158.9795 129.4606;" xml:space="preserve" aria-labelledby="title-which-recommended-supplier-2019" aria-describedby="desc-which-recommended-supplier-2019" role="img">
<style type="text/css">
	.which-recommended-supplier-2019-0{fill:#E30613;}
	.which-recommended-supplier-2019-1{fill:url(#which-recommended-supplier-2019-id-1);}
	.which-recommended-supplier-2019-2{fill:url(#which-recommended-supplier-2019-id-2);}
	.which-recommended-supplier-2019-3{fill:#1D1D1B;}
	.which-recommended-supplier-2019-4{fill:url(#which-recommended-supplier-2019-id-3);}
	.which-recommended-supplier-2019-5{fill:url(#which-recommended-supplier-2019-id-4);}
</style>
<title id="title-which-recommended-supplier-2019">Which recommended supplier 2019</title>
<desc id="desc-which-recommended-supplier-2019">Which recommended supplier 2019</desc>
<linearGradient id="which-recommended-supplier-2019-id-1" gradientUnits="userSpaceOnUse" x1="29.7182" y1="114.4494" x2="129.5504" y2="14.6172">
	<stop  offset="0" style="stop-color:#B8B8B8"/>
	<stop  offset="1" style="stop-color:#EDEDED"/>
</linearGradient>
<path class="which-recommended-supplier-2019-1" d="M1.681,64.5343c0,34.4419,34.9014,62.3599,77.9541,62.3599c43.0503,0,77.9526-27.918,77.9526-62.3599
	c0-34.4423-34.9023-62.3642-77.9526-62.3642C36.5824,2.1701,1.681,30.092,1.681,64.5343"/>
<linearGradient id="which-recommended-supplier-2019-id-2" gradientUnits="userSpaceOnUse" x1="32.2073" y1="111.9603" x2="127.0613" y2="17.1062">
	<stop  offset="0" style="stop-color:#DBDBDB"/>
	<stop  offset="1" style="stop-color:#FFFFFF"/>
</linearGradient>
<path class="which-recommended-supplier-2019-2" d="M5.224,64.5343c0,32.4849,33.3154,58.8169,74.4111,58.8169c41.0933,0,74.4097-26.332,74.4097-58.8169
	c0-32.4858-33.3164-58.8213-74.4097-58.8213C38.5394,5.713,5.224,32.0485,5.224,64.5343"/>
<g>
	<path class="which-recommended-supplier-2019-3" d="M18.4315,50.8732l-0.3779,0.9321l3.3881,1.3726L20.4486,55.63l-9.2285-3.7382l1.3603-3.3589
		c0.9624-2.3755,2.4243-3.1807,4.27-2.4331c1.1602,0.4697,1.7759,1.2988,1.9273,2.3266l4.0674-0.4184l0.5932,0.2402l-0.9204,2.2734
		L18.4315,50.8732z M16.3954,51.1632l0.3154-0.7788c0.3672-0.9067,0.1059-1.4736-0.7114-1.8047
		c-0.8174-0.331-1.3999-0.1059-1.7671,0.8008l-0.3155,0.7788L16.3954,51.1632z"/>
	<path class="which-recommended-supplier-2019-3" d="M22.183,44.5314c1.125,0.5942,1.7163,0.2925,2.27-0.5464c0.4477-0.6782,0.5796-1.3169,0.5532-1.8457
		l0.4248-0.6435l1.27,0.8393c-0.04,0.7324-0.2016,1.6489-1.0356,2.9126c-1.3877,2.1026-3.3194,2.3941-5.2901,1.0923
		c-2.0058-1.3252-2.4301-3.4209-1.2246-5.2476c1.2437-1.8842,2.9136-2.1669,5.0269-0.771c0.249,0.1646,0.4595,0.3365,0.5307,0.3838
		L22.183,44.5314z M21.0746,43.7824l1.2441-1.8843c-0.9844-0.6006-1.4981-0.4946-1.8618,0.0571
		C20.1458,42.4264,20.1297,42.9933,21.0746,43.7824z"/>
	<path class="which-recommended-supplier-2019-3" d="M24.9115,39.6364c-1.7901-1.6465-1.7388-3.8447-0.1353-5.5874c0.7178-0.7798,1.419-1.1641,1.9444-1.3355
		l1.2875,1.1841l-0.6059,0.6587c-0.355,0.0288-0.8208,0.1987-1.2222,0.6348c-0.643,0.6987-0.5879,1.6474,0.4585,2.6103
		c1.0469,0.9629,1.9175,0.9405,2.5611,0.2417c0.5034-0.5473,0.5854-1.0146,0.5918-1.4204l0.559-0.6079l1.1831,1.0879
		c-0.0869,0.5566-0.374,1.415-1.1757,2.2861C28.7166,41.172,26.7328,41.3117,24.9115,39.6364z"/>
	<path class="which-recommended-supplier-2019-3" d="M29.6131,34.5417c-1.5317-1.854-1.1875-4.0762,0.501-5.4712c1.6777-1.3863,3.9253-1.3047,5.457,0.5493
		c1.5225,1.8432,1.1426,4.0215-0.5356,5.4077C33.347,36.4225,31.1361,36.3849,29.6131,34.5417z M33.6566,31.2384
		c-0.9522-1.1518-1.8115-1.3276-2.4277-0.8188c-0.6265,0.5176-0.6163,1.3955,0.3354,2.5474
		c0.9424,1.1411,1.7754,1.2836,2.4019,0.7661C34.5819,33.2243,34.599,32.3796,33.6566,31.2384z"/>
	<path class="which-recommended-supplier-2019-3" d="M36.8016,25.3839c0.2539-0.8227,0.7749-1.6528,1.6436-2.1582c0.6904-0.4018,1.4213-0.5146,2.0722,0.0284
		c0.273-0.8995,0.8555-1.7329,1.7124-2.2315c0.9165-0.5332,1.917-0.5395,2.7329,0.8628l2.7622,4.7471l-2.1425,1.2471l-2.4258-4.1695
		c-0.315-0.541-0.6172-0.5957-1.1172-0.3047c-0.3452,0.2012-0.6211,0.4937-0.8257,0.7442l2.7266,4.686l-2.1426,1.2466l-2.4258-4.169
		c-0.3149-0.541-0.6177-0.5957-1.1172-0.3046c-0.3452,0.2006-0.6093,0.4863-0.833,0.7319l2.7339,4.6977l-2.1426,1.2471
		l-3.7715-6.4814l1.4878-0.8658C36.0628,24.7443,36.3436,24.7614,36.8016,25.3839z"/>
	<path class="which-recommended-supplier-2019-3" d="M48.7801,19.1838c0.398-0.7632,1.0601-1.4859,2.0059-1.8267c0.751-0.2705,1.4907-0.25,2.0327,0.4014
		c0.4307-0.8355,1.1538-1.5498,2.0869-1.8863c0.9971-0.3593,1.9824-0.185,2.5317,1.3404l1.8614,5.1655l-2.3321,0.8403
		l-1.6342-4.5361c-0.2124-0.5889-0.5-0.6968-1.044-0.501c-0.376,0.1353-0.7002,0.3731-0.9463,0.583l1.8369,5.0987l-2.332,0.8403
		l-1.6343-4.5366c-0.2124-0.5884-0.5-0.6968-1.0439-0.5005c-0.376,0.1352-0.687,0.3686-0.9512,0.5698l1.8418,5.1118l-2.3315,0.8403
		l-2.5415-7.0522l1.6196-0.5835C48.1688,18.4215,48.4417,18.4894,48.7801,19.1838z"/>
	<path class="which-recommended-supplier-2019-3" d="M61.5218,18.7536c0.3911,1.2109,1.0264,1.4077,2.0088,1.1938c0.794-0.1728,1.3345-0.5381,1.6851-0.935
		l0.7534-0.1641l0.3252,1.4873c-0.5405,0.4966-1.2959,1.0396-2.7764,1.3618c-2.4629,0.5362-4.0508-0.6035-4.5552-2.9111
		c-0.5131-2.3491,0.6455-4.145,2.7857-4.6108c2.207-0.4805,3.6015,0.4829,4.1421,2.957c0.0639,0.292,0.0947,0.562,0.1128,0.6455
		L61.5218,18.7536z M61.2498,17.444l2.2071-0.4805c-0.2866-1.1172-0.7285-1.3994-1.3745-1.2588
		C61.5306,15.8249,61.1229,16.2194,61.2498,17.444z"/>
	<path class="which-recommended-supplier-2019-3" d="M69.1405,13.9523c0.5815-0.6235,1.4326-1.1914,2.4863-1.3101c1.0815-0.122,2.0083,0.2315,2.1938,1.8848
		l0.6124,5.4541l-2.4634,0.2774l-0.5381-4.7901c-0.0728-0.6499-0.3521-0.79-0.9404-0.7236
		c-0.4517,0.0508-0.8345,0.2226-1.1641,0.374l0.603,5.3692l-2.4638,0.2778l-0.836-7.4468l1.711-0.1924
		C68.7245,13.0837,68.9608,13.214,69.1405,13.9523z"/>
	<path class="which-recommended-supplier-2019-3" d="M79.8626,19.0973c-0.434,0.503-1.0893,0.9234-2.0805,0.9356c-1.6377,0.02-2.9058-1.1592-2.939-3.7334
		c-0.0381-2.958,1.5181-3.9868,2.9634-4.0044c0.9219-0.0113,1.4487,0.2524,1.8945,0.688l-0.039-3.0576l1.5683-0.0191
		c0.7715-0.0093,0.9121,0.2022,0.9258,1.3257l0.1113,8.6182l-1.748,0.021C80.1888,19.8756,79.9808,19.7218,79.8626,19.0973z
		 M79.764,17.861l-0.0444-3.4272c-0.2637-0.1675-0.5811-0.2491-0.9805-0.2442c-0.7295,0.0088-1.4131,0.3731-1.3916,2.0225
		c0.02,1.5644,0.4541,2.1279,1.2798,2.1181C79.0814,18.3244,79.3963,18.1784,79.764,17.861z"/>
	<path class="which-recommended-supplier-2019-3" d="M85.4735,16.904c0.0166,1.2719,0.5644,1.6474,1.5654,1.7334c0.8106,0.0693,1.4336-0.1202,1.8858-0.3955
		l0.7685,0.0659l-0.1289,1.5166c-0.6621,0.3144-1.5449,0.6103-3.0537,0.4809c-2.5108-0.2148-3.6904-1.7724-3.4902-4.1255
		c0.2041-2.3955,1.8408-3.769,4.0214-3.582c2.2491,0.1924,3.2969,1.5244,3.083,4.0479c-0.0253,0.2973-0.0761,0.5644-0.0839,0.6494
		L85.4735,16.904z M85.6004,15.5729l2.2491,0.1924c0.0566-1.1519-0.2813-1.5518-0.9405-1.6084
		C86.3465,14.1086,85.8416,14.3654,85.6004,15.5729z"/>
	<path class="which-recommended-supplier-2019-3" d="M95.578,20.7375c-0.5274,0.4043-1.2549,0.6836-2.2285,0.4946c-1.6084-0.3125-2.6114-1.7241-2.1231-4.251
		c0.5615-2.9043,2.2949-3.5962,3.7149-3.3208c0.9052,0.1758,1.3671,0.541,1.7168,1.0576l0.58-3.0019l1.541,0.2993
		c0.7579,0.147,0.8516,0.3828,0.6387,1.4858l-1.6367,8.461l-1.7168-0.3335C95.7401,21.5656,95.5663,21.3727,95.578,20.7375z
		 M95.7313,19.507l0.6514-3.3648c-0.2246-0.2177-0.5196-0.3618-0.9121-0.4379c-0.7168-0.1387-1.459,0.0791-1.7735,1.6982
		c-0.2969,1.5361,0.0147,2.1758,0.8262,2.3335C94.9686,19.8224,95.3065,19.7433,95.7313,19.507z"/>
	<path class="which-recommended-supplier-2019-3" d="M104.9784,13.6208l3.3369,1.1801c2.4678,0.8726,3.372,2.2793,2.6318,4.3716
		c-0.7265,2.0523-2.3965,2.563-4.8769,1.6856l-0.7539-0.2666l-1.167,3.2998l-2.4932-0.8819L104.9784,13.6208z M105.8729,18.9777
		l0.7539,0.2661c1.0117,0.3584,1.54-0.0586,1.8477-0.9307c0.3144-0.8852,0.1767-1.4467-0.875-1.8188l-0.7539-0.2661
		L105.8729,18.9777z"/>
	<path class="which-recommended-supplier-2019-3" d="M113.5467,22.2116l-2.1523,4.6162l-2.2471-1.0493l3.169-6.7949l1.5595,0.7285
		c0.3496,0.1631,0.4893,0.417,0.2041,1.2256c0.7012-0.3633,1.4668-0.5079,2.2657-0.1348c0.1386,0.0644,0.2636,0.1543,0.3759,0.2383
		l-0.8662,1.8564l-0.2988-0.1396C114.7069,22.3615,113.9803,22.2262,113.5467,22.2116z"/>
	<path class="which-recommended-supplier-2019-3" d="M115.576,24.6335c1.2324-2.066,3.4414-2.4893,5.3223-1.3682c1.8681,1.1138,2.5449,3.2573,1.3125,5.3227
		c-1.2256,2.0533-3.4043,2.4278-5.2735,1.314C115.0575,28.7809,114.3514,26.6867,115.576,24.6335z M120.0438,27.3293
		c0.7666-1.2832,0.6435-2.1519-0.043-2.5606c-0.6982-0.416-1.5205-0.1113-2.2861,1.1719c-0.7598,1.2715-0.6143,2.103,0.084,2.519
		C118.4842,28.8688,119.285,28.6007,120.0438,27.3293z"/>
	<path class="which-recommended-supplier-2019-3" d="M124.2245,26.0993l0.3564-0.461l1.874,1.4512l-1.6347,4.6533l0.0214,0.0171l4-2.8222l1.6661,1.291
		l-0.3575,0.4609l-6.1953,3.9468l-1.9394-1.502L124.2245,26.0993z"/>
	<path class="which-recommended-supplier-2019-3" d="M126.159,36.5216l5.1631-5.436l1.1582,1.0991c0.541,0.5117,0.4541,0.7827-0.3594,1.6387l-4.1728,4.3945
		L126.159,36.5216z M132.4276,29.8605c0.4805-0.5054,1.2324-0.4975,1.7627,0.0044c0.54,0.5117,0.5771,1.2529,0.0967,1.7583
		c-0.4805,0.5054-1.2129,0.4971-1.752-0.0146C132.0047,31.1061,131.9481,30.3659,132.4276,29.8605z"/>
	<path class="which-recommended-supplier-2019-3" d="M132.3573,41.9943c-0.6641-0.0225-1.4024-0.2686-2.0342-1.0317c-1.044-1.2622-0.9229-2.9888,1.0605-4.6289
		c2.2784-1.8853,4.0577-1.3199,4.9776-0.2066c0.5879,0.7105,0.7138,1.2857,0.6543,1.9063l2.3554-1.9488l1.001,1.209
		c0.4912,0.5938,0.4151,0.8355-0.4502,1.5518l-6.6396,5.4926l-1.1143-1.3466C131.9569,42.7365,131.9461,42.4777,132.3573,41.9943z
		 M133.2577,41.1422l2.6406-2.1845c-0.0352-0.3101-0.1709-0.6084-0.4258-0.916c-0.4648-0.5621-1.1777-0.8658-2.4482,0.1855
		c-1.2051,0.9971-1.3711,1.6885-0.8448,2.3247C132.4686,40.902,132.7811,41.0548,133.2577,41.1422z"/>
	<path class="which-recommended-supplier-2019-3" d="M137.576,45.3337c-1.041,0.7299-1.0429,1.394-0.5488,2.2695c0.3984,0.708,0.9062,1.1167,1.3887,1.3349
		l0.3789,0.6714l-1.3262,0.7481c-0.6328-0.3701-1.375-0.9321-2.1182-2.2515c-1.2373-2.1948-0.6152-4.0469,1.4414-5.207
		c2.0948-1.1812,4.1514-0.6026,5.2256,1.3042c1.1094,1.9673,0.5987,3.5825-1.6074,4.8266c-0.2598,0.1465-0.5078,0.2554-0.583,0.2974
		L137.576,45.3337z M138.7479,44.6886l1.1084,1.9668c0.9834-0.602,1.123-1.1074,0.7978-1.6831
		C140.3778,44.4806,139.8807,44.2077,138.7479,44.6886z"/>
	<path class="which-recommended-supplier-2019-3" d="M142.9061,52.3127l-4.8066,1.6826l-0.8184-2.3404l7.0762-2.4765l0.5683,1.625
		c0.127,0.3637,0.043,0.6411-0.7343,1.0014c0.749,0.2481,1.3886,0.6958,1.6796,1.5279c0.0489,0.143,0.0723,0.2954,0.0918,0.4345
		l-1.9336,0.6768l-0.1093-0.312C143.6102,53.2482,143.1991,52.633,142.9061,52.3127z"/>
</g>
<linearGradient id="which-recommended-supplier-2019-id-3" gradientUnits="userSpaceOnUse" x1="45.7762" y1="98.391" x2="113.4921" y2="30.6751">
	<stop  offset="0" style="stop-color:#FFFFFF"/>
	<stop  offset="1" style="stop-color:#D1D1D1"/>
</linearGradient>
<path class="which-recommended-supplier-2019-4" d="M24.3587,64.5343c0,21.5103,25.3135,39.6822,55.2754,39.6822c29.9615,0,55.2759-18.1719,55.2759-39.6822
	c0-21.5117-25.3144-39.6875-55.2759-39.6875C49.6722,24.8468,24.3587,43.0226,24.3587,64.5343"/>
<linearGradient id="which-recommended-supplier-2019-id-4" gradientUnits="userSpaceOnUse" x1="48.2312" y1="95.9358" x2="111.0374" y2="33.1297">
	<stop  offset="0" style="stop-color:#DBDBDB"/>
	<stop  offset="1" style="stop-color:#FFFFFF"/>
</linearGradient>
<path class="which-recommended-supplier-2019-5" d="M27.9017,64.5343c0,19.5884,23.6914,36.1392,51.7324,36.1392c28.0415,0,51.7329-16.5508,51.7329-36.1392
	c0-19.5918-23.6914-36.144-51.7329-36.144C51.5931,28.3903,27.9017,44.9425,27.9017,64.5343"/>
<g>
	<path class="which-recommended-supplier-2019-0" d="M57.0775,65.5168l-2.1856-9.1622c-0.3418-1.4179-0.8261-1.8398-2.0234-1.8398h-2.2363l-2.5547,11.002
		l-2.2403-11.002h-4.4707l4.3125,18.5396h3.8907l2.8222-10.604l2.875,10.604h3.8067l4.3711-18.5396H59.183L57.0775,65.5168z"/>
	<path class="which-recommended-supplier-2019-0" d="M72.5501,58.7218c-1.4902,0-3.2226,0.5059-4.205,1.3555v-3.9668c0-1.0117-0.3516-1.5957-1.4161-1.5957h-2.8242
		v18.5396h4.2403V62.5265c0.8476-0.2109,1.6211-0.3457,2.4472-0.3457c0.9063,0,1.4414,0.2442,1.4414,1.334v9.5396h4.2325V62.3703
		C76.4662,60.2921,75.6419,58.7218,72.5501,58.7218"/>
	<rect x="77.6615" y="59.0949" class="which-recommended-supplier-2019-0" width="4.2348" height="13.9595"/>
	<path class="which-recommended-supplier-2019-0" d="M82.826,66.0739c0,4.1816,2.293,7.3516,6.9043,7.3516c1.7266,0,3.3008-0.3477,4.1778-1.1758v-2.6621
		c-1.6504,0.3164-2.4512,0.3457-3.4336,0.3457c-2.1856,0-3.2715-1.4883-3.2715-3.8594c0-2.3716,1.0859-3.8599,3.2715-3.8599
		c0.9824,0,1.7832,0.0254,3.4336,0.3438v-2.668c-0.877-0.8223-2.4512-1.168-4.1778-1.168
		C85.119,58.7218,82.826,61.8898,82.826,66.0739"/>
	<path class="which-recommended-supplier-2019-0" d="M103.3377,58.7218c-1.4921,0-3.2246,0.5059-4.2089,1.3555v-3.9668c0-1.0117-0.3438-1.5957-1.4082-1.5957
		h-2.8243v18.5396h4.2325V62.5265c0.8554-0.2109,1.623-0.3457,2.4531-0.3457c0.9023,0,1.4336,0.2442,1.4336,1.334v9.5396h4.2343
		V62.3703C107.2498,60.2921,106.4256,58.7218,103.3377,58.7218"/>
	<path class="which-recommended-supplier-2019-0" d="M81.162,54.5148h-2.7603c-0.5,0-0.9141,0.4121-0.9141,0.916v1.5586c0,0.502,0.4141,0.9102,0.9141,0.9102
		h2.7603c0.5078,0,0.9121-0.4082,0.9121-0.9102v-1.5586C82.0741,54.9269,81.6698,54.5148,81.162,54.5148"/>
	<path class="which-recommended-supplier-2019-3" d="M111.7831,52.5714c-1.7579,0-3.9708,0.5059-5.25,1.4903v2.7695c1.3847-0.2891,3.0351-0.4004,3.7792-0.4004
		c2,0,3.2188,0.586,3.2188,2.1875c0,1.459-0.7148,1.8906-1.9082,2.9238c-1.4727,1.2774-2.7461,1.8672-2.7461,4.6626v1.8887h1.625
		h2.6074v-1.3887c0-1.643,0.8555-2.2309,2.2656-3.3754c1.7032-1.3848,2.5274-3.0137,2.5274-5.2793
		C117.9022,54.8879,115.8241,52.5714,111.7831,52.5714"/>
	<path class="which-recommended-supplier-2019-3" d="M112.3221,69.2692h-2.6601c-0.5235,0-0.9688,0.4375-0.9688,0.9688v1.8437
		c0,0.5332,0.4453,0.9727,0.9688,0.9727h2.6601c0.5352,0,0.9668-0.4395,0.9668-0.9727V70.238
		C113.2889,69.7067,112.8573,69.2692,112.3221,69.2692"/>
</g>
<g>
	<path class="which-recommended-supplier-2019-3" d="M22.974,89.2887l-1.5312-2.1426l-1.9761,1.4121l1.7065,2.3887l-0.5938,0.4238l-2.2148-3.0996l5.4814-3.918
		l2.1274,2.9766l-0.5938,0.4238l-1.6191-2.2646l-1.7319,1.2383l1.5308,2.1426L22.974,89.2887z"/>
	<path class="which-recommended-supplier-2019-3" d="M24.1322,90.1657c0.3745-0.3311,0.6753-0.6094,0.9551-0.8975l0.52,0.5879l-0.5659,0.5674l0.0132,0.0156
		c0.5044-0.124,1.2153,0,1.7485,0.6035c0.4468,0.5039,0.8408,1.5527-0.4028,2.6523l-2.1655,1.9141l-0.5864-0.6631l2.0898-1.8477
		c0.5845-0.5166,0.8784-1.165,0.3247-1.792c-0.3867-0.4365-0.9941-0.5039-1.4609-0.293c-0.1094,0.043-0.2349,0.127-0.3472,0.2266
		l-2.1802,1.9268l-0.5869-0.6631L24.1322,90.1657z"/>
	<path class="which-recommended-supplier-2019-3" d="M27.4481,95.611c-0.7969,0.8848-0.5708,1.7646,0.0776,2.3672c0.4644,0.4316,0.8193,0.6113,1.1582,0.7354
		l-0.3193,0.5645c-0.3237-0.1104-0.8237-0.3564-1.3911-0.8838c-1.0981-1.0205-1.0854-2.3477-0.0898-3.418
		c0.9961-1.0684,2.4141-1.3223,3.4531-0.3555c1.1646,1.082,0.5259,2.3887-0.0811,3.04c-0.1226,0.1318-0.2329,0.2197-0.3018,0.2793
		L27.4481,95.611z M29.7796,96.9176c0.3892-0.4043,0.8057-1.2051,0.0762-1.8838c-0.6562-0.6104-1.5029-0.2764-1.9707,0.1221
		L29.7796,96.9176z"/>
	<path class="which-recommended-supplier-2019-3" d="M31.6185,97.9186c0.3574-0.4434,0.6572-0.8311,0.916-1.2002l0.6025,0.4863l-0.5723,0.7578l0.0312,0.0254
		c0.5801-0.3672,1.252-0.3506,1.7139,0.0215c0.0781,0.0635,0.1265,0.1152,0.1768,0.1816l-0.5205,0.6465
		c-0.0581-0.0723-0.1221-0.1377-0.2163-0.2129c-0.4849-0.3926-1.1245-0.3047-1.6323,0.1328
		c-0.0908,0.082-0.1943,0.1777-0.2881,0.2949l-1.6182,2.0078l-0.6812-0.5508L31.6185,97.9186z"/>
	<path class="which-recommended-supplier-2019-3" d="M38.5023,101.1403c-0.2163,0.2754-0.4556,0.585-0.792,1.0684l-1.6035,2.3076
		c-0.6338,0.9111-1.2031,1.3428-1.8311,1.417c-0.6392,0.0918-1.2803-0.1855-1.7837-0.5361c-0.479-0.333-0.9272-0.8174-1.1011-1.2549
		l0.564-0.4229c0.1504,0.3486,0.4604,0.7842,0.9556,1.1279c0.7427,0.5186,1.5562,0.5117,2.252-0.4893l0.3086-0.4434l-0.0166-0.0107
		c-0.48,0.2129-1.1147,0.21-1.7334-0.2217c-0.9907-0.6904-1.1187-2.0225-0.354-3.1221c0.936-1.3467,2.3501-1.4941,3.2661-0.8555
		c0.6934,0.4824,0.8223,1.1084,0.7671,1.5576l0.0166,0.0117l0.4497-0.5771L38.5023,101.1403z M36.661,102.1852
		c0.0854-0.123,0.1514-0.2363,0.187-0.3574c0.1592-0.5107,0.0435-1.1025-0.4849-1.4707c-0.6934-0.4834-1.5938-0.2461-2.2329,0.6738
		c-0.542,0.7793-0.5967,1.7051,0.1875,2.251c0.4458,0.3105,1.0444,0.3135,1.521-0.0371c0.1265-0.0947,0.2402-0.2217,0.3257-0.3457
		L36.661,102.1852z"/>
	<path class="which-recommended-supplier-2019-3" d="M40.016,102.0621l-0.5239,3.0088c-0.0659,0.332-0.1538,0.7217-0.231,1.0127l0.0176,0.0098
		c0.2246-0.2051,0.498-0.4736,0.7793-0.7148l2.2676-1.9648l0.8076,0.4727l-2.8887,2.3086c-1.3853,1.1133-2.188,1.6289-2.9717,1.7734
		c-0.5649,0.1094-1.0142,0.0215-1.2256-0.0566l0.1831-0.75c0.2261,0.0508,0.5488,0.0771,0.8857,0.0195
		c0.3042-0.043,0.7363-0.1836,1.1372-0.4707c0.0801-0.0566,0.1416-0.1025,0.167-0.1465c0.0249-0.043,0.043-0.1133,0.064-0.2285
		l0.6982-4.7617L40.016,102.0621z"/>
	<path class="which-recommended-supplier-2019-3" d="M48.1351,111.3649c-0.3594,0.0137-1.0122-0.1055-1.7642-0.4434c-1.7427-0.7871-2.5596-2.4707-1.6489-4.4844
		c0.8691-1.9219,2.77-2.6328,4.6865-1.7695c0.77,0.3477,1.1821,0.7305,1.3438,0.9355l-0.4854,0.5605
		c-0.2368-0.2832-0.6182-0.5859-1.1318-0.8184c-1.4487-0.6523-2.8276-0.167-3.5571,1.4453
		c-0.6797,1.5029-0.2451,2.8613,1.2588,3.5391c0.4858,0.2197,1.0264,0.3428,1.4175,0.332L48.1351,111.3649z"/>
	<path class="which-recommended-supplier-2019-3" d="M54.1771,111.2125c-0.6118,1.6826-2.0498,1.9883-3.1548,1.585c-1.2373-0.4521-1.8633-1.7021-1.3403-3.1406
		c0.5537-1.5225,1.8799-2.0498,3.1455-1.5879C54.14,108.5485,54.6829,109.8219,54.1771,111.2125z M50.533,109.9352
		c-0.3623,0.9961-0.0596,1.959,0.7524,2.2559c0.7935,0.2891,1.6587-0.2363,2.0312-1.2598c0.2803-0.7715,0.2485-1.8906-0.7339-2.249
		S50.8475,109.0709,50.533,109.9352z"/>
	<path class="which-recommended-supplier-2019-3" d="M55.6678,110.6032c0.1284-0.4834,0.2236-0.8828,0.2974-1.2773l0.748,0.1992l-0.1611,0.7637l0.0293,0.0078
		c0.3804-0.375,0.9282-0.6748,1.7056-0.4688c0.6416,0.1699,1.0249,0.6865,1.083,1.292l0.0195,0.0049
		c0.2148-0.2227,0.4536-0.377,0.6865-0.4707c0.3379-0.1367,0.6797-0.1709,1.127-0.0527c0.6221,0.166,1.438,0.8164,1.0073,2.4414
		l-0.731,2.7578l-0.8359-0.2217l0.7026-2.6514c0.2383-0.8984,0.0513-1.5293-0.6387-1.7119c-0.4858-0.1289-0.96,0.1279-1.2158,0.5059
		c-0.0698,0.1064-0.1401,0.2529-0.1812,0.4072l-0.7661,2.8926l-0.8359-0.2207l0.7432-2.8066
		c0.1973-0.7441,0.0107-1.373-0.6406-1.5469c-0.5347-0.1416-1.0361,0.1816-1.2852,0.5703c-0.082,0.1133-0.1396,0.2529-0.1782,0.3984
		l-0.7485,2.8242l-0.8359-0.2207L55.6678,110.6032z"/>
	<path class="which-recommended-supplier-2019-3" d="M63.7918,112.9c0.105-0.6113,0.1694-1.1074,0.2275-1.5645l0.7837,0.1348l-0.1011,0.8242l0.02,0.0039
		c0.457-0.5215,1.0815-0.7695,1.8652-0.6357c1.1602,0.1982,1.8657,1.3232,1.6167,2.7725c-0.2949,1.7148-1.4917,2.3828-2.6226,2.1895
		c-0.6348-0.1074-1.1426-0.4785-1.3491-1.001l-0.02-0.0029l-0.4453,2.5918l-0.8628-0.1475L63.7918,112.9z M64.4359,114.319
		c-0.022,0.1279-0.0225,0.25-0.021,0.3623c0.0552,0.6279,0.5098,1.1309,1.1348,1.2383c0.9224,0.1572,1.5864-0.5,1.7744-1.5938
		c0.1646-0.957-0.2007-1.8613-1.123-2.0195c-0.5952-0.1016-1.2236,0.2285-1.5039,0.8496c-0.0483,0.1035-0.1001,0.2266-0.1206,0.3457
		L64.4359,114.319z"/>
	<path class="which-recommended-supplier-2019-3" d="M71.89,117.3375l-0.0078-0.6133l-0.0303-0.0039c-0.3091,0.3496-0.8643,0.6348-1.5552,0.5625
		c-0.981-0.1016-1.4106-0.8398-1.3394-1.5361c0.1196-1.1631,1.2261-1.6924,3.0972-1.4893l0.0103-0.0996
		c0.041-0.3965,0.0044-1.125-0.9868-1.2275c-0.4502-0.0469-0.9351,0.0439-1.2979,0.2275l-0.1411-0.5977
		c0.4272-0.2168,1.0249-0.3262,1.6357-0.2637c1.4814,0.1543,1.7383,1.1963,1.6392,2.1611l-0.1851,1.8008
		c-0.043,0.418-0.0645,0.8271-0.0381,1.1631L71.89,117.3375z M72.0121,114.8668c-0.959-0.1191-2.0674-0.0635-2.1636,0.8721
		c-0.0581,0.5674,0.2949,0.875,0.7451,0.9209c0.6309,0.0664,1.0718-0.291,1.2539-0.6836c0.0396-0.0859,0.0693-0.1836,0.0786-0.2734
		L72.0121,114.8668z"/>
	<path class="which-recommended-supplier-2019-3" d="M74.4012,114.0114c0.019-0.5,0.0249-0.9102,0.0098-1.3105l0.7842,0.0312l0.02,0.8008l0.02,0.001
		c0.2588-0.4502,0.8394-0.8779,1.6436-0.8467c0.6738,0.0273,1.7041,0.4688,1.6411,2.127l-0.1104,2.8887l-0.8848-0.0352
		l0.1064-2.7881c0.0298-0.7803-0.2373-1.4404-1.0718-1.4736c-0.5835-0.0234-1.0513,0.3691-1.2207,0.8525
		c-0.0444,0.1084-0.0703,0.2568-0.0762,0.4072l-0.1108,2.9082l-0.8853-0.0352L74.4012,114.0114z"/>
	<path class="which-recommended-supplier-2019-3" d="M80.91,111.4743c0.0146,0.2998-0.2031,0.543-0.5552,0.5469c-0.3115,0.0049-0.5361-0.2324-0.5405-0.5312
		c-0.0039-0.3105,0.2241-0.5527,0.5459-0.5576C80.6913,110.9274,80.9061,111.1647,80.91,111.4743z M80.0101,117.6842l-0.0664-4.8369
		l0.8843-0.0117l0.0674,4.8369L80.0101,117.6842z"/>
	<path class="which-recommended-supplier-2019-3" d="M82.9081,115.3698c0.0859,1.1865,0.876,1.6338,1.7598,1.585c0.6328-0.0342,1.0078-0.165,1.332-0.3223
		l0.1846,0.6201c-0.3037,0.1572-0.8271,0.3447-1.6006,0.3877c-1.4951,0.082-2.4434-0.8477-2.5234-2.3047
		s0.7207-2.6514,2.1367-2.7285c1.5859-0.0869,2.084,1.2773,2.1328,2.165c0.0098,0.1797-0.002,0.3203-0.0078,0.4111L82.9081,115.3698
		z M85.4647,114.5993c-0.0215-0.5596-0.3096-1.4141-1.3037-1.3594c-0.8936,0.0488-1.2402,0.8887-1.2764,1.5L85.4647,114.5993z"/>
	<path class="which-recommended-supplier-2019-3" d="M87.575,116.4205c0.2783,0.1396,0.7588,0.2676,1.1982,0.2178c0.6387-0.0703,0.9043-0.4219,0.8594-0.8193
		c-0.0449-0.417-0.3203-0.6182-0.9961-0.7842c-0.9043-0.2109-1.3672-0.6416-1.4297-1.2178
		c-0.0859-0.7744,0.4727-1.4814,1.5117-1.5967c0.4902-0.0547,0.9355,0.0371,1.2227,0.166l-0.1494,0.6602
		c-0.2031-0.0986-0.5703-0.2188-1.0205-0.168c-0.5195,0.0576-0.7764,0.3877-0.7363,0.7461c0.043,0.3965,0.3535,0.543,1.0098,0.7109
		c0.874,0.2246,1.3496,0.5938,1.4297,1.3086c0.0928,0.8457-0.501,1.5146-1.6504,1.6426c-0.5293,0.0586-1.0332-0.0156-1.3945-0.1758
		L87.575,116.4205z"/>
	<path class="which-recommended-supplier-2019-3" d="M94.2909,109.5582l0.8613-0.1621l0.832,4.4316c0.3301,1.7598-0.4375,2.4629-1.585,2.6797
		c-0.3164,0.0596-0.7148,0.0625-0.9492,0.0156l-0.0029-0.7217c0.1914,0.0352,0.459,0.0459,0.7461-0.0088
		c0.7715-0.1445,1.1621-0.5742,0.918-1.8711L94.2909,109.5582z"/>
	<path class="which-recommended-supplier-2019-3" d="M100.5897,115.0582l-0.2119-0.5762l-0.0293,0.0078c-0.1738,0.4336-0.6016,0.8867-1.2754,1.0518
		c-0.957,0.2334-1.6084-0.3184-1.7744-0.999c-0.2764-1.1367,0.5879-2.0068,2.416-2.4414l-0.0234-0.0977
		c-0.0938-0.3887-0.3721-1.0625-1.3389-0.8271c-0.4395,0.1074-0.8652,0.3545-1.1455,0.6494l-0.332-0.5156
		c0.3291-0.3477,0.8555-0.6514,1.4512-0.7969c1.4453-0.3516,2.0352,0.5449,2.2646,1.4863l0.4287,1.7598
		c0.0996,0.4082,0.2148,0.8027,0.3516,1.1094L100.5897,115.0582z M99.8788,112.6891c-0.9414,0.209-1.9668,0.6328-1.7441,1.5469
		c0.1348,0.5547,0.5703,0.7266,1.0098,0.6191c0.6152-0.1504,0.9111-0.6348,0.9512-1.0664c0.0078-0.0938,0.0039-0.1963-0.0176-0.2832
		L99.8788,112.6891z"/>
	<path class="which-recommended-supplier-2019-3" d="M101.8631,111.0739c-0.1514-0.4766-0.2852-0.8652-0.4336-1.2363l0.748-0.2373l0.2891,0.7471l0.0195-0.0059
		c0.0918-0.5117,0.4932-1.1104,1.2607-1.3535c0.6436-0.2031,1.7627-0.1377,2.2637,1.4453l0.873,2.7559l-0.8447,0.2676
		l-0.8428-2.6602c-0.2354-0.7441-0.71-1.2764-1.5068-1.0244c-0.5566,0.1768-0.8652,0.7041-0.8613,1.2168
		c-0.0039,0.1172,0.0215,0.2666,0.0664,0.4092l0.8799,2.7754l-0.8447,0.2676L101.8631,111.0739z"/>
	<path class="which-recommended-supplier-2019-3" d="M111.7498,109.8971c0.1855,0.4648,0.3574,0.8701,0.5254,1.2119l-0.7295,0.291l-0.3389-0.7168l-0.0176,0.0078
		c-0.0723,0.4482-0.3604,1.1113-1.165,1.4316c-0.7109,0.2832-1.7178,0.2324-2.3447-1.3477l-1.0449-2.6299l0.8223-0.3271
		l0.9902,2.4902c0.3398,0.8545,0.8301,1.3262,1.5791,1.0293c0.5518-0.2207,0.7842-0.7539,0.79-1.1758
		c-0.002-0.1396-0.0332-0.2988-0.0918-0.4482l-1.0967-2.7598l0.8232-0.3271L111.7498,109.8971z"/>
	<path class="which-recommended-supplier-2019-3" d="M116.2733,109.2321l-0.3291-0.5186l-0.0273,0.0127c-0.0791,0.4609-0.4033,0.9941-1.0283,1.2969
		c-0.8887,0.4287-1.6416,0.0273-1.9453-0.6035c-0.5098-1.0527,0.1543-2.085,1.8535-2.8945l-0.043-0.0898
		c-0.1738-0.3604-0.5859-0.9609-1.4844-0.5273c-0.4082,0.1973-0.7725,0.5293-0.9844,0.876l-0.4336-0.4346
		c0.249-0.4092,0.7012-0.8164,1.2539-1.083c1.3408-0.6484,2.1064,0.1035,2.5283,0.9766l0.7871,1.6299
		c0.1826,0.3779,0.3799,0.7383,0.5771,1.0088L116.2733,109.2321z M115.0809,107.0651c-0.8789,0.4023-1.793,1.0322-1.3838,1.8789
		c0.248,0.5127,0.709,0.5898,1.1172,0.3936c0.5703-0.2764,0.7598-0.8115,0.708-1.2422c-0.0117-0.0938-0.0371-0.1934-0.0762-0.2734
		L115.0809,107.0651z"/>
	<path class="which-recommended-supplier-2019-3" d="M116.7303,105.2438c-0.2764-0.498-0.5234-0.9219-0.7676-1.3008l0.6768-0.375l0.4873,0.8154l0.0352-0.0195
		c-0.1221-0.6748,0.1445-1.293,0.6641-1.5811c0.0879-0.0488,0.1543-0.0742,0.2344-0.0957l0.4023,0.7256
		c-0.0889,0.0264-0.1729,0.0615-0.2783,0.1201c-0.5449,0.3027-0.7041,0.9287-0.4893,1.5645
		c0.041,0.1152,0.0918,0.2471,0.1641,0.3779l1.252,2.2559l-0.7646,0.4248L116.7303,105.2438z"/>
	<path class="which-recommended-supplier-2019-3" d="M119.3905,101.986l2.4414,1.8281c0.2666,0.209,0.5732,0.4639,0.7979,0.6641l0.0166-0.0107
		c-0.0801-0.293-0.1953-0.6582-0.2832-1.0176l-0.7207-2.9092l0.7871-0.5059l0.7461,3.6182c0.3633,1.7373,0.459,2.6865,0.2305,3.4492
		c-0.1582,0.5537-0.4414,0.9131-0.6055,1.0654l-0.5859-0.502c0.1484-0.1787,0.3184-0.4531,0.4189-0.7793
		c0.1006-0.291,0.1709-0.7402,0.0977-1.2266c-0.0146-0.0977-0.0273-0.1719-0.0537-0.2148c-0.0273-0.042-0.082-0.0898-0.1758-0.1602
		l-3.9248-2.7773L119.3905,101.986z"/>
	<path class="which-recommended-supplier-2019-3" d="M127.5604,102.277l-0.3408-0.4199l0.1162-0.958c0.3018-2.2803,0.3584-3.4092-0.252-4.1768
		c-0.416-0.5127-1.0498-0.7832-1.8076-0.168c-0.4609,0.375-0.6553,0.9189-0.7314,1.3037l-0.6094-0.3037
		c0.1113-0.5811,0.4355-1.2051,1.0215-1.6807c1.0938-0.8887,2.1602-0.5176,2.7461,0.2041c0.7559,0.9326,0.6875,2.2383,0.4492,4.1328
		l-0.1035,0.7031l0.0117,0.0156l2.2812-1.8535l0.4609,0.5664L127.5604,102.277z"/>
	<path class="which-recommended-supplier-2019-3" d="M132.5272,93.443c1.5352,1.5879,1.7891,3.0371,0.7471,4.0439c-0.9189,0.8877-2.3662,0.6338-3.874-0.8975
		c-1.5137-1.5664-1.666-3.0859-0.7119-4.0088C129.6795,91.6227,131.0907,91.9547,132.5272,93.443z M130.0438,95.9821
		c1.1729,1.2139,2.2158,1.541,2.7949,0.9814c0.6514-0.6289,0.2334-1.6846-0.9199-2.877c-1.1104-1.1494-2.1357-1.6182-2.7939-0.9824
		C128.5682,93.6422,128.8153,94.7096,130.0438,95.9821z"/>
	<path class="which-recommended-supplier-2019-3" d="M132.3153,90.1071l-0.0127,0.0156l-0.2852,1.2578l-0.6172-0.3105l0.3613-1.5771l0.4941-0.5693l4.9102,4.2637
		l-0.5605,0.6465L132.3153,90.1071z"/>
	<path class="which-recommended-supplier-2019-3" d="M138.3377,90.7868c0.127-0.1436,0.2402-0.335,0.3926-0.5977c0.2422-0.457,0.3535-0.9707,0.2871-1.4785
		c-0.0645-0.5781-0.3438-1.1641-0.8984-1.7129l-0.0176,0.0254c0.1445,0.5508,0.0508,1.127-0.3311,1.6582
		c-0.6875,0.9551-1.8428,1.0527-2.7432,0.4043c-0.998-0.7188-1.3525-2.0771-0.5713-3.1621c0.7812-1.0859,2.1396-1.125,3.4873-0.1543
		c1.1602,0.8359,1.6904,1.8115,1.8184,2.6973c0.1035,0.6934-0.0586,1.4326-0.4043,2.0508c-0.1475,0.29-0.3037,0.5254-0.4355,0.6904
		L138.3377,90.7868z M135.4901,88.3395c0.6562,0.4736,1.4072,0.4062,1.8535-0.2139c0.3477-0.4814,0.3818-1.0264,0.2002-1.4424
		c-0.0361-0.0879-0.0986-0.1699-0.2129-0.252c-0.9014-0.6484-1.8311-0.8105-2.3721-0.0596
		C134.5174,86.984,134.742,87.8024,135.4901,88.3395z"/>
</g>
</svg>
