<?xml version="1.0" encoding="utf-8"?>
<svg version="1.1" xmlns="http://www.w3.org/2000/svg" xmlns:xlink="http://www.w3.org/1999/xlink" x="0px" y="0px"
	 viewBox="0 0 147.3822 37.208" style="enable-background:new 0 0 147.3822 37.208;" xml:space="preserve" aria-labelledby="title-logo-d-link" aria-describedby="desc-logo-d-link" role="img">
<title id="title-logo-d-link">D-link logo</title>
<desc id="desc-logo-d-link">D-link logo</desc>
<g>
	<g id="g3">
		<path id="path5" d="M39.0899,16.9727h7.9931c0.5543,0,0.6616,0.5722,0.2325,1.2696l-1.6094,2.6465
			c-0.4292,0.6974-1.2338,1.2696-1.7882,1.2696h-7.9931c-0.5543,0-0.6616-0.5722-0.2325-1.2696l1.6094-2.6465
			C37.7309,17.5449,38.5356,16.9727,39.0899,16.9727"/>
		<path id="path7" d="M77.3033,4.5628c2.9326-0.2682,6.4196,2.0385,4.7029,5.0605c-1.6451,2.7359-7.5998,3.4333-9.3879,3.2724
			c-0.5722-0.0536-1.5021-0.4113-1.4842-1.3233c0.0179-0.6437,0.3755-2.8968,1.6094-4.6671
			C74.0309,5.1707,75.9264,4.6522,77.3033,4.5628"/>
	</g>
	<path id="path9" d="M95.6142,10.4101c0.912-0.4113,1.0014,0.5901,0.9656,0.8941v2.3246c0,0.447,0.3755,0.2325,0.5722,0.1609
		c2.7538-1.1623,5.5433-2.8968,9.0839-2.8074c3.1472,0.0715,4.0949,2.5571,4.077,5.4182V28.578
		c0,1.0729,0.0894,1.3232,0.5901,1.7345c0.1609,0.0894,1.0014,0.1609,1.3232,0.1609c0.3398,0,0.3398,0.2503,0.2504,0.5007
		l-0.751,1.9133c-0.1609,0.3219-0.5007,0.4113-0.751,0.4113h-7.1527c-2.4856-0.0894-3.2366-1.9491-3.2008-2.8968V18.8145
		c0-2.3783-3.8803-2.5571-3.8803,0.6437v9.7634c0.0358,0.4649-0.1073,1.0729,1.1444,1.1623c0.8226,0,1.4127-0.0894,1.0014,0.912
		l-0.608,1.5378c-0.1431,0.2861-0.4828,0.4649-0.8047,0.447H85.654c-0.2503,0-0.447-0.2861-0.4113-0.5007l0.8404-2.1637
		c0.0358-0.0894,0.1252-0.2503,0.2325-0.2503c0.3934-0.0179,0.6616-0.2146,0.7332-1.3232V16.3469c0-1.0371-0.9477-0.912-1.663-0.912
		c-0.3219,0-0.5007-0.0894-0.4113-0.5007l0.6616-1.4127c0.0894-0.3398,0.2503-0.4649,0.5007-0.5007
		C90.0351,12.4307,92.2882,12.1625,95.6142,10.4101"/>
	<path id="path11" d="M124.4754,5.0635c0.6795-0.1073,1.0729,0.304,1.0729,1.055v12.1596c0.0894,0.6616,0.5722,0.2146,0.7153,0.0179
		l4.2022-5.3288c0.447-0.5543,1.5199-0.6616,2.1816-0.6616h9.1555c0.1609,0,0.2504,0.1967,0.0894,0.4113l-1.1623,1.5736
		c-0.1073,0.1431-0.1967,0.3219-0.751,0.3219h-0.447c-0.4113,0.0179-0.5007,0.1609-0.6616,0.2503l-4.7029,5.2751
		c-0.9835,1.1802-0.751,1.6809,0.1252,2.5213l6.4553,6.6163c1.4305,1.0014,2.7359,1.0729,4.2201,1.1623
		c0.3934,0.0179,0.304,0.3398,0.1609,0.5007l-1.663,1.9133c-0.1609,0.2503-0.8941,0.4113-1.3054,0.4113h-6.4017
		c-0.8226,0-2.3067-0.2503-3.4691-1.0014c-2.3246-1.9133-3.7909-4.3274-6.0619-6.4732c-0.3934-0.3755-0.7153-0.1967-0.7153,0.1252
		v2.7717c0,1.2517,0.5186,1.5736,2.3425,1.663c0.6974,0.0358,0.5007,0.4113,0.3398,0.8226l-0.608,1.5736
		c-0.1788,0.3755-0.4113,0.5007-0.7331,0.5007h-13.2325c-0.4113,0-0.6795-0.1252-0.5901-0.3755l0.7332-1.9491
		c0.1609-0.3755,0.2682-0.4649,0.8226-0.5007c0.912-0.0536,1.2517-0.3576,1.2696-1.7167V10.8214
		c0-0.608-0.1431-0.8404-0.5722-0.7868l-1.6809,0.2325c-0.5007,0.0715-0.5901-0.304-0.3934-0.6616l1.0371-1.7345
		c0.1967-0.3398,0.5543-0.3755,0.9477-0.447c3.3797-0.5543,6.7951-1.5378,8.8872-2.3246
		C124.2071,5.135,124.3144,5.0813,124.4754,5.0635"/>
	<g id="g13">
		<path id="path15" d="M81.7737,12.234c0.4113-0.1609,0.912,0.1609,0.8226,1.0729v15.7538
			c0.2146,1.1087,0.5722,1.3769,1.5557,1.4842c0,0,0.6795,0.0179,0.5007,0.5007l-0.6437,1.663
			c-0.2503,0.5007-0.4113,0.5901-1.0014,0.5901H70.687c-0.3219-0.0179-0.447-0.2325-0.3398-0.5901l0.608-1.5736
			c0.1073-0.2146,0.1609-0.4292,0.5722-0.5007c1.2517-0.3398,1.3232-0.5007,1.3232-2.1637V19.047
			c0-1.5736-0.2503-1.5021-2.0743-1.3233c-0.3219-0.0894-0.304-0.3934-0.2503-0.5007l0.912-1.7345
			c0.2503-0.5007,0.5722-0.5007,0.5722-0.5007C75.5151,14.7196,79.002,13.8434,81.7737,12.234"/>
		<path id="path17" d="M19.5809,33.2809c2.6823,0.0358,5.9189,0.1788,8.923-2.1637c2.1458-1.4127,4.7208-7.1348,5.6506-9.4952
			c0.4649-1.2338,0.5901-2.8611,0-4.0949c-1.6272-3.6836-3.9876-7.7965-5.5434-9.4595c-2.2352-2.0564-4.3274-2.2352-7.8143-2.2352
			H5.9192c-0.6259,0-1.3233,0.1609-1.5736,0.5901L3.2727,8.4073c-0.1609,0.8226,0.8226,0.912,0.8226,0.912h1.52
			c0.4113,0,0.5007,0.3219,0.5007,0.6616v18.4182c0,0.8226-0.9299,1.3232-1.6809,1.4842c-0.3398,0.0894-0.8226,0.1788-1.0729,0.5901
			l-1.0729,2.0743c-0.1609,0.4113,0.1609,0.751,0.5007,0.751C8.6372,33.2988,13.7157,33.3167,19.5809,33.2809 M15.8078,29.8655
			V10.0704c0-0.5007,0.0894-0.751,0.5722-0.8226h1.4484c0.5186,0,1.2696-0.1073,1.7345,0.7153l4.989,8.7084
			c0.4113,0.912,0.2861,1.2875,0,1.9133l-5.0605,8.5475c-0.608,0.8404-0.8941,0.6795-1.663,0.7332c-0.0179,0,0.0179,0,0,0H15.8078
			L15.8078,29.8655z"/>
	</g>
	<path id="path19" d="M62.0501,6.0291c0.6437,0,0.8762,0.3755,0.751,0.6259l-1.3232,2.414c0,0-0.1609,0.5007-1.3232,0.5007h-0.1252
		c-0.751,0-1.3411,0-1.4127,1.5021v17.4884c0,0.751,0.3219,1.3769,1.2338,1.4127h1.8061c2.9505-0.0358,2.879-3.0757,3.5406-5.7222
		c0.1609-0.4113,0.2503-0.6616,0.751-0.912l2.6107-0.912c0.3398,0,0.6616,0,0.751,0.5722v8.7978
		c0.0894,0.8226-0.6616,1.5736-1.663,1.4842H45.1876c-0.8226,0-1.0014-0.2503-0.8226-0.751l0.8226-1.8239
		c0,0,0.2503-0.5007,1.0014-0.5007c1.663-0.0894,2.7001-0.1073,2.6823-2.6465V11.2148c0-1.0729-0.2503-1.7345-1.3411-1.7345
		c-0.4292,0-0.8404,0-1.2696,0c-0.8226,0-1.2696-0.2861-1.0729-0.751l1.1623-2.1637c0.2682-0.4828,0.5007-0.5543,0.912-0.5543
		h14.7882"/>
</g>
</svg>
