<?xml version="1.0" encoding="utf-8"?>
<svg version="1.1" xmlns="http://www.w3.org/2000/svg" xmlns:xlink="http://www.w3.org/1999/xlink" x="0px" y="0px"
	 viewBox="0 0 65.2348 78.2817" style="enable-background:new 0 0 65.2348 78.2817;" xml:space="preserve" aria-labelledby="title-logo-hive" aria-describedby="desc-logo-hive" role="img">
<title id="title-logo-hive">Hive logo</title>
<desc id="desc-logo-hive">Hive logo</desc>
<g id="layer1" transform="translate(15.568838,-251.76525)">
	<g id="g9880" transform="matrix(0.26458333,0,0,0.26458333,-16.071547,251.44114)">
		<g id="g9853">
			<path id="XMLID_11_" d="M220.8525,279.8644c2.7047,0,4.8546-1.8526,4.8546-4.1235c0-2.2709-2.1499-4.1235-4.8546-4.1235h-32.1096
				V254.944h24.1342c2.7047,0,4.8546-1.8526,4.8546-4.1235s-2.1499-4.1235-4.8546-4.1235h-24.1342v-16.016h30.4452
				c2.7047,0,4.8546-1.8526,4.8546-4.1235s-2.1499-4.1235-4.8546-4.1235h-35.3692c-2.7047,0-4.8546,1.8526-4.8546,4.1833v49.0042
				c0,2.2709,2.1499,4.1833,4.8546,4.1833h37.0336V279.8644z"/>
			<path id="XMLID_10_" d="M75.9776,279.8644c2.6354,0,4.8546-1.9124,4.8546-4.1833v-49.3627c0-2.3307-2.2192-4.1833-4.8546-4.1833
				c-2.7047,0-4.8546,1.8526-4.8546,4.1833v20.3786H38.8746v-20.3786c0-2.3307-2.1499-4.1833-4.8546-4.1833
				c-2.6354,0-4.8546,1.8526-4.8546,4.1833v49.303c0,2.2709,2.2192,4.1833,4.8546,4.1833c2.7047,0,4.8546-1.9124,4.8546-4.1833
				v-20.7371H71.123v20.7371C71.123,277.8923,73.2729,279.8644,75.9776,279.8644z"/>
			<path id="XMLID_9_" d="M170.018,227.7527c1.1096-2.2112-0.0694-4.4821-2.4273-5.3187c-2.4967-0.9562-5.3401,0.0598-6.311,2.1514
				l-20.2506,40.7571l-20.2506-40.6376c-1.0403-2.1514-3.953-3.1673-6.519-2.2112c-2.4273,0.8964-3.6063,3.2869-2.566,5.498
				l24.6891,49.4225c0.9016,1.7928,2.8434,2.5697,4.5078,2.5697s3.6063-0.7172,4.5078-2.5697L170.018,227.7527z"/>
			<path id="XMLID_8_" d="M97.3378,279.8644c2.7047,0,4.8546-1.9124,4.8546-4.1833v-49.3627c0-2.3307-2.1499-4.1833-4.8546-4.1833
				c-2.7047,0-4.8546,1.8526-4.8546,4.1833v49.303C92.4832,277.8923,94.6331,279.8644,97.3378,279.8644z"/>
		</g>
		<g id="g9860">
			<path id="XMLID_7_" d="M212.669,98.788c4.2304-0.5378,5.8255-0.7171,8.1141-1.4343c2.9128-0.8366,4.924-2.8685,4.924-5.6773
				c0-2.6893-2.0805-4.9602-4.924-5.6773c-2.2886-0.5976-5.6868-0.1195-8.1141,0.0598l-75.5929,6.5737
				c-6.3803,0.5378-12.9687,0.5378-19.349,0l-75.5236-6.5737c-2.4273-0.239-5.8255-0.7171-8.1141-0.0598
				c-2.9128,0.7171-4.9239,3.0478-4.9239,5.6773c0,2.8088,2.0805,4.8407,4.9239,5.6773c2.2192,0.6574,3.8837,0.8367,8.1141,1.4343
				l72.2641,9.9801c8.5302,1.1355,17.3378,1.1355,25.868,0L212.669,98.788z"/>
			<path id="XMLID_6_" d="M199.3536,68.8477c2.4273-0.1195,5.8255-0.239,8.1141-0.8367c2.9128-0.7171,4.924-3.0478,4.924-5.6773
				c0-2.6295-2.0805-4.9602-4.924-5.6773c-2.2886-0.5976-5.6868-0.5379-8.1141-0.5379H55.4496
				c-2.4273,0-5.8255-0.0598-8.1141,0.5379c-2.9128,0.7171-4.9239,3.0478-4.9239,5.6773c0,2.6295,2.0805,4.9602,4.9239,5.6773
				c2.2886,0.5379,5.6868,0.7171,8.1141,0.8367l63.9419,3.9442c5.2707,0.2988,10.6801,0.2988,15.8814,0L199.3536,68.8477z"/>
			<path id="XMLID_5_" d="M149.9061,21.0985c-15.0492-1.494-30.0985-1.494-45.1477,0l-22.4698,2.2112
				c-2.4273,0.239-5.8255,0.3586-8.1141,1.0159c-2.2886,0.6574-4.9239,2.51-4.9239,5.6773c0,2.749,2.0805,4.9602,4.9239,5.6773
				c2.2886,0.5379,5.6868,0.5379,8.1141,0.5379h90.1567c2.4273,0,5.8255,0.0598,8.1141-0.5379
				c2.8434-0.7171,4.924-2.9283,4.924-5.6773c0-3.1673-2.6354-5.0199-4.924-5.6773c-2.2192-0.5976-5.6868-0.7769-8.1141-1.0159
				L149.9061,21.0985z"/>
			<path id="XMLID_4_" d="M112.5257,144.6846c9.7785,2.0916,19.9038,2.0916,29.7517,0l65.6063-13.8646
				c4.1611-0.8367,5.8255-1.1355,8.1141-1.7928c2.9128-0.8367,4.924-2.9283,4.924-5.6773c0-2.6893-2.0806-5.0199-4.924-5.7371
				c-2.2886-0.5378-5.6868,0.1793-8.1141,0.5378l-70.9464,10.9363c-6.2416,0.9562-12.83,0.9562-19.141,0l-70.877-10.9363
				c-2.4273-0.3586-5.8255-1.1355-8.1141-0.5378c-2.9128,0.7171-4.9239,3.0478-4.9239,5.7371c0,2.749,2.0805,4.9004,4.9239,5.6773
				c2.2886,0.6574,3.953,0.9562,8.1141,1.7928L112.5257,144.6846z"/>
			<path id="XMLID_3_" d="M188.3961,167.4536c4.5078-1.3147,6.0336-1.7928,8.1141-2.6295c2.774-1.0757,4.9239-2.749,4.9239-5.7968
				c0-2.6893-2.0805-5.0199-4.9239-5.7371c-2.6354-0.6574-5.7562,0.2988-8.1141,0.8367l-44.3848,10.2789
				c-10.8882,2.5697-22.4005,2.51-33.2193,0l-44.3155-10.2789c-2.3579-0.5379-5.4788-1.494-8.1141-0.8367
				c-2.9128,0.7171-4.9239,3.0478-4.9239,5.7371c0,3.0478,2.1499,4.7211,4.9239,5.7968c2.0805,0.8367,3.6063,1.3147,8.1141,2.6295
				l42.0962,12.6096c12.2058,3.6454,25.4519,3.6454,37.6578,0L188.3961,167.4536z"/>
		</g>
	</g>
</g>
</svg>
