<?xml version="1.0" encoding="utf-8"?>
<svg version="1.1" xmlns="http://www.w3.org/2000/svg" xmlns:xlink="http://www.w3.org/1999/xlink" x="0px" y="0px"
	 viewBox="0 0 87.7817 78.2817" style="enable-background:new 0 0 87.7817 78.2817;" xml:space="preserve" aria-labelledby="title-logo-hue" aria-describedby="desc-logo-hue" role="img">
<style type="text/css">
	.hue-1{clip-path:url(#LOGO_HUE_2_);}
</style>
<title id="title-logo-hue">Phillips Hue logo</title>
<desc id="desc-logo-hue">Phillips Hue logo</desc>
<g>
	<g>
		<defs>
			<rect id="LOGO_HUE_7_" x="4.0413" y="23.5515" width="2.8926" height="13.9638"/>
		</defs>
		<use xlink:href="#LOGO_HUE_7_"  style="overflow:visible;"/>
		<clipPath id="LOGO_HUE_2_">
			<use xlink:href="#LOGO_HUE_7_"  style="overflow:visible;"/>
		</clipPath>
		<rect x="4.0413" y="23.5515" class="hue-1" width="2.8926" height="13.9638"/>
	</g>
	<g id="g2853">
		<path id="path2859" d="M29.8281,4.8237h-4.2423v5.524h-4.4161v-5.524h-4.2423v13.898h4.2423v-5.4668h4.4161v5.4668h4.2423V4.8237z
			 M44.5852,15.9291V4.8237H40.343v13.898h7.6709l0.6379-2.7926L44.5852,15.9291L44.5852,15.9291z M37.2067,4.8237h-4.2423v13.898
			h4.2423V4.8237z M54.4049,4.8237h-4.2403v13.898h4.2403V4.8237z M75.32,8.3708c0-0.7564,0.7564-1.106,1.975-1.106
			c1.3371,0,2.7907,0.2923,3.7782,0.7011l-0.3476-3.0257c-1.106-0.233-2.0935-0.4068-3.8927-0.4068
			c-3.4286,0-5.7531,1.3529-5.7531,4.187c0,4.8842,6.6261,3.8967,6.6261,6.1639c0,0.871-0.6419,1.3351-2.21,1.3351
			c-1.3924,0-3.5451-0.4641-4.8229-1.104l0.4661,3.1995c1.2778,0.4661,3.0198,0.6972,4.4161,0.6972
			c3.5431,0,6.4483-1.1633,6.4483-4.6531C82.0034,9.7098,75.32,10.5808,75.32,8.3708 M63.3536,15.4077
			c3.948,0,6.4483-2.0362,6.4483-5.5833c0-3.8947-2.6722-5.291-7.031-5.291c-1.6847,0-3.7189,0.1165-5.1705,0.2903v13.898h4.2423
			v-3.314H63.3536L63.3536,15.4077z M65.6189,9.8836c0,1.8012-0.871,3.0237-3.081,3.0237h-0.6952V7.1641
			c0.2469-0.0138,0.4779-0.0138,0.6952-0.0138C64.6294,7.1503,65.6189,8.1377,65.6189,9.8836 M8.7945,15.4077
			c3.95,0,6.4483-2.0362,6.4483-5.5833c0-3.8947-2.6722-5.291-7.029-5.291c-1.6866,0-3.7189,0.1165-5.1725,0.2903v13.898h4.2423
			v-3.314H8.7945L8.7945,15.4077z M11.0618,9.8836c0,1.8012-0.8729,3.0237-3.081,3.0237H7.2836V7.1641
			c0.2469-0.0138,0.4799-0.0138,0.6972-0.0138C10.0723,7.1503,11.0618,8.1377,11.0618,9.8836"/>
	</g>
	<path d="M4.0413,74.1832h2.8926V59.3846H4.0413V74.1832z M22.8482,74.1832h2.8938V59.3846h-2.8938V74.1832z M51.736,59.3846v3.7976
		c-0.003,3.3451-1.2897,5.709-3.8282,7.0347c-2.0146,1.0484-4.1073,1.0742-4.1337,1.0742c-2.3819,0-4.2651-0.6805-5.5986-2.0194
		c-1.2021-1.2093-1.777-2.7738-2.0482-3.875c-0.2989-1.2165-0.3079-2.1641-0.3079-2.2253v-0.0024v-3.7844h-2.8932v3.7682
		c0,0.0036,0,0.0078,0,0.0126c-0.0006,0.4201,0.0666,4.9793,3.1777,8.1258c0.8906,0.8996,1.9498,1.6018,3.1501,2.0836
		c1.3317,0.5341,2.8536,0.8084,4.5232,0.8084c0.2401,0,4.7788-0.0456,7.9355-3.1939c0.2244-0.2239,0.4345-0.4579,0.6337-0.6992
		c0.1686,0.5533,0.3733,1.0364,0.6181,1.4655c0.4873,0.851,1.1493,1.4883,1.9642,1.8892c0.7298,0.3637,1.5777,0.5383,2.5896,0.5383
		v-2.892c-1.2381,0-1.699-0.3727-2.0429-0.974c-0.5701-0.995-0.8468-2.8242-0.8468-5.5998v-1.5303v-0.0156v-3.7868H51.736z
		 M32.9262,55.6236h2.8926V37.6545h-2.8926V55.6236z M51.736,55.6236h2.8926V37.6545H51.736V55.6236z M64.7066,48.6837v-0.018
		c0,0,0-0.0012,0-0.0024c0-0.0516,0.0042-0.9524,0.2875-2.1413c0.267-1.1198,0.839-2.7114,2.0542-3.9386
		c1.3347-1.3527,3.2233-2.0362,5.6148-2.0362c0.0204,0,2.062,0.03,4.0479,1.0406c2.5974,1.3197,3.9128,3.6998,3.9128,7.0779
		c0,3.0451-1.2777,5.2067-3.7982,6.4256c-2.0176,0.9764-4.1121,1.0094-4.1649,1.0094h-7.9541V48.6837z M68.1418,38.4635
		c-1.1985,0.4825-2.2607,1.1835-3.1513,2.0837c-3.0793,3.1153-3.1765,7.6102-3.1759,8.1126c0,0.012,0,0.0216,0,0.0294v7.4116
		h-4.2963v2.8938h4.2963v4.1583c0,0.0072,0,0.0168,0,0.0288c-0.0006,0.4975,0.0966,4.9955,3.1759,8.1096
		c0.8906,0.8996,1.9528,1.6018,3.1513,2.0836c1.3317,0.5341,2.8518,0.8066,4.519,0.8084h0.0024c0.2893,0,5.8525-0.06,8.9341-4.3683
		l-2.3543-1.6834c-0.911,1.2765-2.2715,2.1929-4.0413,2.727c-1.3935,0.4195-2.5247,0.4327-2.541,0.4327
		c-2.3807,0-4.2657-0.6805-5.598-2.0194c-1.2021-1.2093-1.777-2.7738-2.0482-3.875c-0.2995-1.2165-0.3079-2.1641-0.3079-2.2253
		v-4.1769h7.9565c0.1092,0,2.706-0.0138,5.3225-1.2501c1.5922-0.7508,2.8692-1.7962,3.797-3.1093
		c1.1493-1.63,1.7338-3.6368,1.7338-5.9695c0-2.4665-0.5749-4.5934-1.7062-6.3218c-0.9212-1.4019-2.1941-2.5253-3.7892-3.3343
		c-2.6298-1.3401-5.2469-1.3551-5.358-1.3551C70.9948,37.6545,69.4735,37.9264,68.1418,38.4635 M4.0413,37.5153v10.8509
		l-0.0018,0.2995h0.0018v6.9579h2.8926v-7.222c0.0678-3.2107,1.3539-5.49,3.827-6.7797c2.014-1.049,4.1073-1.073,4.1337-1.0748
		c2.3813,0.0018,4.2651,0.6812,5.5968,2.0212c1.2038,1.2056,1.7794,2.7714,2.0488,3.872c0.3013,1.2177,0.3079,2.1653,0.3079,2.2283
		v0.0012v6.9537h2.8938v-6.9345c0-0.0042,0-0.0084,0-0.0132c0-0.4105-0.0624-4.9763-3.1783-8.1288
		c-0.8906-0.9002-1.9498-1.6011-3.1495-2.0837c-1.3329-0.5371-2.8536-0.809-4.5226-0.809c-0.2412,0-4.78,0.0444-7.9373,3.1981
		L6.9339,40.87v-3.3547H4.0413z"/>
</g>
</svg>
