<?xml version="1.0" encoding="utf-8"?>
<svg version="1.1" xmlns="http://www.w3.org/2000/svg" xmlns:xlink="http://www.w3.org/1999/xlink" x="0px" y="0px"
	 viewBox="0 0 169.6104 41.557" style="enable-background:new 0 0 169.6104 41.557;" xml:space="preserve" aria-labelledby="title-logo-irobot" aria-describedby="desc-logo-irobot" role="img">
<title id="title-logo-irobot">iRobot logo</title>
<desc id="desc-logo-irobot">iRobot logo</desc>
<g id="g12" transform="matrix(1.25,0,0,-1.25,-492.10622,337.84124)">
	<path id="path320" d="M517.9877,252.2958h4.7633l1.1362,5.4828h-4.7669l1.2585,6.0681h-6.9859l-3.6318-17.5561
		c-0.2078-0.9926-0.2968-1.8106-0.2695-2.5004c0.032-0.8465,0.3562-1.6265,0.97-2.3163c0.5521-0.6198,1.1611-1.0602,1.8022-1.3119
		c0.6115-0.2386,1.3606-0.355,2.2819-0.355h5.4329l1.0923,5.2584h-2.783c-0.6838,0-1.2027,0.1223-1.4556,0.3455
		c-0.0879,0.0772-0.2339,0.203-0.133,0.6708L517.9877,252.2958L517.9877,252.2958z"/>
	<path id="path322" d="M401.7368,263.9975l-1.2039-5.8116h7.5641l1.2027,5.8116H401.7368z"/>
	<path id="path324" d="M424.7519,248.4313l4.6648-8.4783h8.7205l-5.389,9.4803c1.0591,0.5936,1.9911,1.3238,2.4659,1.7334
		c0.976,0.837,2.2487,2.8031,2.6013,4.5164c0.4761,2.2926,0.0558,4.2694-1.2455,5.8829c-1.452,1.7928-4.2468,2.4315-6.1928,2.4315
		h-17.8113l-1.2027-5.8116h7.6982h0.8762l6.3708,0.0154c1.2253,0,2.1312-0.209,2.6927-0.6221
		c0.2992-0.2208,0.5545-0.5248,0.4037-1.2526c-0.1365-0.653-0.6388-1.1884-1.5363-1.6384
		c-0.8608-0.4322-1.7346-0.6411-2.6773-0.6411h-6.9586l0.5497,2.3626h-7.7991l-3.4775-16.4567h1.3167h5.592h0.8715l1.7536,8.4783
		H424.7519L424.7519,248.4313z"/>
	<path id="path326" d="M400.2254,256.4097l-3.4751-16.4567h7.608l3.4324,16.4567H400.2254z"/>
	<path id="path328" d="M452.4875,249.2279c-0.3051-1.4591-0.9059-2.6072-1.7833-3.4062c-0.8584-0.78-1.9673-1.1576-3.3944-1.1576
		c-1.1837,0-2.0374,0.3431-2.606,1.0519c-0.5735,0.7112-0.7231,1.6693-0.4619,2.9278c0.2339,1.1303,0.8026,2.0373,1.7429,2.7687
		c0.9557,0.7468,2.0172,1.1053,3.2519,1.1053c1.2763,0,2.1727-0.3123,2.7367-0.9522
		C452.5208,250.94,452.6882,250.1979,452.4875,249.2279 M458.4346,255.6368c-1.8189,1.5684-4.4724,2.3662-7.8941,2.3662
		c-3.0334,0-5.801-0.7148-8.2277-2.1169c-2.8091-1.6028-4.5247-3.8301-5.1041-6.6214c-0.71-3.4241,0.0558-6.0503,2.2712-7.8098
		c1.7975-1.4188,4.4701-2.1406,7.9428-2.1406c3.1819,0,5.9351,0.6957,8.1885,2.067c2.5087,1.5292,4.0723,3.7019,4.641,6.4623
		l0.1959,0.9237C461.0453,251.6547,460.3674,253.9651,458.4346,255.6368"/>
	<path id="path330" d="M501.5417,249.2279c-0.3075-1.4829-0.8916-2.5954-1.7809-3.4062c-0.8596-0.78-1.9673-1.1576-3.3956-1.1576
		c-1.1825,0-2.0374,0.3431-2.6072,1.0519c-0.5699,0.7112-0.7242,1.6693-0.4607,2.9278c0.2327,1.1303,0.8014,2.0373,1.7417,2.7687
		c0.9569,0.7468,2.0172,1.1053,3.2519,1.1053c1.2763,0,2.1715-0.3123,2.739-0.9546
		C501.5774,250.94,501.7424,250.1979,501.5417,249.2279 M507.0162,255.6368c-1.8166,1.5684-4.4736,2.3662-7.8953,2.3662
		c-3.0346,0-5.7998-0.7148-8.2289-2.1169c-2.8067-1.6028-4.5258-3.8301-5.1028-6.6214c-0.71-3.4241,0.0558-6.0503,2.2701-7.8098
		c1.7987-1.4188,4.4712-2.1406,7.944-2.1406c3.1831,0,5.9375,0.6957,8.1886,2.067c2.5099,1.5292,4.0711,3.7019,4.6434,6.4623
		l0.1912,0.9249C509.6247,251.6547,508.9491,253.9651,507.0162,255.6368"/>
	<path id="path332" d="M477.0782,249.2279c-0.3004-1.4627-0.9023-2.6072-1.7821-3.4062c-0.8572-0.78-1.9637-1.1576-3.3908-1.1576
		c-1.1884,0-2.0385,0.3431-2.6072,1.0519c-0.1306,0.1567-0.1413,0.3954-0.1342,0.951c0.0107,0.8857,0.5367,3.1653,0.7812,3.7506
		c0.2137,0.5022,0.3277,0.7563,0.634,0.9949c0.9522,0.7468,2.016,1.1053,3.246,1.1053c1.2787,0,2.1786-0.3123,2.7437-0.9522
		C477.1161,250.94,477.2776,250.1979,477.0782,249.2279 M482.5384,255.6487c-1.8806,1.5601-4.533,2.3544-7.8799,2.3544
		c-1.2846,0-2.593-0.1579-3.7826-0.4144l1.515,6.4053h-7.418l-2.7509-12.3618c-0.0891-0.4179-0.8738-4.1614-0.8525-5.6597
		c0.0237-1.7655,0.8358-3.411,2.2309-4.5175c1.7964-1.4188,4.4701-2.1406,7.9428-2.1406c3.1819,0,5.9327,0.6957,8.185,2.067
		c2.5111,1.5268,4.0723,3.7019,4.6422,6.4623l-0.0023-0.0321C484.4178,248.0252,485.5956,253.1103,482.5384,255.6487"/>
	<path id="path334" d="M524.9356,262.0065h0.6008c0.1567,0,0.2731,0.0392,0.3502,0.1175c0.076,0.0784,0.114,0.1745,0.114,0.2885
		c0,0.1199-0.0403,0.209-0.1211,0.2707c-0.0819,0.0605-0.184,0.0914-0.3063,0.0914h-0.6375V262.0065L524.9356,262.0065z
		 M526.4042,260.7302h-0.3787l-0.4464,0.9985h-0.6435v-0.9985h-0.3455v2.3223h0.9831c0.2647,0,0.463-0.0677,0.5948-0.203
		s0.1983-0.2861,0.1983-0.4512c0-0.1223-0.0369-0.2398-0.1069-0.3526c-0.0712-0.114-0.184-0.1935-0.3348-0.241L526.4042,260.7302
		L526.4042,260.7302z M527.1712,261.8961c0,0.4725-0.1674,0.8762-0.5022,1.211c-0.3348,0.3348-0.7385,0.5022-1.2098,0.5022
		s-0.8738-0.1686-1.2098-0.5046c-0.336-0.3348-0.5034-0.7385-0.5034-1.2086c0-0.4713,0.1663-0.875,0.501-1.2098
		c0.3336-0.3348,0.7385-0.5034,1.2122-0.5034c0.4702,0,0.8726,0.1686,1.2086,0.5046S527.1712,261.4259,527.1712,261.8961
		 M527.4502,261.8961c0-0.5473-0.1947-1.0151-0.5853-1.4057c-0.3906-0.3906-0.8596-0.5853-1.4057-0.5853
		c-0.5473,0-1.0163,0.1947-1.4069,0.5853c-0.3906,0.3906-0.5853,0.8584-0.5853,1.4057c0,0.545,0.1948,1.0139,0.5853,1.4045
		c0.3906,0.3918,0.8596,0.5865,1.4069,0.5865c0.5461,0,1.0151-0.1947,1.4057-0.5865
		C527.2555,262.91,527.4502,262.441,527.4502,261.8961"/>
</g>
</svg>
