<?xml version="1.0" encoding="utf-8"?>
<svg version="1.1" xmlns="http://www.w3.org/2000/svg" xmlns:xlink="http://www.w3.org/1999/xlink" x="0px" y="0px"
	 viewBox="0 0 100.6102 47.8349" style="enable-background:new 0 0 100.6102 47.8349;" xml:space="preserve" aria-labelledby="title-logo-nest" aria-describedby="desc-logo-nest" role="img">
<title id="title-logo-nest">Nest logo</title>
<desc id="desc-logo-nest">Nest logo</desc>
<path d="M73.674,31.506c1.7537,0.7574,2.801,2.1821,2.801,3.8054c0,2.1502-1.6387,3.4319-4.3848,3.4319
	c-2.9139,0-4.2678-2.5909-4.6145-3.382l-0.4266-0.9804h-5.4569l-0.009-0.005h-5.0559c-1.3812,2.3252-4.163,4.4677-7.3975,4.4677
	c-5.837,0-8.7496-4.6025-9.122-9.1468H63.863v-0.9962c0-1.8839-0.1941-3.6574-0.5567-5.3037
	c0.6827,2.1126,2.2396,4.303,5.5028,5.8535C70.0008,29.8246,71.8003,30.681,73.674,31.506 M48.7894,17.0665
	c4.8821,0,7.2737,3.3987,7.9666,6.8612H40.5073c0.8475-3.4696,3.8597-6.8612,8.282-6.8612 M96.6607,17.1667v-6.2181h-5.0712V3.5995
	H85.363v7.3491H72.8228c-5.7915,0.0032-9.9949,3.9338-9.9949,9.3499c0.001,0.6236,0.057,1.2459,0.1674,1.8597
	c-1.9733-6.9003-7.1747-11.2096-14.1599-11.2096c-8.5445,0-15.0769,6.7144-15.6241,15.8107v-1.9338
	c0-7.6524-6.1697-13.877-13.7518-13.877c-7.5822,0-13.7518,6.2246-13.7518,13.877v19.8952h6.3025V24.8255
	c0-4.1426,3.3405-7.5164,7.4493-7.5164c4.1068,0,7.4493,3.3732,7.4493,7.5164v19.8952h6.3025V29.2421
	c0.5511,9.1288,7.167,15.8668,15.8221,15.8668c5.2838,0,9.9444-3.0972,12.5845-6.6842c1.9695,4.248,5.8184,6.6842,10.5721,6.6842
	c5.51,0,11.0869-3.552,11.0869-10.3435c0-4.0647-2.3391-7.3861-6.5872-9.3556c-0.4688-0.2163-0.9359-0.4364-1.4011-0.6603
	l-0.0568-0.0288c-0.4996-0.2389-1.0007-0.4746-1.5034-0.7069c-2.7766-1.2575-4.0979-2.1784-4.0979-4.015
	c0-1.6157,1.4324-2.8323,3.2007-2.8323h12.5322v17.7162c0,5.6409,4.5455,10.2254,10.1321,10.2254v-6.2838
	c-2.1534,0-3.9057-1.7683-3.9057-3.9416v-17.716c2.4911,0.0019,4.4096,0,5.0712,0"/>
</svg>
