<?xml version="1.0" encoding="utf-8"?>
<svg version="1.1" xmlns="http://www.w3.org/2000/svg" xmlns:xlink="http://www.w3.org/1999/xlink" x="0px" y="0px"
	 viewBox="0 0 172.9929 39.6241" style="enable-background:new 0 0 172.9929 39.6241;" xml:space="preserve" aria-labelledby="title-logo-sonos" aria-describedby="desc-logo-sonos" role="img">
<title id="title-logo-sonos">Sonos logo</title>
<desc id="desc-logo-sonos">Sonos logo</desc>
<path d="M79.6188,16.7078v19.226h-4.4406V5.8509l19.8714,20.0774V6.5993h4.443v30.1928L79.6188,16.7078z M125.6505,5.4192
	c-8.6935,0-15.7635,7.1302-15.7635,15.901c0,8.7667,7.07,15.8964,15.7635,15.8964c8.6909,0,15.7642-7.1296,15.7642-15.8964
	C141.4147,12.5494,134.3413,5.4192,125.6505,5.4192z M125.6505,32.7013c-6.1618,0-11.1788-5.1067-11.1788-11.381
	c0-6.2752,5.017-11.381,11.1788-11.381c6.1644,0,11.1759,5.1058,11.1759,11.381C136.8264,27.5947,131.8149,32.7013,125.6505,32.7013
	z M49.0056,5.4192c-8.6933,0-15.7637,7.1302-15.7637,15.901c0,8.7667,7.0704,15.8964,15.7637,15.8964
	c8.695,0,15.7635-7.1296,15.7635-15.8964C64.7691,12.5494,57.7008,5.4192,49.0056,5.4192z M49.0056,32.7013
	c-6.1644,0-11.1752-5.1067-11.1752-11.381c0-6.2752,5.0108-11.381,11.1752-11.381c6.1623,0,11.1783,5.1058,11.1783,11.381
	C60.1841,27.5947,55.1679,32.7013,49.0056,32.7013z M13.9058,23.5539l-0.018-0.0076c-2.968-0.9507-4.9546-1.8876-6.4514-3.0416
	c-2.1396-1.6438-3.2268-3.7416-3.2268-6.2337c0-2.3338,1.076-4.6082,2.951-6.2525c1.9156-1.6774,4.5553-2.5992,7.4303-2.5992
	c6.018,0,9.4571,4.0443,9.6013,4.2178l-3.6516,2.4883c-0.8457-0.6373-3.0677-2.0679-5.95-2.0679
	c-3.6199,0-5.7837,2.142-5.7837,4.2135c0,1.4451,0.7857,3.0342,6.4709,4.8591L15.3,19.1337
	c2.9602,0.948,4.9541,1.8876,6.4492,3.0383c2.1417,1.6475,3.2273,3.7452,3.2273,6.2377c0,2.3336-1.0764,4.6116-2.9554,6.2525
	c-1.9115,1.6741-4.5503,2.5956-7.4284,2.5956c-6.0161,0-9.4555-4.0405-9.5994-4.2149l3.6545-2.4881
	c0.8445,0.6385,3.0665,2.0686,5.9448,2.0686c3.6215,0,5.787-2.1377,5.787-4.2137C20.38,26.9645,19.5964,25.3751,13.9058,23.5539
	L13.9058,23.5539z M159.3787,23.5539l-0.0197-0.0076c-2.9657-0.9507-4.9545-1.8876-6.4483-3.0418
	c-2.1382-1.6442-3.2301-3.7419-3.2301-6.234c0-2.3338,1.0789-4.608,2.9554-6.2523c1.9091-1.677,4.5461-2.5989,7.4289-2.5989
	c6.0177,0,9.4586,4.0443,9.6048,4.2178l-3.6562,2.4883c-0.8438-0.6373-3.0658-2.0679-5.9486-2.0679
	c-3.6229,0-5.7874,2.142-5.7874,4.2135c0,1.4451,0.7868,3.0342,6.4763,4.8591l0.0221,0.0036
	c2.9637,0.948,4.9507,1.8876,6.4483,3.0383c2.1358,1.6475,3.2244,3.7452,3.2244,6.2377c0,2.3336-1.0757,4.6116-2.9491,6.2525
	c-1.9144,1.6741-4.5539,2.5956-7.4339,2.5956c-6.0163,0-9.4529-4.0405-9.5982-4.2149l3.6526-2.4881
	c0.8469,0.6385,3.0627,2.0686,5.9456,2.0686c3.6251,0,5.7846-2.1377,5.7846-4.2137
	C165.8495,26.9645,165.0666,25.3751,159.3787,23.5539L159.3787,23.5539z"/>
</svg>
