<?xml version="1.0" encoding="utf-8"?>
<svg version="1.1" xmlns="http://www.w3.org/2000/svg" xmlns:xlink="http://www.w3.org/1999/xlink" x="0px" y="0px"
	 viewBox="0 0 131.7297 58.4697" style="enable-background:new 0 0 131.7297 58.4697;" xml:space="preserve" aria-labelledby="title-logo-tado" aria-describedby="desc-logo-tado" role="img">
<title id="title-logo-tado">Tado logo</title>
<desc id="desc-logo-tado">Tado logo</desc>
<g>
	<g id="typo_1_">
		<g id="tado_edit_t_x2B_a_1_">
			<path d="M30.201,17.1821h-16.691l-0.0031,20.1126c0,1.6371,1.3235,2.9385,2.9491,2.9385c0.3094,0,4.9159-0.002,4.9159-0.002
				l-0.0034,4.9009c0,0-1.7427,0-5.8584,0c-4.3979,0-7.8778-3.4869-7.8778-7.8413V17.1821H3.7011v-4.9046h3.9775V4.4228
				l5.8344-1.9621v9.8168H30.201V17.1821z"/>
			<path d="M32.1579,12.2746c0,0,6.6563,0,10.7984,0c4.3766,0,7.8413,3.5159,7.8413,7.5848l-0.0009,25.2563H44.914v-2.4384
				c0,0-1.9377,2.9546-6.884,2.9546c-5.8907,0-11.7587-4.0476-11.7587-10.8371c0-6.8064,5.8776-10.7974,11.7647-10.7974
				c3.1714,0,6.8614,0.0055,6.8614,0.0055s0.0021-3.7459,0.0021-4.0107c0-1.3668-1.0122-2.8069-2.8469-2.8069
				c-3.3772,0-9.8945,0-9.8945,0L32.1579,12.2746z M44.9042,28.9414c0,0-5.5886-0.0015-6.8633-0.0015
				c-1.9558,0-5.8905,1.0012-5.8905,5.892c0,4.9057,3.9774,5.8888,5.8819,5.8888c4.9352,0,6.8719-2.9451,6.8719-4.8966V28.9414z"/>
			<path d="M32.1579,12.2746c0,0,6.6563,0,10.7984,0c4.3766,0,7.8413,3.5159,7.8413,7.5848l-0.0009,25.2563H44.914v-2.4384
				c0,0-1.9377,2.9546-6.884,2.9546c-5.8907,0-11.7587-4.0476-11.7587-10.8371c0-6.8064,5.8776-10.7974,11.7647-10.7974
				c3.1714,0,6.8614,0.0055,6.8614,0.0055s0.0021-3.7459,0.0021-4.0107c0-1.3668-1.0122-2.8069-2.8469-2.8069
				c-3.3772,0-9.8945,0-9.8945,0L32.1579,12.2746z M44.9042,28.9414c0,0-5.5886-0.0015-6.8633-0.0015
				c-1.9558,0-5.8905,1.5211-5.8905,5.892c0,4.9057,3.9774,5.8888,5.8819,5.8888c4.9352,0,6.8719-2.9203,6.8719-5.514V28.9414z"/>
			<path d="M98.9265,12.286c9.2506,0,14.6823,7.1343,14.6823,16.805c0,9.949-5.4045,17.0069-14.6823,17.0069
				c-9.3885,0-14.7198-7.0851-14.7198-17.0069C84.2068,19.3931,89.538,12.286,98.9265,12.286z M98.9265,41.1952
				c5.8716,0,8.8395-6.213,8.8395-12.0115c0-5.8121-3.0224-11.9382-8.8395-11.9382c-5.9005,0-8.8603,6.1261-8.8603,11.9723
				C90.0662,35.1432,93.0805,41.1952,98.9265,41.1952z"/>
			<path d="M82.1826,29.2411V2.4563l-5.8909-0.0049l0.0017,12.7502c-2.3731-1.7813-4.9065-2.9191-8.7581-2.9191
				c-9.4166,0-14.7072,7.0808-14.7072,16.9586c0,9.3048,5.2906,16.8568,14.7072,16.8568
				C76.7849,46.0979,82.1621,38.5222,82.1826,29.2411L82.1826,29.2411z M67.5352,41.2113c-6.3918,0-8.8061-6.1709-8.8061-11.9702
				c0-5.8695,2.9048-12.0251,8.8061-12.0251c5.9252,0,8.7288,6.1556,8.7288,12.0251C76.264,35.0403,73.4059,41.2113,67.5352,41.2113
				z"/>
			<g id="Claim_1_">
				<path d="M11.1576,50.8062c-0.0998-0.1582-0.2216-0.2909-0.3651-0.3981c-0.1437-0.107-0.3019-0.1886-0.4747-0.2446
					c-0.1729-0.0559-0.3542-0.084-0.5441-0.084c-0.3457,0-0.6427,0.0658-0.891,0.1971c-0.2483,0.1315-0.4516,0.3056-0.6098,0.5222
					c-0.1583,0.2167-0.2751,0.4613-0.3505,0.7339c-0.0756,0.2727-0.1132,0.5527-0.1132,0.8398c0,0.2824,0.0376,0.5612,0.1132,0.8362
					c0.0754,0.2751,0.1922,0.5209,0.3505,0.7376c0.1582,0.2167,0.3615,0.3907,0.6098,0.5221
					C9.131,54.6,9.428,54.6658,9.7737,54.6658c0.2434,0,0.4625-0.0439,0.6572-0.1315c0.1947-0.0876,0.3627-0.2069,0.5039-0.3579
					c0.1411-0.1508,0.2556-0.3273,0.3432-0.5295c0.0877-0.2019,0.1436-0.4199,0.168-0.6536h0.4966
					c-0.0341,0.3213-0.1095,0.611-0.2264,0.869c-0.1168,0.2581-0.2678,0.4772-0.4528,0.6573
					c-0.1851,0.1801-0.4029,0.3189-0.6536,0.4162c-0.2508,0.0974-0.5295,0.1462-0.8362,0.1462c-0.409,0-0.7681-0.0743-1.0772-0.2228
					c-0.3093-0.1485-0.566-0.3469-0.7705-0.5952c-0.2045-0.2482-0.3578-0.5354-0.4601-0.8617
					c-0.1022-0.3262-0.1534-0.6694-0.1534-1.0298c0-0.3602,0.0511-0.7035,0.1534-1.0297c0.1022-0.3262,0.2556-0.6146,0.4601-0.8654
					c0.2045-0.2507,0.4612-0.4503,0.7705-0.5989c0.3091-0.1484,0.6682-0.2227,1.0772-0.2227c0.2483,0,0.4904,0.0365,0.7267,0.1095
					c0.2361,0.073,0.4503,0.1814,0.6427,0.325c0.1923,0.1437,0.3529,0.3202,0.482,0.5295c0.129,0.2094,0.2106,0.4504,0.2447,0.723
					H11.373C11.3292,51.1433,11.2573,50.9644,11.1576,50.8062z"/>
				<path d="M13.9291,49.7655v4.7908h2.9212v0.4236h-3.4178v-5.2144H13.9291z"/>
				<path d="M17.9602,51.3429c0.1022-0.3262,0.2556-0.6146,0.4601-0.8654c0.2045-0.2507,0.4613-0.4503,0.7705-0.5989
					c0.3091-0.1484,0.6682-0.2227,1.0772-0.2227s0.7668,0.0743,1.0736,0.2227c0.3067,0.1486,0.5624,0.3482,0.7668,0.5989
					c0.2045,0.2508,0.3578,0.5393,0.4601,0.8654c0.1022,0.3262,0.1534,0.6695,0.1534,1.0297c0,0.3603-0.0511,0.7036-0.1534,1.0298
					c-0.1022,0.3263-0.2556,0.6134-0.4601,0.8617c-0.2045,0.2483-0.4601,0.4468-0.7668,0.5952
					c-0.3067,0.1485-0.6646,0.2228-1.0736,0.2228s-0.7681-0.0743-1.0772-0.2228c-0.3092-0.1485-0.566-0.3469-0.7705-0.5952
					c-0.2045-0.2482-0.3578-0.5354-0.4601-0.8617c-0.1022-0.3262-0.1534-0.6694-0.1534-1.0298
					C17.8068,52.0124,17.858,51.6692,17.9602,51.3429z M18.4167,53.2089c0.0754,0.2751,0.1923,0.5209,0.3505,0.7376
					c0.1582,0.2167,0.3615,0.3907,0.6098,0.5221c0.2483,0.1315,0.5452,0.1972,0.8909,0.1972c0.3456,0,0.6414-0.0658,0.8873-0.1972
					c0.2458-0.1315,0.4479-0.3054,0.6062-0.5221c0.1581-0.2166,0.275-0.4625,0.3505-0.7376
					c0.0754-0.2751,0.1132-0.5538,0.1132-0.8362c0-0.2872-0.0378-0.5671-0.1132-0.8398c-0.0755-0.2726-0.1924-0.5172-0.3505-0.7339
					c-0.1583-0.2166-0.3604-0.3908-0.6062-0.5222c-0.2459-0.1313-0.5417-0.1971-0.8873-0.1971
					c-0.3457,0-0.6427,0.0658-0.8909,0.1971c-0.2483,0.1315-0.4517,0.3056-0.6098,0.5222
					c-0.1582,0.2167-0.2751,0.4613-0.3505,0.7339c-0.0755,0.2727-0.1132,0.5527-0.1132,0.8398
					C18.3035,52.6551,18.3412,52.9338,18.4167,53.2089z"/>
				<path d="M24.6718,49.7655v3.228c0,0.3019,0.034,0.5586,0.1022,0.7705c0.0681,0.2117,0.168,0.3846,0.2994,0.5185
					c0.1314,0.1339,0.2921,0.2313,0.482,0.2921c0.1898,0.061,0.4041,0.0913,0.6427,0.0913c0.2434,0,0.4601-0.0303,0.65-0.0913
					c0.1899-0.0608,0.3505-0.1582,0.482-0.2921c0.1315-0.1339,0.2312-0.3068,0.2994-0.5185
					c0.0681-0.2118,0.1022-0.4686,0.1022-0.7705v-3.228h0.4966v3.3375c0,0.2678-0.0378,0.5221-0.1132,0.7631
					c-0.0755,0.241-0.1948,0.4517-0.3579,0.6318c-0.1631,0.1802-0.3725,0.3225-0.628,0.4272
					c-0.2556,0.1046-0.566,0.1571-0.9311,0.1571c-0.3604,0-0.6682-0.0525-0.9238-0.1571c-0.2556-0.1046-0.465-0.247-0.6281-0.4272
					c-0.1631-0.1801-0.2824-0.3908-0.3578-0.6318c-0.0755-0.241-0.1132-0.4953-0.1132-0.7631v-3.3375H24.6718z"/>
				<path d="M31.763,49.7655c0.7935,0.0195,1.3912,0.2423,1.7929,0.6683c0.4017,0.426,0.6025,1.0723,0.6025,1.9389
					c0,0.8667-0.2009,1.513-0.6025,1.9389c-0.4016,0.4261-0.9994,0.6489-1.7929,0.6683h-1.8038v-5.2144H31.763z M31.5147,54.5563
					c0.3748,0,0.6974-0.0402,0.9676-0.1205c0.2702-0.0804,0.493-0.2082,0.6682-0.3834c0.1753-0.1753,0.3042-0.4017,0.387-0.6792
					c0.0828-0.2775,0.1242-0.6109,0.1242-1.0005c0-0.3895-0.0414-0.723-0.1242-1.0005c-0.0828-0.2775-0.2118-0.5039-0.387-0.6792
					c-0.1753-0.1752-0.398-0.3031-0.6682-0.3834c-0.2702-0.0804-0.5928-0.1205-0.9676-0.1205h-1.059v4.3673H31.5147z"/>
				<path d="M42.0493,50.8062c-0.0998-0.1582-0.2216-0.2909-0.3651-0.3981c-0.1437-0.107-0.3019-0.1886-0.4747-0.2446
					c-0.1729-0.0559-0.3542-0.084-0.5441-0.084c-0.3457,0-0.6427,0.0658-0.8909,0.1971c-0.2483,0.1315-0.4516,0.3056-0.6098,0.5222
					c-0.1583,0.2167-0.2751,0.4613-0.3505,0.7339c-0.0756,0.2727-0.1132,0.5527-0.1132,0.8398c0,0.2824,0.0376,0.5612,0.1132,0.8362
					c0.0754,0.2751,0.1922,0.5209,0.3505,0.7376c0.1582,0.2167,0.3615,0.3907,0.6098,0.5221
					c0.2483,0.1315,0.5452,0.1972,0.8909,0.1972c0.2434,0,0.4625-0.0439,0.6573-0.1315c0.1947-0.0876,0.3627-0.2069,0.5039-0.3579
					c0.1411-0.1508,0.2556-0.3273,0.3432-0.5295c0.0877-0.2019,0.1436-0.4199,0.168-0.6536h0.4966
					c-0.0341,0.3213-0.1095,0.611-0.2264,0.869c-0.1168,0.2581-0.2678,0.4772-0.4528,0.6573
					c-0.1851,0.1801-0.4029,0.3189-0.6536,0.4162c-0.2508,0.0974-0.5295,0.1462-0.8362,0.1462c-0.409,0-0.7681-0.0743-1.0772-0.2228
					c-0.3093-0.1485-0.566-0.3469-0.7705-0.5952c-0.2045-0.2482-0.3578-0.5354-0.4601-0.8617
					c-0.1022-0.3262-0.1534-0.6694-0.1534-1.0298c0-0.3602,0.0512-0.7035,0.1534-1.0297c0.1022-0.3262,0.2556-0.6146,0.4601-0.8654
					c0.2045-0.2507,0.4612-0.4503,0.7705-0.5989c0.3091-0.1484,0.6682-0.2227,1.0772-0.2227c0.2483,0,0.4905,0.0365,0.7267,0.1095
					c0.2361,0.073,0.4503,0.1814,0.6427,0.325c0.1923,0.1437,0.3529,0.3202,0.482,0.5295c0.129,0.2094,0.2106,0.4504,0.2447,0.723
					h-0.4966C42.2209,51.1433,42.149,50.9644,42.0493,50.8062z"/>
				<path d="M44.8207,49.7655v4.7908h2.9212v0.4236h-3.4178v-5.2144H44.8207z"/>
				<path d="M49.5092,49.7655v5.2144h-0.4966v-5.2144H49.5092z"/>
				<path d="M52.0432,49.7655l1.8038,4.5716l1.7965-4.5716h0.7303v5.2144h-0.4966v-4.506h-0.0146l-1.782,4.506h-0.4674
					l-1.7892-4.506h-0.0146v4.506h-0.4966v-5.2144H52.0432z"/>
				<path d="M60.2226,49.7655l2.0449,5.2144h-0.5332l-0.6353-1.6213h-2.3735l-0.6281,1.6213h-0.5258l2.096-5.2144H60.2226z
					 M60.931,52.935l-1.0078-2.673l-1.0443,2.673H60.931z"/>
				<path d="M67.0436,49.7655v0.4235h-1.8185v4.7908h-0.4965V50.189h-1.8113v-0.4235H67.0436z"/>
				<path d="M71.8635,49.7655v0.4235h-3.1037v1.8842h2.9066v0.4235h-2.9066v2.0595h3.1404v0.4236h-3.637v-5.2144H71.8635z"/>
				<path d="M79.6813,50.8062c-0.0998-0.1582-0.2216-0.2909-0.3651-0.3981c-0.1437-0.107-0.3021-0.1886-0.4747-0.2446
					c-0.1729-0.0559-0.3542-0.084-0.5442-0.084c-0.3457,0-0.6427,0.0658-0.891,0.1971c-0.2482,0.1315-0.4515,0.3056-0.6097,0.5222
					c-0.1584,0.2167-0.2753,0.4613-0.3506,0.7339c-0.0756,0.2727-0.1133,0.5527-0.1133,0.8398c0,0.2824,0.0377,0.5612,0.1133,0.8362
					c0.0754,0.2751,0.1922,0.5209,0.3506,0.7376c0.1582,0.2167,0.3615,0.3907,0.6097,0.5221
					c0.2482,0.1315,0.5452,0.1972,0.891,0.1972c0.2435,0,0.4626-0.0439,0.6574-0.1315c0.1946-0.0876,0.3626-0.2069,0.5039-0.3579
					c0.1411-0.1508,0.2555-0.3273,0.3432-0.5295c0.0877-0.2019,0.1435-0.4199,0.168-0.6536h0.4967
					c-0.0343,0.3213-0.1096,0.611-0.2265,0.869c-0.1169,0.2581-0.2678,0.4772-0.4528,0.6573
					c-0.185,0.1801-0.4028,0.3189-0.6536,0.4162c-0.2508,0.0974-0.5295,0.1462-0.8362,0.1462c-0.409,0-0.7681-0.0743-1.0772-0.2228
					s-0.5659-0.3469-0.7705-0.5952c-0.2044-0.2482-0.3579-0.5354-0.4601-0.8617c-0.1022-0.3262-0.1533-0.6694-0.1533-1.0298
					c0-0.3602,0.0511-0.7035,0.1533-1.0297c0.1022-0.3262,0.2557-0.6146,0.4601-0.8654c0.2046-0.2507,0.4613-0.4503,0.7705-0.5989
					c0.3091-0.1484,0.6683-0.2227,1.0772-0.2227c0.2484,0,0.4905,0.0365,0.7266,0.1095c0.2361,0.073,0.4505,0.1814,0.6427,0.325
					c0.1922,0.1437,0.353,0.3202,0.482,0.5295c0.129,0.2094,0.2106,0.4504,0.2446,0.723h-0.4965
					C79.8529,51.1433,79.781,50.9644,79.6813,50.8062z"/>
				<path d="M81.8319,51.3429c0.1024-0.3262,0.2557-0.6146,0.4603-0.8654c0.2044-0.2507,0.4611-0.4503,0.7704-0.5989
					c0.3091-0.1484,0.6683-0.2227,1.0772-0.2227c0.409,0,0.7666,0.0743,1.0734,0.2227c0.3068,0.1486,0.5625,0.3482,0.7668,0.5989
					c0.2046,0.2508,0.3579,0.5393,0.4601,0.8654c0.1024,0.3262,0.1535,0.6695,0.1535,1.0297c0,0.3603-0.0511,0.7036-0.1535,1.0298
					c-0.1022,0.3263-0.2555,0.6134-0.4601,0.8617c-0.2044,0.2483-0.4601,0.4468-0.7668,0.5952
					c-0.3068,0.1485-0.6644,0.2228-1.0734,0.2228c-0.409,0-0.7681-0.0743-1.0772-0.2228c-0.3093-0.1485-0.5661-0.3469-0.7704-0.5952
					c-0.2046-0.2482-0.3579-0.5354-0.4603-0.8617c-0.1022-0.3262-0.1533-0.6694-0.1533-1.0298
					C81.6787,52.0124,81.7298,51.6692,81.8319,51.3429z M82.2884,53.2089c0.0756,0.2751,0.1925,0.5209,0.3506,0.7376
					c0.1582,0.2167,0.3615,0.3907,0.6097,0.5221c0.2485,0.1315,0.5452,0.1972,0.8912,0.1972c0.3455,0,0.6412-0.0658,0.8871-0.1972
					c0.2459-0.1315,0.4479-0.3054,0.6063-0.5221c0.1582-0.2166,0.2748-0.4625,0.3504-0.7376
					c0.0756-0.2751,0.1133-0.5538,0.1133-0.8362c0-0.2872-0.0377-0.5671-0.1133-0.8398c-0.0756-0.2726-0.1922-0.5172-0.3504-0.7339
					c-0.1584-0.2166-0.3604-0.3908-0.6063-0.5222c-0.2459-0.1313-0.5416-0.1971-0.8871-0.1971
					c-0.3459,0-0.6427,0.0658-0.8912,0.1971c-0.2482,0.1315-0.4515,0.3056-0.6097,0.5222
					c-0.1582,0.2167-0.2751,0.4613-0.3506,0.7339c-0.0754,0.2727-0.113,0.5527-0.113,0.8398
					C82.1753,52.6551,82.213,52.9338,82.2884,53.2089z"/>
				<path d="M88.6458,49.7655l3.038,4.411h0.0147v-4.411h0.4967v5.2144h-0.555l-3.0382-4.411h-0.0145v4.411h-0.4967v-5.2144H88.6458
					z"/>
				<path d="M97.5408,49.7655v0.4235h-1.8183v4.7908h-0.4967V50.189h-1.8111v-0.4235H97.5408z"/>
				<path d="M101.1485,49.7655c0.2142,0,0.4175,0.0268,0.6097,0.0804c0.1925,0.0535,0.3604,0.1351,0.5039,0.2446
					c0.1437,0.1095,0.258,0.2508,0.3434,0.4236c0.0852,0.1729,0.1277,0.3762,0.1277,0.6098c0,0.3312-0.0852,0.6183-0.2557,0.8618
					c-0.1703,0.2434-0.4234,0.3993-0.7594,0.4674v0.0146c0.1703,0.0244,0.3115,0.0694,0.4234,0.1351
					c0.112,0.0658,0.2033,0.1498,0.274,0.252c0.0705,0.1023,0.1216,0.2203,0.1533,0.3543c0.0317,0.1339,0.0524,0.2787,0.0622,0.4345
					c0.0047,0.0876,0.0096,0.1948,0.0145,0.3213c0.0049,0.1267,0.0147,0.2545,0.0294,0.3834
					c0.0145,0.1291,0.0375,0.2509,0.0692,0.3652c0.0317,0.1144,0.0743,0.2033,0.1279,0.2665h-0.5478
					c-0.0292-0.0486-0.0524-0.1083-0.0694-0.1789c-0.017-0.0705-0.0292-0.1435-0.0364-0.2191
					c-0.0074-0.0755-0.0136-0.1498-0.0183-0.2228c-0.0049-0.073-0.0098-0.1362-0.0147-0.1898
					c-0.0098-0.185-0.0256-0.3688-0.0475-0.5514c-0.0219-0.1827-0.0681-0.3456-0.1388-0.4893
					c-0.0705-0.1436-0.1729-0.2593-0.3066-0.3469c-0.1341-0.0876-0.3178-0.1266-0.5514-0.1169h-1.8843v2.3151h-0.4965v-5.2144
					H101.1485z M101.1121,52.2412c0.1507,0,0.2944-0.0231,0.4307-0.0694c0.1362-0.0462,0.2557-0.1132,0.3579-0.2008
					c0.1024-0.0877,0.1837-0.1936,0.2448-0.3177c0.0607-0.1241,0.0911-0.2665,0.0911-0.4273c0-0.3213-0.0924-0.5744-0.2774-0.7595
					c-0.1852-0.1849-0.4675-0.2775-0.8471-0.2775h-1.8551v2.0522H101.1121z"/>
				<path d="M104.2375,51.3429c0.1024-0.3262,0.2557-0.6146,0.4603-0.8654c0.2044-0.2507,0.4611-0.4503,0.7705-0.5989
					c0.3091-0.1484,0.6683-0.2227,1.0772-0.2227c0.409,0,0.7666,0.0743,1.0734,0.2227c0.3068,0.1486,0.5625,0.3482,0.7668,0.5989
					c0.2046,0.2508,0.3579,0.5393,0.4601,0.8654c0.1024,0.3262,0.1535,0.6695,0.1535,1.0297c0,0.3603-0.0511,0.7036-0.1535,1.0298
					c-0.1022,0.3263-0.2555,0.6134-0.4601,0.8617c-0.2044,0.2483-0.4601,0.4468-0.7668,0.5952
					c-0.3068,0.1485-0.6644,0.2228-1.0734,0.2228c-0.409,0-0.7681-0.0743-1.0772-0.2228c-0.3093-0.1485-0.5661-0.3469-0.7705-0.5952
					c-0.2046-0.2482-0.3579-0.5354-0.4603-0.8617c-0.1022-0.3262-0.1533-0.6694-0.1533-1.0298
					C104.0842,52.0124,104.1353,51.6692,104.2375,51.3429z M104.694,53.2089c0.0756,0.2751,0.1925,0.5209,0.3506,0.7376
					c0.1582,0.2167,0.3615,0.3907,0.6097,0.5221c0.2485,0.1315,0.5452,0.1972,0.8912,0.1972c0.3455,0,0.6412-0.0658,0.8871-0.1972
					c0.2459-0.1315,0.4479-0.3054,0.6063-0.5221c0.1582-0.2166,0.2748-0.4625,0.3504-0.7376
					c0.0756-0.2751,0.1133-0.5538,0.1133-0.8362c0-0.2872-0.0377-0.5671-0.1133-0.8398c-0.0756-0.2726-0.1922-0.5172-0.3504-0.7339
					c-0.1584-0.2166-0.3604-0.3908-0.6063-0.5222c-0.2459-0.1313-0.5416-0.1971-0.8871-0.1971
					c-0.3459,0-0.6427,0.0658-0.8912,0.1971c-0.2482,0.1315-0.4515,0.3056-0.6097,0.5222
					c-0.1582,0.2167-0.2751,0.4613-0.3506,0.7339c-0.0754,0.2727-0.113,0.5527-0.113,0.8398
					C104.5809,52.6551,104.6186,52.9338,104.694,53.2089z"/>
				<path d="M111.0002,49.7655v4.7908h2.9211v0.4236h-3.4178v-5.2144H111.0002z"/>
			</g>
		</g>
	</g>
	<path d="M120.4397,2.439c-4.3413,0-7.8607,3.5194-7.8607,7.8607c0,4.3413,3.5194,7.8607,7.8607,7.8607
		c4.3413,0,7.8607-3.5194,7.8607-7.8607C128.3004,5.9583,124.7809,2.439,120.4397,2.439z M120.4397,16.1929
		c-3.2547,0-5.8933-2.6385-5.8933-5.8933c0-3.2548,2.6386-5.8933,5.8933-5.8933c3.2547,0,5.8933,2.6385,5.8933,5.8933
		C126.3329,13.5544,123.6943,16.1929,120.4397,16.1929z"/>
</g>
</svg>
