<?xml version="1.0" encoding="utf-8"?>
<svg version="1.1" xmlns="http://www.w3.org/2000/svg" xmlns:xlink="http://www.w3.org/1999/xlink" x="0px" y="0px"
	 viewBox="0 0 79.7191 69.6499" style="enable-background:new 0 0 79.7191 69.6499;" xml:space="preserve" aria-labelledby="title-logo-wemo" aria-describedby="desc-logo-wemo" role="img">
<title id="title-logo-wemo">Wemo logo</title>
<desc id="desc-logo-wemo">Wemo logo</desc>
<g transform="matrix(7.7633 0 0 7.7633 -102.09 -3954.9)">
	<g>
		<path d="M20.1492,514.5413c-0.5106,0-0.926,0.3935-0.926,0.8771c0,0.4835,0.4155,0.8769,0.926,0.8769
			c0.5107,0,0.9256-0.3934,0.9256-0.8769C21.0748,514.9348,20.6597,514.5413,20.1492,514.5413z"/>
		<path d="M20.1497,511.524c-0.3544,0-0.6758,0.1857-0.8388,0.4842l-0.0699,0.1287h1.8163l-0.0699-0.1287
			C20.8246,511.7096,20.5036,511.524,20.1497,511.524z"/>
		<path d="M21.0416,509.6127h-5.5278c-0.8533,0-1.5444,0.6913-1.5444,1.5446v5.5281c0,0.8525,0.6912,1.5444,1.5444,1.5444h5.5277
			c0.853,0,1.5448-0.692,1.5448-1.5444h0.0001v-5.5281C22.5864,510.3042,21.8946,509.6127,21.0416,509.6127z M18.3489,516.6683
			h-0.4337v-1.5907c0-0.2621-0.2134-0.4756-0.4754-0.4756c-0.2624,0-0.4755,0.2134-0.4755,0.4756v1.5907h-0.4336v-1.5907
			c0-0.2621-0.2131-0.4756-0.4758-0.4756c-0.2619,0-0.475,0.2134-0.475,0.4756v1.5907h-0.4341v-1.5907
			c0-0.501,0.4081-0.9091,0.9091-0.9091c0.2328,0,0.4634,0.0933,0.6326,0.2562l0.0599,0.0583l0.0606-0.0583
			c0.1694-0.1629,0.3994-0.2562,0.6317-0.2562c0.5012,0,0.9092,0.408,0.9092,0.9091V516.6683z M18.3491,512.7468
			c0,0.5013-0.4078,0.9091-0.9095,0.9091c-0.2326,0-0.4629-0.0934-0.6321-0.2562l-0.0604-0.0583l-0.0603,0.0583
			c-0.1692,0.1628-0.3993,0.2562-0.6317,0.2562c-0.5016,0-0.9096-0.4077-0.9096-0.9091v-1.5907h0.4342v1.5907
			c0,0.2622,0.2131,0.4752,0.4754,0.4752c0.262,0,0.4755-0.213,0.4755-0.4752v-1.5907h0.4333v1.5907
			c0,0.2622,0.2133,0.4752,0.4756,0.4752c0.262,0,0.4752-0.213,0.4752-0.4752v-1.5907h0.4342V512.7468z M20.1492,516.7158
			c-0.7505,0-1.3604-0.582-1.3604-1.2975c0-0.7152,0.61-1.2975,1.3604-1.2975c0.7501,0,1.3605,0.5823,1.3605,1.2975
			C21.5097,516.1339,20.8993,516.7158,20.1492,516.7158z M21.506,512.5065l-0.0056,0.063h-2.2707l0.041,0.1165
			c0.127,0.357,0.4801,0.597,0.8789,0.597c0.2978,0,0.5794-0.1375,0.7537-0.3676l0.0391-0.0525l0.3553,0.2422l-0.0431,0.0576
			c-0.2552,0.3385-0.6685,0.5405-1.1049,0.5405c-0.7507,0-1.3612-0.5818-1.3612-1.2972c0-0.7154,0.6105-1.2974,1.3612-1.2974
			c0.7498,0,1.3603,0.582,1.3603,1.2974C21.51,512.4401,21.5085,512.4734,21.506,512.5065z"/>
	</g>
	<g transform="translate(0 496.34)">
		<path d="M22.8822,21.8894c-0.1951,0-0.3566-0.1517-0.3566-0.3606s0.1614-0.3606,0.3566-0.3606s0.3566,0.1517,0.3566,0.3606
			S23.0774,21.8894,22.8822,21.8894z M22.8822,21.2254c-0.1635,0-0.2975,0.1261-0.2975,0.3034c0,0.1754,0.134,0.3015,0.2975,0.3015
			s0.2955-0.1261,0.2955-0.3015C23.1777,21.3515,23.0457,21.2254,22.8822,21.2254z M22.8252,21.5799v0.1341h-0.0828v-0.3783h0.1655
			c0.0828,0,0.134,0.0453,0.134,0.124c0,0.0591-0.0315,0.0985-0.0828,0.1123l0.0965,0.1419h-0.0926l-0.0887-0.1341h-0.0493V21.5799z
			 M22.9039,21.4067h-0.0788v0.1044h0.0788c0.0374,0,0.0591-0.0238,0.0591-0.0514C22.9631,21.4303,22.9413,21.4067,22.9039,21.4067z
			"/>
	</g>
</g>
</svg>
