<?xml version="1.0" encoding="utf-8"?>
<svg version="1.1" xmlns="http://www.w3.org/2000/svg" xmlns:xlink="http://www.w3.org/1999/xlink" x="0px" y="0px"
	 viewBox="0 0 137.7178 50.6758" style="enable-background:new 0 0 137.7178 50.6758;" xml:space="preserve" aria-labelledby="title-logo-whirlpool" aria-describedby="desc-logo-whirlpool" role="img">
<title id="title-logo-whirlpool">Whirlpool logo</title>
<desc id="desc-logo-whirlpool">Whirlpool logo</desc>
<g>
	<g>
		<g>
			<path d="M34.1804,9.4253l-6.6714,24.381h-3.8768l-4.7157-17.7096l-4.7853,17.7096h-3.8772L3.5824,9.4253h3.8423l4.7503,17.7096
				l4.7853-17.7096h3.8072l4.8204,17.7096l4.7507-17.7096H34.1804z"/>
			<path d="M35.9591,9.4953l3.8423-0.3143v5.9726l-0.0701,2.2355h0.1401c1.781-0.6637,3.2136-0.978,4.96-0.978
				c3.109,0,5.2043,1.3975,5.2043,6.7412v10.654h-3.8423V23.4666c0-3.2133-1.5717-3.6323-3.3527-3.6323
				c-1.1182,0-2.0613,0.2447-3.0394,0.5241v13.4479h-3.8423V9.4953z"/>
			<path d="M55.3087,9.7396c1.9912,0,2.3055,1.1528,2.3055,2.4452c0,1.2924-0.4194,2.4802-2.3055,2.4802
				c-1.8861,0-2.2705-1.1878-2.2705-2.4802C53.0382,10.8924,53.3876,9.7396,55.3087,9.7396z M53.3876,16.6558h3.8423v17.1505
				h-3.8423V16.6558z"/>
			<path d="M60.4775,16.6558h2.6198l0.5241,1.3971h0.2448c1.0127-0.873,2.6189-1.6418,4.7152-1.6418c0.2443,0,0.5237,0,0.8029,0.035
				v3.7722c-0.6978-0.1041-1.4316-0.2092-2.1654-0.2092c-1.0481,0-1.8861,0.2443-2.8992,0.6985v13.0987h-3.8423V16.6558z"/>
			<path d="M71.0252,33.8063V9.4953l3.8423-0.3143v24.6253H71.0252z"/>
		</g>
	</g>
	<path d="M102.18,16.411c5.449,0,7.5453,3.2135,7.5453,8.9066c0,5.3441-1.9561,8.838-7.6154,8.838
		c-5.6583,0-7.6495-3.4938-7.6495-8.838C94.4605,19.6246,96.731,16.411,102.18,16.411z M105.813,25.3177
		c0-3.2476-0.5246-5.9023-3.598-5.9023c-3.1084,0-3.8773,2.5496-3.8773,5.9023c0,3.1087,0.6287,5.7986,3.7031,5.7986
		C105.1143,31.1163,105.813,28.5665,105.813,25.3177z"/>
	<path d="M119.4085,16.411c5.449,0,7.5453,3.2135,7.5453,8.9066c0,5.3441-1.9563,8.838-7.6155,8.838
		c-5.6583,0-7.6495-3.4938-7.6495-8.838C111.6889,19.6246,113.9594,16.411,119.4085,16.411z M123.0415,25.3177
		c0-3.2476-0.5246-5.9023-3.598-5.9023c-3.1085,0-3.8773,2.5496-3.8773,5.9023c0,3.1087,0.6287,5.7986,3.703,5.7986
		C122.3427,31.1163,123.0415,28.5665,123.0415,25.3177z"/>
	<path d="M129.4414,33.8063V9.4953l3.8423-0.3143v24.6253H129.4414z"/>
	<path d="M78.011,16.6553h2.8992l0.3144,1.2574c1.1532-0.6287,3.2827-1.5017,5.2047-1.5017c3.4919,0,6.0418,2.5498,6.0418,8.6617
		c0,6.0086-2.6899,8.9779-7.1599,8.9779c-1.6455,0-3.4579-0.3494-3.4579-0.3494v7.8587l-3.8423,0.4195V16.6553z M81.8533,30.6278
		c1.0823,0.0341,1.6769,0.0691,2.7941,0.0691c2.3747,0,3.9473-1.2574,3.9473-6.2529c0-3.4229-1.3975-4.3299-3.9123-4.3299
		c-0.978,0-1.8861,0.1733-2.8292,0.4886V30.6278z"/>
	<path d="M97.0324,6.1177c-2.8733-3.3293-11.9905-0.4028-22.1649,6.6389v1.7746c8.9604-6.3693,16.8592-9.3081,19.1214-6.6869
		c2.8245,3.2728-4.2018,13.9778-15.6958,23.8971c-11.4949,9.92-23.1072,15.2985-25.9314,12.0255
		c-1.4669-1.6999-0.2708-5.4044,2.8241-9.9606h-1.799c-3.8321,5.7148-5.2686,10.5163-3.3011,12.7962
		c3.5869,4.1566,17.0037-1.5301,29.9644-12.7141C93.0095,22.7043,100.6189,10.274,97.0324,6.1177z"/>
</g>
</svg>
