<svg viewBox="0 0 320 270" xmlns="http://www.w3.org/2000/svg" role="img" aria-labelledby="title-switching-point-engineer">
    <title id="title-switching-point-engineer">A screwdriver and a spanner</title>
    <path d="m147.9957 115.154-6.1767 21.486-4.7121-4.8236-18.1163-18.5407c-38.1374 8.5911-31.4195-29.5464-31.4195-29.5464l15.0389 15.309 16.6516-15.3091-14.7732-16.381c38.4081-4.8342 28.74 32.7674 28.74 32.7674a.1568.1568 0 0 1 .0159.0212z" fill="#5840ff" />
    <path d="m233.6685 200.8268-15.0651-15.0385-15.8186 15.8451 13.9666 15.5744s-9.6683 4.0329-22.0218-4.8341c-12.3586-8.8619-5.9113-27.392-5.9113-27.392l-7.4768-7.7-19.65-20.2335 23.0991-3.757 5.3542 5.6567 11.8334 12.5126s14.7731-6.0865 26.5906 5.731 5.0997 23.6353 5.0997 23.6353z" fill="#5840ff" />
    <path d="m234.996 80.7048c-1.61-3.22-9.4-12.41-12.62-12.78-3.23-.38-7.79-2.26-13.16 3.38s-47.54 43.78-51.57 49.69c-3.21 4.71-7.07 13.53-6.19 18.95 0 .01-.01.02-.01.03a7.9988 7.9988 0 0 1 -1.68 2.02l-50.67 48.29h-4.02l-8.6 12.62 6.45 6.18 12.08-7.25v-5.91l52.64-48.61s12.63 6.71 24.17-4.84c11.55-11.55 51.57-45.92 53.18-50.49 1.61-4.56 1.61-8.06 0-11.28z" fill="#f050f8" />
    <path d="m168.268 127.4946a2 2 0 0 1 -1.3565-3.47l45.12-41.628a2 2 0 0 1 2.7119 2.9395l-45.12 41.6279a1.9909 1.9909 0 0 1 -1.3554.5306z" fill="#180048" />
    <path d="m175.7314 135.6118a2 2 0 0 1 -1.3443-3.4815l44.5829-40.4414a2 2 0 1 1 2.6875 2.9629l-44.5825 40.4414a1.9932 1.9932 0 0 1 -1.3436.5186z" fill="#180048" />
    <path d="m147.9957 115.154-6.1767 21.486-4.7121-4.8236c5.19-19.9841-3.4439-31.1488-3.8631-31.68z" fill="#2d19b8" />
    <path d="m175.8069 167.7782c1.1461 3.1149 4.7917 8.4319 5.5346 9.5038l-19.65-20.2335 23.0991-3.757 5.3542 5.6567c-1.6238-.1591-7.02-.5147-10.8623 1.332-4.5741 2.1968-4.7598 4.0222-3.4756 7.498z" fill="#2d19b8" />
    <path d="m157.646 147.3148-52.64 48.61v5.91l-12.08 7.25-6.45-6.18 8.6-12.62h4.02l50.67-48.29a7.9988 7.9988 0 0 0 1.68-2.02 9.87 9.87 0 0 0 6.2 7.34z" fill="#1ed6a6" />
    <path d="m113.0759 143.1752-.0132-16.2682.0427-.0132 4.1836 9.0843 6.0673-2.5923 1.06 17.0169-.0455.0144-5.2309-9.831z" fill="#ffa26b" />
    <path d="m102.7094 160.252 8.0681-7.5527.0264.0151-2.5681 6.29 4.1009 1.8088-7.9543 8.4194-.0282-.0159 2.4529-7.1564z" fill="#5840ff" />
</svg>
