<svg viewBox="0 0 320 270" xmlns="http://www.w3.org/2000/svg" role="img" aria-labelledby="title-switching-point-information">
    <title id="title-switching-point-information">A mobile phone with an octopus outline on display</title>
    <path d="m121.648 98.3639q.0206-.1163.04-.2336c1.0434-6.1693.6787-17.15-6.0987-20.237-8.3735-3.8138-22.1431-4.8424-28.8928-4.8522s-21.0328 5.284-20.7806 18.6675 12.0369 18.7926 19.7575 18.0668 22.1544-3.0324 24.2089-1.9821 12.595 8.4361 15.8936 7.51-2.2014-6.2869-3.7111-8.6943c-1.7568-2.8023-.9361-5.3042-.4168-8.2451z" fill="#15f0b7" />
    <g fill="#fff">
        <circle cx="83.2983" cy="91.1559" r="2.7148" />
        <circle cx="94.7883" cy="91.1802" r="2.7148" />
        <circle cx="105.9045" cy="91.2328" r="2.7148" />
    </g>
    <path d="m202.6593 80.7683s7.768 2.4775 7.7971 9.2825a72.4357 72.4357 0 0 1 -1.5132 8.8937l-22.0969 96.13s-.3844 9.4527-9.2415 8.2471-48.357-5.9258-51.8076-6.7189-7.6707-5.9152-6.6362-10.8673 52.2823-95.6332 52.2823-95.6332z" fill="#6675f6" />
    <path d="m136.34 110.8012-17.1231 73.4688a6.5128 6.5128 0 0 0 5.53 7.94l51.1774 6.4367a6.5126 6.5126 0 0 0 7.1629-5.0159l23.9592-105.2278a6.5128 6.5128 0 0 0 -5.52-7.9055l-50.4838-6.4888a6.5127 6.5127 0 0 0 -7.1678 4.9594z" fill="#5840ff" />
    <circle cx="150.3818" cy="187.3379" fill="#6675f6" r="4.3697" />
    <path d="m125.102 176.938 54.92 7.01 18.91-83.83 1.85-8.2-54.38-7.66-1.85 8.03z" fill="#100030" />
    <circle cx="175.7017" cy="83.5633" fill="#180048" r="1.2056" />
    <path d="m202.5506 177.1775a103.0362 103.0362 0 0 0 11.7334-6.1535c5.5469-3.4636 6.783-2.56 11.6794-.5176s28.1215 8.5384 38.6123 4.9694 16.514-10.625 16.0628-22.3525-7.6126-22.6945-26.2033-24.2791-31.0743-.5718-39.0167 4.3428-6.882 15.2507-6.7566 20.79.1513 8.1014-2.8534 10.9437-10.8411 14.5844-3.2579 12.2568z" fill="#ffa26b" />
    <circle cx="230.4298" cy="150.6979" fill="#fff" r="3.4646" />
    <circle cx="245.0102" cy="152.2564" fill="#fff" r="3.4646" />
    <circle cx="259.1123" cy="153.8012" fill="#fff" r="3.4646" />
    <path d="m176.6 136.2573c1.3878-4.7972.5653-13.944-11.5026-16.2367s-15.5516 6.33-16.262 10.0688c-.95 5 2.2367 8.2842 1.7258 10.0329a3.3648 3.3648 0 0 1 -1.2505 1.6689l-.0065.0032v.0011c-.5719.3979-1.0674.53-1.1351 1.2464-.0891.9422 2.4884 1.6659 4.4816 1.0252a3.1919 3.1919 0 0 1 -1.4373 1.0971c-1.0314.341-1.8312.4459-1.94 1.0206s2.4109 2.5618 5.5535 1.69a7.6744 7.6744 0 0 0 2.1771-.9444c-.0048.1028-.0081.1958-.0093.2747-.0134.8488.0246 3.2158 2.0929 3.6087s2.8695-1.5235 3.44-2.6488c.0454-.0894.091-.1846.1366-.2834a7.4834 7.4834 0 0 0 1.777 1.82c2.604 1.9634 5.6773 1.0389 5.7864.4642s-.5965-.9656-1.4309-1.6611a3.2594 3.2594 0 0 1 -.9651-1.6525c1.599 1.4366 4.4237 1.7549 4.6946.8171a1.091 1.091 0 0 0 -.22-.9674 1.506 1.506 0 0 0 -.2368-.3164 2.3573 2.3573 0 0 1 -.6156-2.4725c.7626-1.82 4.0875-3.9964 5.1462-7.6557z" fill="#ff48d8" />
</svg>
