<svg viewBox="0 0 320 270" xmlns="http://www.w3.org/2000/svg" role="img" aria-labelledby="title-switching-point-supply">
    <title id="title-switching-point-supply">A kettle plugged into an outlet</title>
    <g fill="#1ed6a6">
        <path d="m122.6672 166.9481a1 1 0 0 1 -.7309-1.6827c12.8555-13.7666 24.187-20.4067 33.69-19.73 6 .4262 11.1978 3.7309 15.4487 9.8217a1 1 0 0 1 -1.64 1.1446c-3.8887-5.5718-8.5825-8.59-13.9507-8.9712-8.8725-.63-19.664 5.7959-32.0869 19.1a.9972.9972 0 0 1 -.7302.3176z" />
        <path d="m215.7819 216.4421a1.0164 1.0164 0 0 1 -.2251-.0254c-11.6455-2.68-17.3545-8.6993-20.0933-13.2764a22.026 22.026 0 0 1 -3.2011-12.5156 47.4744 47.4744 0 0 1 -10.5757-12.417 1 1 0 0 1 1.708-1.04 46.4667 46.4667 0 0 0 9.1811 11.1123q.1-.4833.2286-.9565c1.5429-5.6582 5.957-7.8125 9.3261-6.97 2.9688.7441 5.41 3.92 4.1714 9.3374-.7812 3.4165-2.8408 4.4419-4.4316 4.7-2.1748.352-4.8384-.5205-7.6489-2.353a20.3675 20.3675 0 0 0 2.9584 10.0756c2.5391 4.2437 7.8663 9.8321 18.8252 12.354a1 1 0 0 1 -.2231 1.9747zm-21.4194-26.7515c2.8515 2.0669 5.41 3.0146 7.187 2.7261 1.4516-.2359 2.3686-1.2735 2.8022-3.1714.8242-3.6045-.2387-6.333-2.7075-6.9517-2.4473-.6162-5.7021 1.1255-6.91 5.5562a14.2209 14.2209 0 0 0 -.3717 1.8408z" />
        <path d="m239.0441 225.0758a1 1 0 0 1 -.9238-.6167l-2.2544-5.4213a1 1 0 1 1 1.8467-.7676l2.2544 5.4214a1.0011 1.0011 0 0 1 -.9229 1.3842z" />
        <path d="m231.2633 226.9059a.9446.9446 0 0 1 -.1284-.0083 1 1 0 0 1 -.8647-1.1186l.7466-5.8233a1 1 0 0 1 1.9832.2543l-.7466 5.8233a1 1 0 0 1 -.9901.8726z" />
    </g>
    <path d="m162.7216 166.5333a6.1429 6.1429 0 0 1 -2.085-.4861c-5.62-2.1874-8.7412-10.3019-9.6793-15.82-.9339-5.5176-2.3922-19.5675-6.4515-34.4489s-10.822-21.1277-17.6914-19.3583-4.5539 11.662-3.6457 15.7172c1.4541 6.4813 3.0147 18.9279 3.0147 18.9279 3.4069 24.373 2.5925 56.7838 2.5925 56.7838l-8.0717-2.972-2.3411-12.6-.0041-.0128-16.6724-89.6849s-49.7056 6.8608-42.8235-4.0678a19.86 19.86 0 0 1 7.9738-7.1124 25.6234 25.6234 0 0 1 2.7588-1.2238c8.1954-3.0957 19.1752-3.0487 30.769-1.194.3583.0555.7121.1152 1.0618.1749.0852.0128.1706.03.2559.0426 17.1413 2.8441 25.0425 6.2724 25.0425 6.2724a9.4627 9.4627 0 0 1 3.262-.52c1.9827 0 4.4089 1.663 7.1592 2.2386 2.7461.5714 5.8758.9551 6.5154 1.6587s.0512 5.7778.0512 5.7778c4.0594 4.0593 6.5495 4.217 12.8347 20.5824 6.2808 16.3652 7.7349 46.9978 8.2551 52.2.4435 4.4343 1.1854 9.1714-2.0809 9.1247z" fill="#5840ff" />
    <path d="m162.721 166.5346a6.1458 6.1458 0 0 1 -2.0852-.486c-5.62-2.1875-8.7412-10.302-9.6793-15.82-.9338-5.5176-2.3921-19.5675-6.4515-34.4489s-10.822-21.1277-17.6913-19.3582-4.554 11.6621-3.6457 15.7171c1.454 6.4814 3.0147 18.928 3.0147 18.928 3.4068 24.373 2.5924 56.7838 2.5924 56.7838l-8.0717-2.972-2.341-12.6-.0042-.0127-8.5409-93.7528s24.5227-.6229 37.4892 18.2882c10.8178 15.781 14.4935 56.6345 15.4145 69.7335z" fill="#2d19b8" />
    <path d="m143.712 84.6273c-1.7142-1.4541-9.01-4.5881-12.6727-6.0805-3.6671-1.4924-4.3151-3.0743-4.3151-3.0743a9.46 9.46 0 0 1 3.2619-.52c1.9828 0 4.409 1.663 7.1593 2.2386 2.746.5714 5.8757.9552 6.5153 1.6587s.0513 5.7775.0513 5.7775z" fill="#2d19b8" />
    <path d="m102.9317 73.0022c-.5245 1.9913-6.9248 1.4669-9.1292 1.4669s-26.019 1.0532-26.9656-.9424a3.3579 3.3579 0 0 1 0-2.1277 25.6234 25.6234 0 0 1 2.7588-1.2238c8.1954-3.0957 19.1752-3.0487 30.769-1.194.3583.0555.7121.1152 1.0618.1749.0852.0128.1706.03.2559.0426.8058 1.356 1.4924 2.874 1.2493 3.8035z" fill="#6675f6" />
    <path d="m123.2726 185.6225h11.0486c1.9637 0 3.5555 1.314 3.5555 2.935 0 1.621-1.5918 2.935-3.5555 2.935h-11.0486c-2.2509 0-3.9354-1.7046-3.4831-3.5248a3.46 3.46 0 0 1 3.4831-2.3452z" fill="#ffa26b" />
    <path d="m125.0236 193.162-1.0277 7.3981-60.4551-1.5393-20.2925-.516s-2.0552-9.8626 0-54.6518c2.0511-44.793 15.6148-65.3416 15.6148-65.3416h50.9549a189.9767 189.9767 0 0 1 13.7644 57.53 541.544 541.544 0 0 1 1.4412 57.1206z" fill="#f050f8" />
    <path d="m65.6081 196.4552-12.8262-1.1852s.2-51.1042 5.13-73.9934a286.3489 286.3489 0 0 1 13.12-42.7637h7.5132c-2.2851 6.9501-17.5037 56.0203-12.937 117.9423z" fill="#f484fa" />
    <path d="m115.7025 181.6279a2.1342 2.1342 0 0 1 -2.132 2.0979h-.0342a2.1394 2.1394 0 0 1 -2.0978-2.17 383.6512 383.6512 0 0 0 -1.7312-42.5889 335.9569 335.9569 0 0 0 -5.36-36.7942 2.1321 2.1321 0 1 1 4.1616-.93 339.4689 339.4689 0 0 1 5.4068 37.0244 387.9868 387.9868 0 0 1 1.7868 43.3608z" fill="#ffa26b" />
    <path d="m57.6308 84.9926-3.9867 11.2315a.0153.0153 0 0 0 -.0044.0128l-3.8759 10.9158-2.5713 7.2445-.9978 2.8058-7.236-30.2276.8315-.09.2-.0212 1.164-.1237 8.0931-.8571z" fill="#ffa26b" />
    <path d="m53.6441 96.2241c.64-2.2 2.1831-7.8756 1.3217-8.7754-1.13-1.1811-4.6946-1.4967-5.718-1.5649l8.383-.8912z" fill="#180048" opacity=".2" />
    <path d="m49.764 107.153-2.571 7.244-7.403-27.511.201-.021 1.164-.124z" fill="#fff" opacity=".2" />
    <path d="m125.0236 193.162-1.0277 7.3981-60.4551-1.5393c-9.1378-1.3261-9.8414-2.3921 7.3255-2.6991 55.3682-.9893 51.7438-12.1951 48.1193-51.7438-3.2533-35.515-14.2161-61.1971-16.4206-66.0665h7.253a189.9767 189.9767 0 0 1 13.7644 57.53 541.544 541.544 0 0 1 1.4412 57.1206z" fill="#bb00d4" />
    <path d="m43.1193 192.98s12.5035 3.4389 40.2658 3.65c0 0 25.76.3992 41.6358-3.4661 0 0 1.88-1.263 1.88 1.3393 0 1.6425.0841 6.0028.1461 8.9958a3.4811 3.4811 0 0 1 -2.9436 3.514c-7.6055 1.1879-27.9255 4.1471-41.0092 4.0465-12.7789-.0983-31.0879-2.6544-38.4837-3.7675a3.9673 3.9673 0 0 1 -3.3741-3.8166l-.2285-8.4527s-.456-3.6627 2.1114-2.0427z" fill="#5840ff" />
    <path d="m115.7025 181.6279a2.1342 2.1342 0 0 1 -2.132 2.0979h-.0342a2.1394 2.1394 0 0 1 -2.0978-2.17 383.6512 383.6512 0 0 0 -1.7312-42.5889c.1662-.0427.3325-.0768.4945-.1066 1.13-.2047 1.8464 1.2323 2.567.1023a1.6083 1.6083 0 0 1 1.147-.695 387.9868 387.9868 0 0 1 1.7867 43.3603z" fill="#1ed6a6" />
    <rect fill="#ffa26b" height="46.4558" rx="5.9464" width="81.7622" x="194.6793" y="103.7657" />
    <rect fill="#ffbd97" height="28.9115" rx="4.5469" width="28.3091" x="201.7427" y="112.995" />
    <path d="m214.2896 119.2731h3.0959v7.961h-3.0959z" fill="#5840ff" />
    <path d="m207.8763 129.2074h3.0959v6.3814h-3.0959z" fill="#5840ff" transform="matrix(0 -1 1 0 77.0262 341.8223)" />
    <path d="m220.4971 129.1711h3.0959v6.3814h-3.0959z" fill="#5840ff" transform="matrix(0 -1 1 0 89.6833 354.4068)" />
    <path d="m269.4508 124.143v12.5045a4.7566 4.7566 0 0 1 -4.7426 4.7426h-18.824a4.7461 4.7461 0 0 1 -4.213-2.5807 4.6392 4.6392 0 0 1 -.53-2.1619v-12.9313a7.8716 7.8716 0 0 1 1.407-4.4818c1.8773-2.7072 4.9165-6.4736 8.0821-6.517 2.7309-.0435 5.7543-.162 8.5089-.1028a12.0375 12.0375 0 0 1 2.9009.336 5.1649 5.1649 0 0 1 2.9048 2.0037c.9485 1.2331 1.9919 2.6874 2.8337 3.8889a9.2153 9.2153 0 0 1 1.6722 5.2998z" fill="#1ed6a6" />
    <path d="m231.1664 107.3109h3.0945v7.9636h-3.0945z" fill="#ffbd97" />
    <path d="m239.462 107.3109h3.0945v7.9596h-3.0945z" fill="#ffbd97" />
    <path d="m231.1664 107.3188h3.0945v1.5532h-3.0945z" fill="#f050f8" />
    <path d="m239.462 113.7133h3.0945v1.5571h-3.0945z" fill="#f050f8" />
    <path d="m269.4508 124.143v12.5045a4.7566 4.7566 0 0 1 -4.7426 4.7426h-18.824a4.7461 4.7461 0 0 1 -4.213-2.5807c.96.988 2.4227 1.66 5.0508 1.0235 2.8693-.6955 8.094-2.5254 12.2714-2.8731s6.355 2.1776 7.92.3477c1.569-1.8258.9564-11.3149.1739-16.2788-.7825-4.96-7.9478-8.4141-7.9478-8.4141l2.9009.336a5.1649 5.1649 0 0 1 2.9048 2.0037c.9485 1.2331 1.9919 2.6874 2.8337 3.8889a9.2153 9.2153 0 0 1 1.6719 5.2998z" fill="#12c093" />
    <path d="m222.57 211.24 12.3255 1.972.0048.034-7.3914 2.0625 1.2246 4.912-13.02-1.27-.0053-.0362 8.0847-2.7649z" fill="#f050f8" />
    <path d="m182.1676 166.0021a1.0009 1.0009 0 0 1 -.9253-1.3789l1.816-4.44a1 1 0 1 1 1.8515.7568l-1.8159 4.44a1.0014 1.0014 0 0 1 -.9263.6221z" fill="#1ed6a6" />
    <path d="m184.4069 168.8674a1 1 0 0 1 -.2524-1.9678l4.6411-1.2129a1 1 0 0 1 .5058 1.9355l-4.6411 1.2124a1.01 1.01 0 0 1 -.2534.0328z" fill="#1ed6a6" />
    <path d="m245.5734 217.9059a.9862.9862 0 0 1 -.2476-.0312l-5.6889-1.45a1 1 0 0 1 .4941-1.938l5.689 1.4507a1 1 0 0 1 -.2466 1.9687z" fill="#1ed6a6" />
    <path d="m256.7033 148.4328c-.02 14.34-.44 34.24-4.22 45.41a36.7691 36.7691 0 0 1 -13.54 18.3.9679.9679 0 0 1 -.56.17.9961.9961 0 0 1 -.57-1.82 34.7045 34.7045 0 0 0 12.78-17.29c4.18-12.37 4.14-36.07 4.12-50.22v-2.9a1 1 0 0 1 2 0v2.89c0 1.7.01 3.53-.01 5.46z" fill="#1ed6a6" />
    <path d="m256.7033 148.4328a4.8481 4.8481 0 0 1 -.63-1.33c-.4-1.36.05-2.17-.55-3.73a2.4108 2.4108 0 0 0 -.81-1.03v-2.26a1 1 0 0 1 2 0v2.89c0 1.7.01 3.53-.01 5.46z" fill="#12c093" />
    <path d="m171.6953 170.8459-2.5492-12.2191.03-.0166 4.5609 6.1713 4.1532-2.8945 3.4523 12.6183-.0319.0179-5.4642-6.5689z" fill="#f050f8" />
</svg>
