<svg version="1.1" xmlns="http://www.w3.org/2000/svg" xmlns:xlink="http://www.w3.org/1999/xlink" width="227" height="93.81" viewBox="0 0 227 93.81" aria-labelledby="title-rea-company-of-the-year" role="img">
<title id="title-rea-company-of-the-year">Octopus Energy is REA's company of the year</title>
  <defs>
    <clipPath id="clip-rea-company-of-the-year">
      <rect width="227" height="93.81"/>
    </clipPath>
  </defs>
  <g clip-path="url(#clip-rea-company-of-the-year)">
    <g transform="translate(-4.832 -2.899)">
      <g>
        <g>
          <path d="M22.8,37.149,11.563,21.357h-.092V37.149H6.5V3.079H17.41c8.195,0,11.832,4.328,11.832,11.326a9.759,9.759,0,0,1-9.761,10.037l9.531,12.707H22.8ZM15.108,20.666c5.8,0,9.162-2.256,9.162-6.676,0-3.914-3.131-6.354-7.551-6.354H11.47V20.666Z" fill="#5bf8ff"/>
          <path d="M35.687,37.149V3.079h18.37V7.637H40.66V17.674h13.4v4.558H40.66V32.591h13.4v4.558Z" fill="#5bf8ff"/>
        </g>
        <path d="M59.5,36.684,77.482,2.9,95.81,36.712H83.542L77.57,25.594,71.845,36.7Z" fill="#5bf8ff"/>
        <g>
          <path d="M102.864,6.762v6.4h-1.125v-6.4h-1.715V5.7h4.55V6.762Z" fill="#ed4ff2"/>
          <path d="M106.7,8.622h3.217V5.7h1.125v7.458H109.92V9.68H106.7v3.483h-1.125V5.7H106.7Z" fill="#ed4ff2"/>
          <path d="M116.948,6.762h-2.99V8.554h2.9V9.612h-2.9V12.1h2.99v1.058h-4.115V5.7h4.115Z" fill="#ed4ff2"/>
          <path d="M125.861,11.351h-3.193l-.83,1.811h-1.213l3.69-7.926,3.56,7.926h-1.231Zm-.46-1.058L124.3,7.758l-1.159,2.536Z" fill="#ed4ff2"/>
          <path d="M133.023,6.815l-.913.541a1.566,1.566,0,0,0-.488-.58A1.138,1.138,0,0,0,131,6.622a1.15,1.15,0,0,0-.778.266.823.823,0,0,0-.309.657q0,.546.811.879l.744.3a3.177,3.177,0,0,1,1.329.9,2.019,2.019,0,0,1,.42,1.3,2.275,2.275,0,0,1-.686,1.7,2.352,2.352,0,0,1-1.715.677,2.292,2.292,0,0,1-1.6-.575,2.643,2.643,0,0,1-.778-1.618l1.14-.251a1.937,1.937,0,0,0,.27.908,1.286,1.286,0,0,0,1.889.131,1.219,1.219,0,0,0,.347-.894,1.254,1.254,0,0,0-.06-.4,1.012,1.012,0,0,0-.189-.333,1.5,1.5,0,0,0-.331-.285,3.136,3.136,0,0,0-.483-.254l-.719-.3a2.072,2.072,0,0,1-1.531-1.893,1.8,1.8,0,0,1,.643-1.406,2.319,2.319,0,0,1,1.6-.57A2.231,2.231,0,0,1,133.023,6.815Z" fill="#ed4ff2"/>
          <path d="M138.79,6.815l-.913.541a1.566,1.566,0,0,0-.488-.58,1.138,1.138,0,0,0-.623-.154,1.15,1.15,0,0,0-.778.266.823.823,0,0,0-.309.657q0,.546.811.879l.744.3a3.177,3.177,0,0,1,1.329.9,2.019,2.019,0,0,1,.42,1.3,2.275,2.275,0,0,1-.686,1.7,2.352,2.352,0,0,1-1.715.677,2.292,2.292,0,0,1-1.6-.575A2.643,2.643,0,0,1,134.2,11.1l1.14-.251a1.937,1.937,0,0,0,.27.908,1.286,1.286,0,0,0,1.889.131,1.219,1.219,0,0,0,.347-.894,1.254,1.254,0,0,0-.06-.4,1.012,1.012,0,0,0-.189-.333,1.5,1.5,0,0,0-.331-.285,3.136,3.136,0,0,0-.483-.254l-.719-.3a2.072,2.072,0,0,1-1.531-1.893,1.8,1.8,0,0,1,.643-1.406,2.319,2.319,0,0,1,1.6-.57A2.231,2.231,0,0,1,138.79,6.815Z" fill="#ed4ff2"/>
          <path d="M139.969,9.4a3.652,3.652,0,0,1,1.154-2.7,3.8,3.8,0,0,1,2.763-1.13A3.729,3.729,0,0,1,146.62,6.7a3.725,3.725,0,0,1,1.145,2.739,3.665,3.665,0,0,1-1.149,2.729,3.94,3.94,0,0,1-5.381.126A3.665,3.665,0,0,1,139.969,9.4Zm1.135.014a2.694,2.694,0,0,0,.83,2.033,2.752,2.752,0,0,0,3.889-.015,2.746,2.746,0,0,0,.806-2,2.732,2.732,0,0,0-.8-2,2.63,2.63,0,0,0-1.961-.812,2.657,2.657,0,0,0-1.966.812A2.69,2.69,0,0,0,141.1,9.414Z" fill="#ed4ff2"/>
          <path d="M154.691,6.105V7.439a3.119,3.119,0,0,0-2.019-.816,2.571,2.571,0,0,0-1.937.826,2.785,2.785,0,0,0-.792,2.009,2.717,2.717,0,0,0,.792,1.98,2.616,2.616,0,0,0,1.942.807,2.378,2.378,0,0,0,1.01-.193,2.936,2.936,0,0,0,.48-.26,5.626,5.626,0,0,0,.524-.4v1.357a4.064,4.064,0,0,1-2.029.546,3.744,3.744,0,0,1-2.729-1.116,3.7,3.7,0,0,1-1.125-2.714,3.831,3.831,0,0,1,.942-2.541,3.75,3.75,0,0,1,3-1.367A3.812,3.812,0,0,1,154.691,6.105Z" fill="#ed4ff2"/>
          <path d="M157.237,5.7v7.458h-1.126V5.7Z" fill="#ed4ff2"/>
          <path d="M163.41,11.351h-3.193l-.83,1.811h-1.212l3.691-7.926,3.559,7.926h-1.232Zm-.459-1.058-1.106-2.536-1.159,2.536Z" fill="#ed4ff2"/>
          <path d="M168,6.762v6.4h-1.125v-6.4h-1.715V5.7h4.549V6.762Z" fill="#ed4ff2"/>
          <path d="M171.839,5.7v7.458h-1.126V5.7Z" fill="#ed4ff2"/>
          <path d="M173.258,9.4a3.653,3.653,0,0,1,1.154-2.7,3.8,3.8,0,0,1,2.763-1.13,3.729,3.729,0,0,1,2.734,1.14,3.725,3.725,0,0,1,1.145,2.739,3.665,3.665,0,0,1-1.149,2.729,3.94,3.94,0,0,1-5.381.126A3.665,3.665,0,0,1,173.258,9.4Zm1.135.014a2.694,2.694,0,0,0,.83,2.033,2.752,2.752,0,0,0,3.889-.015,2.746,2.746,0,0,0,.806-2,2.732,2.732,0,0,0-.8-2,2.63,2.63,0,0,0-1.961-.812,2.657,2.657,0,0,0-1.966.812A2.69,2.69,0,0,0,174.393,9.414Z" fill="#ed4ff2"/>
          <path d="M182.469,13.162V5.2l5.439,5.69V5.7h1.125v7.911l-5.438-5.675v5.221Z" fill="#ed4ff2"/>
          <path d="M104.53,18.633h-2.6v1.792h2.507v1.058h-2.507v3.55h-1.125V17.575h3.724Z" fill="#ed4ff2"/>
          <path d="M105.472,21.27a3.653,3.653,0,0,1,1.154-2.7,3.8,3.8,0,0,1,2.763-1.13,3.9,3.9,0,0,1,3.879,3.878,3.67,3.67,0,0,1-1.149,2.729,3.942,3.942,0,0,1-5.381.126A3.665,3.665,0,0,1,105.472,21.27Zm1.135.014a2.7,2.7,0,0,0,.831,2.034,2.753,2.753,0,0,0,3.888-.014,2.894,2.894,0,0,0,.009-4,2.629,2.629,0,0,0-1.961-.812,2.656,2.656,0,0,0-1.966.812A2.689,2.689,0,0,0,106.607,21.285Z" fill="#ed4ff2"/>
          <path d="M117.21,21.854l2.309,3.178h-1.377l-2.13-3.053h-.2v3.053h-1.126V17.575H116a3.3,3.3,0,0,1,2.135.555,2.04,2.04,0,0,1,.725,1.632,2.117,2.117,0,0,1-.455,1.362A2.021,2.021,0,0,1,117.21,21.854Zm-1.4-.855h.357q1.6,0,1.6-1.222,0-1.145-1.556-1.145h-.4V21Z" fill="#ed4ff2"/>
          <path d="M126.217,21.854l2.309,3.178H127.15l-2.13-3.053h-.2v3.053h-1.126V17.575h1.318a3.3,3.3,0,0,1,2.135.555,2.04,2.04,0,0,1,.725,1.632,2.117,2.117,0,0,1-.455,1.362A2.021,2.021,0,0,1,126.217,21.854Zm-1.4-.855h.357q1.6,0,1.6-1.222,0-1.145-1.556-1.145h-.4V21Z" fill="#ed4ff2"/>
          <path d="M133.762,18.633h-2.99v1.792h2.9v1.058h-2.9v2.492h2.99v1.058h-4.115V17.575h4.115Z" fill="#ed4ff2"/>
          <path d="M135.241,25.033V17.068l5.439,5.69V17.575H141.8v7.911l-5.438-5.675v5.221Z" fill="#ed4ff2"/>
          <path d="M147.707,18.633h-2.99v1.792h2.9v1.058h-2.9v2.492h2.99v1.058h-4.115V17.575h4.115Z" fill="#ed4ff2"/>
          <path d="M149.552,17.575l1.942,4.984,2.028-5.347,1.942,5.347,2.063-4.984h1.222l-3.333,7.931L153.5,20.222l-2,5.289-3.169-7.936Z" fill="#ed4ff2"/>
          <path d="M163.424,23.222h-3.193l-.83,1.811h-1.212l3.691-7.926,3.559,7.926h-1.232Zm-.459-1.059-1.106-2.535L160.7,22.163Z" fill="#ed4ff2"/>
          <path d="M166.37,25.033V17.575h1.12a4.927,4.927,0,0,1,1.194.116,1.793,1.793,0,0,1,.758.392,2.035,2.035,0,0,1,.5.71,2.152,2.152,0,0,1,.188.87,1.762,1.762,0,0,1-.613,1.357,1.8,1.8,0,0,1,.937.71,2.1,2.1,0,0,1-.27,2.647,2.041,2.041,0,0,1-.836.517,4.874,4.874,0,0,1-1.27.14Zm1.126-4.255h.352a1.3,1.3,0,0,0,.921-.278,1.076,1.076,0,0,0,.292-.819,1.026,1.026,0,0,0-.3-.8,1.249,1.249,0,0,0-.87-.273h-.4v2.169Zm0,3.2h.7a1.725,1.725,0,0,0,1.12-.3,1.036,1.036,0,0,0,.376-.821,1.053,1.053,0,0,0-.362-.812,1.878,1.878,0,0,0-1.261-.324h-.57v2.256Z" fill="#ed4ff2"/>
          <path d="M173.346,17.575v6.4h2.192v1.058H172.22V17.575Z" fill="#ed4ff2"/>
          <path d="M180.72,18.633h-2.99v1.792h2.9v1.058h-2.9v2.492h2.99v1.058h-4.115V17.575h4.115Z" fill="#ed4ff2"/>
          <path d="M189.367,18.633h-2.99v1.792h2.9v1.058h-2.9v2.492h2.99v1.058h-4.115V17.575h4.115Z" fill="#ed4ff2"/>
          <path d="M190.845,25.033V17.068l5.439,5.69V17.575h1.125v7.911l-5.438-5.675v5.221Z" fill="#ed4ff2"/>
          <path d="M203.311,18.633h-2.99v1.792h2.9v1.058h-2.9v2.492h2.99v1.058H199.2V17.575h4.115v1.058Z" fill="#ed4ff2"/>
          <path d="M207.315,21.854l2.309,3.178h-1.377l-2.13-3.053h-.2v3.053h-1.126V17.575h1.318a3.3,3.3,0,0,1,2.135.555,2.04,2.04,0,0,1,.725,1.632,2.117,2.117,0,0,1-.455,1.362A2.021,2.021,0,0,1,207.315,21.854Zm-1.4-.855h.357q1.6,0,1.6-1.222,0-1.145-1.556-1.145h-.4Z" fill="#ed4ff2"/>
          <path d="M214.411,21.149h3.082V21.4a5.092,5.092,0,0,1-.2,1.488A3.171,3.171,0,0,1,216.643,24,3.378,3.378,0,0,1,214,25.172a3.632,3.632,0,0,1-2.681-1.13,3.893,3.893,0,0,1,4.415-6.255,4.724,4.724,0,0,1,1.425,1.159l-.8.768a2.721,2.721,0,0,0-2.236-1.222,2.672,2.672,0,0,0-1.985.816,2.725,2.725,0,0,0-.8,2.009,2.8,2.8,0,0,0,2.7,2.8,2.25,2.25,0,0,0,1.493-.56,2,2,0,0,0,.739-1.352h-1.86V21.149Z" fill="#ed4ff2"/>
          <path d="M220.168,21.811l-2.434-4.236h1.295l1.705,2.98,1.71-2.98h1.295l-2.444,4.236v3.222h-1.126V21.811Z" fill="#ed4ff2"/>
          <path d="M103.738,32.754l1.343,1.623.043-.048q.217-.237.41-.464t.372-.459l.734.754c-.09.129-.208.278-.355.449s-.321.367-.524.589l1.382,1.705h-1.4L105,35.991a2.98,2.98,0,0,1-2.13,1.058,2.4,2.4,0,0,1-1.681-.633,2.076,2.076,0,0,1-.676-1.575,2.19,2.19,0,0,1,1.073-1.854l.488-.333a.287.287,0,0,0,.034-.025l.067-.053a2.309,2.309,0,0,1-.739-1.55,1.624,1.624,0,0,1,.493-1.227,2,2,0,0,1,2.565-.015,1.5,1.5,0,0,1,.5,1.16,1.482,1.482,0,0,1-.275.874A4.71,4.71,0,0,1,103.738,32.754Zm-.894.633-.063.043a5.4,5.4,0,0,0-.942.768.932.932,0,0,0-.246.613,1.273,1.273,0,0,0,1.222,1.222,2.333,2.333,0,0,0,1.5-.855Zm.242-1.425.092-.068c.158-.119.288-.223.392-.312a1.488,1.488,0,0,0,.222-.224.676.676,0,0,0,.145-.44.623.623,0,0,0-.2-.478.75.75,0,0,0-.531-.183.733.733,0,0,0-.512.188.579.579,0,0,0-.208.459,1.022,1.022,0,0,0,.261.647l.28.338A.522.522,0,0,0,103.086,31.962Z" fill="#ed4ff2"/>
          <path d="M116.6,29.847v1.333a3.122,3.122,0,0,0-2.019-.816,2.573,2.573,0,0,0-1.937.826,2.787,2.787,0,0,0-.791,2.009,2.722,2.722,0,0,0,.791,1.981,2.619,2.619,0,0,0,1.942.806,2.392,2.392,0,0,0,1.01-.193,2.98,2.98,0,0,0,.48-.261,5.628,5.628,0,0,0,.524-.4v1.357a4.064,4.064,0,0,1-2.029.546,3.747,3.747,0,0,1-2.73-1.116,3.7,3.7,0,0,1-1.124-2.715,3.834,3.834,0,0,1,.941-2.54,3.753,3.753,0,0,1,3-1.367A3.813,3.813,0,0,1,116.6,29.847Z" fill="#ed4ff2"/>
          <path d="M119.147,29.445v6.4h2.192V36.9h-3.318V29.445Z" fill="#ed4ff2"/>
          <path d="M126.521,30.5h-2.99V32.3h2.9v1.058h-2.9v2.492h2.99V36.9h-4.115V29.445h4.115Z" fill="#ed4ff2"/>
          <path d="M132.381,35.092h-3.193l-.83,1.811h-1.213l3.69-7.927L134.4,36.9h-1.232Zm-.46-1.058L130.816,31.5l-1.159,2.536Z" fill="#ed4ff2"/>
          <path d="M135.327,36.9V28.938l5.439,5.69V29.445h1.125v7.911l-5.438-5.675V36.9Z" fill="#ed4ff2"/>
          <path d="M148.788,30.5v6.4h-1.125V30.5h-1.715V29.445H150.5V30.5Z" fill="#ed4ff2"/>
          <path d="M155.618,30.5h-2.99V32.3h2.9v1.058h-2.9v2.492h2.99V36.9H151.5V29.445h4.115Z" fill="#ed4ff2"/>
          <path d="M162.607,29.847v1.333a3.122,3.122,0,0,0-2.019-.816,2.571,2.571,0,0,0-1.937.826,2.784,2.784,0,0,0-.792,2.009,2.719,2.719,0,0,0,.792,1.981,2.617,2.617,0,0,0,1.942.806,2.384,2.384,0,0,0,1.01-.193,2.951,2.951,0,0,0,.48-.261,5.629,5.629,0,0,0,.524-.4v1.357a4.064,4.064,0,0,1-2.029.546,3.744,3.744,0,0,1-2.729-1.116,3.7,3.7,0,0,1-1.125-2.715,3.831,3.831,0,0,1,.942-2.54,3.751,3.751,0,0,1,3-1.367A3.808,3.808,0,0,1,162.607,29.847Z" fill="#ed4ff2"/>
          <path d="M165.361,32.363h3.217V29.446H169.7V36.9h-1.125V33.42h-3.217V36.9h-1.126V29.446h1.126Z" fill="#ed4ff2"/>
          <path d="M171.49,36.9V28.938l5.439,5.69V29.445h1.125v7.911l-5.438-5.675V36.9Z" fill="#ed4ff2"/>
          <path d="M179.537,33.141a3.653,3.653,0,0,1,1.154-2.705,3.8,3.8,0,0,1,2.763-1.13,3.9,3.9,0,0,1,3.878,3.879,3.667,3.667,0,0,1-1.149,2.729,3.942,3.942,0,0,1-5.381.125A3.664,3.664,0,0,1,179.537,33.141Zm1.135.014a2.694,2.694,0,0,0,.83,2.034,2.754,2.754,0,0,0,3.889-.014,2.9,2.9,0,0,0,.009-4,2.632,2.632,0,0,0-1.961-.812,2.659,2.659,0,0,0-1.966.812A2.691,2.691,0,0,0,180.672,33.155Z" fill="#ed4ff2"/>
          <path d="M189.874,29.445v6.4h2.192V36.9h-3.318V29.445Z" fill="#ed4ff2"/>
          <path d="M192.458,33.141a3.654,3.654,0,0,1,1.154-2.705,3.8,3.8,0,0,1,2.763-1.13,3.9,3.9,0,0,1,3.878,3.879,3.667,3.667,0,0,1-1.149,2.729,3.942,3.942,0,0,1-5.381.125A3.664,3.664,0,0,1,192.458,33.141Zm1.135.014a2.694,2.694,0,0,0,.83,2.034,2.754,2.754,0,0,0,3.889-.014,2.9,2.9,0,0,0,.009-4,2.632,2.632,0,0,0-1.961-.812,2.659,2.659,0,0,0-1.966.812A2.691,2.691,0,0,0,193.593,33.155Z" fill="#ed4ff2"/>
          <path d="M205.5,33.02h3.082v.246a5.094,5.094,0,0,1-.2,1.487,3.17,3.17,0,0,1-.652,1.121,3.378,3.378,0,0,1-2.642,1.168,3.632,3.632,0,0,1-2.681-1.13,3.893,3.893,0,0,1,4.415-6.255,4.714,4.714,0,0,1,1.425,1.16l-.8.767a2.721,2.721,0,0,0-2.236-1.222,2.673,2.673,0,0,0-1.985.816,2.728,2.728,0,0,0-.8,2.01,2.8,2.8,0,0,0,2.7,2.8,2.25,2.25,0,0,0,1.493-.561,2,2,0,0,0,.739-1.352H205.5V33.02Z" fill="#ed4ff2"/>
          <path d="M211.261,33.682l-2.434-4.236h1.295l1.705,2.98,1.71-2.98h1.295l-2.444,4.236V36.9h-1.126V33.682Z" fill="#ed4ff2"/>
        </g>
      </g>
      <path d="M12.1-13.329v2.518a5.9,5.9,0,0,0-3.814-1.542,4.856,4.856,0,0,0-3.658,1.56A5.26,5.26,0,0,0,3.129-7a5.133,5.133,0,0,0,1.5,3.741A4.942,4.942,0,0,0,8.293-1.733,4.5,4.5,0,0,0,10.2-2.1a5.5,5.5,0,0,0,.908-.493,10.729,10.729,0,0,0,.99-.748V-.775A7.678,7.678,0,0,1,8.266.255,7.07,7.07,0,0,1,3.111-1.852,6.987,6.987,0,0,1,.985-6.979a7.233,7.233,0,0,1,1.779-4.8A7.083,7.083,0,0,1,8.43-14.36,7.192,7.192,0,0,1,12.1-13.329Zm1.889,6.222a6.9,6.9,0,0,1,2.18-5.109,7.177,7.177,0,0,1,5.219-2.135A7.043,7.043,0,0,1,26.549-12.2a7.039,7.039,0,0,1,2.162,5.173A6.927,6.927,0,0,1,26.54-1.87,7.267,7.267,0,0,1,21.276.255a7.268,7.268,0,0,1-4.9-1.889A6.922,6.922,0,0,1,13.986-7.107Zm2.144.027A5.091,5.091,0,0,0,17.7-3.239a5.037,5.037,0,0,0,3.6,1.505,5.07,5.07,0,0,0,3.741-1.533,5.188,5.188,0,0,0,1.524-3.777,5.162,5.162,0,0,0-1.505-3.777,4.97,4.97,0,0,0-3.7-1.533,5.018,5.018,0,0,0-3.713,1.533A5.082,5.082,0,0,0,16.13-7.08ZM30.892,0l2.965-15.145L38.692-4.2,43.7-15.145,46.365,0h-2.18L42.825-8.5,38.656.648l-4.051-9.16L33.091,0ZM51.474-5.72V0H49.348V-14.087h2.409a10.864,10.864,0,0,1,2.673.246,3.585,3.585,0,0,1,1.606.931,4.009,4.009,0,0,1,1.213,2.992,3.862,3.862,0,0,1-1.3,3.065A5.126,5.126,0,0,1,52.459-5.72Zm0-1.971h.794q2.929,0,2.929-2.253,0-2.18-3.02-2.18h-.7Zm15.209,4.27H60.652L59.083,0h-2.29l6.97-14.971L70.487,0H68.161Zm-.867-2-2.089-4.79-2.19,4.79ZM72.248,0V-15.044L82.521-4.3v-9.789h2.126V.858L74.374-9.862V0ZM90.869-6.085l-4.6-8h2.445l3.221,5.629,3.23-5.629h2.445l-4.616,8V0H90.869ZM104.3-7.107a6.9,6.9,0,0,1,2.18-5.109,7.177,7.177,0,0,1,5.219-2.135,7.043,7.043,0,0,1,5.164,2.153,7.039,7.039,0,0,1,2.162,5.173,6.927,6.927,0,0,1-2.171,5.155A7.267,7.267,0,0,1,111.588.255a7.268,7.268,0,0,1-4.9-1.889A6.922,6.922,0,0,1,104.3-7.107Zm2.144.027a5.091,5.091,0,0,0,1.569,3.841,5.037,5.037,0,0,0,3.6,1.505,5.07,5.07,0,0,0,3.741-1.533,5.188,5.188,0,0,0,1.524-3.777,5.162,5.162,0,0,0-1.505-3.777,4.97,4.97,0,0,0-3.7-1.533,5.018,5.018,0,0,0-3.713,1.533A5.082,5.082,0,0,0,106.443-7.08Zm22.288-5.009h-4.908V-8.7h4.735v2h-4.735V0H121.7V-14.087h7.034Zm12.116,0V0h-2.126V-12.088h-3.239v-2h8.594v2ZM148.1-8.576h6.076v-5.511H156.3V0h-2.126V-6.578H148.1V0h-2.126V-14.087H148.1Zm19.351-3.513H161.8V-8.7h5.483v2H161.8V-2h5.647V0h-7.773V-14.087h7.773Zm11.4,6-4.6-8H176.7l3.221,5.629,3.23-5.629H185.6l-4.616,8V0h-2.126Zm16.139-6h-5.647V-8.7h5.483v2h-5.483V-2h5.647V0h-7.773V-14.087h7.773Zm11.067,8.667H200.03L198.461,0h-2.29l6.97-14.971L209.865,0h-2.326Zm-.867-2-2.089-4.79-2.19,4.79ZM216.4-6l4.361,6h-2.6l-4.023-5.766h-.383V0h-2.126V-14.087h2.491a6.222,6.222,0,0,1,4.033,1.049,3.855,3.855,0,0,1,1.369,3.084,4,4,0,0,1-.858,2.573A3.823,3.823,0,0,1,216.4-6Zm-2.646-1.615h.675q3.02,0,3.02-2.308,0-2.162-2.938-2.162h-.757ZM3.83,11.662l2.429,9.1,2.99-9.1h2.915l2.99,9.1,2.429-9.1h3.83l-4.2,14.088H13.472l-2.765-8.165L7.941,25.75H4.2L0,11.662Zm22.721,0V25.75H22.889V11.662ZM29.5,25.75V11.662h3.662l6.764,8.614V11.662h3.644V25.75H39.929l-6.764-8.614V25.75Zm17.022,0V11.662h3.662l6.764,8.614V11.662h3.644V25.75H56.951l-6.764-8.614V25.75ZM71.562,14.763H67.209v2.354h4.111v3.1H67.209v2.429h4.354v3.1H63.547V11.662h8.016Zm6.3,3.2h.691a2.67,2.67,0,0,0,1.663-.448,1.533,1.533,0,0,0,.579-1.289,1.533,1.533,0,0,0-.579-1.289,2.67,2.67,0,0,0-1.663-.448h-.691Zm8.053,7.792H81.353l-3.494-5.419V25.75H74.2V11.662h5.7a5.593,5.593,0,0,1,2.055.346,3.87,3.87,0,0,1,2.308,2.326,4.819,4.819,0,0,1,.29,1.682,4.133,4.133,0,0,1-.775,2.607,3.905,3.905,0,0,1-2.289,1.355Z" transform="translate(4.832 65.705)" fill="#fff"/>
    </g>
  </g>
</svg>
