<svg version="1.1" xmlns="http://www.w3.org/2000/svg" xmlns:xlink="http://www.w3.org/1999/xlink" x="0px" y="0px"
	 viewBox="0 0 254.7327 116.9729" style="enable-background:new 0 0 254.7327 116.9729;" xml:space="preserve" aria-labelledby="title-uswitch-award" role="img">
<style type="text/css">
	.uswitch-award-0{fill:#FFFFFF; opacity: 0.6;}
	.uswitch-award-1{fill:#FFFFFF; opacity: 0.4;}
	.uswitch-award-2{fill:#FFFFFF;}
</style>
<title id="title-uswitch-award">Octopus Energy is Uswitch's supplier of the year</title>
<g>
	<rect x="18.7603" y="17.7938" transform="matrix(-0.5 -0.866 0.866 -0.5 38.5286 139.2174)" class="uswitch-award-1" width="81.3852" height="81.3852"/>
	<rect x="18.7603" y="17.7938" transform="matrix(-0.5 0.866 -0.866 -0.5 139.8301 36.242)" class="uswitch-award-0" width="81.3852" height="81.3852"/>
	<rect x="18.7603" y="17.7939" class="uswitch-award-2" width="81.3853" height="81.3852"/>
	<g>
		<g>
			<path d="M35.7276,64.1393V29.75h10.4562v34.4667c0,8.6748,4.7247,12.7798,12.6249,12.7798s12.6248-4.105,12.6248-12.7798V29.75
				h10.4562v34.3892c0,14.3289-8.9071,21.9193-23.081,21.9193C44.9445,86.0586,35.7276,78.4682,35.7276,64.1393z"/>
		</g>
	</g>
	<g>
		<path class="uswitch-award-2" d="M129.0587,27.0757V17.794h2.8221v9.3026c0,2.3413,1.2752,3.4493,3.4075,3.4493s3.4075-1.1079,3.4075-3.4493
			V17.794h2.8222v9.2816c0,3.8674-2.4041,5.916-6.2296,5.916C131.5464,32.9917,129.0587,30.943,129.0587,27.0757z"/>
		<path class="uswitch-award-2" d="M142.897,29.2497h2.5713c0.1463,1.3588,0.8362,1.8396,2.404,1.8396c1.526,0,2.1323-0.4808,2.1323-1.2961
			c0-0.7735-0.4808-1.1498-2.1113-1.4215l-1.2334-0.209c-2.3204-0.3972-3.5329-1.4215-3.5329-3.2611
			c0-2.0277,1.5888-3.2611,4.4735-3.2611c3.3239,0,4.6827,1.4424,4.7663,3.6583h-2.4876c-0.0627-1.3797-0.9198-1.7769-2.2786-1.7769
			c-1.2751,0-1.8814,0.4808-1.8814,1.2543c0,0.7944,0.6272,1.1079,1.7979,1.317l1.3588,0.2091
			c2.5921,0.4599,3.7419,1.4215,3.7419,3.282c0,2.1741-1.7769,3.3866-4.7871,3.3866
			C144.7575,32.9708,143.0642,31.8628,142.897,29.2497z"/>
		<path class="uswitch-award-2" d="M169.9055,21.8913l-3.5537,10.7868h-2.7594l-1.3587-4.4318c-0.3136-1.0661-0.6272-2.1532-0.9199-3.2193
			c-0.2926,1.0661-0.5853,2.1532-0.8988,3.2193l-1.3379,4.4318h-2.7594l-3.5538-10.7868h2.8222l1.2125,4.0346
			c0.3763,1.2334,0.7317,2.5086,1.0661,3.7419c0.3136-1.2543,0.6481-2.5086,1.0243-3.7628l1.1916-4.0137h2.5086l1.1915,4.0137
			c0.3763,1.2543,0.7107,2.5086,1.0243,3.7628c0.3345-1.2334,0.6899-2.5086,1.0662-3.7419l1.2125-4.0346H169.9055z"/>
		<path class="uswitch-award-2" d="M170.9294,21.8913h2.634v10.7868h-2.634V21.8913z M170.9503,18.024h2.5922v2.4667h-2.5922V18.024z"/>
		<path class="uswitch-award-2" d="M179.1866,23.8982v5.8324c0,0.7108,0.3554,0.9407,1.2333,0.9407h0.899v2.0068
			c-0.4808,0.0418-0.9616,0.0836-1.3798,0.0836c-2.2785,0-3.3656-0.7735-3.3656-2.7594v-6.1041h-1.6724v-2.0068h1.6724v-3.1357
			h2.6131v3.1357h2.1323v2.0068H179.1866z"/>
		<path class="uswitch-award-2" d="M182.1756,27.2847c0-3.4493,2.1114-5.6443,5.3307-5.6443c2.8221,0,4.7036,1.6097,5.0171,4.1391h-2.6339
			c-0.2509-1.3379-1.2125-1.9441-2.3831-1.9441c-1.5679,0-2.634,1.087-2.634,3.4493c0,2.3622,1.108,3.4493,2.634,3.4493
			c1.1915,0,2.2158-0.648,2.4249-2.0696h2.634c-0.2927,2.634-2.2996,4.2645-5.0589,4.2645
			C184.3079,32.929,182.1756,30.734,182.1756,27.2847z"/>
		<path class="uswitch-award-2" d="M203.7072,25.5287v7.1494h-2.634v-6.7104c0-1.3797-0.6899-2.0487-2.0278-2.0487
			c-1.1497,0-2.404,0.7944-2.404,2.7176v6.0414h-2.634V17.794h2.634v5.5397c0.7107-0.9825,1.8187-1.6933,3.282-1.6933
			C202.181,21.6405,203.7072,22.9575,203.7072,25.5287z"/>
		<path class="uswitch-award-2" d="M128.6824,49.9368h1.8187c0.0418,2.7594,1.9441,3.6583,4.369,3.6583c2.3831,0,3.7628-0.9407,3.7628-2.7803
			c0-1.4215-0.9825-2.1114-3.6165-2.6967l-1.317-0.2927c-2.5295-0.5644-4.5154-1.5887-4.5154-4.3064
			c0-2.3831,1.9859-3.8883,5.0798-3.8883c4.39,0,5.7488,2.2368,5.8115,4.6617h-1.7979c-0.1464-1.9232-1.0452-3.073-4.0137-3.073
			c-2.1531,0-3.2611,0.8989-3.2611,2.2995c0,1.4215,0.6898,2.1323,3.491,2.7594l1.3171,0.2927
			c3.4283,0.7526,4.6407,2.0905,4.6407,4.2436c0,2.634-2.0068,4.3691-5.5815,4.3691
			C131.3165,55.1839,128.7242,53.6578,128.6824,49.9368z"/>
		<path class="uswitch-award-2" d="M151.0082,44.0626v10.7868h-1.5888v-1.6097c-0.7107,1.087-1.8814,1.8605-3.3865,1.8605
			c-2.4041,0-3.8047-1.3588-3.8047-3.7419v-7.2957h1.6724v7.1285c0,1.6724,0.9198,2.404,2.4667,2.404
			c1.4006,0,2.9684-1.0452,2.9684-3.4284v-6.1041H151.0082z"/>
		<path class="uswitch-award-2" d="M163.8223,49.456c0,3.4493-1.9859,5.6442-5.0171,5.6442c-1.5679,0-2.8012-0.648-3.6165-1.7978v5.6443h-1.6723
			V44.0626h1.5888v1.6724c0.8152-1.2334,2.0904-1.9232,3.7001-1.9232C161.8364,43.8118,163.8223,46.0068,163.8223,49.456z
			 M162.0663,49.3724c0-2.6131-1.3797-4.0555-3.4702-4.0555s-3.4702,1.526-3.4702,4.1391c0,2.6131,1.3797,4.1391,3.4702,4.1391
			S162.0663,51.9855,162.0663,49.3724z"/>
		<path class="uswitch-award-2" d="M176.114,49.456c0,3.4493-1.986,5.6442-5.0172,5.6442c-1.5678,0-2.8012-0.648-3.6165-1.7978v5.6443h-1.6723
			V44.0626h1.5888v1.6724c0.8152-1.2334,2.0905-1.9232,3.7001-1.9232C174.128,43.8118,176.114,46.0068,176.114,49.456z
			 M174.358,49.3724c0-2.6131-1.3798-4.0555-3.4703-4.0555c-2.0904,0-3.4701,1.526-3.4701,4.1391
			c0,2.6131,1.3797,4.1391,3.4701,4.1391C172.9782,53.5951,174.358,51.9855,174.358,49.3724z"/>
		<path class="uswitch-award-2" d="M178.0995,39.9653h1.6724v14.8841h-1.6724V39.9653z"/>
		<path class="uswitch-award-2" d="M182.2177,40.3834h1.7768v2.0487h-1.7768V40.3834z M182.2803,44.0626h1.6724v10.7868h-1.6724V44.0626z"/>
		<path class="uswitch-award-2" d="M195.8681,50.0413h-8.1946c0.1672,2.4249,1.4424,3.5329,3.3238,3.5329c1.526,0,2.4876-0.7944,2.8639-2.0068
			h1.7351c-0.5227,2.0278-2.0696,3.5329-4.6409,3.5329c-2.9476,0-5.0172-2.1532-5.0172-5.6442c0-3.3866,1.986-5.6443,4.9754-5.6443
			c3.2193,0,4.9543,2.5504,4.9543,5.6443V50.0413z M187.7153,48.5362h6.355c-0.1672-1.7769-1.2334-3.1984-3.1566-3.1984
			C189.2204,45.3378,187.9872,46.4039,187.7153,48.5362z"/>
		<path class="uswitch-award-2" d="M203.4772,43.9163v1.6096h-0.4181c-2.1531,0-3.5329,1.0871-3.5329,3.1775v6.146h-1.6723V44.0626h1.5888
			v1.9023c0.6062-1.1289,1.7141-2.0696,3.4701-2.0696C203.08,43.8954,203.2472,43.8954,203.4772,43.9163z"/>
		<path class="uswitch-award-2" d="M128.7869,71.6273c0-3.4493,2.195-5.6442,5.2262-5.6442c3.0311,0,5.2262,2.195,5.2262,5.6442
			c0,3.4493-2.195,5.6442-5.2262,5.6442C130.9819,77.2716,128.7869,75.0766,128.7869,71.6273z M137.4833,71.6273
			c0-2.6131-1.3797-4.1391-3.4702-4.1391c-2.0904,0-3.4702,1.526-3.4702,4.1391c0,2.6131,1.3798,4.1391,3.4702,4.1391
			C136.1036,75.7664,137.4833,74.2404,137.4833,71.6273z"/>
		<path class="uswitch-award-2" d="M143.3154,65.0842v1.1497h2.2996v1.4633h-2.2996v9.3235h-1.6723v-9.3235h-1.7769v-1.4633h1.7769V65.126
			c0-1.9023,0.8779-3.0312,3.0102-3.0312c0.3136,0,0.8153,0.0209,1.0662,0.0418v1.4215h-0.9616
			C143.7963,63.5581,143.3154,64.1017,143.3154,65.0842z"/>
		<path class="uswitch-award-2" d="M153.9762,67.6972v7.0031c0,0.5644,0.2718,0.9198,1.2334,0.9198h0.9825v1.4006
			c-0.4599,0.0418-0.8571,0.0627-1.1916,0.0627c-1.6723,0-2.6967-0.5853-2.6967-2.2368v-7.1494h-1.7768v-1.4633h1.7768v-3.0521
			h1.6724v3.0521h2.2159v1.4633H153.9762z"/>
		<path class="uswitch-award-2" d="M166.7485,69.725v7.2957h-1.6723v-7.1285c0-1.6724-0.9198-2.404-2.4668-2.404
			c-1.4006,0-2.9684,1.0452-2.9684,3.4283v6.1042h-1.6723V62.1366h1.6723v5.5815c0.7107-1.0034,1.8396-1.7351,3.303-1.7351
			C165.3479,65.9831,166.7485,67.3419,166.7485,69.725z"/>
		<path class="uswitch-award-2" d="M178.6638,72.2126h-8.1946c0.1672,2.425,1.4424,3.5329,3.3238,3.5329c1.526,0,2.4876-0.7944,2.8639-2.0068
			h1.7351c-0.5227,2.0278-2.0696,3.5329-4.6409,3.5329c-2.9476,0-5.0172-2.1532-5.0172-5.6442c0-3.3866,1.986-5.6442,4.9754-5.6442
			c3.2193,0,4.9543,2.5504,4.9543,5.6442V72.2126z M170.5109,70.7075h6.3551c-0.1672-1.7769-1.2334-3.1984-3.1566-3.1984
			C172.0161,67.5091,170.7827,68.5752,170.5109,70.7075z"/>
		<path class="uswitch-award-2" d="M196.8083,62.1366l-5.686,8.9054v5.9787h-1.7561V71.042l-5.686-8.9054h2.0069l2.195,3.4911
			c0.8153,1.2752,1.6096,2.5504,2.3831,3.8465c0.7734-1.2961,1.5678-2.5922,2.383-3.8673l2.1741-3.4702H196.8083z"/>
		<path class="uswitch-award-2" d="M204.6473,72.2126h-8.1947c0.1673,2.425,1.4425,3.5329,3.3239,3.5329c1.526,0,2.4876-0.7944,2.864-2.0068
			h1.735c-0.5226,2.0278-2.0696,3.5329-4.6409,3.5329c-2.9475,0-5.0171-2.1532-5.0171-5.6442c0-3.3866,1.9859-5.6442,4.9753-5.6442
			c3.2193,0,4.9544,2.5504,4.9544,5.6442V72.2126z M196.4945,70.7075h6.3549c-0.1672-1.7769-1.2333-3.1984-3.1566-3.1984
			C197.9996,67.5091,196.7662,68.5752,196.4945,70.7075z"/>
		<path class="uswitch-award-2" d="M215.9566,75.6619v1.3588c-0.2717,0.0418-0.6062,0.0627-0.9198,0.0627c-1.1915,0-1.735-0.5226-1.8187-1.5469
			c-0.7526,1.1497-1.9651,1.7351-3.5119,1.7351c-2.3414,0-3.8047-1.1288-3.8047-3.1566c0-1.6933,1.0244-3.0312,3.9928-3.3447
			l1.5469-0.1672c1.0871-0.1254,1.6933-0.5226,1.6933-1.4842c0-1.1289-0.5854-1.6933-2.4249-1.6933
			c-1.8396,0-2.6132,0.5226-2.7177,2.1323h-1.6723c0.1254-2.0905,1.2333-3.5747,4.39-3.5747c2.9893,0,4.0555,1.317,4.0555,3.1357
			v6.0205c0,0.3345,0.1881,0.5226,0.5853,0.5226H215.9566z M213.1345,72.7562V71.481c-0.3345,0.2509-0.7945,0.3972-1.4215,0.4599
			l-1.5678,0.1881c-1.9651,0.23-2.5086,0.8989-2.5086,1.9441c0,1.0661,0.6689,1.7769,2.1531,1.7769
			C211.3994,75.8501,213.1345,74.8884,213.1345,72.7562z"/>
		<path class="uswitch-award-2" d="M223.0429,66.0876v1.6097h-0.4181c-2.1531,0-3.5329,1.0871-3.5329,3.1775v6.146h-1.6723V66.2339h1.5888
			v1.9023c0.6062-1.1288,1.7141-2.0695,3.4701-2.0695C222.6458,66.0667,222.813,66.0667,223.0429,66.0876z"/>
		<path class="uswitch-award-2" d="M148.3746,84.3079l-4.1182,14.8841h-3.1775l-1.5888-6.1878c-0.4181-1.7142-0.8571-3.512-1.2125-5.268
			c-0.3554,1.756-0.7734,3.5538-1.2124,5.268l-1.5888,6.1878h-3.1566l-4.1391-14.8841h2.9476l1.5469,5.9996
			c0.46,1.8396,0.9616,3.7837,1.3588,5.6652c0.3971-1.8814,0.8362-3.8256,1.2752-5.6861l1.526-5.9787h2.9057l1.526,5.9787
			c0.46,1.8605,0.8779,3.8255,1.2542,5.7069c0.4182-1.8814,0.899-3.8464,1.3588-5.6861l1.5678-5.9996H148.3746z"/>
		<path class="uswitch-award-2" d="M149.2314,88.4052h2.634V99.192h-2.634V88.4052z M149.2522,84.5379h2.5922v2.4668h-2.5922V84.5379z"/>
		<path class="uswitch-award-2" d="M163.6972,92.0426v7.1494h-2.634v-6.7104c0-1.3797-0.6898-2.0486-2.0277-2.0486
			c-1.1498,0-2.4041,0.7944-2.4041,2.7176v6.0414h-2.634V88.4052h2.5504v1.547c0.6899-1.0243,1.8396-1.7978,3.3657-1.7978
			C162.1711,88.1544,163.6972,89.4714,163.6972,92.0426z"/>
		<path class="uswitch-award-2" d="M175.5288,92.0426v7.1494h-2.6339v-6.7104c0-1.3797-0.6899-2.0486-2.0278-2.0486
			c-1.1497,0-2.404,0.7944-2.404,2.7176v6.0414h-2.634V88.4052h2.5504v1.547c0.6899-1.0243,1.8396-1.7978,3.3657-1.7978
			C174.0028,88.1544,175.5288,89.4714,175.5288,92.0426z"/>
		<path class="uswitch-award-2" d="M187.8412,94.6139h-8.0692c0.1882,1.9232,1.2752,2.7803,2.8012,2.7803c1.2542,0,2.0696-0.5853,2.4667-1.5469
			h2.5294c-0.5434,2.195-2.4249,3.5956-5.0171,3.5956c-3.1775,0-5.3724-2.195-5.3724-5.6442c0-3.3866,2.1322-5.6442,5.3306-5.6442
			c3.303,0,5.3306,2.404,5.3306,5.8324V94.6139z M179.7929,92.7743h5.4144c-0.2091-1.526-1.1498-2.5713-2.7177-2.5713
			C181.0891,90.203,180.0438,90.9974,179.7929,92.7743z"/>
		<path class="uswitch-award-2" d="M195.9518,88.2798v2.4249h-0.6689c-1.9441,0-3.1148,0.9616-3.1148,3.0103v5.477h-2.634V88.4052h2.5504v1.9232
			c0.5227-1.2125,1.5469-2.0904,3.2193-2.0904C195.5337,88.238,195.7219,88.238,195.9518,88.2798z"/>
	</g>
</g>
</svg>
